<svg width="64" height="23" viewBox="0 0 64 23" fill="none" xmlns="http://www.w3.org/2000/svg">
<g clip-path="url(#clip0_506_24)">
<path d="M36.6392 10.9572C36.248 11.0776 35.1088 12.032 35.006 12.4738C34.8965 12.9445 35.0643 13.3487 35.356 13.232C38.6312 12.0926 40.4889 11.7155 43.5219 11.4822C44.513 11.406 44.78 12.3398 44.0469 12.9988C40.8777 15.8472 35.5412 18.096 33.9561 19.9981C33.6645 20.3481 34.5977 21.1647 35.2393 21.1647C41.8304 21.1647 46.38 20.6981 47.9549 19.8815C48.2331 19.7373 48.2216 19.3948 47.9549 19.4149C39.439 20.0565 36.3113 19.2982 37.1058 18.7733C40.3722 16.6151 47.358 14.0486 47.1383 12.4738C47.0007 11.4875 45.7327 11.0504 45.1551 10.9572C43.347 10.6656 38.1557 10.4906 36.6392 10.9572Z" fill="white"/>
<path d="M32.4397 7.7495C32.4053 8.04168 30.7481 7.28284 30.6898 7.16621C30.6353 7.05722 30.2815 4.13314 30.6898 4.07484C31.1924 4.00307 32.3813 4.59974 32.3813 4.59974C32.5563 4.7164 32.5563 6.75789 32.4397 7.7495Z" fill="white"/>
<path d="M8.29166 5.24103C10.6248 3.31619 16.2243 1.50802 21.6488 4.1328C22.4654 2.38295 19.549 0.866362 16.516 0.924726C13.9473 0.974154 11.2646 2.08537 8.40833 3.89948C4.09204 6.64088 0.125714 11.6571 0.00904924 14.7485C-0.107615 17.84 0.942308 19.0065 0.942308 19.0065C0.942308 19.0065 2.86714 22.1082 11.0331 21.2813C15.641 20.8147 19.1862 19.7911 23.8653 17.6066C24.3229 17.393 24.1011 16.6453 23.8653 16.7317C17.9742 18.8898 14.9411 19.688 10.5665 19.7064C5.78355 19.7266 2.34218 18.1316 2.92546 14.3402C3.52392 10.4502 5.95853 7.16586 8.29166 5.24103Z" fill="white"/>
<path d="M4.90865 11.8907C4.55868 11.8621 4.67525 11.0787 4.90865 11.0741C11.3831 10.9462 19.1408 9.90747 19.3157 9.90747C19.4907 9.90747 19.4705 10.7141 19.3157 11.1907C19.1051 11.8393 18.5575 12.1823 17.9159 12.1823C17.2743 12.1823 10.0337 12.3089 4.90865 11.8907Z" fill="white"/>
<path d="M25.3825 20.2645L25.3819 20.3482C25.3784 20.8732 27.3068 21.4564 27.3068 21.0481C27.2484 13.0571 27.5984 6.87434 27.5401 1.04153C27.5366 0.691554 24.9347 -0.416693 25.032 0.166606C25.4971 2.95749 25.4406 11.4863 25.3825 20.2645Z" fill="white"/>
<path d="M32.6729 11.3656C32.6729 11.0157 30.8064 10.4324 30.1064 10.4324C29.8731 10.4324 30.3397 11.3073 30.4564 12.1822C30.573 13.6988 30.573 17.1261 30.573 20.4065V20.4065C30.573 20.8815 30.9283 21.1065 31.3313 21.1065C31.9146 21.1065 32.4396 21.1648 32.4396 20.9898L32.6729 11.3656Z" fill="white"/>
<path fill-rule="evenodd" clip-rule="evenodd" d="M60.2615 12.1323C60.8448 12.1323 61.8363 11.549 61.8363 11.549C62.397 19.3517 63.2945 19.8188 63.7494 20.0556C63.8624 20.1144 63.9481 20.159 63.9945 20.2982C64.0702 20.5253 63.3563 20.8584 62.6511 21.1874C62.4505 21.2811 62.2505 21.3744 62.0696 21.4648C61.4784 21.7605 61.1446 20.1028 60.9053 18.914C60.7668 18.2264 60.66 17.6956 60.5531 17.7901C57.52 20.4733 54.9536 21.0306 52.2705 20.8815C49.5874 20.7325 48.7866 19.4176 48.8874 17.9651C49.1791 13.7655 54.6036 10.6157 56.9951 10.6157C58.8711 10.6157 59.436 11.326 59.7927 11.7743C59.9572 11.9812 60.0773 12.1323 60.2615 12.1323ZM51.5705 15.7486C52.3871 11.6073 58.682 11.3024 59.5032 12.4823C60.0774 13.3073 60.5764 16.0403 60.2615 16.7402C59.7365 17.9068 55.2324 20.2933 53.4371 19.8316C51.3956 19.3067 51.2514 17.3672 51.5705 15.7486Z" fill="white"/>
</g>
<defs>
<clipPath id="clip0_506_24">
<rect width="64" height="23" fill="white"/>
</clipPath>
</defs>
</svg>
