<svg width="101" height="40" viewBox="0 0 101 40" fill="none" xmlns="http://www.w3.org/2000/svg">
<path d="M57.3863 20.2647C56.8057 20.4434 55.1147 21.8601 54.9621 22.5159C54.7995 23.2146 55.0487 23.8146 55.4816 23.6414C60.3432 21.95 63.1007 21.3903 67.6029 21.044C69.074 20.9309 69.4704 22.317 68.3822 23.2951C63.6779 27.5233 55.7565 30.8613 53.4036 33.6848C52.9707 34.2043 54.356 35.4164 55.3084 35.4164C65.0921 35.4164 71.8454 34.7238 74.1831 33.5117C74.596 33.2976 74.579 32.7892 74.1831 32.819C61.5422 33.7714 56.8997 32.6458 58.079 31.8666C62.9275 28.6631 73.2971 24.8535 72.9709 22.5159C72.7667 21.0519 70.8846 20.403 70.0272 20.2647C67.3432 19.8318 59.6375 19.5721 57.3863 20.2647Z" fill="white"/>
<path d="M51.1525 15.503C51.1015 15.9367 48.6417 14.8103 48.5551 14.6372C48.4742 14.4754 47.949 10.135 48.5551 10.0484C49.3012 9.94191 51.066 10.8276 51.066 10.8276C51.3257 11.0008 51.3257 14.0311 51.1525 15.503Z" fill="white"/>
<path d="M15.3079 11.7798C18.7712 8.92262 27.083 6.2386 35.135 10.1348C36.3471 7.53733 32.0181 5.28615 27.5159 5.37278C23.7031 5.44615 19.7209 7.09562 15.4811 9.78844C9.07412 13.8577 3.18661 21.3037 3.01343 25.8925C2.84026 30.4813 4.39874 32.2129 4.39874 32.2129C4.39874 32.2129 7.25591 36.8171 19.3773 35.5896C26.2172 34.8969 31.4796 33.3775 38.4251 30.135C39.1043 29.8179 38.7751 28.7081 38.4251 28.8363C29.6804 32.0398 25.1782 33.2246 18.6846 33.2519C11.585 33.2818 6.47667 30.9142 7.34248 25.2864C8.23082 19.5122 11.8447 14.637 15.3079 11.7798Z" fill="white"/>
<path d="M10.2863 21.6501C9.76679 21.6077 9.93983 20.4448 10.2863 20.438C19.8968 20.2482 31.4121 18.7063 31.6718 18.7063C31.9316 18.7063 31.9016 19.9036 31.6718 20.6111C31.3591 21.5738 30.5463 22.083 29.5939 22.083C28.6415 22.083 17.8937 22.2709 10.2863 21.6501Z" fill="white"/>
<path d="M40.6771 34.0801L40.6763 34.2044C40.6711 34.9837 43.5334 35.8494 43.5334 35.2433C43.4469 23.3817 43.9663 14.2041 43.8798 5.54602C43.8746 5.02653 40.0125 3.38147 40.1568 4.24731C40.8472 8.39003 40.7634 21.05 40.6771 34.0801Z" fill="white"/>
<path d="M51.4988 20.8709C51.4988 20.3514 48.7282 19.4856 47.6893 19.4856C47.3429 19.4856 48.0356 20.7843 48.2087 22.083C48.3819 24.3341 48.3819 29.4216 48.3819 34.2909V34.291C48.3819 34.9961 48.9093 35.3299 49.5075 35.3299C50.3733 35.3299 51.1525 35.4165 51.1525 35.1568L51.4988 20.8709Z" fill="white"/>
<path fill-rule="evenodd" clip-rule="evenodd" d="M92.4507 22.009C93.3165 22.009 94.7884 21.1432 94.7884 21.1432C95.6206 32.7253 96.9529 33.4187 97.6281 33.7701C97.7958 33.8574 97.923 33.9236 97.9919 34.1303C98.1042 34.4673 97.0446 34.9617 95.9978 35.4502C95.7 35.5892 95.4032 35.7277 95.1347 35.8619C94.257 36.3008 93.7616 33.8403 93.4063 32.0755C93.2008 31.0549 93.0422 30.267 92.8836 30.4073C88.3814 34.3901 84.5718 35.2174 80.5891 34.9961C76.6063 34.7749 75.4177 32.823 75.5674 30.6671C76.0003 24.4332 84.0523 19.7578 87.6021 19.7578C90.3869 19.7578 91.2254 20.8121 91.7548 21.4776C91.999 21.7847 92.1774 22.009 92.4507 22.009ZM79.5501 27.377C80.7622 21.2297 90.1061 20.7771 91.3251 22.5285C92.1775 23.7531 92.9182 27.8099 92.4507 28.8489C91.6715 30.5805 84.9856 34.1229 82.3207 33.4377C79.2904 32.6584 79.0763 29.7796 79.5501 27.377Z" fill="white"/>
</svg>
