<svg width="209" height="125" viewBox="0 0 209 125" fill="none" xmlns="http://www.w3.org/2000/svg">
<rect width="209" height="125" fill="white"/>
<path d="M104.25 25.9824C103.694 25.9824 103.174 26.2552 102.859 26.7119C101.94 28.0466 80.3425 59.5839 80.3425 75.5346C80.3425 88.6749 91.067 99.3652 104.249 99.3652C117.432 99.3652 128.156 88.6749 128.156 75.5346C128.156 59.5839 106.559 28.0466 105.639 26.7119C105.325 26.2554 104.805 25.9824 104.25 25.9824ZM104.25 96.0033C92.9269 96.0033 83.7154 86.8211 83.7154 75.5346C83.7154 62.8478 99.4255 38.0177 104.25 30.6933C109.074 38.0177 124.783 62.8476 124.783 75.5346C124.783 86.8211 115.572 96.0033 104.25 96.0033Z" fill="black"/>
<path d="M102.562 89.8368C102.562 90.7651 103.317 91.5178 104.249 91.5178C113.092 91.5178 120.286 84.3467 120.286 75.5325C120.286 74.6042 119.532 73.8516 118.6 73.8516C117.669 73.8516 116.914 74.6042 116.914 75.5325C116.914 82.4931 111.232 88.1559 104.249 88.1559C103.317 88.1559 102.562 88.9085 102.562 89.8368Z" fill="black"/>
<path d="M137.314 32.7874H134.037V29.5208C134.037 28.5925 133.282 27.8398 132.351 27.8398C131.419 27.8398 130.664 28.5925 130.664 29.5208V32.7874H127.387C126.456 32.7874 125.701 33.54 125.701 34.4683C125.701 35.3967 126.456 36.1493 127.387 36.1493H130.664V39.4159C130.664 40.3442 131.419 41.0968 132.351 41.0968C133.282 41.0968 134.037 40.3442 134.037 39.4159V36.1493H137.314C138.245 36.1493 139 35.3967 139 34.4683C139 33.54 138.245 32.7874 137.314 32.7874Z" fill="black"/>
<path d="M76.4188 83.4026H73.1417V80.136C73.1417 79.2077 72.3869 78.4551 71.4554 78.4551C70.5238 78.4551 69.7691 79.2077 69.7691 80.136V83.4026H66.492C65.5605 83.4026 64.8057 84.1552 64.8057 85.0836C64.8057 86.0119 65.5605 86.7645 66.492 86.7645H69.7691V90.0311C69.7691 90.9594 70.5238 91.7121 71.4554 91.7121C72.3869 91.7121 73.1417 90.9594 73.1417 90.0311V86.7645H76.4188C77.3503 86.7645 78.1051 86.0119 78.1051 85.0836C78.1051 84.1552 77.3503 83.4026 76.4188 83.4026Z" fill="black"/>
</svg>
