<svg width="209" height="125" viewBox="0 0 209 125" fill="none" xmlns="http://www.w3.org/2000/svg">
<rect width="209" height="125" fill="white"/>
<g clip-path="url(#clip0_959_104)">
<path d="M62.129 76.2026L62.2484 76.1991H147.75L147.871 76.2026V72.736C147.871 70.9885 147.171 69.521 146.042 68.385L145.94 68.2928C145.036 67.4208 143.88 66.735 142.578 66.2564C140.232 65.7726 137.94 65.3313 135.697 64.9307C133.165 64.5497 130.71 64.2094 128.32 63.9099C128.025 63.9602 127.723 63.9475 127.433 63.8727L126.508 63.6883C118.591 62.7526 111.332 62.2776 104.144 62.2723C99.7364 62.2687 95.3393 62.4424 90.8155 62.7933C82.8494 63.5607 74.5693 64.9361 65.4337 66.8927C65.3474 66.9104 65.2593 66.9246 65.1748 66.9317C64.7012 67.2135 64.2642 67.5325 63.8805 67.887L63.785 67.9862C62.7643 68.9698 62.129 70.2548 62.129 71.7931V76.2026ZM68.1142 61.7175C72.245 61.0068 76.1739 60.4096 79.9725 59.9204L79.967 51.9415C79.967 49.2653 81.1016 46.8283 82.9265 45.0684L83.0624 44.9497C84.8781 43.2571 87.342 42.2132 90.0463 42.2132H119.954C122.728 42.2132 125.249 43.3085 127.072 45.0702C128.897 46.8319 130.033 49.267 130.033 51.9415V59.9807C132.047 60.2784 134.094 60.6098 136.18 60.9785C137.722 61.2107 139.29 61.457 140.891 61.7175C141.59 61.8327 142.277 61.9869 142.945 62.1801V29.5182C142.945 28.5522 142.53 27.6679 141.867 27.0263C141.205 26.3865 140.289 25.9859 139.286 25.9859H70.712C69.6894 25.9859 68.7641 26.3741 68.1032 27.005C67.4551 27.6218 67.0548 28.4831 67.0548 29.4437V61.9373C67.4037 61.854 67.758 61.7796 68.1142 61.7175ZM106.076 58.0577C111.573 58.0825 116.943 58.3732 121.705 58.9368C123.091 59.0768 124.492 59.2381 125.902 59.4153V51.9415C125.902 50.3676 125.23 48.9303 124.151 47.8882C123.073 46.8478 121.586 46.1992 119.954 46.1992H90.0463C88.4582 46.1992 87.0096 46.8071 85.9393 47.7907L85.8457 47.8882C84.768 48.9285 84.0979 50.3659 84.0979 51.9415V59.4118C90.8449 58.4813 98.5797 58.0223 106.076 58.0577Z" fill="black"/>
</g>
<path d="M65.7616 105.86V101H64.4416V112H65.7616V107.06H71.8816V112H73.2016V101H71.8816V105.86H65.7616ZM78.7547 104.22C79.768 104.22 80.548 104.527 81.0947 105.14C81.6414 105.74 81.9147 106.593 81.9147 107.7V108.4L81.8347 108.56H76.5747C76.5747 109.213 76.8214 109.82 77.3147 110.38C77.7814 110.847 78.508 111.08 79.4947 111.08C80.148 111.08 80.768 110.98 81.3547 110.78L81.5947 111.74C80.7814 112.02 79.9614 112.16 79.1347 112.16C77.8947 112.16 76.948 111.827 76.2947 111.16C75.6414 110.493 75.3147 109.54 75.3147 108.3C75.3147 107.127 75.6014 106.16 76.1747 105.4C76.788 104.613 77.648 104.22 78.7547 104.22ZM80.5947 107.52C80.5947 106.853 80.448 106.307 80.1547 105.88C79.8747 105.453 79.4547 105.24 78.8947 105.24C78.188 105.24 77.648 105.453 77.2747 105.88C76.9014 106.307 76.6747 106.853 76.5947 107.52H80.5947ZM86.2328 105.34C85.9528 105.34 85.6128 105.373 85.2128 105.44C84.8261 105.493 84.4795 105.567 84.1728 105.66L83.9128 104.7C84.8061 104.393 85.6395 104.24 86.4128 104.24C87.2795 104.24 87.9395 104.373 88.3928 104.64C88.7928 104.933 89.0661 105.247 89.2128 105.58C89.3728 105.913 89.4528 106.4 89.4528 107.04V112H88.4728L88.1928 111.28C87.4328 111.893 86.6528 112.2 85.8528 112.2C85.1595 112.2 84.5728 112 84.0928 111.6C83.6261 111.2 83.3928 110.693 83.3928 110.08C83.3928 109.48 83.5728 108.987 83.9328 108.6C84.3061 108.2 84.7595 107.933 85.2928 107.8C85.9728 107.627 86.9261 107.527 88.1528 107.5V107.44C88.1528 106.893 88.0995 106.493 87.9928 106.24C87.7795 105.64 87.1928 105.34 86.2328 105.34ZM86.0328 111.16C86.4728 111.16 86.8595 111.087 87.1928 110.94C87.5261 110.78 87.8461 110.56 88.1528 110.28V108.44C87.2328 108.453 86.5528 108.507 86.1128 108.6C85.6195 108.707 85.2528 108.867 85.0128 109.08C84.7728 109.28 84.6528 109.567 84.6528 109.94C84.6528 110.327 84.7861 110.627 85.0528 110.84C85.3328 111.053 85.6595 111.16 86.0328 111.16ZM94.8122 112.16C93.6655 112.16 92.7855 111.807 92.1722 111.1C91.5589 110.38 91.2522 109.427 91.2522 108.24C91.2522 106.933 91.6189 105.913 92.3522 105.18C93.0589 104.5 93.9389 104.16 94.9922 104.16C95.6989 104.16 96.2989 104.28 96.7922 104.52V101.36H98.1522V112H97.1922L96.9722 111.46C96.2522 111.927 95.5322 112.16 94.8122 112.16ZM95.0722 111.06C95.4322 111.06 95.7322 111.027 95.9722 110.96C96.2255 110.88 96.4989 110.76 96.7922 110.6V105.52C96.2989 105.32 95.7322 105.22 95.0922 105.22C94.2655 105.22 93.6389 105.487 93.2122 106.02C92.7989 106.553 92.5922 107.267 92.5922 108.16C92.5922 109.04 92.7989 109.747 93.2122 110.28C93.6389 110.8 94.2589 111.06 95.0722 111.06ZM100.433 112V101.36H101.733V104.52C102.253 104.28 102.873 104.16 103.593 104.16C104.673 104.16 105.553 104.48 106.233 105.12C106.94 105.827 107.293 106.867 107.293 108.24C107.293 109.427 106.987 110.38 106.373 111.1C105.773 111.807 104.907 112.16 103.773 112.16C103.027 112.16 102.3 111.927 101.593 111.46L101.353 112H100.433ZM103.453 111.06C104.307 111.06 104.933 110.827 105.333 110.36C105.733 109.893 105.933 109.16 105.933 108.16C105.933 107.267 105.72 106.553 105.293 106.02C104.88 105.487 104.26 105.22 103.433 105.22C102.807 105.22 102.24 105.32 101.733 105.52V110.6C102.04 110.76 102.313 110.88 102.553 110.96C102.807 111.027 103.107 111.06 103.453 111.06ZM112.495 112.18C111.335 112.18 110.428 111.82 109.775 111.1C109.135 110.38 108.815 109.413 108.815 108.2C108.815 106.973 109.141 106.007 109.795 105.3C110.461 104.58 111.381 104.22 112.555 104.22C113.728 104.22 114.635 104.573 115.275 105.28C115.915 105.987 116.235 106.953 116.235 108.18C116.235 109.38 115.901 110.347 115.235 111.08C114.568 111.813 113.655 112.18 112.495 112.18ZM112.555 105.24C111.795 105.24 111.201 105.52 110.775 106.08C110.361 106.64 110.155 107.347 110.155 108.2C110.155 109.053 110.361 109.753 110.775 110.3C111.201 110.847 111.795 111.12 112.555 111.12C113.301 111.12 113.881 110.847 114.295 110.3C114.708 109.74 114.915 109.04 114.915 108.2C114.915 107.347 114.701 106.64 114.275 106.08C113.861 105.52 113.288 105.24 112.555 105.24ZM120.592 105.34C120.312 105.34 119.972 105.373 119.572 105.44C119.186 105.493 118.839 105.567 118.532 105.66L118.272 104.7C119.166 104.393 119.999 104.24 120.772 104.24C121.639 104.24 122.299 104.373 122.752 104.64C123.152 104.933 123.426 105.247 123.572 105.58C123.732 105.913 123.812 106.4 123.812 107.04V112H122.832L122.552 111.28C121.792 111.893 121.012 112.2 120.212 112.2C119.519 112.2 118.932 112 118.452 111.6C117.986 111.2 117.752 110.693 117.752 110.08C117.752 109.48 117.932 108.987 118.292 108.6C118.666 108.2 119.119 107.933 119.652 107.8C120.332 107.627 121.286 107.527 122.512 107.5V107.44C122.512 106.893 122.459 106.493 122.352 106.24C122.139 105.64 121.552 105.34 120.592 105.34ZM120.392 111.16C120.832 111.16 121.219 111.087 121.552 110.94C121.886 110.78 122.206 110.56 122.512 110.28V108.44C121.592 108.453 120.912 108.507 120.472 108.6C119.979 108.707 119.612 108.867 119.372 109.08C119.132 109.28 119.012 109.567 119.012 109.94C119.012 110.327 119.146 110.627 119.412 110.84C119.692 111.053 120.019 111.16 120.392 111.16ZM129.292 104.22C129.585 104.22 129.818 104.24 129.992 104.28C130.178 104.307 130.358 104.36 130.532 104.44L130.072 105.6C129.725 105.44 129.345 105.36 128.932 105.36C128.372 105.36 127.818 105.547 127.272 105.92V112H125.972V104.32H126.912L127.192 104.98C127.858 104.473 128.558 104.22 129.292 104.22ZM135.031 112.16C133.884 112.16 133.004 111.807 132.391 111.1C131.778 110.38 131.471 109.427 131.471 108.24C131.471 106.933 131.838 105.913 132.571 105.18C133.278 104.5 134.158 104.16 135.211 104.16C135.918 104.16 136.518 104.28 137.011 104.52V101.36H138.371V112H137.411L137.191 111.46C136.471 111.927 135.751 112.16 135.031 112.16ZM135.291 111.06C135.651 111.06 135.951 111.027 136.191 110.96C136.444 110.88 136.718 110.76 137.011 110.6V105.52C136.518 105.32 135.951 105.22 135.311 105.22C134.484 105.22 133.858 105.487 133.431 106.02C133.018 106.553 132.811 107.267 132.811 108.16C132.811 109.04 133.018 109.747 133.431 110.28C133.858 110.8 134.478 111.06 135.291 111.06ZM143.032 111.08C143.499 111.08 143.892 110.993 144.212 110.82C144.546 110.633 144.712 110.367 144.712 110.02C144.712 109.74 144.592 109.52 144.352 109.36C144.112 109.2 143.606 108.96 142.832 108.64L142.072 108.34C141.739 108.18 141.466 108.04 141.252 107.92C141.039 107.787 140.846 107.593 140.672 107.34C140.499 107.073 140.412 106.74 140.412 106.34C140.412 105.62 140.706 105.087 141.292 104.74C141.892 104.393 142.626 104.22 143.492 104.22C144.226 104.22 144.959 104.387 145.692 104.72L145.372 105.68C144.772 105.427 144.192 105.3 143.632 105.3C143.059 105.3 142.592 105.387 142.232 105.56C141.886 105.72 141.712 105.953 141.712 106.26C141.712 106.567 141.832 106.807 142.072 106.98C142.326 107.153 142.752 107.353 143.352 107.58L144.012 107.84C144.746 108.147 145.259 108.467 145.552 108.8C145.846 109.133 145.992 109.573 145.992 110.12C145.992 110.68 145.732 111.167 145.212 111.58C144.692 111.98 143.999 112.18 143.132 112.18C142.146 112.18 141.172 111.987 140.212 111.6L140.572 110.62C141.439 110.927 142.259 111.08 143.032 111.08Z" fill="black"/>
<defs>
<clipPath id="clip0_959_104">
<rect width="94" height="81" fill="white" transform="translate(58 22)"/>
</clipPath>
</defs>
</svg>
