<svg width="209" height="125" viewBox="0 0 209 125" fill="none" xmlns="http://www.w3.org/2000/svg">
<rect width="209" height="125" fill="white"/>
<g clip-path="url(#clip0_953_84)">
<path d="M74.3597 19H135.639C137.553 19 139.296 19.7635 140.554 20.9886C141.814 22.2153 142.598 23.9132 142.598 25.7756V56.9C143.176 57.2834 143.711 57.7098 144.195 58.1794L144.303 58.296C145.97 59.9684 147 62.1375 147 64.725V90.2031C147 91.195 146.173 92 145.154 92H141.916C141.048 92 140.319 91.4154 140.122 90.628C138.956 87.3871 137.806 85.5199 136.277 84.528C134.717 83.5185 132.53 83.2661 129.349 83.2693L77.9084 83.3428C75.6558 83.2933 74.2071 83.9114 73.1752 85.0311C71.9955 86.3105 71.1785 88.3183 70.3434 90.7653C70.0908 91.516 69.3705 91.992 68.6011 91.992L64.8457 92C63.8269 92 63 91.195 63 90.2031V63.8753C63 61.4522 63.9827 59.4397 65.5594 57.9031L65.6808 57.7961C66.1992 57.3073 66.78 56.8713 67.4084 56.4895L67.4002 25.7085C67.4002 23.8477 68.186 22.1706 69.4493 20.9567C70.7575 19.7003 72.5221 18.9972 74.3597 19V19ZM66.7964 71.4384L66.6898 71.4352V88.4078H67.2902C68.1368 86.0901 69.0654 84.1351 70.4353 82.6464C72.1908 80.7409 74.5123 79.6915 77.9789 79.7665L129.349 79.6915C133.247 79.6883 136.021 80.0588 138.308 81.5411C140.365 82.8748 141.853 84.9944 143.199 88.4078H143.31V71.4352L143.202 71.4384H66.7964V71.4384ZM66.6898 67.8493L66.7964 67.8461H143.202L143.31 67.8493V64.725C143.31 63.1501 142.685 61.8276 141.676 60.8037L141.584 60.7207C140.777 59.9348 139.744 59.3167 138.58 58.8854C136.484 58.4494 134.436 58.0516 132.431 57.6907C130.169 57.3472 127.975 57.0406 125.839 56.7706C125.576 56.8159 125.305 56.8045 125.047 56.7371L124.22 56.571C117.146 55.7276 110.659 55.2995 104.235 55.2948C100.296 55.2916 96.367 55.4481 92.3245 55.7644C85.2059 56.456 77.8066 57.6955 69.6429 59.4588C69.5658 59.4748 69.487 59.4876 69.4116 59.494C68.9883 59.7479 68.5978 60.0355 68.2549 60.3549L68.1696 60.4444C67.2574 61.3308 66.6898 62.4889 66.6898 63.8753V67.8493V67.8493ZM72.0382 54.7948C75.7296 54.1543 79.2405 53.616 82.635 53.1752L82.6301 45.9843C82.6301 43.5724 83.644 41.3762 85.2748 39.7901L85.3962 39.683C87.0187 38.1577 89.2205 37.2169 91.6371 37.2169H118.363C120.842 37.2169 123.094 38.204 124.724 39.7917C126.354 41.3793 127.37 43.574 127.37 45.9843V53.2295C129.17 53.4978 130.999 53.7965 132.863 54.1287C134.241 54.338 135.642 54.56 137.073 54.7948C137.698 54.8986 138.311 55.0376 138.908 55.2117V25.7756C138.908 24.9051 138.538 24.1081 137.945 23.5299C137.353 22.9533 136.534 22.5923 135.639 22.5923H74.3597C73.4459 22.5923 72.619 22.9421 72.0284 23.5107C71.4492 24.0665 71.0916 24.8428 71.0916 25.7085V54.9929C71.4033 54.9178 71.7199 54.8507 72.0382 54.7948V54.7948ZM105.961 51.4965C110.873 51.5188 115.672 51.7808 119.928 52.2887C121.167 52.4149 122.419 52.5602 123.679 52.72V45.9843C123.679 44.5659 123.078 43.2705 122.113 42.3313C121.15 41.3937 119.821 40.8091 118.363 40.8091H91.6371C90.218 40.8091 88.9235 41.357 87.967 42.2435L87.8834 42.3313C86.9203 43.2689 86.3215 44.5643 86.3215 45.9843V52.7168C92.3508 51.8782 99.2627 51.4645 105.961 51.4965V51.4965Z" fill="black"/>
</g>
<path d="M83.04 99.88C84.12 99.88 85.04 100.12 85.8 100.6C86.5733 101.067 87.1733 101.707 87.6 102.52C88.0267 103.453 88.24 104.447 88.24 105.5C88.24 106.58 88.0267 107.567 87.6 108.46C87.1733 109.287 86.5733 109.94 85.8 110.42C85.04 110.9 84.12 111.14 83.04 111.14C81.96 111.14 81.04 110.9 80.28 110.42C79.5333 109.94 78.9467 109.287 78.52 108.46C78.0933 107.687 77.88 106.7 77.88 105.5C77.88 104.327 78.0933 103.333 78.52 102.52C78.9467 101.707 79.5333 101.067 80.28 100.6C81.04 100.12 81.96 99.88 83.04 99.88ZM83.04 109.98C83.88 109.98 84.5533 109.787 85.06 109.4C85.58 109 85.9933 108.46 86.3 107.78C86.62 107.113 86.78 106.353 86.78 105.5C86.78 104.66 86.62 103.9 86.3 103.22C85.62 101.767 84.5333 101.04 83.04 101.04C82.2133 101.04 81.5467 101.24 81.04 101.64C80.5333 102.027 80.12 102.553 79.8 103.22C79.4933 103.833 79.34 104.593 79.34 105.5C79.34 106.42 79.4933 107.18 79.8 107.78C80.12 108.46 80.5333 109 81.04 109.4C81.5467 109.787 82.2133 109.98 83.04 109.98ZM90.285 103.32H91.205L91.465 103.9C92.1183 103.447 92.8383 103.22 93.625 103.22C94.3717 103.22 95.005 103.38 95.525 103.7C96.6317 104.393 97.185 105.52 97.185 107.08C97.185 108.413 96.8117 109.44 96.065 110.16C95.3317 110.853 94.4583 111.2 93.445 111.2C92.7917 111.2 92.1717 111.073 91.585 110.82V115.16H90.285V103.32ZM93.305 104.3C92.9317 104.3 92.6183 104.333 92.365 104.4C92.125 104.467 91.865 104.587 91.585 104.76V109.8C92.105 110.04 92.6717 110.16 93.285 110.16C94.085 110.16 94.705 109.887 95.145 109.34C95.585 108.793 95.805 108.087 95.805 107.22C95.805 106.327 95.5917 105.62 95.165 105.1C94.7383 104.567 94.1183 104.3 93.305 104.3ZM101.682 111.16C100.909 111.16 100.355 110.953 100.022 110.54C99.7019 110.113 99.5419 109.473 99.5419 108.62V104.4H98.2419V103.32H99.5419V101.44L100.842 101.34V103.32H103.362V104.4H100.842V108.54C100.842 109.073 100.922 109.46 101.082 109.7C101.255 109.94 101.582 110.06 102.062 110.06C102.515 110.06 102.922 110.02 103.282 109.94L103.502 110.82C102.902 111.047 102.295 111.16 101.682 111.16ZM105.679 101.84C105.439 101.84 105.239 101.76 105.079 101.6C104.919 101.427 104.839 101.227 104.839 101C104.839 100.787 104.919 100.6 105.079 100.44C105.239 100.267 105.439 100.18 105.679 100.18C105.906 100.18 106.099 100.267 106.259 100.44C106.419 100.6 106.499 100.787 106.499 101C106.499 101.227 106.419 101.427 106.259 101.6C106.113 101.76 105.919 101.84 105.679 101.84ZM106.319 111H105.019V103.32H106.319V111ZM111.924 111.18C110.764 111.18 109.858 110.82 109.204 110.1C108.564 109.38 108.244 108.413 108.244 107.2C108.244 105.973 108.571 105.007 109.224 104.3C109.891 103.58 110.811 103.22 111.984 103.22C113.158 103.22 114.064 103.573 114.704 104.28C115.344 104.987 115.664 105.953 115.664 107.18C115.664 108.38 115.331 109.347 114.664 110.08C113.998 110.813 113.084 111.18 111.924 111.18ZM111.984 104.24C111.224 104.24 110.631 104.52 110.204 105.08C109.791 105.64 109.584 106.347 109.584 107.2C109.584 108.053 109.791 108.753 110.204 109.3C110.631 109.847 111.224 110.12 111.984 110.12C112.731 110.12 113.311 109.847 113.724 109.3C114.138 108.74 114.344 108.04 114.344 107.2C114.344 106.347 114.131 105.64 113.704 105.08C113.291 104.52 112.718 104.24 111.984 104.24ZM122.622 106.12C122.622 105.467 122.495 105 122.242 104.72C122.002 104.44 121.575 104.3 120.962 104.3C120.309 104.3 119.602 104.48 118.842 104.84V111H117.542V103.32H118.442L118.722 103.96C119.642 103.453 120.542 103.2 121.422 103.2C122.235 103.2 122.855 103.433 123.282 103.9C123.709 104.353 123.922 104.987 123.922 105.8V111H122.622V106.12ZM128.509 110.08C128.975 110.08 129.369 109.993 129.689 109.82C130.022 109.633 130.189 109.367 130.189 109.02C130.189 108.74 130.069 108.52 129.829 108.36C129.589 108.2 129.082 107.96 128.309 107.64L127.549 107.34C127.215 107.18 126.942 107.04 126.729 106.92C126.515 106.787 126.322 106.593 126.149 106.34C125.975 106.073 125.889 105.74 125.889 105.34C125.889 104.62 126.182 104.087 126.769 103.74C127.369 103.393 128.102 103.22 128.969 103.22C129.702 103.22 130.435 103.387 131.169 103.72L130.849 104.68C130.249 104.427 129.669 104.3 129.109 104.3C128.535 104.3 128.069 104.387 127.709 104.56C127.362 104.72 127.189 104.953 127.189 105.26C127.189 105.567 127.309 105.807 127.549 105.98C127.802 106.153 128.229 106.353 128.829 106.58L129.489 106.84C130.222 107.147 130.735 107.467 131.029 107.8C131.322 108.133 131.469 108.573 131.469 109.12C131.469 109.68 131.209 110.167 130.689 110.58C130.169 110.98 129.475 111.18 128.609 111.18C127.622 111.18 126.649 110.987 125.689 110.6L126.049 109.62C126.915 109.927 127.735 110.08 128.509 110.08Z" fill="black"/>
<defs>
<clipPath id="clip0_953_84">
<rect width="84" height="73" fill="white" transform="translate(63 19)"/>
</clipPath>
</defs>
</svg>
