<svg width="209" height="125" viewBox="0 0 209 125" fill="none" xmlns="http://www.w3.org/2000/svg">
<rect width="209" height="125" fill="white"/>
<path d="M165.509 31.3436C165.07 31.3069 164.634 31.3063 164.202 31.3339V31.3328L153.617 31.3411C151.279 31.3411 149.368 31.8443 147.851 32.8573C147.776 31.6144 147.618 30.0174 147.292 28.5517C146.834 26.4938 144.96 25 142.836 25H105H67.1641C65.0404 25 63.1667 26.4938 62.708 28.5517C62.3819 30.0174 62.2243 31.6144 62.1485 32.8573C60.6318 31.844 58.7212 31.3411 56.384 31.3411L45.7973 31.3328V31.3337C45.366 31.3061 44.9298 31.3069 44.4906 31.3436C41.9725 31.5533 40 33.6943 40 36.2176V66.8339C40 71.2177 43.5715 74.7839 47.9612 74.7839H50.2557V80.4363C50.2557 81.4763 50.8776 82.4057 51.8399 82.8037C52.1592 82.9357 52.4934 83 52.8247 83C53.491 83 54.1446 82.7394 54.6365 82.2481L62.1112 74.7837H147.889L155.364 82.2481C155.856 82.7394 156.509 83 157.176 83C157.506 83 157.841 82.9357 158.16 82.8037C159.122 82.4057 159.744 81.4763 159.744 80.436V74.7837H162.039C166.428 74.7837 170 71.2171 170 66.8336V36.2176C170 33.6943 168.027 31.5533 165.509 31.3436ZM153.617 33.3324L159.125 33.3281C158.092 34.1694 157.239 35.2447 156.659 36.5027L153.317 43.7634C151.021 48.7518 151.134 54.3816 153.366 59.162C149.801 56.932 145.989 55.1475 142.009 53.8406C141.533 50.6891 141.983 47.5049 143.321 44.5958L146.663 37.3356C147.936 34.5668 150.08 33.3324 153.617 33.3324ZM67.1641 26.9914H105H142.836C144.033 26.9914 145.088 27.8294 145.345 28.9841C145.833 31.1718 145.912 33.7799 145.925 34.6874C145.519 35.227 145.16 35.831 144.851 36.5041L141.509 43.7643C140.139 46.7405 139.601 49.9728 139.922 53.1999C136.959 52.3627 133.916 51.7823 130.824 51.4794C113.688 49.8883 96.3119 49.8886 79.1712 51.4797C76.0809 51.7823 73.0398 52.3624 70.0787 53.1993C70.3987 49.9725 69.8605 46.7402 68.4908 43.7637L65.1492 36.5044C64.8398 35.8313 64.4811 35.227 64.0752 34.6874C64.0874 33.781 64.1666 31.1766 64.6546 28.9841C64.9119 27.8292 65.9671 26.9914 67.1641 26.9914ZM56.3834 33.3324C59.9196 33.3324 62.0642 34.5668 63.3373 37.3356L66.6787 44.5955C68.0176 47.5049 68.4672 50.6891 67.9909 53.84C64.0117 55.1469 60.1988 56.9317 56.6338 59.162C58.8659 54.3816 58.9793 48.7518 56.6828 43.7634L53.3406 36.5027C52.7618 35.2447 51.9083 34.1694 50.875 33.3281L56.3834 33.3324ZM53.2267 80.8402C52.9831 81.0838 52.7091 81.0078 52.6031 80.9643C52.4971 80.9202 52.2501 80.7808 52.2501 80.4366V74.7842H59.2915L53.2267 80.8402ZM157.75 80.4363C157.75 80.7808 157.503 80.9202 157.397 80.964C157.291 81.0078 157.018 81.0837 156.774 80.8399L150.709 74.7837H157.75V80.4363H157.75ZM168.006 66.8336C168.006 70.1244 165.334 72.7923 162.039 72.7923H47.9612C44.6658 72.7926 41.9942 70.1247 41.9942 66.8336V36.2176C41.9942 34.7218 43.1636 33.4525 44.6566 33.3281C47.5496 33.088 50.3146 34.6971 51.5291 37.3345L54.8713 44.5952C57.7811 50.9164 56.3552 58.3959 51.3228 63.2073L52.7022 64.6457C53.7768 63.6164 54.9317 62.6708 56.1638 61.8361C63.0664 57.1604 71.0345 54.2775 79.361 53.4622C96.374 51.8828 113.626 51.8825 130.634 53.4619C138.965 54.2775 146.934 57.1604 153.836 61.8361C155.063 62.6674 156.214 63.6084 157.284 64.6326L157.298 64.6457L158.677 63.2073C153.645 58.3959 152.219 50.9164 155.128 44.5952L158.471 37.3345C159.685 34.6971 162.451 33.09 165.343 33.3281C166.836 33.4525 168.006 34.7215 168.006 36.2176V66.8336H168.006Z" fill="black"/>
<line x1="39.5" y1="100.5" x2="170.5" y2="100.5" stroke="black" stroke-linecap="square"/>
<line x1="171.5" y1="95.5" x2="171.5" y2="105.5" stroke="black" stroke-linecap="round"/>
<line x1="39.5" y1="95.5" x2="39.5" y2="105.5" stroke="black" stroke-linecap="round"/>
<line x1="60.5" y1="97.5" x2="60.5" y2="103.5" stroke="black" stroke-linecap="round"/>
<line x1="78.5" y1="97.5" x2="78.5" y2="103.5" stroke="black" stroke-linecap="round"/>
<line x1="96.5" y1="97.5" x2="96.5" y2="103.5" stroke="black" stroke-linecap="round"/>
<line x1="114.5" y1="97.5" x2="114.5" y2="103.5" stroke="black" stroke-linecap="round"/>
<line x1="132.5" y1="97.5" x2="132.5" y2="103.5" stroke="black" stroke-linecap="round"/>
<line x1="150.5" y1="97.5" x2="150.5" y2="103.5" stroke="black" stroke-linecap="round"/>
</svg>
