<svg width="99" height="60" viewBox="0 0 99 60" fill="none" xmlns="http://www.w3.org/2000/svg">
<path fill-rule="evenodd" clip-rule="evenodd" d="M48.9003 1.42038C48.0172 1.93554 44.3057 4.09047 43.4573 4.58077C43.033 4.82592 42.3002 5.2528 41.8287 5.52936C40.4028 6.36578 37.1399 8.26089 36.7286 8.49146C36.5165 8.61036 35.88 8.979 35.3143 9.31061C34.7486 9.64223 33.9385 10.1149 33.5143 10.361C33.09 10.6071 32.3378 11.0442 31.8428 11.3323C31.3478 11.6204 30.1906 12.2907 29.2713 12.8219C27.3348 13.9407 26.0473 14.689 25.1998 15.1884L24.5998 15.5419L24.5781 30.0478L24.5564 44.5536L26.5496 45.7196C27.6458 46.3609 29.3054 47.3272 30.2377 47.8668C31.1699 48.4066 32.0378 48.9104 32.1663 48.9866C32.2948 49.0627 33.0364 49.4939 33.8143 49.9446C34.5921 50.3954 35.7397 51.0611 36.3643 51.4241C36.9889 51.7871 38.0112 52.3797 38.6358 52.7411C39.2604 53.1024 40.1187 53.6027 40.543 53.8526C40.9673 54.1026 41.7387 54.5501 42.2573 54.847C43.2322 55.4051 44.3557 56.0575 46.7145 57.4354C47.4688 57.876 48.2596 58.3344 48.4717 58.4539C48.6839 58.5735 48.9732 58.7423 49.1146 58.829C49.256 58.9157 49.4229 58.9868 49.4855 58.9869C49.5481 58.9871 49.9531 58.7785 50.3855 58.5233C50.8179 58.2681 51.5382 57.8467 51.9861 57.5868C52.434 57.3269 53.1861 56.8886 53.6576 56.6128C54.129 56.337 54.7654 55.9679 55.0719 55.7926C55.3783 55.6173 55.9955 55.2612 56.4433 55.0013C56.8912 54.7413 58.1834 53.9915 59.3148 53.335C60.4463 52.6785 61.6137 51.9926 61.9093 51.8107C62.2047 51.6288 62.4637 51.48 62.4848 51.48C62.5059 51.48 62.8042 51.3114 63.1476 51.1054C63.4911 50.8994 64.3121 50.4182 64.9721 50.0362C65.6321 49.6541 66.7768 48.9888 67.516 48.5575C68.2551 48.1263 68.9902 47.6998 69.1496 47.6098C69.9093 47.1801 70.9697 46.5668 71.7865 46.0844C72.2815 45.7921 73.0819 45.3245 73.5651 45.0452L74.4437 44.5374V30.0718V15.6061L74.1027 15.3789C73.9151 15.254 73.7457 15.1517 73.7261 15.1517C73.6909 15.1517 72.8934 14.6927 70.1579 13.0983C69.38 12.6449 68.5315 12.1516 68.2722 12.0021C68.0129 11.8526 67.145 11.349 66.3436 10.883C65.5421 10.4169 64.2499 9.66656 63.4721 9.21543C62.6942 8.76431 61.9138 8.30395 61.738 8.19237C61.5621 8.08089 61.3976 7.98959 61.3723 7.98959C61.347 7.98959 61.0472 7.82167 60.7063 7.61638C60.3653 7.4111 59.527 6.91924 58.8434 6.52334C58.1598 6.12744 57.1569 5.54351 56.6148 5.22571C55.3954 4.51088 52.9332 3.08415 52.0718 2.59324C51.7182 2.39184 50.9902 1.97031 50.4538 1.65665C49.9175 1.34298 49.4739 1.08834 49.4681 1.09084C49.4623 1.09334 49.2067 1.24159 48.9003 1.42038ZM51.0288 3.34259C52.4581 4.16891 53.8393 4.97141 55.5005 5.94062C55.9012 6.17447 57.5405 7.12591 59.1434 8.05491C60.7463 8.98392 62.5206 10.0152 63.0863 10.3466C63.6521 10.678 64.3656 11.0932 64.6721 11.2692C65.346 11.6564 66.3831 12.2573 68.2936 13.3679C69.0832 13.827 70.3755 14.5772 71.1651 15.0352C71.9547 15.4932 72.7456 15.9597 72.9225 16.0719L73.2442 16.276L73.2225 30.0917L73.2008 43.9073L71.7865 44.7277C67.6317 47.1376 65.752 48.2293 65.0578 48.6353C64.6335 48.8836 63.5149 49.5335 62.572 50.0797C59.7264 51.7279 59.2612 51.9984 58.4577 52.472C58.0334 52.722 57.2812 53.1581 56.7862 53.441C55.5892 54.1253 51.1003 56.7346 50.2007 57.2691L49.4867 57.6933L48.5721 57.1593C48.069 56.8656 47.3296 56.4335 46.9288 56.1991C46.2312 55.7908 44.149 54.5841 40.4573 52.4486C39.5144 51.9032 38.7044 51.4276 38.6572 51.3917C38.6101 51.3559 38.2629 51.1539 37.8858 50.9429C37.5086 50.732 36.6793 50.2548 36.0429 49.8825C35.0198 49.284 29.8896 46.3051 29.0999 45.851C28.9349 45.7561 28.3563 45.4179 27.8141 45.0996C27.272 44.7812 26.5681 44.3699 26.2498 44.1856L25.6712 43.8505V30.064V16.2774L25.8641 16.1594C25.9702 16.0944 26.4812 15.7959 26.9998 15.4958C29.0202 14.3269 29.606 13.9865 30.557 13.428C31.0992 13.1097 31.9092 12.6425 32.3571 12.3899C32.8049 12.1371 33.345 11.8249 33.5571 11.6959C33.7693 11.5669 35.0036 10.8492 36.3 10.1009C37.5965 9.35255 39.0622 8.49965 39.5572 8.2054C40.0523 7.91124 41.2866 7.19253 42.3002 6.60825C43.3138 6.02398 44.4902 5.34341 44.9145 5.09575C45.3388 4.84819 46.0524 4.43304 46.5003 4.17322C46.9481 3.91349 47.7774 3.42474 48.3432 3.08717C48.9089 2.74969 49.4038 2.472 49.4431 2.47028C49.4822 2.46847 50.1958 2.861 51.0288 3.34259ZM40.9287 18.215V20.3291H41.3144H41.7001V19.3452V18.3614L41.9597 18.2702C42.4382 18.1023 42.4716 18.1696 42.4716 19.3029V20.3291H43.543H44.6145V18.9053V17.4815H44.2288H43.8431V18.6033V19.7251H43.5859H43.3288L43.3286 18.9269C43.3284 17.9216 43.1795 17.5622 42.7153 17.4467C42.4574 17.3826 42.3464 17.4016 42.089 17.5545C41.9168 17.6568 41.7589 17.7404 41.7381 17.7404C41.7172 17.7404 41.7001 17.3715 41.7001 16.9207V16.1009H41.3144H40.9287V18.215ZM54.3861 16.8436C54.3861 17.5156 54.3719 17.5808 54.2361 17.5279C53.681 17.3116 53.1245 17.4682 52.8535 17.9167C52.4706 18.5507 52.5293 19.5712 52.9771 20.063C53.2245 20.3347 53.306 20.3712 53.6476 20.3641C53.8616 20.3596 54.1022 20.3013 54.1824 20.2346C54.2955 20.1407 54.3364 20.1377 54.3644 20.2213C54.386 20.2858 54.5525 20.3291 54.779 20.3291H55.1576V18.215V16.1009H54.7719H54.3861V16.8436ZM43.8431 16.688V17.1026L44.2073 17.0938L44.5716 17.085L44.5978 16.6792L44.6239 16.2735H44.2335H43.8431V16.688ZM61.3292 16.7681C61.0131 16.8266 60.8817 16.9698 60.9267 17.2065C60.9559 17.3603 60.9233 17.428 60.805 17.4591C60.5905 17.5156 60.5734 18.0591 60.7849 18.1009C60.9043 18.1244 60.924 18.2422 60.9117 18.8622C60.9037 19.2656 60.929 19.7096 60.9678 19.8487C61.0716 20.2208 61.4179 20.4505 61.7715 20.382C62.2107 20.2969 62.281 20.2234 62.2195 19.9136C62.1765 19.6973 62.1215 19.6388 61.9613 19.6388C61.762 19.6388 61.7577 19.6224 61.7577 18.8574V18.0761L62.1649 18.1024C62.5619 18.128 62.5727 18.1362 62.5999 18.4307C62.6344 18.8053 62.8947 19.0966 63.2951 19.2083C63.7197 19.3269 63.8486 19.426 63.7872 19.5869C63.7218 19.7586 63.4715 19.7632 63.0835 19.6001C62.7911 19.4771 62.7841 19.4791 62.6577 19.7252C62.4891 20.0534 62.4859 20.0431 62.8078 20.212C63.1707 20.4026 64.0726 20.4214 64.2864 20.2428C64.563 20.012 64.6877 19.5863 64.5881 19.2136C64.4923 18.8558 64.2322 18.6313 63.8165 18.5476C63.5225 18.4884 63.344 18.3106 63.433 18.1658C63.4931 18.0677 63.9636 18.0931 64.2496 18.2098C64.3489 18.2504 64.408 18.1865 64.4753 17.9657C64.5628 17.6789 64.5558 17.6623 64.301 17.5561C64.1194 17.4803 63.6761 17.4527 62.8966 17.4685L61.7577 17.4916V17.0983C61.7577 16.6911 61.7553 16.6892 61.3292 16.7681ZM34.7246 17.522C34.4946 17.588 34.2685 17.6801 34.2221 17.7268C34.1112 17.8384 34.2705 18.3097 34.4085 18.2781C34.4643 18.2652 34.6783 18.2095 34.8841 18.1541C35.302 18.0416 35.5286 18.1425 35.5286 18.4413C35.5286 18.5796 35.4615 18.6033 35.0698 18.6033C34.2382 18.6033 33.7573 19.1579 33.9854 19.8538C34.1574 20.3783 34.9515 20.5692 35.3712 20.1869C35.5132 20.0576 35.5292 20.0577 35.5788 20.188C35.6174 20.289 35.7396 20.3291 36.0092 20.3291H36.3857L36.3772 19.2721C36.3725 18.6906 36.3426 18.1215 36.3109 18.0071C36.1746 17.5169 35.4818 17.305 34.7246 17.522ZM37.8978 17.6084C37.6019 17.8105 37.5858 17.8127 37.5858 17.6515C37.5858 17.5076 37.5266 17.4815 37.2 17.4815H36.8143V18.9053V20.3291H37.2H37.5858V19.4725C37.5858 18.6476 37.5943 18.6092 37.8139 18.4351C37.9395 18.3357 38.1324 18.2317 38.2425 18.2038C38.4146 18.1603 38.4429 18.0995 38.4429 17.7742C38.4429 17.3272 38.3505 17.299 37.8978 17.6084ZM39.3552 17.4807C39.0518 17.5763 38.807 17.7941 38.642 18.1153C38.4974 18.3968 38.471 19.317 38.5982 19.6388C38.877 20.3433 39.7397 20.5892 40.5215 20.1871C40.7856 20.0512 40.8045 19.9803 40.6501 19.7023C40.5912 19.5962 40.5401 19.5001 40.5367 19.4887C40.5334 19.4774 40.3708 19.5313 40.1754 19.6085C39.8474 19.7382 39.8042 19.7382 39.6071 19.6083C39.2096 19.346 39.2122 18.4629 39.6114 18.1996C39.7918 18.0807 39.8734 18.0761 40.1776 18.1678C40.4943 18.2633 40.5453 18.2582 40.6452 18.1207C40.7068 18.0358 40.7573 17.9164 40.7573 17.8554C40.7573 17.5675 39.8496 17.3249 39.3552 17.4807ZM46.2231 17.5193C46.0871 17.5908 45.9681 17.6087 45.9395 17.562C45.9123 17.5177 45.7189 17.4815 45.5095 17.4815H45.1288V19.5141V21.5467L45.5359 21.5204L45.9431 21.4941V20.8642C45.9431 20.2754 45.9542 20.2376 46.1145 20.2838C46.5774 20.4174 46.7508 20.4205 47.0362 20.3005C47.437 20.1319 47.6294 19.7525 47.6808 19.0286C47.7347 18.2698 47.5043 17.7071 47.0637 17.5218C46.6884 17.3639 46.5201 17.3634 46.2231 17.5193ZM49.1091 17.5706C48.713 17.774 48.7289 17.7723 48.7289 17.611C48.7289 17.5151 48.6288 17.4815 48.3432 17.4815H47.9574V18.9053V20.3291H48.3402H48.723L48.7474 19.4083L48.7717 18.4875L49.0289 18.336C49.1703 18.2526 49.3536 18.1816 49.436 18.1782C49.5524 18.1732 49.586 18.0958 49.586 17.8318C49.586 17.6447 49.5532 17.4713 49.513 17.4463C49.4728 17.4213 49.2911 17.4772 49.1091 17.5706ZM50.6097 17.4738C49.9661 17.68 49.6718 18.1265 49.6718 18.8963C49.6718 19.4772 49.7798 19.7791 50.0822 20.0429C50.7514 20.6267 51.8748 20.4178 52.2645 19.6371C52.4495 19.2665 52.4607 18.5117 52.2862 18.172C52.007 17.6285 51.1894 17.288 50.6097 17.4738ZM58.972 17.4996C58.4 17.7014 58.1577 18.1331 58.1577 18.95C58.1577 19.7503 58.5003 20.2539 59.1207 20.3653C59.4707 20.4281 59.9963 20.3165 60.258 20.1238C60.4101 20.0119 60.4138 19.9801 60.3011 19.7554C60.2332 19.6201 60.1727 19.4992 60.1666 19.4867C60.1604 19.4742 60.008 19.5259 59.8278 19.6018C59.2328 19.852 58.8594 19.4632 58.9712 18.7095C59.0103 18.4461 59.0884 18.2999 59.2453 18.1964C59.4463 18.0638 59.4959 18.0628 59.8322 18.1846C60.1941 18.3155 60.2009 18.3145 60.2929 18.1112C60.4496 17.7649 60.4022 17.6758 59.9853 17.5328C59.5301 17.3767 59.3381 17.3704 58.972 17.4996ZM55.5137 18.7353C55.5433 19.9975 55.5437 19.9994 55.7838 20.2073C56.0765 20.4606 56.3028 20.469 56.7433 20.2428C57.1455 20.0364 57.1291 20.0382 57.1291 20.1997C57.1291 20.2956 57.2291 20.3291 57.5148 20.3291H57.9005V18.9053V17.4815H57.5148H57.1291L57.1189 18.3229C57.1133 18.7857 57.1149 19.1982 57.1225 19.2397C57.1511 19.3971 56.8356 19.6388 56.6015 19.6388C56.3942 19.6388 56.3566 19.6032 56.3508 19.4015C56.3472 19.271 56.3375 18.7953 56.3294 18.3444L56.3148 17.5247L55.8995 17.498L55.4842 17.4714L55.5137 18.7353ZM46.7085 18.2211C46.8789 18.3928 46.8898 19.354 46.7238 19.5741C46.6004 19.7377 46.2768 19.7712 46.0729 19.6414C45.9746 19.5788 45.952 19.4168 45.974 18.9308C45.9896 18.5846 46.0419 18.2528 46.0904 18.1934C46.2127 18.0436 46.5469 18.0586 46.7085 18.2211ZM51.4007 18.2284C51.6044 18.4139 51.6194 19.2526 51.424 19.5333C51.2614 19.7671 50.8675 19.7888 50.6825 19.5741C50.4171 19.2659 50.4388 18.3372 50.7156 18.1606C50.9006 18.0425 51.2328 18.0754 51.4007 18.2284ZM54.2833 18.1891C54.4415 18.3484 54.4171 19.4227 54.2515 19.5895C54.047 19.7953 53.7254 19.7574 53.5633 19.5083C53.3986 19.2553 53.4284 18.441 53.6104 18.2203C53.7419 18.0607 54.1376 18.0424 54.2833 18.1891ZM35.5286 19.2831C35.5286 19.593 35.3538 19.7459 35.0409 19.7097C34.547 19.6528 34.7637 19.0348 35.2775 19.0348C35.497 19.0348 35.5286 19.0661 35.5286 19.2831ZM47.2717 23.9965V24.2122H49.4146H51.5575V23.9965V23.7808H49.4146H47.2717V23.9965ZM47.5011 27.8755C47.3207 27.9401 47.1633 28.0064 47.1512 28.0226C46.9315 28.317 46.8431 28.5313 46.8431 28.7699C46.8431 29.2725 47.0767 29.5371 47.8697 29.9325C48.6411 30.3171 48.8088 30.5244 48.7004 30.9591C48.5638 31.5069 47.3934 31.4943 47.0998 30.942C46.9924 30.7399 46.9407 30.734 46.724 30.8992C46.5714 31.0155 46.5703 31.0353 46.7038 31.2406C47.0668 31.7983 48.2421 32.0023 48.8233 31.6084C49.3965 31.2201 49.4245 30.4078 48.8803 29.9469C48.7308 29.8201 48.3943 29.619 48.1329 29.5C47.8714 29.3809 47.5899 29.2237 47.5074 29.1506C47.312 28.9775 47.3155 28.5916 47.5142 28.4107C47.7389 28.206 48.2551 28.2263 48.4602 28.4479C48.5975 28.5962 48.6584 28.6109 48.8064 28.5311C49.0116 28.4206 49.0223 28.3657 48.8761 28.1741C48.623 27.8422 47.982 27.703 47.5011 27.8755ZM53.308 27.8714C52.7197 28.0149 52.2932 28.3636 52.0211 28.9235C51.7117 29.56 51.7479 30.3006 52.1182 30.9121C52.6451 31.7826 53.9839 32.1013 54.9796 31.5934L55.4147 31.3714V30.6455V29.9196L54.6431 29.8919L53.8714 29.8642L53.8717 30.1015C53.8718 30.334 53.8823 30.3388 54.3861 30.3388H54.9004V30.7315C54.9004 31.0981 54.8806 31.1326 54.6032 31.2493C53.8761 31.5551 52.937 31.2942 52.6014 30.6931C52.3052 30.1624 52.2681 29.63 52.4937 29.1451C52.7681 28.5555 53.1617 28.311 53.837 28.311C54.2535 28.311 54.4281 28.3529 54.6267 28.5008C54.8791 28.6886 54.8833 28.6888 55.033 28.5223C55.1775 28.3617 55.1774 28.3466 55.0319 28.1848C54.7409 27.8611 53.9441 27.7162 53.308 27.8714ZM39.2144 29.8211V31.8284L40.093 31.788C41.055 31.7438 41.4611 31.5982 41.8897 31.1437C42.519 30.4763 42.5426 29.2541 41.9393 28.5625C41.4969 28.0552 41.0926 27.9001 40.093 27.8542L39.2144 27.8138V29.8211ZM43.3486 29.7995L43.3716 31.7626L44.6418 31.7865L45.9121 31.8104L45.8847 31.5708L45.8574 31.3312L44.8931 31.3067L43.9288 31.2823V30.8568V30.4313L44.7645 30.4067C45.6305 30.3811 45.628 30.3823 45.5683 30.0152C45.5625 29.9796 45.1912 29.9629 44.7432 29.978L43.9288 30.0055V29.1799V28.3541H44.8716H45.8145V28.0953V27.8364H44.57H43.3255L43.3486 29.7995ZM50.2718 29.8211V31.8058H50.5289H50.7861V29.8211V27.8364H50.5289H50.2718V29.8211ZM56.4433 29.8196V31.8172L56.6791 31.7899L56.9148 31.7626L56.9331 30.4251C56.9432 29.6895 56.9532 29.0488 56.9551 29.0013C56.9571 28.9539 57.026 29.0176 57.1082 29.1429C57.2518 29.3619 58.2715 30.5149 59.1199 31.4175L59.5254 31.8489L59.5272 29.837L59.5291 27.8249L59.2934 27.8523L59.0577 27.8795L59.059 29.2386C59.0596 29.9862 59.044 30.5977 59.0243 30.5977C59.0045 30.5977 58.8497 30.4335 58.6802 30.2327C58.1219 29.5715 56.5823 27.8802 56.5122 27.8508C56.4743 27.8349 56.4433 28.721 56.4433 29.8196ZM41.2167 28.5784C41.6099 28.8474 41.7859 29.2315 41.7859 29.8211C41.7859 30.4106 41.6099 30.7948 41.2167 31.0638C40.9435 31.2507 40.7922 31.288 40.3088 31.288H39.7287V29.8211V28.3541H40.3088C40.7922 28.3541 40.9435 28.3915 41.2167 28.5784ZM30.3008 35.3195C29.5039 37.1924 29.1856 37.9629 29.1856 38.0182C29.1856 38.0453 29.289 38.0629 29.4155 38.0574C29.5844 38.0499 29.6795 37.9748 29.7739 37.7741L29.9024 37.5009H30.8642H31.826L31.9156 37.7598C31.9888 37.9712 32.0533 38.0187 32.2669 38.0187C32.4108 38.0187 32.5285 38.006 32.5285 37.9904C32.5285 37.9421 32.0932 36.8758 31.8883 36.4223C31.7811 36.185 31.5291 35.5831 31.3283 35.0848C31.1276 34.5865 30.9363 34.1485 30.9033 34.1115C30.8703 34.0744 30.5991 34.6181 30.3008 35.3195ZM34.8465 34.9756C34.6455 35.4866 34.4002 36.1155 34.3012 36.3735L34.1213 36.8424L33.6959 35.489L33.2706 34.1356H32.9852C32.8284 34.1356 32.6999 34.1586 32.6999 34.1866C32.6999 34.3816 34.0241 38.0996 34.0741 38.0447C34.1636 37.9465 35.1857 35.4441 35.1857 35.3231C35.1857 35.1267 35.3278 35.3911 35.5677 36.034C36.043 37.3081 36.4166 38.1143 36.4792 38.0008C36.5555 37.8623 37.7572 34.2789 37.7572 34.1895C37.7572 34.1538 37.6391 34.1368 37.4947 34.1517C37.2379 34.1782 37.2237 34.2045 36.8526 35.3437C36.6438 35.9844 36.4727 36.5766 36.4722 36.6596C36.4718 36.7426 36.4329 36.8106 36.3857 36.8106C36.3386 36.8106 36.3 36.7588 36.3 36.6953C36.3 36.5764 35.3363 34.1722 35.2564 34.0918C35.2318 34.067 35.0473 34.4647 34.8465 34.9756ZM39.3694 34.5306C38.6752 36.1107 37.9333 37.9566 37.9691 38.0147C38.0619 38.166 38.433 37.9922 38.5322 37.7511L38.6352 37.5009H39.5917H40.5483L40.6453 37.7598C40.7243 37.9704 40.7917 38.0187 41.007 38.0187C41.1525 38.0187 41.2716 38.0076 41.2716 37.9938C41.2716 37.9802 41.133 37.6405 40.9636 37.2388C40.7943 36.8372 40.51 36.1591 40.3319 35.732C40.1538 35.3048 39.9149 34.7448 39.801 34.4875L39.5939 34.0196L39.3694 34.5306ZM50.4595 34.2241C50.0863 34.4532 49.9088 34.8751 50.0182 35.2737C50.1262 35.6675 50.3792 35.894 51.1396 36.2774C51.8606 36.641 52.0349 36.9075 51.8118 37.3058C51.5553 37.7639 50.7855 37.7725 50.3384 37.3223C50.1345 37.1172 50.057 37.0867 49.9226 37.1591C49.7214 37.2676 49.7182 37.3199 49.8974 37.5774C50.2102 38.027 51.1651 38.238 51.7531 37.9874C52.2135 37.7913 52.3718 37.5435 52.3718 37.0193C52.3718 36.4414 52.1917 36.2376 51.2397 35.7376C50.6058 35.4047 50.5704 35.3706 50.5455 35.0684C50.5239 34.8076 50.5581 34.7244 50.7349 34.6078C50.9991 34.4335 51.4052 34.5023 51.6455 34.762C51.807 34.9366 51.8166 34.9372 51.9853 34.7835C52.1514 34.6321 52.1525 34.6181 52.0082 34.4549C51.6448 34.0437 50.9276 33.9368 50.4595 34.2241ZM55.7147 34.2215C55.3931 34.3828 54.9862 34.8508 54.9862 35.0592C54.9862 35.2043 55.4458 35.2932 55.4909 35.1569C55.5116 35.0944 55.6349 34.9361 55.7651 34.8052C55.9428 34.6262 56.085 34.5671 56.3377 34.5671C56.7835 34.5671 56.9576 34.7667 56.9576 35.278C56.9576 35.7474 56.7132 36.0891 55.5568 37.2359C55.1534 37.6358 54.837 37.9853 54.8536 38.0125C54.8702 38.0396 55.4854 38.0502 56.2207 38.036L57.5576 38.0102V37.7987C57.5576 37.5882 57.5539 37.5872 56.687 37.5872H55.8164L56.382 37.0479C57.1225 36.342 57.5576 35.6838 57.5575 35.2703C57.5571 34.3121 56.6094 33.7727 55.7147 34.2215ZM59.5624 34.173C58.767 34.5215 58.3459 35.6849 58.6275 36.7557C58.8526 37.6115 59.2774 38.0134 60.0247 38.0777C60.6992 38.1358 61.1741 37.8802 61.5127 37.2767C62.4497 35.6071 61.1197 33.4906 59.5624 34.173ZM42.2144 36.0693V38.0187H42.4673C42.7141 38.0187 42.7208 38.007 42.7459 37.5368L42.7716 37.0551L43.2063 37.0319L43.6408 37.0086L43.9597 37.5044C44.2091 37.8922 44.3346 38.0084 44.536 38.0382C44.6776 38.0591 44.8128 38.0447 44.8366 38.0061C44.8602 37.9674 44.7235 37.7232 44.5328 37.4632C44.342 37.2032 44.1859 36.9614 44.1859 36.9258C44.1859 36.8902 44.3287 36.7138 44.5033 36.5339C44.7886 36.2397 44.824 36.1521 44.8536 35.6673C44.8816 35.2104 44.856 35.083 44.6863 34.8339C44.3022 34.2702 44.0988 34.1819 43.1085 34.1493L42.2144 34.1199V36.0693ZM45.9002 36.0752V38.034L46.8288 38.0047C47.6884 37.9777 47.7887 37.956 48.1788 37.7131C48.7189 37.3769 48.993 36.8925 49.0477 36.1777C49.1031 35.4524 48.7855 34.8192 48.1761 34.4399C47.7928 34.2013 47.6853 34.1781 46.8299 34.1486L45.9002 34.1165V36.0752ZM62.872 34.3513C62.872 34.5553 62.8978 34.5671 63.3435 34.5671H63.8149V36.0771V37.5872H63.3006C62.8092 37.5872 62.7863 37.5968 62.7863 37.803V38.0187H64.0242C64.705 38.0187 65.2837 37.9834 65.3102 37.9402C65.3366 37.897 65.3348 37.7999 65.306 37.7244C65.2672 37.6225 65.135 37.5872 64.7915 37.5872H64.3292V35.8614V34.1356H63.6006C62.8806 34.1356 62.872 34.1381 62.872 34.3513ZM67.5281 34.8307C66.751 35.9135 66.5621 36.2831 66.5598 36.7257C66.5542 37.8098 67.6441 38.4264 68.6766 37.9233C69.9098 37.3223 69.4372 35.3638 68.0792 35.4479C67.8553 35.4618 67.6721 35.4562 67.6721 35.4355C67.6722 35.4149 67.7425 35.3178 67.8286 35.2198C67.9146 35.1218 68.13 34.8378 68.3073 34.5886L68.6296 34.1356H68.3282C68.0497 34.1356 67.989 34.1884 67.5281 34.8307ZM43.7973 34.6897C44.4898 34.981 44.5489 36.0998 43.8884 36.4153C43.7314 36.4904 43.4062 36.5517 43.1658 36.5517H42.7287V35.5594V34.5671H43.1172C43.3309 34.5671 43.6369 34.6223 43.7973 34.6897ZM47.8067 34.8008C48.2635 35.0694 48.4717 35.4622 48.4717 36.0553C48.4717 37.0616 48.0167 37.5271 47.0225 37.538L46.4574 37.5441L46.4337 36.1669C46.4206 35.4094 46.4312 34.7343 46.457 34.6666C46.5229 34.4936 47.4393 34.5848 47.8067 34.8008ZM60.7537 34.7406C61.101 35.0155 61.2739 35.5853 61.2237 36.2899C61.1605 37.1802 60.8028 37.6122 60.1363 37.6029C59.5038 37.5941 59.1908 37.2009 59.1211 36.3277C59.0338 35.2328 59.4293 34.5671 60.167 34.5671C60.4055 34.5671 60.6115 34.628 60.7537 34.7406ZM31.2789 36.1653C31.4476 36.5935 31.5856 36.9722 31.5856 37.0067C31.5856 37.0413 31.2578 37.0695 30.857 37.0695C30.4563 37.0695 30.1285 37.0439 30.1285 37.0124C30.1285 36.9811 30.2915 36.5316 30.4907 36.0135C30.7526 35.3323 30.8695 35.1152 30.9125 35.2292C30.9453 35.3159 31.1102 35.7372 31.2789 36.1653ZM39.9971 36.151C40.1795 36.6188 40.3287 37.0168 40.3287 37.0355C40.3287 37.1 38.8715 37.0693 38.8693 37.0048C38.8639 36.8433 39.6 35.0855 39.6307 35.1866C39.6497 35.2493 39.8146 35.6832 39.9971 36.151ZM68.5726 36.0697C69.1792 36.6804 68.7673 37.6406 67.9084 37.6179C67.1471 37.5978 66.7815 36.6585 67.3227 36.1136C67.6589 35.7751 68.259 35.7541 68.5726 36.0697ZM48.7289 40.5211C48.7289 40.5686 48.806 40.6074 48.9003 40.6074C48.9946 40.6074 49.0717 40.6588 49.0717 40.7217C49.0717 40.8431 48.6681 42.078 48.609 42.1375C48.5898 42.1567 48.4991 42.1254 48.4073 42.0677C48.0375 41.8351 47.3844 42.2326 46.8699 43.0033C46.4766 43.5923 46.3154 44.2231 46.5009 44.4481C46.7211 44.7151 47.0779 44.6021 47.5892 44.1035C47.8561 43.8433 48.0872 43.6432 48.1028 43.6589C48.1184 43.6745 48.0727 43.828 48.0014 43.9998C47.8217 44.4327 47.8364 44.5768 48.0599 44.5768C48.2598 44.5768 48.9003 44.1732 48.9003 44.0473C48.9003 43.9395 48.7957 43.96 48.6054 44.1049C48.1703 44.4362 48.1922 44.3115 48.9095 42.3764C49.2438 41.4746 49.5372 40.6688 49.5616 40.5858C49.5998 40.4559 49.5449 40.4348 49.1675 40.4348C48.9262 40.4348 48.7289 40.4736 48.7289 40.5211ZM53.2718 40.5211C53.2718 40.5686 53.3683 40.6074 53.4861 40.6074C53.7579 40.6074 53.7564 40.7017 53.4722 41.487C53.2018 42.2336 53.2107 42.2199 53.0818 42.0901C52.6413 41.6467 51.3981 42.743 51.1142 43.8253C50.9837 44.3227 51.0721 44.5217 51.4401 44.5592C51.7211 44.5879 52.2029 44.2632 52.47 43.8651C52.7004 43.5216 52.7688 43.5738 52.6252 43.9836C52.4559 44.4666 52.4676 44.5768 52.6886 44.5768C52.8884 44.5768 53.529 44.1732 53.529 44.0473C53.529 43.9395 53.4244 43.96 53.234 44.1049C52.7903 44.4428 52.819 44.2866 53.5718 42.2695C53.9254 41.3221 54.2147 40.5217 54.2147 40.4909C54.2147 40.46 54.0026 40.4348 53.7433 40.4348C53.484 40.4348 53.2718 40.4736 53.2718 40.5211ZM50.3779 40.7077C50.239 40.8475 50.244 40.9123 50.4063 41.0757C50.5911 41.2617 50.8929 41.1027 50.8556 40.8388C50.8251 40.6231 50.5398 40.5447 50.3779 40.7077ZM58.1719 41.3324C58.0618 41.3921 57.8997 41.6029 57.8118 41.8008C57.6746 42.1091 57.6143 42.1606 57.3904 42.1606C57.2106 42.1606 57.1291 42.2026 57.1291 42.2955C57.1291 42.3858 57.1927 42.4214 57.3219 42.4034C57.5648 42.3694 57.557 42.4051 57.0793 43.5093C56.871 43.9911 56.7005 44.4284 56.7005 44.4811C56.7005 44.7499 57.736 44.3968 57.9447 44.0568C58.0601 43.8689 57.8961 43.8605 57.7018 44.0443C57.5006 44.2345 57.2148 44.2974 57.2148 44.1515C57.2148 44.1074 57.3729 43.7018 57.5662 43.25L57.9176 42.4286L58.2667 42.4025C58.7146 42.3689 58.8113 42.1606 58.3791 42.1606C58.2102 42.1606 58.0719 42.1397 58.0719 42.114C58.0719 42.0884 58.1513 41.9108 58.2483 41.7192C58.4613 41.2993 58.4391 41.1874 58.1719 41.3324ZM39.5817 42.1578C39.1503 42.4226 38.6144 43.45 38.6144 44.0121C38.6144 44.3043 38.8552 44.5768 39.1137 44.5768C39.3559 44.5768 39.9858 44.2005 39.9858 44.0559C39.9858 43.932 39.9083 43.9537 39.6664 44.1453C39.3661 44.383 39.144 44.3664 39.0778 44.101C38.9469 43.5754 39.3475 42.4075 39.6802 42.3454C39.7714 42.3284 39.8948 42.3818 39.9546 42.4641C40.0865 42.6457 40.3287 42.5739 40.3287 42.3531C40.3287 42.1599 40.1691 41.988 39.9901 41.9884C39.917 41.9886 39.7332 42.0648 39.5817 42.1578ZM41.743 42.1504C40.9724 42.635 40.2529 43.9392 40.4999 44.4038C40.6758 44.7346 41.0592 44.6292 41.5771 44.1078C41.8334 43.8499 42.0426 43.6654 42.0421 43.6979C42.0416 43.7304 41.9856 43.9415 41.9176 44.1669C41.7943 44.5757 41.7946 44.5768 41.9977 44.5768C42.2578 44.5768 42.9672 44.0115 42.8523 43.8958C42.8311 43.8744 42.7246 43.9413 42.6158 44.0443C42.1919 44.4451 42.1993 44.2508 42.6543 43.0236C43.001 42.0891 43.0311 41.8575 42.7791 42.068C42.6877 42.1444 42.6079 42.1478 42.4827 42.0803C42.236 41.9475 42.0356 41.9665 41.743 42.1504ZM43.9716 42.1473C43.6823 42.3286 43.3468 42.6794 43.4655 42.6765C43.5082 42.6754 43.6395 42.5986 43.7573 42.5058C44.2089 42.1503 44.2086 42.3418 43.7561 43.5379C43.5682 44.0344 43.4145 44.4713 43.4145 44.5087C43.4145 44.5461 43.4819 44.5768 43.5645 44.5767C43.6689 44.5766 43.8048 44.3731 44.0116 43.9079C44.3382 43.1726 45.0678 42.3332 45.3804 42.3332C45.628 42.3332 45.6074 42.4762 45.2145 43.4879C45.0259 43.9734 44.8716 44.417 44.8716 44.4737C44.8716 44.6512 45.2621 44.5863 45.6097 44.351C46.0249 44.07 46.0251 44.0697 45.9648 44.009C45.9374 43.9814 45.8166 44.0239 45.6961 44.1034C45.5757 44.1828 45.4408 44.2344 45.3963 44.2181C45.3519 44.2018 45.4645 43.8001 45.6468 43.3255C46.0273 42.3344 46.0569 42.1086 45.8168 42.0319C45.5712 41.9534 45.1139 42.202 44.6544 42.6636C44.2706 43.0493 44.2595 43.0543 44.3962 42.7805C44.5626 42.447 44.5423 42.0428 44.3573 42.0094C44.2866 41.9967 44.1131 42.0587 43.9716 42.1473ZM49.9545 42.2686C49.6132 42.5343 49.4528 42.7457 49.532 42.8254C49.5518 42.8452 49.6666 42.762 49.7873 42.6405C49.9802 42.4463 50.1861 42.3508 50.1861 42.4555C50.1861 42.4752 50.0318 42.9251 49.8432 43.455C49.6546 43.9849 49.5003 44.4541 49.5003 44.4976C49.5003 44.7247 50.1802 44.4856 50.4786 44.1536C50.7024 43.9046 50.5761 43.8117 50.3302 44.0443C50.1481 44.2165 49.9289 44.2942 49.9289 44.1866C49.9289 44.1619 50.0684 43.7832 50.2391 43.3452C50.7405 42.0579 50.6526 41.7251 49.9545 42.2686ZM55.2004 42.1475C54.5257 42.5642 53.9582 43.4277 53.9296 44.0815C53.9006 44.7474 54.4058 44.7378 55.0795 44.0595C55.4759 43.6604 55.5952 43.6251 55.4266 43.9568C55.3859 44.0368 55.3274 44.2089 55.2964 44.3395C55.2463 44.5505 55.2639 44.5768 55.4557 44.5768C55.6681 44.5768 56.4096 43.9963 56.3166 43.9027C56.2917 43.8776 56.1751 43.9479 56.0576 44.059C55.9401 44.1702 55.815 44.2319 55.7796 44.1963C55.7442 44.1607 55.8623 43.7171 56.042 43.2108C56.4948 41.9349 56.4822 41.988 56.3319 41.988C56.2596 41.988 56.1858 42.0325 56.1678 42.0867C56.1433 42.1607 56.0894 42.1607 55.952 42.0867C55.6946 41.948 55.4976 41.964 55.2004 42.1475ZM59.6992 42.1476C59.1124 42.461 58.5862 43.3714 58.5862 44.0733C58.5862 44.4522 58.7146 44.5768 59.1048 44.5768C59.4192 44.5768 60.1291 44.1577 60.1291 43.9722C60.1291 43.8387 60.0462 43.8687 59.7707 44.1022C59.2814 44.5165 58.8962 44.2999 58.9906 43.6635C59.026 43.4249 59.0758 43.3856 59.4725 43.2834C60.2015 43.0957 60.7036 42.4283 60.3691 42.0916C60.2256 41.9471 60.0464 41.9621 59.6992 42.1476ZM42.2994 42.2891C42.4648 42.4898 42.331 42.965 41.9757 43.439C41.6413 43.885 41.1772 44.3179 41.0334 44.3179C40.6869 44.3179 41.0659 43.0662 41.5743 42.5321C41.9484 42.1391 42.1265 42.0794 42.2994 42.2891ZM48.2831 42.2642C48.5526 42.5355 48.2587 43.2462 47.6049 43.9044C46.9093 44.6046 46.6641 44.3627 47.0544 43.3611C47.2096 42.9628 47.3914 42.6759 47.6205 42.4676C47.9797 42.1408 48.1183 42.0982 48.2831 42.2642ZM52.9118 42.2642C53.1487 42.5026 52.9749 43.0288 52.44 43.6937C52.0984 44.1183 51.67 44.3793 51.5361 44.2445C51.4295 44.1373 51.5758 43.4949 51.8137 43.0253C51.9878 42.6819 52.5224 42.1606 52.7005 42.1606C52.7602 42.1606 52.8553 42.2072 52.9118 42.2642ZM55.7858 42.3468C55.9508 42.6105 55.7023 43.1571 55.144 43.7578C54.8578 44.0658 54.5728 44.3179 54.5107 44.3179C54.0868 44.3179 54.5361 42.9425 55.132 42.4158C55.4502 42.1345 55.6405 42.1145 55.7858 42.3468ZM60.1145 42.4498C60.1548 42.6608 59.8297 42.9957 59.4679 43.1159C59.0997 43.2382 59.0539 43.1921 59.2211 42.8666C59.4893 42.3444 60.0448 42.0853 60.1145 42.4498Z" fill="white"/>
</svg>
