<svg width="99" height="60" viewBox="0 0 99 60" fill="none" xmlns="http://www.w3.org/2000/svg">
<path fill-rule="evenodd" clip-rule="evenodd" d="M65.931 0.0112511C65.9127 0.0296658 63.9973 0.292472 61.6745 0.595107C59.3518 0.897742 56.4451 1.27687 55.2151 1.4376C53.9851 1.59833 52.2519 1.82448 51.3636 1.94022C50.4752 2.05604 48.3321 2.33551 46.601 2.5614C44.8699 2.78721 41.9812 3.16167 40.1818 3.39348C38.3823 3.62521 36.2578 3.90218 35.4606 4.00883C34.6634 4.11557 32.8836 4.34796 31.5055 4.52519L29 4.84758V23.3321V41.8167L29.3106 41.7682C29.4815 41.7415 30.2362 41.6443 30.9879 41.5521C31.7395 41.4598 32.4944 41.3626 32.6651 41.3359L32.9757 41.2874V47.3775C32.9757 50.7269 33.0037 53.4667 33.0379 53.4658C33.072 53.4649 33.3609 53.4262 33.6798 53.3796C34.2546 53.2958 38.3356 52.761 41.9212 52.2996C42.9462 52.1678 44.3812 51.9809 45.1101 51.8843C45.8389 51.7877 46.6962 51.6752 47.0151 51.6341C47.334 51.5931 48.3217 51.4644 49.21 51.3482C50.0984 51.232 51.7011 51.0247 52.7717 50.8874C53.8422 50.7503 56.004 50.4683 57.5757 50.2609C59.1473 50.0535 61.4396 49.7537 62.6696 49.5946C69.0006 48.7758 69.9278 48.6516 69.9617 48.6175C70.0095 48.5694 70.0142 30.3732 69.9664 30.3251C69.9311 30.2897 66.6696 30.6798 66.2933 30.7644L66.107 30.8064V15.4363C66.107 6.94036 66.0751 0.0464139 66.0357 0.0219165C65.9965 -0.0024143 65.9493 -0.00724699 65.931 0.0112511ZM54.6258 10.0662C54.7387 10.1179 54.8745 10.2654 54.9273 10.394C55.0815 10.7684 54.9557 11.1055 54.5323 11.4527C53.7926 12.0594 53.6818 12.1831 53.6286 12.462L53.5748 12.7438L54.105 12.6861C54.3967 12.6543 54.7059 12.6212 54.792 12.6125C54.8782 12.6038 54.9637 12.6391 54.982 12.6909C55.0141 12.7822 54.9131 12.8042 53.8691 12.9335L53.4343 12.9874V12.5751C53.4343 12.1162 53.4812 12.0497 54.2886 11.3629C54.7937 10.9333 54.8983 10.6235 54.6294 10.3529C54.3869 10.109 53.8133 10.2516 53.6864 10.5874C53.5862 10.8525 53.4343 10.9434 53.4343 10.7381C53.4343 10.4948 53.7441 10.15 54.04 10.0639C54.3983 9.95963 54.3933 9.95963 54.6258 10.0662ZM48.9239 11.0098C49.1142 11.2012 49.1272 11.2709 49.1272 12.0972C49.1272 13.1146 49.0338 13.3787 48.6007 13.5854C48.1996 13.7769 47.9111 13.7556 47.674 13.5171C47.4814 13.3234 47.4707 13.2614 47.4707 12.3422V11.3719L47.7523 11.0886C48.1151 10.7236 48.6066 10.6906 48.9239 11.0098ZM45.3315 11.4563C45.4078 11.5336 45.4824 11.6705 45.4972 11.7605C45.5356 11.9936 45.2562 12.0268 45.0579 11.8128C44.8547 11.5934 44.6192 11.5907 44.406 11.8052C44.2638 11.9483 44.2404 12.0829 44.2404 12.7575C44.2404 13.5914 44.326 13.805 44.6604 13.805C44.8283 13.805 45.1515 13.5308 45.1515 13.3884C45.1515 13.3425 45.2447 13.305 45.3585 13.305C45.6141 13.305 45.6168 13.3704 45.3762 13.7301C45.0389 14.2344 44.2856 14.3291 44.0075 13.9021C43.8982 13.7342 43.8676 13.4922 43.8676 12.794C43.8676 12.0178 43.8904 11.8698 44.0411 11.6654C44.3546 11.2402 45.0131 11.1334 45.3315 11.4563ZM47.988 11.3181C47.9185 11.388 47.8848 11.7129 47.8848 12.3129C47.8848 13.0485 47.9077 13.2127 48.0158 13.2544C48.2476 13.3439 48.4355 13.3089 48.579 13.1493C48.6954 13.02 48.7151 12.8467 48.6954 12.1286L48.6717 11.2636L48.3814 11.2389C48.2217 11.2254 48.0447 11.261 47.988 11.3181ZM41.2398 13.1592C41.2174 14.5785 41.2148 14.5969 41.0308 14.6232L40.8444 14.6498V13.2336C40.8444 11.7451 40.8346 11.7864 41.1984 11.7315C41.2336 11.7262 41.2523 12.3686 41.2398 13.1592ZM54.7595 15.8048C54.9059 15.952 54.9252 16.0825 54.9252 16.9242C54.9252 18.0177 54.8633 18.2463 54.5187 18.4255C54.1638 18.6101 53.8713 18.5851 53.6376 18.3499C53.4453 18.1565 53.4344 18.0944 53.4372 17.2042C53.4403 16.1946 53.5121 15.947 53.8575 15.7544C54.1538 15.5892 54.5683 15.6124 54.7595 15.8048ZM53.8669 16.0178C53.6944 16.1393 53.6828 16.2093 53.6828 17.126C53.6828 18.2021 53.7227 18.3045 54.142 18.3045C54.6056 18.3045 54.7142 18.0804 54.7458 17.0591C54.7689 16.312 54.7508 16.1412 54.6364 16.0261C54.4637 15.8524 54.1069 15.8486 53.8669 16.0178ZM48.9239 16.5926C49.1603 16.8303 49.1859 17.0372 48.9882 17.1135C48.8971 17.1487 48.8082 17.1048 48.7296 16.9859C48.5862 16.7685 48.2505 16.7475 48.0363 16.9426C47.9083 17.059 47.8848 17.2129 47.8848 17.9335C47.8848 18.6346 47.9082 18.7956 48.0158 18.8372C48.2904 18.9432 48.5455 18.8848 48.6747 18.6865C48.9466 18.2691 49.2864 18.3368 49.0793 18.767C48.8736 19.1941 48.2907 19.4239 47.8471 19.2527C47.5855 19.1517 47.4707 18.7594 47.4707 17.9671C47.4707 17.076 47.6005 16.7178 47.9942 16.5224C48.3776 16.3323 48.6885 16.3557 48.9239 16.5926ZM44.903 18.3045C44.903 19.1092 44.8701 19.721 44.827 19.721C44.7851 19.721 44.6919 19.7438 44.6199 19.7716C44.5034 19.8165 44.4888 19.6586 44.4888 18.3551V16.888H44.6959H44.903V18.3045ZM41.9212 18.7211V20.1376H41.6787C41.4534 20.1376 41.4072 20.0776 41.0232 19.2836L40.61 18.4295L40.603 19.3669L40.5959 20.3043H40.3889H40.1818V18.8878V17.4713H40.4188C40.6649 17.4713 40.6774 17.4921 41.367 19.0412C41.4514 19.2307 41.469 19.1212 41.489 18.2837L41.5123 17.3046H41.7168H41.9212V18.7211ZM54.4252 22.4988L54.4145 23.6789L54.6698 23.6578C54.8897 23.6396 54.9252 23.6643 54.9252 23.8358C54.9252 24.0071 54.8758 24.0417 54.5732 24.083C54.3796 24.1094 54.0409 24.1559 53.8206 24.1863C53.4337 24.2397 53.4209 24.2349 53.4479 24.0436C53.4696 23.8883 53.5338 23.8399 53.7449 23.8195L54.0141 23.7933V22.7571V21.7208H53.807C53.6573 21.7208 53.5999 21.6761 53.5999 21.5591C53.5999 21.436 53.6841 21.3795 53.952 21.3229C54.1455 21.2819 54.3336 21.2643 54.3699 21.2836C54.4062 21.3029 54.431 21.8498 54.4252 22.4988ZM48.6987 22.6999C48.7961 23.055 48.9661 23.6738 49.0765 24.0747C49.2326 24.6418 49.2524 24.8038 49.1656 24.8038C49.1033 24.8038 49.005 24.629 48.9429 24.408C48.8818 24.1903 48.7957 24.0178 48.7518 24.0247C48.7077 24.0315 48.46 24.0611 48.2012 24.0906C47.7544 24.1415 47.7278 24.1576 47.673 24.4115C47.5801 24.8412 47.4765 25.0673 47.3956 25.017C47.3541 24.9911 47.4841 24.3255 47.6853 23.5332C47.8862 22.7429 48.0505 22.0868 48.0505 22.0752C48.0505 22.0636 48.1564 22.0541 48.2859 22.0541C48.5092 22.0541 48.5306 22.0876 48.6987 22.6999ZM48.0664 22.9031C47.9695 23.2915 47.8643 23.6775 47.8325 23.7608C47.7794 23.8999 47.8112 23.9075 48.2217 23.8527C48.4675 23.8199 48.6833 23.7783 48.7013 23.7602C48.7561 23.7052 48.4459 22.4768 48.3408 22.3322C48.2589 22.2196 48.2128 22.3156 48.0664 22.9031ZM45.8925 23.6411C45.7536 24.3035 45.6222 24.9315 45.6004 25.0365C45.5633 25.215 45.3571 25.3718 45.2721 25.2862C45.2512 25.2653 45.1087 24.745 44.9555 24.1302C44.8023 23.5154 44.6558 23.0686 44.6302 23.1373C44.6045 23.2061 44.505 23.6185 44.4091 24.0539C44.121 25.3613 44.0832 25.4704 43.9178 25.4704C43.7964 25.4704 43.7392 25.3378 43.6214 24.783C43.541 24.4049 43.4089 23.7863 43.3277 23.4081C43.2054 22.8393 43.1997 22.7207 43.2945 22.7207C43.4218 22.7207 43.4171 22.7045 43.6971 24.0829C43.8075 24.6259 43.9129 25.0855 43.9316 25.1042C43.9502 25.123 44.0499 24.7537 44.1531 24.2836C44.4914 22.7428 44.5355 22.597 44.6707 22.5708C44.7742 22.5507 44.8573 22.7856 45.0764 23.7164C45.2279 24.3603 45.372 24.887 45.3966 24.8868C45.4212 24.8866 45.5472 24.3271 45.6766 23.6434C45.806 22.9597 45.9339 22.378 45.961 22.3507C46.1346 22.1761 46.1125 22.5907 45.8925 23.6411ZM41.2904 23.1165C41.5222 23.9016 42.004 25.6228 42.004 25.6657C42.004 25.6958 41.9503 25.7204 41.8847 25.7204C41.8106 25.7204 41.7383 25.586 41.6941 25.3663L41.6231 25.0121L41.0888 25.041C40.5076 25.0724 40.4641 25.1053 40.3857 25.5724C40.3361 25.868 40.2206 26.0372 40.1304 25.9465C40.0653 25.881 40.7791 23.1016 40.8782 23.0344C41.039 22.9256 41.2463 22.9668 41.2904 23.1165ZM40.9423 23.3946C40.8285 23.7044 40.5723 24.8082 40.6068 24.8404C40.6494 24.8805 41.4156 24.7569 41.4712 24.7011C41.5239 24.6479 41.1802 23.3821 41.0824 23.2696C41.0455 23.2272 40.9835 23.2826 40.9423 23.3946ZM54.8163 27.0681C55.044 27.2834 55.0719 27.7113 54.8776 28.0097C54.7558 28.1965 54.7595 28.2269 54.9328 28.4626C55.1007 28.6912 55.1091 28.747 55.0199 29.0465C54.7274 30.0286 53.3495 30.0138 53.3519 29.0286C53.3521 28.9276 53.4205 28.7326 53.5039 28.5951C53.6516 28.3515 53.6514 28.3394 53.493 28.1229C52.9703 27.4082 54.1669 26.4544 54.8163 27.0681ZM53.9934 27.3512C53.7335 27.493 53.6881 27.797 53.8957 28.0059C54.0496 28.1606 54.0301 28.1582 54.3001 28.055C54.4178 28.01 54.553 27.8698 54.6008 27.7435C54.6749 27.5476 54.6611 27.4924 54.5073 27.3671C54.2929 27.1924 54.2848 27.1922 53.9934 27.3512ZM48.7508 27.6886C48.9294 27.7576 49.1529 28.1944 49.0441 28.262C48.9317 28.3319 48.7959 28.237 48.7959 28.0885C48.7959 28.0214 48.709 27.9267 48.6028 27.8781C48.3171 27.7471 47.8417 27.966 47.7678 28.2626C47.6929 28.5626 47.8672 28.7503 48.3992 28.9428C48.8676 29.1122 49.1272 29.3868 49.1272 29.7126C49.1272 30.3832 48.1385 30.816 47.674 30.3487C47.483 30.1566 47.3987 29.8866 47.5296 29.8866C47.5621 29.8866 47.6646 29.9783 47.7574 30.0903C48.1412 30.5535 48.9188 30.2729 48.8627 29.6915C48.8398 29.4542 48.777 29.3992 48.2236 29.1312C47.8226 28.9371 47.5858 28.7686 47.5404 28.6452C47.3204 28.0471 48.0946 27.4353 48.7508 27.6886ZM45.2757 28.2679C45.4208 28.378 45.4447 28.5095 45.4683 29.3276C45.4831 29.8413 45.4569 30.3627 45.4099 30.4864C45.2875 30.8088 45.0059 30.9616 44.421 31.0231L43.9091 31.0769V29.6538V28.2307L44.1782 28.197C44.7599 28.1245 45.1172 28.1475 45.2757 28.2679ZM44.1575 29.6063V30.8259L44.5449 30.7724C45.183 30.6845 45.2343 30.591 45.2343 29.5154C45.2343 28.9042 45.2003 28.5526 45.1349 28.4868C45.0802 28.4318 44.838 28.3868 44.5965 28.3868H44.1575V29.6063ZM53.945 28.6031C53.8053 28.7016 53.7629 28.8022 53.7817 28.9905C53.8123 29.2979 53.9958 29.4303 54.2887 29.3563C54.5957 29.2788 54.7172 29.0197 54.5907 28.7125C54.4763 28.4347 54.2407 28.3948 53.945 28.6031ZM41.6869 28.7747C41.7945 28.8726 41.8383 29.0312 41.8383 29.3227C41.8383 29.6667 41.7986 29.7728 41.5912 29.9814L41.344 30.23L41.6113 30.7458C41.7583 31.0294 41.8913 31.2896 41.9068 31.324C41.9223 31.3584 41.8764 31.3865 41.8049 31.3865C41.7269 31.3865 41.558 31.1532 41.3828 30.8032C41.0893 30.2169 41.0419 30.1801 40.6995 30.2724C40.5275 30.3188 40.5131 30.3703 40.5131 30.9379C40.5131 31.4292 40.4881 31.5531 40.3889 31.5531C40.2833 31.5531 40.2646 31.3408 40.2646 30.1424C40.2646 28.5333 40.1891 28.6707 41.0864 28.6481C41.4004 28.6402 41.5809 28.6782 41.6869 28.7747ZM40.7823 28.8636L40.5131 28.8973V29.5068V30.1164L40.9065 30.0369C41.5738 29.9022 41.8847 29.3499 41.507 28.9701C41.4159 28.8784 41.2762 28.8094 41.1964 28.8167C41.1167 28.8241 40.9303 28.8452 40.7823 28.8636ZM62.5985 36.8276C62.5749 36.9861 62.4938 37.0222 61.9991 37.0947L61.4272 37.1784L61.4018 37.5322C61.3732 37.9281 61.3695 37.9265 62.0691 37.8107C62.4614 37.7457 62.4625 37.7463 62.4625 37.9824C62.4625 38.1848 62.4296 38.2192 62.2348 38.22C62.1095 38.2205 61.8673 38.2442 61.6964 38.2726C61.3888 38.3237 61.3858 38.328 61.3858 38.716C61.3858 38.9316 61.4044 39.1267 61.4273 39.1497C61.4501 39.1726 61.6994 39.1596 61.9812 39.1209C62.5141 39.0476 62.6686 39.0993 62.5835 39.3225C62.5237 39.4794 62.3646 39.5229 61.5721 39.5993L60.9716 39.6571V38.2298C60.9716 37.1469 60.9966 36.8011 61.0752 36.7963C61.1322 36.7929 61.4769 36.7433 61.8413 36.6862C62.2058 36.6292 62.5314 36.5964 62.5649 36.6134C62.5985 36.6304 62.6135 36.7268 62.5985 36.8276ZM60.2262 36.9575C60.2262 36.997 60.0994 37.5501 59.9444 38.1866C59.7894 38.8232 59.6383 39.4619 59.6084 39.606C59.5641 39.8207 59.5065 39.8755 59.2897 39.9096C59.1442 39.9323 58.9998 39.9269 58.9688 39.8975C58.9121 39.8435 58.2383 37.3628 58.2383 37.208C58.2383 37.1622 58.3377 37.1367 58.4591 37.1512C58.6698 37.1763 58.692 37.227 58.9354 38.2393C59.0759 38.8233 59.2095 39.3012 59.2322 39.3014C59.255 39.3016 59.3726 38.8613 59.4936 38.323C59.7745 37.0722 59.8477 36.8859 60.0585 36.8859C60.1507 36.8859 60.2262 36.9181 60.2262 36.9575ZM57.41 38.7093C57.41 40.0458 57.4017 40.1183 57.2445 40.1596C57.1534 40.1836 57.0619 40.1755 57.0411 40.1417C57.0125 40.0951 56.9707 37.7224 56.9922 37.365C56.9942 37.3306 57.0891 37.3025 57.203 37.3025H57.41V38.7093ZM56.1676 37.6725C56.1676 37.8472 56.124 37.8794 55.857 37.9016L55.5464 37.9274L55.5234 39.1565C55.5109 39.8324 55.4673 40.3855 55.4267 40.3855C55.3861 40.3855 55.2949 40.4079 55.2241 40.4353C55.1118 40.4786 55.0924 40.3267 55.0724 39.2481L55.0494 38.0112L54.7388 38.0382C54.4555 38.0628 54.4282 38.0469 54.4282 37.8565C54.4282 37.6642 54.4657 37.6436 54.9045 37.5937C55.1665 37.5641 55.418 37.5268 55.4636 37.511C55.5091 37.4952 55.6862 37.4793 55.857 37.4757C56.1328 37.4699 56.1676 37.4919 56.1676 37.6725ZM53.5949 39.1148C53.7938 39.8367 53.9602 40.4647 53.9646 40.5105C53.969 40.5563 53.8758 40.6052 53.7576 40.619C53.5648 40.6415 53.5347 40.6069 53.4673 40.2857C53.4255 40.0865 53.3463 39.9309 53.289 39.9356C53.2322 39.9401 53.0404 39.9496 52.8628 39.9564C52.5463 39.9686 52.5377 39.9774 52.4403 40.3855C52.3508 40.7611 52.3184 40.8021 52.1115 40.8021H51.8821L52.1641 39.7398C52.3192 39.1554 52.4881 38.5008 52.5395 38.2851C52.6313 37.8995 52.7054 37.8327 53.0645 37.8121C53.2132 37.8036 53.2757 37.957 53.5949 39.1148ZM51.4464 38.1387C51.4464 38.2662 50.7909 40.8897 50.7372 40.9772C50.6818 41.0674 50.1216 41.0786 50.1202 40.9896C50.1197 40.9552 49.9698 40.3487 49.787 39.6417C49.5278 38.6385 49.4779 38.3415 49.5602 38.2889C49.8312 38.1159 49.8837 38.2312 50.2589 39.8226C50.399 40.4165 50.5353 40.6663 50.5353 40.3289C50.5353 40.1279 50.9559 38.3717 51.0455 38.1983C51.1262 38.0424 51.4464 37.9947 51.4464 38.1387ZM48.3273 38.5615C48.6331 38.7017 48.7131 38.9797 48.7131 39.9025C48.7131 40.6742 48.6956 40.7678 48.5044 41.02C48.1648 41.4678 47.4876 41.5596 47.165 41.2015C46.9472 40.9596 46.8994 39.4433 47.0964 39.0255C47.313 38.5665 47.8754 38.3544 48.3273 38.5615ZM52.8292 38.7399C52.8035 38.8888 52.7567 39.1325 52.7252 39.2815C52.6755 39.5174 52.6899 39.5523 52.8373 39.5523C53.2336 39.5523 53.2592 39.4985 53.1168 38.9639C53.0443 38.6918 52.9605 38.4691 52.9306 38.4691C52.9006 38.4691 52.8551 38.5909 52.8292 38.7399ZM46.0626 40.2238V41.6354H45.8259C45.6083 41.6354 45.5616 41.5746 45.2461 40.8819C45.0574 40.4675 44.903 40.0925 44.903 40.0486C44.903 40.0048 44.875 39.9688 44.8409 39.9688C44.8067 39.9687 44.7913 40.3812 44.8067 40.8854L44.8348 41.802H44.579H44.3232V40.4757C44.3232 39.7462 44.3458 39.09 44.3735 39.0175C44.4011 38.945 44.5153 38.8857 44.6272 38.8857C44.7985 38.8857 44.8698 38.9743 45.0792 39.4481C45.2161 39.7574 45.3982 40.1605 45.4841 40.3439L45.6402 40.6772L45.6443 39.7458C45.6479 38.9291 45.6662 38.8105 45.7934 38.7814C45.8732 38.7633 45.9663 38.7627 46.0005 38.7803C46.0347 38.7979 46.0626 39.4474 46.0626 40.2238ZM47.669 38.9672C47.4669 39.0493 47.3901 39.3933 47.3887 40.223C47.3877 40.8239 47.4692 40.9688 47.8084 40.9688C48.1815 40.9688 48.2579 40.7801 48.2542 39.8674C48.2504 38.9017 48.1625 38.7665 47.669 38.9672ZM43.4121 40.5473C43.4121 41.9419 43.4111 41.9494 43.2226 41.9857C42.9942 42.0296 42.8323 41.9837 42.8323 41.8749C42.8323 41.831 42.7187 41.5507 42.5798 41.2519C42.441 40.9532 42.2826 40.6079 42.2278 40.4847C42.1417 40.2909 42.1251 40.3874 42.1048 41.1979C42.0814 42.1326 42.0808 42.1353 41.877 42.1353H41.6727V40.7286C41.6727 39.3702 41.6787 39.3201 41.8463 39.2761C42.0574 39.2205 42.251 39.2862 42.2567 39.4154C42.259 39.4678 42.4235 39.8481 42.6222 40.2605L42.9834 41.0105L42.9907 40.0791C42.997 39.264 43.016 39.1437 43.1429 39.1147C43.2227 39.0966 43.3158 39.096 43.35 39.1136C43.3841 39.1312 43.4121 39.7763 43.4121 40.5473ZM40.66 40.9063C40.6376 42.3256 40.635 42.344 40.451 42.3703L40.2646 42.3969V40.933V39.469H40.4737H40.6826L40.66 40.9063ZM57.3726 41.9392C57.6926 42.2865 57.5911 43.0617 57.1966 43.2838C57.0833 43.3476 57.1047 43.4294 57.3587 43.9026C57.5196 44.2025 57.6281 44.4713 57.5997 44.4998C57.5713 44.5284 57.4607 44.5517 57.354 44.5517C57.1976 44.5517 57.1083 44.4463 56.8929 44.0069C56.6817 43.5761 56.5909 43.4671 56.4588 43.4861C56.3116 43.5074 56.2889 43.5818 56.2675 44.1143C56.2441 44.6952 56.2353 44.7184 56.0378 44.7184H55.8324L55.855 43.281L55.8777 41.8437L56.209 41.793C56.944 41.6806 57.1593 41.7077 57.3726 41.9392ZM54.683 42.2668C54.8619 42.4583 54.8868 42.57 54.9118 43.2935C54.9543 44.5256 54.7071 44.952 53.9329 44.9825C53.6355 44.9943 53.541 44.9579 53.38 44.7696C53.2033 44.5629 53.1858 44.4647 53.1858 43.6776C53.1858 42.6658 53.2516 42.4441 53.6186 42.219C54.0065 41.981 54.4338 42.0003 54.683 42.2668ZM56.4368 42.1942C56.2735 42.2257 56.2504 42.2813 56.2504 42.6411C56.2504 43.0394 56.2578 43.0519 56.4921 43.0519C56.6251 43.0519 56.7957 43.0281 56.8712 42.9989C57.0683 42.9228 57.1728 42.5927 57.0787 42.3436C56.9997 42.1347 56.8835 42.1076 56.4368 42.1942ZM52.2747 43.7602V45.2183H52.0676H51.8605V43.8157C51.8605 43.0442 51.8854 42.3881 51.9158 42.3576C51.9461 42.327 52.0393 42.302 52.1229 42.302C52.2643 42.302 52.2747 42.4017 52.2747 43.7602ZM53.7229 42.6673C53.6239 42.8193 53.5991 43.0472 53.6174 43.6375C53.6445 44.5105 53.7333 44.6538 54.1546 44.5051C54.3865 44.4233 54.3868 44.4218 54.4105 43.5622C54.426 42.9989 54.401 42.661 54.3383 42.585C54.1877 42.4025 53.8674 42.4454 53.7229 42.6673ZM50.4936 42.6714C50.8202 42.8088 50.9113 43.0465 50.8407 43.5769C50.8113 43.797 50.7257 43.9809 50.608 44.0768L50.4218 44.2284L50.6856 44.7666C50.8307 45.0626 50.9494 45.3228 50.9494 45.3449C50.9494 45.367 50.8436 45.385 50.7141 45.385C50.507 45.385 50.4478 45.321 50.2197 44.8505C50.0041 44.4057 49.9325 44.3234 49.7924 44.3603C49.6439 44.3994 49.6242 44.4717 49.6242 44.9781C49.6242 45.5343 49.618 45.5516 49.4171 45.5516H49.21V44.1389V42.7262L49.4792 42.6824C49.6273 42.6583 49.8416 42.6242 49.9555 42.6066C50.0694 42.589 50.1731 42.5695 50.1859 42.5633C50.1988 42.557 50.3373 42.6057 50.4936 42.6714ZM48.3052 42.9082C48.3018 42.9414 48.2989 43.0387 48.2989 43.1245C48.2989 43.2565 48.21 43.2891 47.7191 43.3378L47.1393 43.3953V43.7662V44.1371L47.4914 44.0892C47.6849 44.0629 47.9272 44.0242 48.0297 44.0033C48.1902 43.9706 48.2161 44.0003 48.2161 44.2169C48.2161 44.4355 48.1863 44.4685 47.9883 44.4693C47.8631 44.4698 47.6208 44.4935 47.45 44.5219L47.1393 44.5736V45.0071V45.4407L47.6555 45.3697C48.2613 45.2864 48.3839 45.317 48.3268 45.5371C48.2827 45.7064 48.1585 45.74 47.1808 45.8473L46.6838 45.9019L46.6999 44.5093C46.7088 43.7433 46.7396 43.0927 46.7684 43.0634C46.8177 43.0131 48.0975 42.8176 48.243 42.8381C48.2806 42.8434 48.3085 42.8749 48.3052 42.9082ZM49.6242 43.5118C49.6242 44.0148 49.5975 44.0006 50.2205 43.8315C50.3947 43.7842 50.4839 43.5224 50.4169 43.2542C50.373 43.0777 50.3192 43.0519 49.9953 43.0519H49.6242V43.5118ZM45.8969 43.3346C45.8969 43.5465 45.7605 43.6352 45.4346 43.6352H45.2343V44.885V46.1349H45.0272H44.8202V44.9252V43.7155L44.4696 43.7378C44.1574 43.7577 44.1179 43.7397 44.1082 43.5727C44.1022 43.4696 44.1015 43.3824 44.1068 43.3788C44.1232 43.3676 45.6012 43.1595 45.752 43.1471C45.8529 43.1388 45.8969 43.1957 45.8969 43.3346ZM43.3934 44.9059L43.3707 46.3432L43.1411 46.3698C42.9434 46.3926 42.8932 46.3521 42.7801 46.0782C42.7079 45.9031 42.5316 45.5162 42.3885 45.2183L42.1282 44.6767L42.1048 45.6141C42.0814 46.5513 42.0814 46.5515 41.8751 46.5515H41.6688L41.6914 45.1142L41.7141 43.6768H41.9512C42.1719 43.6768 42.2153 43.7366 42.5725 44.5303L42.9565 45.3837L42.9799 44.4261L43.0032 43.4685H43.2096H43.416L43.3934 44.9059ZM40.6788 45.26V46.7182H40.4717H40.2646V45.3086C40.2646 44.2589 40.291 43.8883 40.3682 43.857C40.6705 43.7343 40.6788 43.7718 40.6788 45.26ZM65.3408 52.6195C65.2123 52.6434 65.1959 52.7596 65.1959 53.6402C65.1959 54.5784 65.2051 54.634 65.3615 54.634C65.5135 54.634 65.5272 54.5785 65.5272 53.9619C65.5272 53.2181 65.6045 52.9972 65.905 52.8823C66.016 52.8398 66.107 52.7487 66.107 52.6799C66.107 52.56 65.7938 52.5353 65.3408 52.6195ZM57.555 52.8583C57.4571 52.884 57.41 52.9785 57.41 53.1492C57.41 53.3455 57.4393 53.3907 57.5411 53.3514C57.6131 53.3236 57.7063 53.3008 57.7481 53.3008C57.79 53.3008 57.8242 53.1883 57.8242 53.0509C57.8242 52.9134 57.7963 52.8052 57.762 52.8106C57.7278 52.8159 57.6347 52.8374 57.555 52.8583ZM63.3529 52.8909C63.1049 53.0362 62.9595 53.4339 62.9595 53.9671C62.9595 54.3952 62.9914 54.507 63.1628 54.6794C63.472 54.9906 63.8945 54.96 64.2516 54.6007C64.4065 54.4449 64.5332 54.2761 64.5332 54.2257C64.5332 54.0516 64.1934 54.1348 64.005 54.355C63.8546 54.531 63.7712 54.5645 63.5949 54.52C63.4198 54.4759 63.3736 54.4146 63.3736 54.2266C63.3736 53.9934 63.3845 53.9879 63.9534 53.9315L64.5332 53.874V53.5041C64.5332 53.011 64.3274 52.8 63.8499 52.8034C63.6563 52.8048 63.4326 52.8441 63.3529 52.8909ZM61.437 53.1105C61.4043 53.1433 61.2584 53.1714 61.1125 53.173L60.8474 53.1758L60.8241 54.1966C60.8018 55.1746 60.8079 55.2173 60.9691 55.2173C61.125 55.2173 61.1373 55.1654 61.1373 54.5035C61.1373 53.6992 61.2039 53.5106 61.5157 53.4318C61.8876 53.3379 61.9656 53.4903 61.9656 54.3109C61.9656 54.9951 61.978 55.0506 62.1312 55.0506C62.2859 55.0506 62.2969 54.9951 62.2969 54.2174C62.2969 53.4952 62.2748 53.3619 62.1312 53.2175C61.9697 53.055 61.5556 52.9911 61.437 53.1105ZM64.1229 53.308C64.1738 53.4036 64.203 53.4938 64.1879 53.5085C64.1729 53.5232 63.9835 53.5617 63.7671 53.5941C63.4059 53.6482 63.3736 53.639 63.3736 53.4811C63.3736 53.1412 63.9618 53.0053 64.1229 53.308ZM58.8802 53.4448L58.5696 53.4776V54.523C58.5696 55.442 58.5854 55.5623 58.7007 55.5178C58.7727 55.49 58.8473 55.4673 58.8663 55.4673C58.8854 55.4673 58.9009 55.1356 58.9009 54.7303C58.9009 53.8951 59.0187 53.682 59.4527 53.732L59.6878 53.7591L59.7116 54.577C59.7325 55.2971 59.7523 55.3917 59.8772 55.3676C59.9982 55.3444 60.0226 55.2156 60.0426 54.496C60.0744 53.3562 60.0376 53.3231 58.8802 53.4448ZM57.5532 53.6451C57.4305 53.7142 57.41 53.8623 57.41 54.6799V55.6339H57.6171H57.8242V54.6389C57.8242 54.0917 57.7954 53.6261 57.7603 53.6042C57.7251 53.5824 57.6319 53.6008 57.5532 53.6451ZM56.4705 53.7799C56.4495 53.8144 56.3864 54.0862 56.3302 54.3841C56.274 54.6819 56.2005 54.9566 56.1669 54.9943C56.1331 55.0321 56.041 54.7978 55.962 54.4735C55.8355 53.9539 55.7957 53.8841 55.6262 53.8841C55.4584 53.8841 55.4217 53.9452 55.3382 54.3632C55.171 55.2011 55.1557 55.2483 55.0913 55.1236C55.0588 55.0606 54.9843 54.7747 54.9259 54.4882C54.8429 54.0813 54.787 53.9674 54.6702 53.9674C54.5881 53.9674 54.502 53.9981 54.479 54.0356C54.456 54.0731 54.5239 54.4386 54.63 54.848C54.7361 55.2574 54.8453 55.6903 54.8728 55.8101C54.9128 55.9847 54.9613 56.0205 55.1175 55.9905C55.2842 55.9584 55.3335 55.8628 55.4589 55.3275C55.5396 54.9834 55.6329 54.7335 55.6664 54.7721C55.6999 54.8108 55.7729 55.0573 55.8288 55.32C55.9412 55.8489 56.0088 55.9306 56.2336 55.8097C56.3413 55.7517 56.4403 55.4882 56.5714 54.91C56.6734 54.4604 56.7775 54.008 56.8026 53.9049C56.8387 53.7565 56.8128 53.7175 56.6784 53.7175C56.5851 53.7175 56.4915 53.7455 56.4705 53.7799Z" fill="white"/>
</svg>
