<svg width="92" height="32" viewBox="0 0 92 32" fill="none" xmlns="http://www.w3.org/2000/svg">
<path d="M20.2245 16.5V31.7H16.0459H11.8673L11.8398 16.6067C11.8247 8.30533 11.8354 1.45275 11.8637 1.37872C11.9042 1.27291 12.8033 1.25008 16.0698 1.27205L20.2245 1.3V16.5Z" fill="white"/>
<path d="M31.2882 5.48667L31.3162 9.67333H27.1365H22.9566V5.45872V1.24421L27.1084 1.27205L31.2602 1.3L31.2882 5.48667Z" fill="white"/>
<path d="M31.3137 16.5V20.66H27.1352H22.9566V16.5V12.34H27.1352H31.3137V16.5Z" fill="white"/>
<path d="M5.95088 0.87024C8.69331 1.4488 10.2964 4.22149 9.45542 6.93189C9.21392 7.71035 8.52638 8.71461 7.92092 9.17328C6.89288 9.95195 5.44185 10.3327 4.26627 10.1323C2.89088 9.89776 1.75892 9.18917 1.04224 8.11408C0.431096 7.19749 0.217024 6.40379 0.264916 5.23227C0.300167 4.36869 0.349238 4.16837 0.695631 3.47227C1.38102 2.0952 2.63995 1.10576 4.04695 0.838667C4.81602 0.69264 5.13402 0.697973 5.95088 0.87024Z" fill="white"/>
<path d="M9.13517 22.0479V31.7558L4.98338 31.7279L0.831595 31.7L0.804274 22.02L0.776845 12.34H4.95606H9.13517V22.0479Z" fill="white"/>
<path fill-rule="evenodd" clip-rule="evenodd" d="M56.5357 1.66747C57.4134 2.00997 58.2109 2.80368 58.5246 3.64667C58.7088 4.14181 58.7627 4.516 58.7627 5.3C58.7627 6.956 58.2203 8.00368 57.029 8.64923C56.1388 9.13147 55.5271 9.244 53.787 9.24539L52.2066 9.24667V5.28944V1.33221L54.0548 1.37637C55.6683 1.41499 55.9834 1.45189 56.5357 1.66747ZM53.8137 7.99472V5.29968V2.60464L54.5596 2.65776C55.618 2.73317 56.3979 3.12891 56.7871 3.78789C57.053 4.23813 57.0816 4.38597 57.0816 5.30789C57.0816 6.25712 57.0589 6.36581 56.7592 6.8488C56.324 7.55013 55.6873 7.87504 54.6137 7.94363L53.8137 7.99472Z" fill="white"/>
<path d="M64.6352 2.04667V2.74H63.1887H61.7423V3.64667V4.55333H63.0816H64.4209V5.19333V5.83333H63.0816H61.7423V6.84368V7.85403L63.2155 7.88368L64.6887 7.91333L64.7207 8.58L64.7525 9.24667H62.4439H60.1352V5.3V1.35333H62.3852H64.6352V2.04667Z" fill="white"/>
<path d="M70.0137 1.36667L70.4102 1.46533L70.3528 2.02267L70.3482 2.06776C70.302 2.51938 70.2826 2.70815 70.1895 2.75678C70.1226 2.7917 70.0176 2.75436 69.8373 2.69019L69.8121 2.68123C69.5871 2.60133 69.098 2.53392 68.7251 2.53136C68.1156 2.52709 68.0156 2.55813 67.7341 2.83845C67.1293 3.44048 67.3925 3.87067 68.7488 4.49755C70.3362 5.23131 70.7637 5.73883 70.7637 6.88987C70.7637 8.47291 69.7165 9.38853 67.903 9.39077C67.4316 9.39131 66.7867 9.32891 66.47 9.25211L65.8941 9.11237L65.9664 8.40976C66.0062 8.02331 66.0504 7.69541 66.0648 7.68123C66.0791 7.66693 66.4022 7.75312 66.7826 7.87259C68.0476 8.26992 69.047 7.97627 69.1146 7.18725C69.1673 6.57232 68.9854 6.38309 67.8126 5.83301C66.2618 5.10576 65.8099 4.56272 65.8161 3.43408C65.8206 2.62032 66.4334 1.73723 67.2006 1.43931C67.9178 1.16069 69.067 1.13093 70.0137 1.36667Z" fill="white"/>
<path d="M73.6352 5.30469V9.25605L72.8584 9.2247L72.0816 9.19333L72.0534 5.4072C72.0379 3.32485 72.0485 1.56091 72.0769 1.4872C72.1115 1.39739 72.3762 1.35333 72.8818 1.35333H73.6352V5.30469Z" fill="white"/>
<path d="M81.0881 1.45424C81.4138 1.57264 81.4159 1.57819 81.37 2.23675C81.3445 2.60155 81.3107 2.91483 81.2946 2.93296C81.2785 2.95109 80.9873 2.88549 80.6476 2.78715C80.2063 2.65947 79.7738 2.62171 79.1344 2.65509C78.3609 2.69552 78.1772 2.74459 77.7852 3.01499C77.0974 3.48955 76.742 4.2664 76.7434 5.29243C76.7456 7.05392 77.7453 8.04517 79.4209 7.94768L80.0102 7.91333L80.041 6.92667L80.0718 5.94H79.2642H78.4566V5.3V4.66H80.0124H81.5681L81.5392 6.81541L81.5102 8.97072L81.028 9.12347C80.7319 9.21733 80.0499 9.28048 79.2602 9.2872C78.1487 9.29669 77.8908 9.26469 77.3571 9.05093C76.5677 8.73477 75.7518 7.95045 75.3714 7.14213C75.1092 6.58501 75.0818 6.41019 75.0817 5.29808C75.0816 4.12379 75.0972 4.03803 75.4352 3.35429C75.9319 2.34928 76.6967 1.75536 77.9455 1.40496C78.5898 1.22416 80.5397 1.25467 81.0881 1.45424Z" fill="white"/>
<path d="M86.1724 3.18885C86.6643 4.19845 87.2987 5.5304 87.5823 6.14885L88.0977 7.27333L88.0986 4.31333L88.0995 1.35333H88.7959H89.4923V5.3V9.24667H88.4945H87.4968L86.4481 7.11067C85.8713 5.93584 85.213 4.55589 84.9852 4.044L84.571 3.11333L84.6381 6.18L84.7051 9.24667H83.938H83.1709V5.3V1.35333H84.2244H85.278L86.1724 3.18885Z" fill="white"/>
<path fill-rule="evenodd" clip-rule="evenodd" d="M57.5977 16.4238C58.4041 18.5527 59.0637 20.3547 59.0637 20.4284C59.0637 20.5269 58.8461 20.5541 58.2398 20.5311L57.4159 20.5L57.1001 19.62L56.7845 18.74L55.2187 18.7413L53.653 18.7427L53.3316 19.6213L53.0102 20.5L52.3247 20.5322C51.9475 20.5498 51.5938 20.5193 51.5387 20.4644C51.4521 20.3782 52.1085 18.532 54.1333 13.1667L54.3649 12.5533H55.2483H56.1317L57.5977 16.4238ZM54.1352 17.3801C54.1352 17.3075 55.0328 14.5302 55.1781 14.1533C55.226 14.029 55.2507 14.0408 55.2892 14.2067C55.3164 14.324 55.5501 15.0742 55.8084 15.8739C56.0666 16.6734 56.278 17.3574 56.278 17.3939C56.278 17.4302 55.7959 17.46 55.2066 17.46C54.6173 17.46 54.1352 17.4241 54.1352 17.3801Z" fill="white"/>
<path d="M61.1419 15.2567C61.4809 16.7435 61.7853 18.161 61.8184 18.4067C61.8515 18.6523 61.8968 18.835 61.9192 18.8127C61.9416 18.7905 62.2236 17.481 62.5459 15.9028C62.8682 14.3246 63.1581 12.9236 63.19 12.7895C63.2465 12.5535 63.2819 12.5466 64.286 12.5762L65.3238 12.6067L65.8314 14.9C66.1107 16.1613 66.3991 17.5413 66.4723 17.9667C66.5969 18.69 66.778 19.0167 66.778 18.518C66.778 18.346 67.7086 14.083 68.0276 12.7933C68.0826 12.571 68.1462 12.5533 68.8904 12.5533C69.5642 12.5533 69.6837 12.5795 69.6315 12.7149C69.5973 12.8039 69.1506 14.5438 68.6391 16.5816C68.1275 18.6194 67.6609 20.3484 67.6022 20.4239C67.5262 20.5213 67.2306 20.5523 66.5826 20.5306L65.6698 20.5L64.9974 17.5133C64.6276 15.8707 64.3175 14.4067 64.3084 14.26C64.2927 14.0073 64.2871 14.0101 64.199 14.3133C64.1479 14.4893 63.8383 15.9237 63.511 17.5009C63.1837 19.0779 62.8901 20.41 62.8585 20.4609C62.8269 20.5117 62.3931 20.5533 61.8945 20.5533C61.0555 20.5533 60.9802 20.5354 60.8867 20.3133C60.7931 20.0915 58.8495 12.7434 58.8495 12.612C58.8495 12.5797 59.2266 12.5533 59.6875 12.5533H60.5256L61.1419 15.2567Z" fill="white"/>
<path fill-rule="evenodd" clip-rule="evenodd" d="M74.0637 12.5933C74.0637 12.6153 74.7146 14.3484 75.5102 16.4447C76.3057 18.541 76.9566 20.323 76.9566 20.4047C76.9566 20.5173 76.7809 20.5529 76.2334 20.5517C75.8357 20.5508 75.4593 20.5148 75.397 20.4717C75.3349 20.4286 75.1487 20.0201 74.9833 19.5639L74.6828 18.7345L73.1143 18.7639L71.5459 18.7933L71.278 19.5403C71.1307 19.9512 70.9712 20.3473 70.9235 20.4203C70.8206 20.5781 69.3495 20.6081 69.3495 20.4524C69.3495 20.397 70.0056 18.597 70.8076 16.4524L72.2657 12.5533H73.1647C73.6592 12.5533 74.0637 12.5714 74.0637 12.5933ZM72.028 17.3857C72.028 17.3447 72.2783 16.5681 72.5841 15.6598C73.0291 14.3383 73.1555 14.0601 73.217 14.2675C73.2592 14.4101 73.4911 15.135 73.7323 15.8783C73.9735 16.6218 74.1709 17.2818 74.1709 17.345C74.1709 17.4196 73.7938 17.46 73.0995 17.46C72.5102 17.46 72.028 17.4265 72.028 17.3857Z" fill="white"/>
<path fill-rule="evenodd" clip-rule="evenodd" d="M82.2259 12.9042C82.9419 13.2542 83.278 13.7981 83.278 14.6068C83.278 15.4497 82.8757 16.1174 82.2002 16.396L81.8975 16.5208L82.1641 16.7503C82.448 16.995 83.8584 20.2884 83.7523 20.4591C83.6601 20.6079 82.2492 20.5739 82.1269 20.42C82.0686 20.3467 81.7903 19.6724 81.5086 18.9217C81.1933 18.0818 80.9107 17.4969 80.774 17.4017C80.6517 17.3164 80.3227 17.2467 80.0427 17.2467H79.5336L79.504 18.8733L79.4745 20.5H78.7245H77.9745L77.9464 16.5161L77.9182 12.5322L79.7678 12.5694C81.5373 12.6051 81.6437 12.6196 82.2259 12.9042ZM79.528 15.9971V14.9006V13.8041L80.2082 13.8585C81.1563 13.9342 81.4863 14.1128 81.612 14.6182C81.8052 15.3953 81.3563 15.8068 80.1821 15.929L79.528 15.9971Z" fill="white"/>
<path fill-rule="evenodd" clip-rule="evenodd" d="M88.7408 12.7195C89.6172 12.9252 90.21 13.2695 90.7616 13.8935C91.3678 14.5791 91.5814 15.258 91.5814 16.5C91.5814 17.8865 91.3595 18.4982 90.5726 19.2815C90.1431 19.7092 89.7907 19.9465 89.3313 20.1176C88.5714 20.4007 87.1655 20.575 85.9943 20.5314L85.153 20.5L85.125 16.5267L85.0969 12.5533L86.5714 12.5549C87.5146 12.5559 88.2963 12.6152 88.7408 12.7195ZM86.7066 19.1947V16.4993V13.8039L87.4298 13.8771C88.9416 14.03 89.7056 14.6586 89.9045 15.9133C90.2108 17.8455 89.3267 19.0255 87.4834 19.1446L86.7066 19.1947Z" fill="white"/>
<path fill-rule="evenodd" clip-rule="evenodd" d="M75.2683 23.9497C75.5479 24.0865 75.8821 24.3458 76.011 24.526C76.2955 24.924 76.3979 25.8538 76.2074 26.3116C76.064 26.6559 75.323 27.38 75.1138 27.38C75.0436 27.38 75.2004 27.5173 75.4624 27.685C76.1428 28.1206 76.3924 28.4307 76.5204 28.9993C76.7691 30.1042 76.2673 31.0212 75.1352 31.5314C74.4129 31.8569 72.9189 31.8414 72.1843 31.5009C71.3896 31.1324 70.8506 30.3724 70.8506 29.62C70.8506 28.9332 71.5013 27.9613 72.1367 27.6994L72.4571 27.5672L71.9816 27.2669C71.3883 26.8923 71.1594 26.5511 71.0899 25.9372C70.9815 24.979 71.5122 24.1892 72.5199 23.8094C73.1731 23.5633 74.6304 23.6376 75.2683 23.9497ZM72.5995 25.8515C72.5464 25.5253 72.5846 25.4228 72.8637 25.1449C73.1398 24.87 73.2721 24.82 73.7222 24.82C74.4024 24.82 74.702 25.0485 74.7726 25.6211C74.8339 26.1187 74.5816 26.601 74.1366 26.8371C73.8865 26.9697 73.8028 26.9649 73.4259 26.7956C72.8738 26.5477 72.6762 26.322 72.5995 25.8515ZM72.6093 30.0312C72.3118 29.4586 72.5081 28.7778 73.0827 28.3891L73.0966 28.3797C73.3167 28.2308 73.4265 28.1565 73.5426 28.1449C73.6582 28.1334 73.7801 28.1841 74.0232 28.2853L74.0389 28.2918C74.5913 28.5215 74.9059 28.8453 74.9851 29.2655C75.1284 30.0261 74.6091 30.58 73.7527 30.58C73.1876 30.58 72.7969 30.3925 72.6093 30.0312Z" fill="white"/>
<path d="M68.5995 27.7V31.6467H67.7913H66.983L67.0145 28.569L67.0459 25.4915L66.4482 26.009C66.1196 26.2937 65.8206 26.5267 65.7837 26.5267C65.6766 26.5267 65.0449 25.5689 65.0828 25.4638C65.1018 25.4114 65.5753 25.0074 66.1352 24.5661L67.153 23.7638L67.8762 23.7586L68.5995 23.7533V27.7Z" fill="white"/>
<path fill-rule="evenodd" clip-rule="evenodd" d="M62.4033 24.0251C62.9246 24.3895 63.3005 24.991 63.5201 25.8124C63.7128 26.5327 63.7159 28.8561 63.5253 29.5667C63.0859 31.2042 62.2992 31.8154 60.7326 31.7367C60.1072 31.7052 59.8691 31.6409 59.5154 31.4078C58.6341 30.8273 58.2066 29.6418 58.2066 27.7786C58.2066 25.6306 58.6751 24.4487 59.739 23.9132C60.2231 23.6696 60.4032 23.6374 61.1176 23.6668C61.8297 23.6963 62.0012 23.7441 62.4033 24.0251ZM60.1194 25.4906C60.2372 25.261 60.4456 25.0183 60.5825 24.9514C60.874 24.809 61.2921 24.8758 61.5484 25.1058C62.2249 25.7125 62.3646 28.958 61.7588 29.9908C61.3121 30.7523 60.5899 30.7497 60.1664 29.9852C59.6671 29.0843 59.6394 26.4275 60.1194 25.4906Z" fill="white"/>
<path d="M55.329 23.7705C56.3591 24.0777 56.9966 25.0621 56.8941 26.1874C56.8041 27.1753 56.4076 27.8141 55.0462 29.164L53.8387 30.3612L55.4601 30.3907L57.0816 30.42V31.0067V31.5933L54.4834 31.6219L51.8852 31.6505L51.8916 30.9819L51.8981 30.3133L52.9998 29.337C54.8781 27.6724 55.5432 26.5333 55.1642 25.6301C54.8593 24.9039 53.8238 24.7358 52.7011 25.2302L52.2309 25.4373L52.1664 25.0487C52.0736 24.4904 52.0848 24.095 52.1952 24.027C52.7281 23.6991 54.5813 23.5475 55.329 23.7705Z" fill="white"/>
</svg>
