<svg width="100" height="60" viewBox="0 0 100 60" fill="none" xmlns="http://www.w3.org/2000/svg">
<path d="M15.8391 16.2831C17.8669 16.4904 19.3957 17.9876 19.63 19.9954C19.7428 20.9624 19.4576 22.0325 18.8686 22.8521C18.6524 23.1529 18.132 23.6634 17.8389 23.8621C17.0355 24.4068 15.9754 24.6735 15.0431 24.5655C13.0443 24.334 11.506 22.7847 11.3178 20.8136C11.1024 18.5573 12.776 16.5241 15.045 16.2854C15.2323 16.2657 15.3884 16.247 15.3918 16.2438C15.3952 16.2406 15.5965 16.2583 15.8391 16.2831Z" fill="white"/>
<path d="M19.1944 35.0611V43.6051H15.4944H11.7943V35.0611V26.517H15.4944H19.1944V35.0611Z" fill="white"/>
<path d="M28.9452 30.1818V43.6051H25.2669H21.5886V30.1818V16.7585H25.2669H28.9452V30.1818Z" fill="white"/>
<path d="M38.7395 20.4233V24.0882H35.0612H31.3829V20.4233V16.7585H35.0612H38.7395V20.4233Z" fill="white"/>
<path d="M38.7395 30.1818V33.8467H35.0612H31.3829V30.1818V26.517H35.0612H38.7395V30.1818Z" fill="white"/>
<path fill-rule="evenodd" clip-rule="evenodd" d="M60.5259 16.946C62.0464 17.3529 62.825 18.2646 62.989 19.8304C63.0287 20.2091 63.0286 20.4267 62.9887 20.7797C62.8173 22.2978 61.9943 23.2357 60.4772 23.6417C60.063 23.7525 59.9967 23.7574 58.6436 23.7743L57.2398 23.7919V20.2933V16.7947L58.6654 16.8122C60.0468 16.8291 60.1045 16.8333 60.5259 16.946ZM58.6328 22.7135V20.3153V17.9171L59.1878 17.9427C60.2954 17.994 60.9429 18.3188 61.2983 19.0014C61.5122 19.4121 61.5704 19.6886 61.5704 20.2932C61.5704 20.8979 61.5122 21.1744 61.2983 21.585C60.9403 22.2727 60.2516 22.6214 59.1253 22.6855L58.6328 22.7135Z" fill="white"/>
<path d="M68.2094 17.3874V17.9729H66.9035H65.5976V18.7969V19.621H66.7947H67.9917V20.2065V20.792H66.7947H65.5976V21.6811V22.5702H66.9035H68.2094V23.1774V23.7846H66.2288H64.2481V20.2932V16.8019H66.2288H68.2094V17.3874Z" fill="white"/>
<path d="M72.8438 16.7982C73.0344 16.8486 73.2072 16.9065 73.2278 16.927C73.2621 16.9612 73.1848 18.014 73.1448 18.0565C73.1351 18.0667 72.9953 18.0325 72.8339 17.9805C72.2328 17.7865 71.6709 17.7459 71.262 17.8668C70.9641 17.955 70.7112 18.2002 70.6705 18.4405C70.5867 18.934 70.9178 19.2701 71.8209 19.6083C72.5415 19.8782 73.107 20.267 73.3295 20.6453C73.6702 21.2245 73.7008 22.0278 73.4074 22.6908C73.283 22.9719 72.8837 23.3974 72.5872 23.5649C71.8648 23.9729 70.6624 24.0276 69.6 23.7007L69.3155 23.6131L69.3767 22.9941C69.4104 22.6536 69.4437 22.3688 69.4507 22.3612C69.4576 22.3535 69.5387 22.3855 69.6308 22.4322C70.1662 22.7036 71.0553 22.8207 71.532 22.6827C72.0075 22.5449 72.2578 22.1944 72.1969 21.7518C72.1398 21.3366 71.8825 21.1208 70.9953 20.7445C70.696 20.6175 70.3435 20.4508 70.2118 20.3741C69.882 20.1818 69.5431 19.8232 69.3977 19.5125C69.2846 19.271 69.2759 19.2132 69.2759 18.7079C69.2759 18.1659 69.2766 18.1619 69.4395 17.8336C69.7136 17.2811 70.183 16.9286 70.8804 16.7515C71.3134 16.6415 72.3437 16.666 72.8438 16.7982Z" fill="white"/>
<path d="M76.1754 20.2932V23.7846H75.4789H74.7824V20.2932V16.8019H75.4789H76.1754V20.2932Z" fill="white"/>
<path d="M81.9661 16.7603C82.1689 16.7851 82.4887 16.8463 82.6766 16.8963L83.0182 16.9871L82.993 17.2089C82.9791 17.3309 82.9549 17.621 82.9392 17.8536C82.9235 18.0862 82.9028 18.2765 82.8931 18.2765C82.8835 18.2765 82.7981 18.2371 82.7035 18.189C82.3443 18.0064 81.8133 17.9114 81.1596 17.9127C80.6426 17.9137 80.5111 17.9282 80.2925 18.0087C79.9167 18.1468 79.7064 18.2819 79.4549 18.547C79.0696 18.9529 78.8875 19.4162 78.8454 20.0981C78.7651 21.3996 79.4216 22.3891 80.5155 22.6154C80.7771 22.6695 81.7286 22.657 81.8241 22.5982C81.8638 22.5738 81.8779 22.3439 81.8779 21.7219V20.8787H81.1596H80.4414V20.2932V19.7077H81.813H83.1847L83.1734 21.6033L83.162 23.4989L82.841 23.5991C82.0638 23.8416 80.9342 23.9334 80.2321 23.811C79.4771 23.6794 78.8429 23.363 78.3503 22.8722C77.1543 21.6806 77.0188 19.4065 78.0619 18.0331C78.5382 17.4059 79.3496 16.9443 80.2237 16.8033C80.4033 16.7744 80.5796 16.7449 80.6155 16.7379C80.7813 16.7055 81.6343 16.7197 81.9661 16.7603Z" fill="white"/>
<path d="M87.3191 18.6527C88.0395 20.1436 88.68 21.5253 88.9197 22.1051C88.9372 22.1474 88.9454 20.9715 88.9379 19.492L88.9244 16.8019H89.5365H90.1486V20.2932V23.7846H89.2851H88.4215L87.6235 22.169C86.5502 19.996 86.3222 19.52 86.0496 18.8837L85.8173 18.3415L85.8323 21.0631L85.8473 23.7846H85.212H84.5767V20.2932V16.8019L85.5017 16.8037L86.4268 16.8056L87.3191 18.6527Z" fill="white"/>
<path fill-rule="evenodd" clip-rule="evenodd" d="M88.625 26.7332C89.2633 26.7859 89.884 26.943 90.359 27.1721C90.6632 27.3188 90.8026 27.4222 91.1062 27.7262C91.7192 28.3402 91.9621 28.9615 92.0067 30.03C92.0939 32.118 90.9923 33.3982 88.8712 33.6738C88.6734 33.6995 88.0152 33.7144 87.3844 33.7074L86.2526 33.6949L86.2414 30.2469C86.2352 28.3505 86.2395 26.7745 86.2509 26.7447C86.2766 26.6776 87.8595 26.6699 88.625 26.7332ZM87.6238 32.6441V30.2528V27.8615H88.0553C89.7319 27.8615 90.5803 28.6485 90.5832 30.2064C90.5846 31.0165 90.3896 31.5662 89.9557 31.9751C89.529 32.3771 89.0119 32.5543 88.0918 32.6138L87.6238 32.6441Z" fill="white"/>
<path fill-rule="evenodd" clip-rule="evenodd" d="M82.9633 26.776C83.8346 26.9285 84.338 27.278 84.5579 27.8832C84.6702 28.1923 84.6713 28.8901 84.56 29.1843C84.3947 29.6211 84.0536 29.9526 83.5901 30.1266L83.3277 30.2252L83.4963 30.3052C83.7938 30.4464 83.9219 30.6799 84.5388 32.2054C84.8589 32.9971 85.1274 33.661 85.1354 33.6807C85.1434 33.7004 84.8085 33.7166 84.3913 33.7166H83.6326L83.2493 32.6865L83.2174 32.6008L83.2174 32.6007C82.794 31.4624 82.6512 31.0785 82.3798 30.9335C82.2417 30.8597 82.0702 30.8478 81.8116 30.8298L81.7733 30.8271L81.3555 30.7979V32.2583V33.7188L80.6699 33.7068L79.9843 33.6949L79.9731 30.2469C79.9668 28.3505 79.9722 26.7719 79.9848 26.7388C80.004 26.6887 80.2295 26.6827 81.3455 26.7029C82.0812 26.7162 82.8092 26.7491 82.9633 26.776ZM81.3555 29.7368V28.7991V27.8615L81.8234 27.8622C82.8222 27.8636 83.1854 28.0776 83.2199 28.685C83.2421 29.0761 83.1284 29.332 82.864 29.4861C82.6337 29.6202 82.4064 29.6683 81.8234 29.7063L81.3555 29.7368Z" fill="white"/>
<path fill-rule="evenodd" clip-rule="evenodd" d="M76.4689 26.7447C76.4926 26.7745 77.0656 28.2626 77.7423 30.0517C78.419 31.8408 79.009 33.3973 79.0534 33.5105L79.1342 33.7166L78.3839 33.7165L77.6337 33.7165L77.3507 32.9145L77.0678 32.1126L75.6926 32.1122L74.3175 32.1118L74.0334 32.9033L73.7493 33.6949L73.0416 33.7068C72.3815 33.7179 72.3355 33.7136 72.3562 33.6417C72.3746 33.5776 74.7642 27.18 74.9081 26.8097L74.9544 26.6904H75.6902C76.2268 26.6904 76.4376 26.7051 76.4689 26.7447ZM75.1477 29.6009C75.3965 28.8469 75.6136 28.1667 75.63 28.0892C75.6465 28.0116 75.6731 27.9483 75.6891 27.9484C75.7052 27.9484 75.7754 28.1583 75.8452 28.4146C75.9149 28.6709 76.1338 29.3638 76.3316 29.9541L76.6912 31.0276H75.6933C75.1444 31.0276 74.6954 31.015 74.6954 30.9996C74.6954 30.9842 74.8989 30.3548 75.1477 29.6009Z" fill="white"/>
<path d="M64.5325 26.7447C64.5437 26.7745 64.7599 27.6967 65.013 28.7939C65.4807 30.8217 65.7717 32.2073 65.7717 32.4064C65.7717 32.6161 65.8081 32.4777 65.9231 31.8299C66.0554 31.0849 66.9431 26.7753 66.9747 26.7242C66.9862 26.7057 67.3867 26.6904 67.8646 26.6904C68.7246 26.6904 68.7341 26.6914 68.7747 26.788C68.8369 26.9356 69.7583 31.2223 69.8768 31.9154L69.9804 32.5213L70.0564 32.0888C70.1581 31.5098 70.3994 30.3949 70.8585 28.3819L71.2393 26.7121L71.8866 26.7001C72.2426 26.6935 72.5487 26.7032 72.5667 26.7218C72.5911 26.7469 71.2345 32.1861 70.8678 33.5331L70.8174 33.7184L69.9613 33.7066L69.1054 33.6949L68.6365 31.6131C68.3786 30.4681 68.0908 29.1604 67.9968 28.7072C67.8878 28.1815 67.8174 27.9224 67.8024 27.9916C67.7894 28.0512 67.7588 28.2269 67.7343 28.3819C67.7099 28.537 67.4508 29.8007 67.1586 31.1902L66.6273 33.7166H65.7671C64.986 33.7166 64.9048 33.7096 64.8832 33.6407C64.8283 33.4653 63.0728 26.7624 63.0728 26.7281C63.0728 26.6646 64.5085 26.681 64.5325 26.7447Z" fill="white"/>
<path fill-rule="evenodd" clip-rule="evenodd" d="M61.9497 30.1384C62.6633 32.0229 63.2582 33.5989 63.2718 33.6407C63.2945 33.7109 63.2415 33.7166 62.5565 33.7166H61.8167L61.7318 33.4889C61.6851 33.3636 61.5539 33.0023 61.4403 32.6859L61.2337 32.1106L59.8595 32.1221L58.4853 32.1335L58.2018 32.925L57.9184 33.7166H57.2102H56.502L56.6264 33.3804C57.6885 30.5107 59.09 26.7864 59.1238 26.7437C59.1568 26.7019 59.349 26.6914 59.9099 26.7003L60.6524 26.7121L61.9497 30.1384ZM58.8612 30.9733C58.9379 30.7673 59.6931 28.472 59.7682 28.217C59.8195 28.0428 59.8667 27.9061 59.8729 27.9134C59.8792 27.9206 59.955 28.1802 60.0412 28.4903C60.1275 28.8004 60.3454 29.4928 60.5254 30.0289C60.7055 30.565 60.8528 31.0091 60.8528 31.0156C60.8528 31.0222 60.4002 31.0276 59.8469 31.0276C59.0605 31.0276 58.8455 31.0157 58.8612 30.9733Z" fill="white"/>
<path d="M59.9606 36.7327C60.8755 36.9701 61.3752 37.6564 61.3752 38.6756C61.3752 39.0601 61.2896 39.4056 61.09 39.8273C60.788 40.4651 60.3754 40.9931 59.4001 41.9896L58.8376 42.5642H60.2152H61.5928V43.1281V43.6919H59.2639H56.9351V43.1135V42.5352L57.6065 41.9167C58.8507 40.7707 59.6188 39.83 59.8533 39.1651C60.2805 37.9541 59.1044 37.3743 57.6681 38.0879C57.424 38.2092 57.3114 38.2748 57.2546 38.2426C57.1982 38.2106 57.197 38.0819 57.1765 37.8151C57.1619 37.6243 57.139 37.3947 57.1256 37.3049L57.1013 37.1416L57.3518 37.0312C58.1822 36.6653 59.2361 36.5447 59.9606 36.7327Z" fill="white"/>
<path fill-rule="evenodd" clip-rule="evenodd" d="M65.467 36.7179C66.1852 36.8926 66.7142 37.4406 67.0149 38.3216C67.3374 39.2662 67.373 40.7784 67.0981 41.8581C66.7696 43.148 65.9943 43.8207 64.8358 43.8207C63.7766 43.8207 63.0207 43.2507 62.6856 42.1994C62.4838 41.5662 62.4417 41.2362 62.4417 40.2873C62.4417 39.3395 62.4838 39.0082 62.6845 38.3786C63.1116 37.0383 64.1751 36.4036 65.467 36.7179ZM63.8569 40.2439C63.8569 38.6887 64.0364 38.0312 64.5311 37.7749C64.7841 37.6438 65.1248 37.7022 65.3513 37.9155C65.6778 38.2228 65.8126 38.7679 65.847 39.9205C65.8939 41.4887 65.7095 42.3324 65.2527 42.6391C64.9757 42.8251 64.4733 42.7463 64.2572 42.4828C63.9753 42.1393 63.8569 41.4768 63.8569 40.2439Z" fill="white"/>
<path d="M71.0171 36.7369C72.3794 37.0826 72.8376 38.6134 72.0166 40.0762C71.7446 40.561 71.3451 41.047 70.5867 41.8161L69.849 42.5642H71.2492H72.6495V43.1281V43.6919H70.3206H67.9917V43.1266V42.5613L69.0495 41.511C70.1599 40.4085 70.5177 39.9725 70.8102 39.3652C71.1068 38.7495 71.0389 38.2489 70.6216 37.9735C70.3688 37.8067 69.983 37.7384 69.6014 37.793C69.2432 37.8443 69.0126 37.9254 68.6096 38.142C68.4337 38.2365 68.2842 38.3139 68.2773 38.3139C68.2705 38.3139 68.252 38.1626 68.2362 37.9778C68.2204 37.7929 68.1956 37.5295 68.1811 37.3924L68.1546 37.1432L68.3888 37.0368C68.7003 36.8952 69.3342 36.7188 69.7112 36.6688C70.0885 36.6187 70.6712 36.6491 71.0171 36.7369Z" fill="white"/>
<path fill-rule="evenodd" clip-rule="evenodd" d="M76.6119 36.7495C76.9799 36.8637 77.216 37.015 77.4956 37.3158C77.8863 37.7362 78.1447 38.3715 78.2633 39.203C78.3291 39.6638 78.318 40.9203 78.2441 41.3741C77.9691 43.0634 77.094 43.9025 75.7045 43.8091C75.0721 43.7666 74.6776 43.5881 74.2751 43.1625C73.689 42.5426 73.4433 41.5579 73.4896 40.014C73.5241 38.8608 73.6933 38.1977 74.1137 37.5676C74.6488 36.7656 75.6288 36.4447 76.6119 36.7495ZM74.9776 38.8669C75.0811 38.2755 75.2887 37.8995 75.5856 37.7653C75.7681 37.6828 76.1479 37.713 76.2969 37.822C76.4883 37.9618 76.6795 38.2834 76.7592 38.5996C76.9128 39.2088 76.9466 40.7507 76.8241 41.5576C76.7377 42.1259 76.5209 42.5373 76.2368 42.6716C76.0168 42.7756 75.6318 42.747 75.4421 42.6123C75.2441 42.4719 75.0571 42.0746 74.979 41.6286C74.8885 41.1118 74.8877 39.3809 74.9776 38.8669Z" fill="white"/>
</svg>
