<svg width="99" height="60" viewBox="0 0 99 60" fill="none" xmlns="http://www.w3.org/2000/svg">
<path d="M28.3775 29.5V43.1167H24.6245H20.8715L20.8468 29.5956C20.8332 22.1589 20.8429 16.0202 20.8683 15.9539C20.9046 15.8591 21.7122 15.8386 24.646 15.8583L28.3775 15.8833V29.5Z" fill="white"/>
<path d="M38.3144 19.6339L38.3395 23.3844H34.5855H30.8313V19.6089V15.8334L34.5603 15.8583L38.2892 15.8833L38.3144 19.6339Z" fill="white"/>
<path d="M38.3373 29.5V33.2267H34.5843H30.8313V29.5V25.7733H34.5843H38.3373V29.5Z" fill="white"/>
<path d="M15.5577 15.4983C18.0208 16.0166 19.4606 18.5005 18.7053 20.9286C18.4884 21.6259 17.8709 22.5256 17.3271 22.9365C16.4038 23.634 15.1005 23.9752 14.0447 23.7956C12.8094 23.5855 11.7927 22.9507 11.149 21.9876C10.6001 21.1665 10.4078 20.4555 10.4509 19.406C10.4825 18.6324 10.5266 18.4529 10.8377 17.8293C11.4533 16.5957 12.584 15.7093 13.8477 15.4701C14.5384 15.3392 14.824 15.344 15.5577 15.4983Z" fill="white"/>
<path d="M18.4177 34.47V43.1666L14.6887 43.1417L10.9598 43.1167L10.9353 34.445L10.9106 25.7733H14.6642H18.4177V34.47Z" fill="white"/>
<path fill-rule="evenodd" clip-rule="evenodd" d="M60.9904 16.2125C61.7787 16.5194 62.4949 17.2304 62.7767 17.9856C62.9421 18.4291 62.9905 18.7643 62.9905 19.4667C62.9905 20.9502 62.5034 21.8887 61.4334 22.467C60.6339 22.899 60.0845 22.9998 58.5216 23.0011L57.1022 23.0022V19.4572V15.9122L58.7622 15.9518C60.2113 15.9863 60.4943 16.0194 60.9904 16.2125ZM58.5456 21.8807V19.4664V17.0521L59.2155 17.0997C60.1661 17.1672 60.8666 17.5217 61.2161 18.1121C61.455 18.5154 61.4807 18.6479 61.4807 19.4737C61.4807 20.3241 61.4603 20.4215 61.1911 20.8541C60.8002 21.4824 60.2284 21.7735 59.2641 21.8349L58.5456 21.8807Z" fill="white"/>
<path d="M68.2649 16.5522V17.1733H66.9658H65.6667V17.9856V18.7978H66.8695H68.0724V19.3711V19.9444H66.8695H65.6667V20.8495V21.7546L66.9898 21.7812L68.313 21.8078L68.3417 22.405L68.3702 23.0022H66.2968H64.2232V19.4667V15.9311H66.244H68.2649V16.5522Z" fill="white"/>
<path d="M73.0956 15.9431L73.4517 16.0314L73.4002 16.5307L73.3961 16.5711C73.3545 16.9757 73.3371 17.1448 73.2535 17.1884C73.1934 17.2197 73.0991 17.1862 72.9372 17.1287L72.9145 17.1207C72.7124 17.0491 72.2732 16.9887 71.9383 16.9864C71.3908 16.9826 71.301 17.0104 71.0481 17.2615C70.505 17.8008 70.7414 18.1862 71.9595 18.7478C73.3853 19.4051 73.7692 19.8598 73.7692 20.8909C73.7692 22.3091 72.8287 23.1293 71.1999 23.1313C70.7765 23.1318 70.1973 23.0759 69.9128 23.0071L69.3956 22.8819L69.4605 22.2525C69.4962 21.9063 69.536 21.6126 69.5489 21.5998C69.5618 21.587 69.8519 21.6643 70.1936 21.7713C71.3297 22.1272 72.2273 21.8642 72.2881 21.1573C72.3354 20.6065 72.172 20.4369 71.1187 19.9442C69.7258 19.2927 69.3199 18.8062 69.3255 17.7951C69.3296 17.0661 69.88 16.275 70.569 16.0081C71.2132 15.7585 72.2453 15.7319 73.0956 15.9431Z" fill="white"/>
<path d="M76.3482 19.4709V23.0106L75.6505 22.9825L74.9529 22.9544L74.9276 19.5627C74.9136 17.6973 74.9231 16.1171 74.9486 16.051C74.9797 15.9706 75.2175 15.9311 75.6716 15.9311H76.3482V19.4709Z" fill="white"/>
<path d="M83.0421 16.0215C83.3346 16.1276 83.3364 16.1325 83.2953 16.7225C83.2724 17.0493 83.2419 17.3299 83.2275 17.3462C83.2131 17.3624 82.9515 17.3037 82.6464 17.2156C82.2501 17.1012 81.8616 17.0674 81.2873 17.0973C80.5926 17.1335 80.4276 17.1774 80.0756 17.4197C79.4578 17.8448 79.1386 18.5407 79.1399 19.4599C79.1419 21.0379 80.0397 21.9259 81.5446 21.8385L82.0739 21.8078L82.1016 20.9239L82.1292 20.04H81.404H80.6786V19.4667V18.8933H82.0759H83.4732L83.4472 20.8242L83.4211 22.755L82.9881 22.8919C82.7221 22.9759 82.1096 23.0325 81.4003 23.0385C80.402 23.047 80.1704 23.0184 79.6911 22.8269C78.982 22.5437 78.2492 21.841 77.9076 21.1169C77.6721 20.6178 77.6475 20.4612 77.6474 19.4649C77.6473 18.413 77.6614 18.3361 77.9649 17.7236C78.411 16.8233 79.0979 16.2913 80.2196 15.9774C80.7982 15.8154 82.5495 15.8427 83.0421 16.0215Z" fill="white"/>
<path d="M87.6085 17.5754C88.0503 18.4799 88.6201 19.6731 88.8748 20.2271L89.3377 21.2344L89.3385 18.5828L89.3393 15.9311H89.9648H90.5903V19.4667V23.0022H89.6941H88.798L87.8561 21.0887C87.3381 20.0363 86.7468 18.8001 86.5423 18.3415L86.1702 17.5078L86.2305 20.255L86.2906 23.0022H85.6017H84.9127V19.4667V15.9311H85.8589H86.8052L87.6085 17.5754Z" fill="white"/>
<path fill-rule="evenodd" clip-rule="evenodd" d="M61.9442 29.4318C62.6684 31.3389 63.2609 32.9532 63.2609 33.0192C63.2609 33.1074 63.0655 33.1318 62.5209 33.1112L61.7809 33.0833L61.4973 32.295L61.2138 31.5067L59.8075 31.5078L58.4013 31.5091L58.1126 32.2961L57.8239 33.0833L57.2082 33.1122C56.8695 33.128 56.5518 33.1006 56.5023 33.0514C56.4245 32.9742 57.014 31.3203 58.8327 26.5139L59.0406 25.9644H59.8341H60.6275L61.9442 29.4318ZM58.8343 30.2884C58.8343 30.2234 59.6405 27.7354 59.771 27.3978C59.814 27.2864 59.8363 27.297 59.8708 27.4456C59.8953 27.5507 60.1051 28.2227 60.3372 28.9391C60.5691 29.6554 60.7589 30.2681 60.7589 30.3008C60.7589 30.3333 60.3259 30.36 59.7966 30.36C59.2674 30.36 58.8343 30.3278 58.8343 30.2884Z" fill="white"/>
<path d="M65.1274 28.3862C65.4319 29.7182 65.7053 30.988 65.735 31.2081C65.7647 31.4281 65.8054 31.5918 65.8255 31.5718C65.8457 31.5519 66.0989 30.3788 66.3884 28.965C66.6779 27.5512 66.9383 26.2961 66.9669 26.176C67.0176 25.9646 67.0494 25.9584 67.9513 25.9849L68.8834 26.0122L69.3393 28.0667C69.5902 29.1966 69.8491 30.4328 69.9149 30.8139C70.0269 31.4619 70.1895 31.7545 70.1895 31.3078C70.1895 31.1537 71.0252 27.3348 71.3118 26.1794C71.3612 25.9803 71.4183 25.9644 72.0867 25.9644C72.6919 25.9644 72.7992 25.9879 72.7523 26.1092C72.7216 26.1889 72.3204 27.7476 71.861 29.5731C71.4015 31.3986 70.9824 32.9475 70.9297 33.0152C70.8615 33.1024 70.596 33.1302 70.014 33.1108L69.1942 33.0833L68.5902 30.4078C68.258 28.9362 67.9796 27.6247 67.9714 27.4933C67.9573 27.267 67.9522 27.2694 67.8731 27.5411C67.8272 27.6988 67.5492 28.9837 67.2552 30.3966C66.9612 31.8094 66.6976 33.0027 66.6692 33.0483C66.6408 33.0938 66.2512 33.1311 65.8033 33.1311C65.0498 33.1311 64.9822 33.1151 64.8982 32.9161C64.8142 32.7174 63.0685 26.1347 63.0685 26.017C63.0685 25.988 63.4072 25.9644 63.8212 25.9644H64.5739L65.1274 28.3862Z" fill="white"/>
<path fill-rule="evenodd" clip-rule="evenodd" d="M76.7331 26.0003C76.7331 26.02 77.3177 27.5725 78.0322 29.4505C78.7467 31.3284 79.3313 32.9248 79.3313 32.998C79.3313 33.0988 79.1735 33.1307 78.6818 33.1297C78.3246 33.1288 77.9865 33.0966 77.9306 33.058C77.8748 33.0194 77.7076 32.6534 77.5591 32.2447L77.2892 31.5017L75.8804 31.5281L74.4717 31.5544L74.2311 32.2236C74.0988 32.5917 73.9555 32.9465 73.9127 33.012C73.8203 33.1533 72.499 33.1801 72.499 33.0407C72.499 32.991 73.0883 31.3785 73.8086 29.4574L75.1182 25.9644H75.9257C76.3698 25.9644 76.7331 25.9806 76.7331 26.0003ZM74.9048 30.2934C74.9048 30.2567 75.1296 29.561 75.4042 28.7473C75.8038 27.5635 75.9174 27.3143 75.9726 27.5C76.0105 27.6278 76.2188 28.2772 76.4355 28.9431C76.6521 29.6091 76.8294 30.2003 76.8294 30.257C76.8294 30.3238 76.4907 30.36 75.8671 30.36C75.3378 30.36 74.9048 30.33 74.9048 30.2934Z" fill="white"/>
<path fill-rule="evenodd" clip-rule="evenodd" d="M84.0639 26.2787C84.7071 26.5923 85.0089 27.0796 85.0089 27.804C85.0089 28.5591 84.6476 29.1572 84.0409 29.4068L83.769 29.5186L84.0084 29.7243C84.2634 29.9435 85.5302 32.8938 85.4349 33.0467C85.3521 33.18 84.0849 33.1496 83.975 33.0117C83.9227 32.946 83.6728 32.3419 83.4197 31.6694C83.1366 30.917 82.8827 30.3931 82.7599 30.3077C82.6501 30.2314 82.3546 30.1689 82.1032 30.1689H81.6459L81.6193 31.6261L81.5928 33.0833H80.9191H80.2455L80.2203 29.5144L80.195 25.9455L81.8562 25.9789C83.4455 26.0108 83.541 26.0238 84.0639 26.2787ZM81.6409 29.0495V28.0672V27.0849L82.2517 27.1337C83.1033 27.2015 83.3997 27.3615 83.5125 27.8142C83.6861 28.5103 83.2829 28.879 82.2284 28.9885L81.6409 29.0495Z" fill="white"/>
<path fill-rule="evenodd" clip-rule="evenodd" d="M89.9153 26.1133C90.7025 26.2976 91.2348 26.606 91.7303 27.165C92.2748 27.7792 92.4666 28.3874 92.4666 29.5C92.4666 30.742 92.2673 31.29 91.5606 31.9918C91.1748 32.3749 90.8583 32.5875 90.4456 32.7408C89.7632 32.9944 88.5004 33.1505 87.4486 33.1114L86.693 33.0833L86.6677 29.5239L86.6425 25.9644L87.9668 25.9659C88.814 25.9667 89.5161 26.0199 89.9153 26.1133ZM88.0883 31.914V29.4993V27.0847L88.7378 27.1503C90.0957 27.2873 90.7819 27.8504 90.9605 28.9744C91.2356 30.7053 90.4415 31.7625 88.786 31.8691L88.0883 31.914Z" fill="white"/>
<path fill-rule="evenodd" clip-rule="evenodd" d="M77.815 36.1737C78.0661 36.2962 78.3663 36.5285 78.482 36.69C78.7376 37.0465 78.8295 37.8795 78.6584 38.2896C78.5297 38.598 77.8641 39.2467 77.6763 39.2467C77.6132 39.2467 77.754 39.3696 77.9893 39.5199C78.6005 39.9101 78.8246 40.1879 78.9396 40.6973C79.1629 41.6871 78.7123 42.5086 77.6954 42.9656C77.0467 43.2572 75.7049 43.2434 75.0452 42.9383C74.3313 42.6082 73.8473 41.9274 73.8473 41.2533C73.8473 40.6381 74.4317 39.7674 75.0023 39.5328L75.2902 39.4144L74.8631 39.1454C74.3302 38.8098 74.1246 38.5041 74.0622 37.9542C73.9648 37.0958 74.4415 36.3882 75.3466 36.048C75.9332 35.8275 77.2421 35.8941 77.815 36.1737ZM75.4181 37.8774C75.3703 37.5851 75.4047 37.4933 75.6554 37.2444C75.9033 36.9981 76.0221 36.9533 76.4264 36.9533C77.0373 36.9533 77.3064 37.158 77.3698 37.671C77.4248 38.1167 77.1982 38.5488 76.7986 38.7603C76.574 38.8791 76.4988 38.8748 76.1603 38.7231C75.6644 38.501 75.487 38.2989 75.4181 37.8774ZM75.4268 41.6217C75.1597 41.1088 75.336 40.4988 75.852 40.1506L75.8645 40.1422C76.0622 40.0088 76.1608 39.9423 76.2651 39.9319C76.3689 39.9216 76.4783 39.967 76.6967 40.0576L76.7108 40.0635C77.207 40.2693 77.4895 40.5593 77.5606 40.9358C77.6894 41.6171 77.2229 42.1133 76.4538 42.1133C75.9463 42.1133 75.5953 41.9453 75.4268 41.6217Z" fill="white"/>
<path d="M71.8254 39.5333V43.0689H71.0995H70.3736L70.4019 40.3118L70.4301 37.5549L69.8933 38.0185C69.5981 38.2735 69.3296 38.4822 69.2965 38.4822C69.2002 38.4822 68.6329 37.6242 68.6669 37.5301C68.684 37.4831 69.1093 37.1212 69.6121 36.7259L70.5263 36.0071L71.1758 36.0025L71.8254 35.9978V39.5333Z" fill="white"/>
<path fill-rule="evenodd" clip-rule="evenodd" d="M66.2603 36.2413C66.7286 36.5677 67.0661 37.1065 67.2634 37.8424C67.4364 38.4877 67.4392 40.569 67.268 41.2056C66.8734 42.6725 66.1669 43.2201 64.7598 43.1495C64.1981 43.1213 63.9843 43.0637 63.6665 42.8549C62.875 42.3348 62.4911 41.2728 62.4911 39.6038C62.4911 37.6795 62.9119 36.6207 63.8674 36.141C64.3022 35.9228 64.464 35.8939 65.1055 35.9203C65.7452 35.9467 65.8992 35.9895 66.2603 36.2413ZM64.2091 37.5541C64.3148 37.3484 64.502 37.131 64.625 37.0711C64.8868 36.9435 65.2623 37.0033 65.4925 37.2093C66.1001 37.7528 66.2256 40.6603 65.6815 41.5855C65.2803 42.2677 64.6316 42.2654 64.2512 41.5805C63.8028 40.7735 63.778 38.3934 64.2091 37.5541Z" fill="white"/>
<path d="M59.9065 36.0132C60.8318 36.2884 61.4043 37.1702 61.3123 38.1783C61.2314 39.0633 60.8753 39.6356 59.6526 40.8448L58.5681 41.9174L60.0243 41.9437L61.4807 41.97V42.4956V43.0211L59.1471 43.0467L56.8135 43.0723L56.8193 42.4734L56.8251 41.8744L57.8146 40.9998C59.5016 39.5086 60.099 38.4881 59.7585 37.6791C59.4847 37.0285 58.5547 36.8779 57.5463 37.3208L57.124 37.5063L57.0661 37.1582C56.9828 36.6581 56.9928 36.3038 57.092 36.243C57.5705 35.9492 59.235 35.8134 59.9065 36.0132Z" fill="white"/>
</svg>
