<svg width="99" height="60" viewBox="0 0 99 60" fill="none" xmlns="http://www.w3.org/2000/svg">
<path fill-rule="evenodd" clip-rule="evenodd" d="M29.7941 13.3816L28.0896 16.0879L29.2541 16.7185C35.0666 19.8671 40.9215 25.5219 43.3571 30.3397C44.6276 32.8533 45.2144 36.98 44.5505 38.7354C44.0462 40.0692 44.5094 39.4892 45.2142 37.9047C47.0543 33.7664 47.0247 29.5273 45.1224 24.836C43.1222 19.903 38.1418 14.5372 32.5409 11.281L31.4986 10.6753L29.7941 13.3816ZM40.3198 12.898L39.406 13.9877L40.4731 15.1545C44.5941 19.6607 46.7801 24.3072 47.4031 29.8852L47.5807 31.4761L47.7362 29.8852C48.0669 26.4976 47.3296 22.2266 45.7951 18.6403C44.9016 16.5524 42.9473 13.4463 41.8924 12.4377L41.2337 11.8082L40.3198 12.898ZM18.9777 15.397C17.7433 18.601 16.5173 21.9688 16.5173 22.1556C16.5175 22.282 17.3566 22.6731 18.3821 23.0247C19.4078 23.3763 21.314 24.1395 22.6182 24.7206C31.0398 28.4734 37.1434 33.3269 39.5296 38.1686C40.269 39.6688 40.3639 40.0565 40.3639 41.5776C40.3639 42.9453 40.2615 43.4682 39.8596 44.1518C39.4403 44.8652 39.4214 44.9734 39.7466 44.7943C40.3578 44.4577 41.9475 42.7091 42.5843 41.6733C46.8678 34.7026 40.0814 24.4267 26.8019 17.776C24.2922 16.5192 20.0222 14.772 19.4601 14.772C19.3271 14.772 19.1102 15.0531 18.9777 15.397ZM11.5832 25.2462L8.34438 26.8182L8.50509 27.5537C8.75825 28.7127 10.7519 33.5833 11.7857 35.5684C14.8824 41.5146 18.4974 45.3491 22.9197 47.379C25.1654 48.4097 26.6735 48.7301 29.1752 48.7081C31.4466 48.6881 33.3779 48.2838 35.3446 47.4161L36.5213 46.897L34.7131 46.9079C31.1449 46.9293 27.8624 45.2825 24.5732 41.821C20.9942 38.0543 17.6244 31.6961 15.6882 25.056C15.4604 24.2751 15.1724 23.6447 15.0481 23.6551C14.9238 23.6656 13.3646 24.3817 11.5832 25.2462ZM7.41945 35.2405C6.7045 35.6114 6.11975 35.9696 6.11975 36.0364C6.11975 36.6957 8.25442 39.7926 10.0555 41.7462C13.8555 45.8684 19.4327 48.8178 24.1514 49.2012L25.6717 49.3246L24.4285 48.9735C19.0986 47.4683 13.9649 42.9712 10.1633 36.4771C9.541 35.4139 8.96145 34.5492 8.87556 34.5551C8.78944 34.5612 8.13439 34.8696 7.41945 35.2405Z" fill="white"/>
<path fill-rule="evenodd" clip-rule="evenodd" d="M54.781 10.7121C54.3361 10.7646 53.9611 10.8738 53.5565 11.0689C52.8794 11.3955 52.4271 11.9552 52.2126 12.732C52.1076 13.1122 52.1088 14.2446 52.2145 14.6292C52.4506 15.4876 53.0373 16.1265 53.87 16.432C54.8137 16.7783 56.1893 16.7559 57.3233 16.3758C57.8131 16.2116 57.7742 16.3448 57.7742 14.829V13.5156H56.652H55.5299L55.5042 13.6445C55.4901 13.7154 55.4786 13.8801 55.4786 14.0105C55.4786 14.1409 55.4901 14.3056 55.5042 14.3765L55.5299 14.5054H55.9978H56.4657L56.4538 14.8623L56.442 15.2191L56.278 15.2785C56.1878 15.3111 55.9087 15.3479 55.6578 15.3602C55.269 15.3793 55.1596 15.3698 54.9175 15.2958C54.2333 15.0867 53.8897 14.5868 53.8497 13.7424C53.8182 13.0769 53.9671 12.6389 54.3437 12.2897C54.5756 12.0746 54.7108 12.0052 55.0568 11.9232C55.6853 11.7744 56.6086 12.0231 57.0794 12.4679L57.184 12.5666L57.3334 12.4121C57.5586 12.1792 57.7377 11.7605 57.7465 11.4463L57.7537 11.188L57.4884 11.0539C56.883 10.748 55.7212 10.6013 54.781 10.7121ZM71.8034 10.75C71.5494 10.7671 71.3297 10.7931 71.315 10.8078C71.2722 10.8509 71.2532 11.6633 71.2904 11.8658L71.3244 12.0514L71.7333 12.0721L72.1423 12.0927L72.1529 14.2842C72.1623 16.2245 72.1709 16.4818 72.2284 16.5298C72.3058 16.5945 73.1459 16.6339 73.4995 16.5895L73.7335 16.5601L73.7087 14.8625C73.6855 13.2607 73.688 13.1703 73.7535 13.2594C73.7917 13.3113 74.155 13.862 74.5609 14.4832L75.2987 15.6127L75.4487 15.6159L75.5987 15.619L76.3665 14.4333C76.7887 13.7811 77.158 13.2217 77.187 13.1902C77.2302 13.1434 77.2354 13.447 77.2161 14.8437L77.1922 16.5547L77.2908 16.5812C77.4178 16.6154 78.5486 16.6169 78.7165 16.5831L78.8446 16.5573V13.6782V10.7991L78.7524 10.7692C78.6323 10.7303 77.387 10.7297 77.2191 10.7685C77.1057 10.7947 77.0324 10.8901 76.6199 11.5486C76.3613 11.9613 76.0159 12.5263 75.8523 12.8041C75.6886 13.082 75.5432 13.3089 75.5291 13.3083C75.5152 13.3078 75.3491 13.0711 75.1601 12.7825C74.9711 12.4938 74.593 11.9296 74.3198 11.5287C73.8344 10.8164 73.8193 10.7993 73.659 10.7778C73.3434 10.7354 72.2611 10.7192 71.8034 10.75ZM86.6019 10.7501C86.3479 10.7671 86.1315 10.7897 86.121 10.8003C86.0818 10.8397 86.0569 11.6463 86.0887 11.8452L86.1216 12.0514L86.5312 12.0721L86.9407 12.0927L86.9513 14.2842C86.9607 16.2174 86.9695 16.4819 87.0264 16.5294C87.1037 16.594 87.9081 16.6333 88.2562 16.5895L88.4907 16.5601L88.4637 14.945C88.4488 14.0567 88.4253 13.279 88.4115 13.2166C88.397 13.1512 88.4039 13.1031 88.4278 13.1031C88.4505 13.1031 88.9369 13.8805 89.5086 14.8305C90.5177 16.5074 90.5523 16.5586 90.6916 16.5829C90.8806 16.6159 91.9575 16.616 92.1212 16.5831L92.2493 16.5573L92.2517 14.2219C92.253 12.9374 92.2699 11.673 92.2891 11.4122C92.3372 10.7632 92.3525 10.7775 91.5893 10.7585C91.2727 10.7507 90.9478 10.7566 90.8674 10.7718L90.7213 10.7994L90.7469 12.3328C90.7609 13.1761 90.784 13.9265 90.7982 14.0002C90.8123 14.0739 90.8068 14.1342 90.7859 14.1342C90.765 14.1342 90.2787 13.3842 89.7052 12.4676L88.6624 10.8009L88.4985 10.7785C88.1876 10.7361 87.0626 10.7193 86.6019 10.7501ZM81.7746 10.8038C81.7641 10.8322 81.2942 12.1076 80.7304 13.638C79.5281 16.9015 79.5746 16.5698 80.3151 16.6005C80.5624 16.6108 80.8632 16.6068 80.9835 16.5917L81.2022 16.5642L81.4015 15.9885L81.6007 15.4128H82.7403H83.88L84.0695 15.9851L84.2591 16.5574L84.4111 16.5827C84.6077 16.6154 85.5839 16.6154 85.7802 16.5828C85.8634 16.5689 85.9419 16.5301 85.9548 16.4964C85.9676 16.4628 85.5253 15.1983 84.9719 13.6865C84.2018 11.5827 83.9415 10.9161 83.8624 10.8451C83.7615 10.7543 83.7377 10.7523 82.7764 10.7523C82.0276 10.7523 81.789 10.7646 81.7746 10.8038ZM58.5306 11.1103C58.5144 11.2846 58.5174 11.5676 58.5373 11.7393L58.5736 12.0514L58.9835 12.0721L59.3935 12.0927L59.4041 14.2748C59.4115 15.8027 59.4284 16.4735 59.4603 16.5123C59.4975 16.5573 59.9068 16.5676 61.6512 16.5676H63.7965L63.8273 16.4129C63.8669 16.2136 63.8669 15.643 63.8273 15.4437L63.7965 15.2891H62.4046H61.0127V14.8354V14.3817H62.1991C62.8516 14.3817 63.3954 14.3655 63.4076 14.3456C63.4543 14.2696 63.4817 13.7194 63.4537 13.4189L63.4244 13.1044L62.2288 13.0935L61.0332 13.0825L61.0217 12.5773L61.0101 12.0721H62.3418H63.6735L63.7043 11.9174C63.7212 11.8323 63.735 11.6143 63.735 11.4328C63.735 11.2513 63.7212 11.0333 63.7043 10.9482L63.6735 10.7935H61.1168H58.5601L58.5306 11.1103ZM64.5139 10.8863C64.4754 11.0067 64.4759 11.7645 64.5147 11.938L64.5446 12.0721H64.9512H65.3579V14.2501C65.3579 16.0656 65.3676 16.4414 65.4161 16.5082C65.4675 16.579 65.5367 16.5899 66.0145 16.6028C66.3117 16.6108 66.6544 16.6048 66.7762 16.5895L66.9976 16.5617V15.5524V14.5432L67.3104 14.5552L67.6231 14.5673L67.7368 14.8654C68.2168 16.1242 69.0007 16.6582 70.2739 16.5936C70.5314 16.5806 70.7594 16.5526 70.7804 16.5314C70.8349 16.4765 70.8671 15.8461 70.8322 15.5178C70.8029 15.2425 70.8015 15.2399 70.6936 15.266C70.6336 15.2805 70.4522 15.3032 70.2905 15.3165C70.0398 15.3372 69.9689 15.3273 69.8093 15.2496C69.6085 15.1518 69.3236 14.8573 69.2195 14.64C69.1843 14.5665 69.1635 14.5005 69.1732 14.4933C69.1829 14.486 69.316 14.4193 69.4691 14.345C70.1981 13.9912 70.5734 13.2562 70.4534 12.4174C70.3669 11.814 70.0053 11.2989 69.4892 11.0439C69.0106 10.8074 68.8671 10.795 66.6007 10.7942L64.5436 10.7935L64.5139 10.8863ZM68.5014 12.1522C68.7077 12.2464 68.8013 12.4081 68.8013 12.6701C68.8013 12.9098 68.7139 13.0815 68.5444 13.1745C68.4357 13.2341 68.2847 13.2497 67.7048 13.2611L66.9976 13.2749V12.6735V12.0721L67.6638 12.073C68.2294 12.0737 68.3558 12.0857 68.5014 12.1522ZM83.0976 13.0727C83.2837 13.6225 83.4359 14.0863 83.4358 14.1033C83.4358 14.1387 82.1087 14.1463 82.0738 14.1111C82.0483 14.0855 82.7049 12.0718 82.7384 12.0725C82.75 12.0728 82.9117 12.5228 83.0976 13.0727ZM86.5103 17.747C86.4539 17.7569 86.2326 17.7948 86.0184 17.8313C84.9987 18.0051 84.1123 18.4487 83.4054 19.1388C82.5009 20.0219 82.0313 21.1723 81.9719 22.651C81.8546 25.571 83.3948 27.558 86.1619 28.0569C86.7131 28.1563 88.0414 28.1594 88.6014 28.0625C91.3212 27.5922 92.8634 25.7259 92.8641 22.9038C92.8647 20.552 91.6878 18.7749 89.6544 18.0569C88.9577 17.8109 88.5952 17.7565 87.5556 17.7421C87.0371 17.7349 86.5667 17.7371 86.5103 17.747ZM58.4311 17.8504C58.1498 17.8719 57.9066 17.903 57.8905 17.9194C57.7785 18.0343 57.7467 19.5113 57.8469 19.9496L57.8799 20.0939L58.5748 20.1279C58.957 20.1466 59.2726 20.1652 59.2761 20.1692C59.2796 20.1732 59.296 21.8781 59.3126 23.958L59.3427 27.7396L59.4529 27.8458C59.5437 27.9332 59.6278 27.9601 59.9292 27.9979C60.2864 28.0426 61.5967 28.021 61.8428 27.9663L61.9555 27.9412V26.1287C61.9555 24.5276 61.9194 23.1184 61.8544 22.187C61.839 21.9653 61.8467 21.8883 61.8843 21.8892C61.9122 21.8898 62.7559 23.2527 63.7592 24.9176C65.4517 27.7263 65.5925 27.9466 65.7096 27.969C66.2278 28.0682 68.0216 28.0663 68.4179 27.9663L68.5144 27.9419L68.5137 24.1004C68.5132 20.9625 68.5255 20.0638 68.5813 19.1935L68.6497 18.1282L68.5229 18.0007L68.3961 17.8731L67.5181 17.8543C67.0351 17.844 66.4622 17.8489 66.2449 17.8653L65.8498 17.8951L65.8497 19.4688C65.8496 20.6087 65.8732 21.4158 65.9353 22.3965C65.9825 23.1411 66.0089 23.7627 65.9939 23.7778C65.9789 23.7929 65.95 23.7775 65.9296 23.7437C65.9092 23.7098 65.0759 22.383 64.0778 20.7951L62.263 17.908L62.017 17.8782C61.6087 17.8288 58.9787 17.8083 58.4311 17.8504ZM70.81 17.8269C70.7536 17.8354 70.5103 17.8541 70.2693 17.8686L69.831 17.895L69.8057 18.011C69.7152 18.4255 69.717 19.6415 69.8087 20.009C69.8337 20.1092 69.8491 20.1146 70.1112 20.1146C70.2631 20.1146 70.5839 20.1266 70.8241 20.1414L71.2609 20.1683V23.9488V27.7292L71.3773 27.8413C71.4772 27.9376 71.5484 27.9599 71.8795 27.9982C72.248 28.0408 73.4891 28.0195 73.7922 27.9653L73.9255 27.9415V26.3495C73.9255 25.4739 73.8961 24.1198 73.8602 23.3403C73.8243 22.5609 73.8062 21.9118 73.8199 21.898C73.8336 21.8842 73.8614 21.8902 73.8817 21.9114C73.9019 21.9326 74.7323 23.2981 75.7269 24.946C77.4503 27.8013 77.5416 27.9433 77.67 27.9675C78.2045 28.0684 79.8063 28.0697 80.3365 27.9696L80.4843 27.9416L80.485 23.8941C80.4854 20.789 80.4994 19.6448 80.5451 18.9804L80.6045 18.1142L80.4848 17.9932L80.3651 17.8722L79.4452 17.8539C78.9392 17.8439 78.3665 17.849 78.1725 17.8653L77.8198 17.8948L77.8218 19.6749C77.8233 20.9316 77.8458 21.7884 77.8985 22.5892C77.9394 23.213 77.9587 23.7392 77.9413 23.7585C77.924 23.7779 77.8467 23.6944 77.7697 23.573C77.6927 23.4515 76.8603 22.1248 75.92 20.6247L74.2103 17.8972L73.9552 17.8719C73.6602 17.8426 70.963 17.8041 70.81 17.8269ZM52.6824 17.874L52.3662 17.8908L52.334 18.0438C52.2918 18.2433 52.2921 19.7598 52.3343 19.9599L52.3669 20.1146H52.6456C52.7989 20.1146 53.1209 20.1266 53.3611 20.1414L53.7979 20.1683L53.7992 23.9462L53.8005 27.724L53.8997 27.8374C53.989 27.9395 54.0409 27.9554 54.421 27.9976C54.8321 28.0431 56.2631 28.0217 56.5137 27.9662L56.6264 27.9412V23.0252V18.109L56.5043 17.9913L56.3822 17.8736L54.6904 17.8654C53.7599 17.861 52.8563 17.8648 52.6824 17.874ZM88.1482 20.0505C88.9431 20.2676 89.5048 20.8783 89.7246 21.7643C89.8253 22.1701 89.8818 22.8136 89.8532 23.2284C89.73 25.0136 88.9222 25.885 87.388 25.888C86.1947 25.8902 85.3816 25.2585 85.1004 24.1105C84.8896 23.2503 84.9441 22.1241 85.2335 21.3579C85.5163 20.609 86.1204 20.1183 86.9164 19.9907C87.2185 19.9424 87.8677 19.9738 88.1482 20.0505ZM80.2527 29.1463C79.7832 29.2132 79.4405 29.3181 79.0102 29.5265C78.6319 29.7098 78.5376 29.7786 78.2095 30.1108C77.7992 30.5262 77.562 30.9305 77.4094 31.475C77.2289 32.1186 77.2221 33.0313 77.3927 33.6983C77.6482 34.6972 78.3514 35.4852 79.3117 35.8489C79.8464 36.0513 80.1177 36.0917 80.9353 36.0906C81.6223 36.0897 81.7314 36.0795 82.0955 35.9814C83.355 35.6424 84.1662 34.8324 84.4702 33.6106C84.5444 33.3123 84.5593 33.1375 84.5573 32.5907C84.5545 31.8074 84.4864 31.4909 84.1891 30.8791C84.0269 30.5454 83.9432 30.4321 83.625 30.1152C83.1259 29.6181 82.654 29.369 81.8986 29.2037C81.5568 29.129 80.6071 29.0958 80.2527 29.1463ZM52.4146 29.2183C52.1937 29.2383 52.1793 29.2847 52.1789 29.9718C52.1786 30.7399 52.1487 30.6957 52.6971 30.7394L53.1553 30.776L54.1117 33.3111C54.6377 34.7053 55.104 35.8822 55.1479 35.9264C55.2193 35.9982 55.3042 36.0086 55.9621 36.026C56.3661 36.0366 56.8349 36.0324 57.0039 36.0164L57.311 35.9874L58.5448 32.7425C59.2234 30.9577 59.784 29.4789 59.7907 29.4562C59.7973 29.4335 59.7736 29.3734 59.7381 29.3227C59.6787 29.238 59.6297 29.2282 59.144 29.2035C58.8528 29.1887 58.4554 29.19 58.2608 29.2063L57.9071 29.236L57.3821 30.7071C57.0933 31.5163 56.7952 32.3825 56.7197 32.632C56.3696 33.7891 56.3317 33.8986 56.2948 33.8614C56.2738 33.8403 56.1371 33.4633 55.991 33.0236C55.8449 32.5839 55.4838 31.5528 55.1886 30.7323L54.6518 29.2404L54.4033 29.2143C54.1474 29.1874 52.7241 29.1903 52.4146 29.2183ZM60.5872 32.5124L59.363 35.8367L59.4474 35.9216C59.5236 35.9983 59.5935 36.0083 60.1596 36.024C60.5048 36.0335 60.861 36.0252 60.9512 36.0053L61.1152 35.9693L61.3457 35.3111L61.5763 34.6529L62.9121 34.642L64.248 34.6312L64.4647 35.3075L64.6815 35.9838L64.8865 36.0088C65.1578 36.042 66.1978 36.0415 66.4392 36.0083C66.5879 35.9878 66.6348 35.9626 66.6519 35.894C66.6658 35.8384 66.2434 34.6302 65.5042 32.6105C64.5017 29.8719 64.3167 29.3988 64.2102 29.3016L64.0858 29.1881H62.9486H61.8114L60.5872 32.5124ZM73.5082 29.2158C73.1063 29.2347 73.1418 29.1963 73.0831 29.6751C73.0544 29.9096 73.0946 30.5883 73.1418 30.6652C73.1584 30.6922 73.3628 30.7234 73.6299 30.7397L74.0894 30.7678L74.0903 33.2878C74.0912 35.6661 74.0955 35.8133 74.1663 35.9059C74.2375 35.9991 74.271 36.0052 74.8142 36.0249C75.1293 36.0363 75.5286 36.0323 75.7016 36.0159L76.0161 35.9863V32.6761C76.0161 29.5596 76.0118 29.362 75.9434 29.2997C75.8821 29.2439 75.7144 29.2309 74.8674 29.2163C74.3155 29.2068 73.7039 29.2065 73.5082 29.2158ZM85.3972 29.2185C85.1281 29.2357 85.1356 29.2219 85.0954 29.7656C85.0734 30.0629 85.1187 30.6475 85.1675 30.6967C85.1757 30.705 85.386 30.7241 85.6348 30.7394L86.0872 30.767L86.1143 32.5621C86.1292 33.5494 86.1414 34.6946 86.1414 35.107C86.1414 36.0461 86.1066 35.9969 86.7907 36.0253C87.0582 36.0364 87.4209 36.0319 87.5966 36.0153L87.9161 35.9852L87.889 34.288C87.8741 33.3545 87.8504 32.435 87.8364 32.2445C87.8197 32.0189 87.8251 31.9072 87.8517 31.9237C87.8741 31.9377 88.4407 32.8571 89.1109 33.9669L90.3292 35.9847L90.5511 36.0125C90.8358 36.0483 91.8676 36.0477 92.1067 36.0116L92.2903 35.984L92.29 33.4212C92.2899 31.9444 92.3097 30.548 92.3368 30.1257C92.3961 29.2004 92.4256 29.2486 91.7753 29.2077C91.5178 29.1915 91.1317 29.1915 90.9173 29.2077L90.5276 29.2371V30.5004C90.5276 31.1952 90.5479 32.0648 90.5727 32.4328C90.5975 32.8009 90.6103 33.1249 90.6009 33.153C90.5917 33.181 90.0264 32.3143 89.3447 31.227L88.1053 29.25L87.851 29.2239C87.5861 29.1967 85.801 29.1928 85.3972 29.2185ZM66.2747 29.4253C66.2367 29.6646 66.2375 30.3548 66.276 30.5616L66.3042 30.7127L67.3171 30.7238L68.3299 30.7348L68.3405 33.2961C68.3508 35.8034 68.3528 35.859 68.4336 35.9325C68.5021 35.9949 68.6086 36.0108 69.0645 36.0263C69.3661 36.0366 69.753 36.0319 69.9242 36.0157L70.2355 35.9864L70.2461 33.3605L70.2566 30.7348L71.2694 30.7238L72.2823 30.7127L72.3148 30.5588C72.3565 30.3608 72.3562 29.5851 72.3143 29.384L72.282 29.2294H69.2939H66.3058L66.2747 29.4253ZM81.6002 30.7514C82.2224 30.9941 82.5485 31.6416 82.5473 32.632C82.5462 33.6004 82.267 34.1738 81.6628 34.4491C81.1679 34.6745 80.3763 34.628 79.9724 34.3498C79.5442 34.0548 79.3349 33.564 79.305 32.785C79.2609 31.6353 79.582 30.9825 80.3193 30.7232C80.6709 30.5996 81.2432 30.6122 81.6002 30.7514ZM62.9601 30.8276C63.0157 30.9635 63.7182 33.0839 63.7182 33.1157C63.7182 33.1332 63.3585 33.1475 62.9188 33.1475C62.3134 33.1475 62.1195 33.1352 62.1195 33.0968C62.1195 33.0111 62.875 30.7554 62.9037 30.7554C62.9185 30.7554 62.9439 30.7879 62.9601 30.8276ZM83.3593 36.534C82.8824 36.808 82.653 37.1554 82.6268 37.6431C82.6126 37.9068 82.6241 37.9794 82.7053 38.1356C82.834 38.3834 82.9744 38.4775 83.2494 38.5004C83.5176 38.5228 83.6847 38.4635 83.8244 38.2964C84.0191 38.0637 83.9992 37.6812 83.7816 37.4756C83.6965 37.3952 83.6318 37.375 83.4587 37.375H83.2423L83.2828 37.258C83.326 37.1335 83.5937 36.9142 83.751 36.8744C83.8633 36.8461 83.877 36.7165 83.7822 36.5802C83.6626 36.4086 83.5912 36.4007 83.3593 36.534ZM85.424 37.2563C85.1304 37.318 84.5566 37.5688 84.3859 37.7101L84.2907 37.7889L84.381 38.0318C84.4815 38.3019 84.7556 38.6127 84.9329 38.6574C85.0228 38.6801 85.0703 38.6561 85.2121 38.5165C85.4566 38.2756 85.7284 38.1644 86.0799 38.1612C86.4001 38.1583 86.5797 38.2352 86.7315 38.44C86.8583 38.6112 86.8524 39.0364 86.7195 39.3082C86.516 39.724 85.7523 40.3986 84.9396 40.8807C84.6598 41.0467 84.587 41.1101 84.5672 41.2055C84.5351 41.3604 84.5357 41.8047 84.5683 41.9685L84.5939 42.0974H86.3892H88.1845L88.2148 41.9633C88.2531 41.7942 88.2519 41.3592 88.2128 41.2354L88.1831 41.1414L87.1828 41.1554C86.6325 41.1631 86.1823 41.1664 86.1823 41.1628C86.1824 41.1592 86.317 41.0819 86.4817 40.991C87.1971 40.5959 87.817 40.0231 88.0387 39.5522C88.1661 39.2816 88.1705 39.2542 88.1705 38.736C88.1705 38.2578 88.1602 38.1791 88.0753 38.0072C87.8841 37.6204 87.5418 37.3721 87.0337 37.2516C86.7023 37.1729 85.8088 37.1756 85.424 37.2563ZM90.3811 37.2209C90.3568 37.2376 90.3019 37.312 90.259 37.3862C90.1381 37.5952 89.9006 37.6882 89.4196 37.7149C88.9356 37.7417 88.9605 37.7074 88.9784 38.3236L88.9904 38.736L89.5335 38.732L90.0767 38.728V39.9178V41.1075H89.4874H88.8981L88.8725 41.2364C88.84 41.4001 88.8403 41.7425 88.8732 41.9427L88.8986 42.0974H90.7134H92.5282L92.5568 41.8499C92.5725 41.7138 92.5725 41.4911 92.5568 41.355L92.5282 41.1075H91.9788H91.4295V39.1735C91.4295 37.448 91.4224 37.2368 91.3646 37.2144C91.2726 37.1789 90.4341 37.1845 90.3811 37.2209ZM54.2164 37.3441C54.1942 37.4065 53.8031 38.4685 53.3474 39.7043C52.7428 41.3434 52.5294 41.968 52.5581 42.0139C52.6399 42.1446 53.6864 42.1708 53.7644 42.0441C53.7812 42.0167 53.8642 41.7947 53.9486 41.5509L54.1022 41.1075H55.0485H55.9948L56.154 41.5994L56.3132 42.0912L56.6543 42.1198C57.0967 42.1569 57.6904 42.1089 57.7191 42.0338C57.7548 41.9402 56.0684 37.3858 55.9673 37.3028C55.8902 37.2395 55.78 37.2306 55.0682 37.2306H54.2569L54.2164 37.3441ZM57.5488 37.2608C57.5037 37.2722 57.4532 37.3025 57.4367 37.3282C57.3825 37.4123 57.3999 38.2534 57.4565 38.2902C57.4847 38.3086 57.6461 38.3329 57.8152 38.3442L58.1226 38.3648L58.6077 40.1589C58.8744 41.1457 59.1195 41.983 59.1523 42.0197C59.2283 42.1049 59.9758 42.1566 60.5349 42.1153L60.9251 42.0865L61.1138 41.298C61.2175 40.8643 61.359 40.2033 61.4283 39.829C61.4975 39.4547 61.561 39.1412 61.5694 39.1323C61.5954 39.1046 61.6204 39.2096 61.7499 39.8909C61.8999 40.6803 62.2162 42.0434 62.2595 42.087C62.2944 42.1222 64.0272 42.1303 64.0618 42.0954C64.0742 42.083 64.3643 41.0192 64.7067 39.7315C65.2902 37.5367 65.3248 37.3858 65.2601 37.3207C65.2047 37.265 65.0925 37.2485 64.6904 37.2375C64.415 37.2299 64.1435 37.2416 64.0871 37.2635C63.9906 37.301 63.9674 37.3793 63.686 38.6177C63.5217 39.3406 63.3588 40.0991 63.3241 40.3033C63.2537 40.7177 63.2331 40.7982 63.2051 40.77C63.1946 40.7594 63.1396 40.5201 63.0831 40.2383C63.0265 39.9565 62.8474 39.1842 62.6851 38.5221C62.4289 37.4779 62.3787 37.3154 62.3059 37.2957C62.1681 37.2584 60.9969 37.2702 60.9353 37.3094C60.8711 37.3503 60.4144 39.2731 60.2545 40.1756C60.1986 40.491 60.1438 40.7582 60.1328 40.7692C60.1041 40.7981 60.0921 40.7485 59.9496 40.0146C59.8791 39.6516 59.7057 38.8913 59.5642 38.3249C59.3251 37.3675 59.3 37.2932 59.2068 37.267C59.0922 37.2348 57.6731 37.2296 57.5488 37.2608ZM66.102 39.6038C65.4215 41.4507 65.2379 41.9894 65.2744 42.0336C65.3364 42.1088 65.9222 42.1561 66.2371 42.1114L66.4809 42.0768L66.6474 41.6025L66.814 41.1282L67.7643 41.1171L68.7146 41.106L68.8707 41.5914L69.0268 42.0768L69.2113 42.1046C69.3127 42.12 69.5433 42.1325 69.7237 42.1325C70.1833 42.1325 70.4166 42.0919 70.4324 42.0093C70.452 41.9068 68.8038 37.4297 68.7073 37.3234C68.6253 37.2331 68.6013 37.2306 67.7997 37.2306H66.9763L66.102 39.6038ZM70.4615 37.52C70.4457 37.6564 70.4458 37.8977 70.4616 38.0561L70.4904 38.3442H70.8346H71.1789V40.1745C71.1789 41.6212 71.19 42.0141 71.2319 42.0491C71.3134 42.1171 71.7869 42.1524 72.1781 42.1196L72.53 42.0901L72.5411 41.2586L72.5522 40.427H72.8109H73.0695L73.1892 40.7267C73.4732 41.4378 73.8953 41.8683 74.4733 42.0362C74.7119 42.1055 75.4727 42.1325 75.6441 42.0778C75.7433 42.0461 75.7906 41.6823 75.7492 41.2683C75.7221 40.9961 75.7142 40.9782 75.6324 41.0007C75.4077 41.0625 75.1154 41.0731 74.9699 41.0248C74.8027 40.9692 74.5238 40.7094 74.4063 40.4997L74.3337 40.3702L74.5944 40.245C74.897 40.0997 75.1993 39.7978 75.3324 39.508C75.4062 39.3472 75.4217 39.2383 75.4217 38.8804C75.4217 38.4903 75.41 38.4218 75.3036 38.1902C75.1738 37.9072 74.902 37.6216 74.6295 37.4818C74.2569 37.2905 74.0566 37.2732 72.218 37.2725L70.4901 37.2719L70.4615 37.52ZM76.0419 37.3347C76.0093 37.4201 76.009 38.1279 76.0415 38.2498C76.0637 38.3331 76.0948 38.3421 76.3997 38.3529L76.7335 38.3648L76.7442 40.1758C76.752 41.5011 76.7679 42.0027 76.8036 42.046C76.881 42.1398 79.3086 42.0979 79.6235 41.9973C80.3605 41.7619 80.8885 41.2091 81.1253 40.4249C81.2289 40.0818 81.2288 39.246 81.1252 38.9028C80.9596 38.3544 80.6757 37.9562 80.2445 37.6678C79.6833 37.2925 79.7162 37.2976 77.7739 37.2813C76.2218 37.2683 76.0654 37.2731 76.0419 37.3347ZM55.3363 39.1725C55.4822 39.6116 55.6016 39.9854 55.6016 40.0031C55.6016 40.0208 55.3526 40.0352 55.0482 40.0352C54.672 40.0352 54.4948 40.0206 54.4948 39.9897C54.4948 39.9422 54.982 38.4313 55.0163 38.3724C55.0271 38.3539 55.0438 38.3466 55.0534 38.3563C55.063 38.366 55.1903 38.7333 55.3363 39.1725ZM68.0756 39.2206L68.3441 40.0352H67.7734C67.4594 40.0352 67.2026 40.0213 67.2026 40.0043C67.2026 39.9031 67.7503 38.3432 67.7759 38.3715C67.7931 38.3905 67.9279 38.7727 68.0756 39.2206ZM73.802 38.4058C73.9742 38.4954 74.0484 38.626 74.0484 38.8391C74.0484 39.2398 73.8652 39.3341 73.0864 39.3341H72.5317V38.8391V38.3442H73.1077C73.5384 38.3442 73.7134 38.3598 73.802 38.4058ZM79.1014 38.4266C79.4722 38.5662 79.666 38.8311 79.7493 39.3121C79.8344 39.8043 79.7217 40.4147 79.4983 40.6707C79.2927 40.9064 79.0515 40.994 78.5474 41.0162L78.1067 41.0356V39.6899V38.3442H78.4946C78.782 38.3442 78.9393 38.3656 79.1014 38.4266ZM52.5172 43.3652C52.3017 43.3788 52.2791 43.3895 52.2507 43.4914C52.2042 43.6583 52.2155 44.5636 52.2647 44.6131C52.2879 44.6365 52.4851 44.6675 52.7028 44.6819L53.0987 44.708L53.1386 44.8359C53.1606 44.9063 53.4299 45.9011 53.737 47.0466C54.1259 48.4966 54.3198 49.1543 54.3754 49.2114C54.4492 49.2873 54.5209 49.2945 55.3256 49.3073C55.8043 49.3148 56.2681 49.3052 56.3563 49.286L56.5166 49.251L56.7362 48.3447C56.8571 47.8462 57.0311 47.0394 57.1229 46.5517C57.2147 46.064 57.2974 45.6572 57.3065 45.6478C57.3457 45.6076 57.3741 45.7186 57.5491 46.5967C57.7454 47.5812 58.1198 49.2227 58.1564 49.2597C58.2327 49.3363 60.3108 49.3441 60.3737 49.2679C60.3805 49.2598 60.7233 47.9818 61.1355 46.428C61.5478 44.8741 61.8932 43.581 61.903 43.5543C61.9129 43.5276 61.8758 43.476 61.8206 43.4397C61.6986 43.3592 60.9112 43.3118 60.545 43.3628L60.3028 43.3966L59.9608 44.8607C59.7727 45.666 59.5639 46.6291 59.4968 47.0011C59.3796 47.6496 59.355 47.7435 59.313 47.7012C59.3026 47.6907 59.2283 47.3674 59.148 46.9828C59.0676 46.5983 58.841 45.6433 58.6443 44.8607L58.2866 43.4378L57.9792 43.4039C57.6786 43.3708 56.5518 43.396 56.5113 43.4368C56.4682 43.4802 55.8101 46.4087 55.7011 47.0422C55.638 47.4086 55.5686 47.7023 55.5468 47.695C55.525 47.6877 55.427 47.2836 55.3289 46.797C55.2309 46.3105 55.0077 45.3463 54.833 44.6545L54.5153 43.3966L54.2488 43.3704C53.9689 43.343 52.9185 43.3398 52.5172 43.3652ZM66.1794 43.37L65.8737 43.3966L65.838 43.5615C65.798 43.7472 65.8193 44.5963 65.8652 44.6424C65.8815 44.6589 66.0785 44.6798 66.3028 44.6888L66.7107 44.7053V46.9213C66.7107 49.1216 66.7113 49.1378 66.797 49.2158C66.8694 49.2817 66.962 49.2967 67.3727 49.3091C67.642 49.3172 67.947 49.311 68.0506 49.2954L68.239 49.267L68.2187 47.4969C68.2075 46.5233 68.2095 45.7268 68.2231 45.7268C68.2368 45.7269 68.7276 46.5236 69.3138 47.4973L70.3796 49.2677L70.5394 49.296C70.7472 49.3328 71.7846 49.3327 71.9516 49.2957L72.0808 49.2672V47.0497C72.0808 45.8301 72.101 44.5378 72.1258 44.1779C72.1847 43.3213 72.2429 43.3759 71.2712 43.3759H70.5527L70.5801 44.9123C70.5952 45.7572 70.6182 46.539 70.6313 46.6494C70.6473 46.785 70.6406 46.8453 70.6106 46.835C70.5862 46.8267 70.0956 46.069 69.5204 45.1515C68.9451 44.2339 68.4496 43.458 68.4191 43.4274C68.3766 43.3846 68.1441 43.3683 67.4245 43.3575C66.9079 43.3497 66.3476 43.3553 66.1794 43.37ZM73.3601 43.3653C73.0786 43.3788 73.0587 43.3861 73.0189 43.4912C72.9709 43.6177 72.9853 44.5888 73.0359 44.6395C73.054 44.6576 73.2522 44.6798 73.4766 44.6888L73.8845 44.7053V46.9432C73.8845 48.9742 73.8907 49.1864 73.9522 49.2378C74.0298 49.3026 74.9127 49.3424 75.2255 49.2952L75.4138 49.2668L75.3903 47.569C75.3774 46.6352 75.3541 45.8387 75.3386 45.799C75.3201 45.7515 75.3295 45.7275 75.3661 45.7288C75.3967 45.7298 75.9004 46.5269 76.4854 47.5L77.5492 49.2693L77.7152 49.2977C77.9299 49.3346 78.9558 49.3332 79.1246 49.2959L79.2545 49.2672L79.2558 46.9093C79.2565 45.6124 79.2744 44.3194 79.2956 44.0358C79.3478 43.3375 79.3912 43.3705 78.4392 43.3853L77.7173 43.3966L77.7037 44.0977C77.691 44.7528 77.7529 46.3317 77.8053 46.6906C77.8222 46.8059 77.8148 46.8456 77.7787 46.8335C77.7512 46.8243 77.2458 46.0472 76.6557 45.1066L75.5826 43.3966L75.2357 43.3697C74.8801 43.3422 73.8931 43.3399 73.3601 43.3653ZM62.4824 43.4687C62.4283 43.5694 62.4127 44.4054 62.4621 44.5568C62.4965 44.6619 62.6339 44.6957 63.0265 44.6957H63.3083V46.9165C63.3083 49.1213 63.3089 49.1378 63.3945 49.2158C63.4684 49.2831 63.56 49.2964 64.0335 49.3088C64.3376 49.3168 64.6677 49.311 64.7672 49.296L64.948 49.2687V46.3625V43.4564L64.8429 43.4161C64.784 43.3936 64.2523 43.3759 63.635 43.3759C62.5336 43.3759 62.5322 43.3761 62.4824 43.4687ZM80.1799 43.51C80.1052 43.8744 80.1159 44.4805 80.1995 44.6166C80.2221 44.6534 80.3601 44.6766 80.6251 44.6883L81.0172 44.7056V46.9214C81.0172 49.0157 81.0213 49.141 81.0922 49.2055C81.16 49.2672 81.3748 49.2738 83.3276 49.2738C85.3466 49.2738 85.49 49.269 85.5175 49.2016C85.5337 49.1619 85.547 48.9067 85.547 48.6345C85.547 48.3623 85.5337 48.1071 85.5175 48.0674C85.4903 48.0006 85.3821 47.9952 84.0725 47.9952H82.657V47.5209V47.0466H83.8814H85.1058L85.1312 46.8919C85.164 46.6926 85.164 46.1221 85.1312 45.9227L85.1058 45.7681H83.8814H82.657V45.2319V44.6957H84.009H85.3609L85.3925 44.5823C85.4323 44.439 85.4339 43.5858 85.3945 43.4894C85.3669 43.4217 85.2035 43.4172 82.782 43.4172H80.1989L80.1799 43.51ZM86.1187 43.6912C86.0916 43.9465 86.1221 44.6076 86.1629 44.6487C86.1729 44.6587 86.3658 44.6759 86.5917 44.6869L87.0022 44.7067V46.9205C87.0022 48.7666 87.0119 49.1476 87.0604 49.2143C87.1122 49.2858 87.1812 49.2959 87.7 49.3087C88.0197 49.3167 88.3625 49.3109 88.4617 49.2959L88.6419 49.2687V48.2402V47.2116H88.9839H89.3258L89.3759 47.3869C89.4035 47.4833 89.5117 47.7382 89.6165 47.9533C89.9658 48.6704 90.486 49.0937 91.2197 49.258C91.5625 49.3347 92.4262 49.3185 92.5106 49.2337C92.5648 49.1793 92.5979 48.4012 92.5575 48.1304C92.5328 47.9647 92.5211 47.9488 92.4409 47.9741C92.3919 47.9896 92.2031 48.0121 92.0213 48.0241C91.6361 48.0496 91.4689 47.9862 91.2198 47.7203C91.0518 47.541 90.855 47.2545 90.8567 47.1917C90.8573 47.1686 90.9807 47.0944 91.1309 47.0269C91.4791 46.8702 91.8493 46.5291 92.0013 46.2247C92.3695 45.4873 92.2322 44.5666 91.6696 44.0005C91.4197 43.7491 91.1493 43.6016 90.7496 43.4988C90.4535 43.4226 90.2904 43.4172 88.2902 43.4172H86.1479L86.1187 43.6912ZM90.1915 44.7537C90.2523 44.7856 90.3483 44.8613 90.4046 44.922C90.4933 45.0175 90.5071 45.0704 90.5071 45.315C90.5071 45.5684 90.4952 45.6101 90.3923 45.7182C90.2221 45.897 90.0396 45.933 89.3033 45.933H88.6419V45.3144V44.6957H89.3614C89.8994 44.6957 90.1087 44.7103 90.1915 44.7537Z" fill="white"/>
</svg>
