<svg width="109" height="49" viewBox="0 0 109 49" fill="none" xmlns="http://www.w3.org/2000/svg">
<path fill-rule="evenodd" clip-rule="evenodd" d="M30.2223 3.84947L28.1002 7.19893L29.55 7.97948C36.7863 11.8763 44.0756 18.8751 47.1077 24.8379C48.6895 27.9489 49.42 33.0563 48.5935 35.2289C47.9657 36.8797 48.5423 36.1619 49.4198 34.2008C51.7107 29.079 51.6738 23.8324 49.3055 18.0262C46.8153 11.9208 40.6149 5.27977 33.6419 1.24961L32.3444 0.5L30.2223 3.84947ZM43.3265 3.25091L42.1888 4.59964L43.5173 6.04372C48.6479 11.6209 51.3693 17.3717 52.1449 24.2754L52.3661 26.2443L52.5597 24.2754C52.9714 20.0826 52.0534 14.7966 50.143 10.358C49.0306 7.77387 46.5975 3.92963 45.2842 2.68132L44.4642 1.90217L43.3265 3.25091ZM16.7562 6.34385C15.2195 10.3093 13.6931 14.4776 13.6931 14.7088C13.6934 14.8652 14.738 15.3493 16.0147 15.7844C17.2917 16.2195 19.6648 17.1641 21.2885 17.8833C31.7731 22.5281 39.3719 28.535 42.3427 34.5274C43.2632 36.3841 43.3814 36.864 43.3814 38.7466C43.3814 40.4393 43.2539 41.0865 42.7535 41.9326C42.2315 42.8156 42.2079 42.9495 42.6128 42.7278C43.3738 42.3112 45.3529 40.1471 46.1456 38.865C51.4785 30.2376 43.0296 17.5196 26.497 9.28827C23.3726 7.7328 18.0566 5.57033 17.3567 5.57033C17.1913 5.57033 16.9211 5.91827 16.7562 6.34385ZM7.55032 18.5339L3.51806 20.4795L3.71814 21.3897C4.03332 22.8242 6.51531 28.8523 7.80246 31.3093C11.6577 38.6687 16.1582 43.4144 21.6639 45.9268C24.4597 47.2024 26.3372 47.599 29.4518 47.5717C32.2796 47.547 34.684 47.0466 37.1325 45.9726L38.5975 45.3302L36.3462 45.3437C31.904 45.3701 27.8174 43.332 23.7224 39.0478C19.2666 34.3859 15.0714 26.5166 12.6609 18.2985C12.3773 17.332 12.0188 16.5517 11.864 16.5647C11.7092 16.5776 9.76807 17.4639 7.55032 18.5339ZM2.36655 30.9034C1.47647 31.3625 0.748474 31.8058 0.748474 31.8885C0.748474 32.7044 3.40606 36.5374 5.6483 38.9553C10.3793 44.0571 17.3227 47.7076 23.1973 48.1821L25.09 48.3348L23.5423 47.9002C16.9068 46.0373 10.5155 40.4714 5.78253 32.4339C5.00782 31.118 4.2863 30.0478 4.17937 30.0551C4.07215 30.0627 3.25664 30.4444 2.36655 30.9034Z" fill="white"/>
<path fill-rule="evenodd" clip-rule="evenodd" d="M61.3302 0.545541C60.7762 0.610471 60.3094 0.74569 59.8057 0.987187C58.9627 1.39142 58.3996 2.08406 58.1325 3.04545C58.0018 3.51604 58.0033 4.9176 58.1349 5.39355C58.4289 6.45606 59.1593 7.24676 60.1959 7.6249C61.3709 8.05343 63.0834 8.02571 64.4952 7.55528C65.1049 7.35212 65.0566 7.51689 65.0566 5.64086V4.01532H63.6595H62.2624L62.2305 4.17483C62.213 4.26258 62.1986 4.46646 62.1986 4.62786C62.1986 4.78927 62.213 4.99314 62.2305 5.08089L62.2624 5.24041H62.8449H63.4275L63.4127 5.68205L63.398 6.1237L63.1938 6.19721C63.0815 6.23759 62.7341 6.28312 62.4217 6.29838C61.9377 6.32196 61.8014 6.31017 61.5 6.21859C60.6483 5.95984 60.2204 5.34107 60.1707 4.29607C60.1315 3.47239 60.3169 2.93034 60.7857 2.49809C61.0744 2.23188 61.2428 2.14592 61.6735 2.04454C62.4559 1.86032 63.6054 2.16808 64.1916 2.71861L64.3218 2.84086L64.5077 2.64964C64.7881 2.36133 65.0111 1.84312 65.022 1.45421L65.0311 1.1345L64.7007 0.968556C63.947 0.58995 62.5007 0.408433 61.3302 0.545541ZM82.5225 0.592449C82.2063 0.613582 81.9327 0.645792 81.9145 0.663964C81.8611 0.717358 81.8375 1.72286 81.8837 1.97349L81.9261 2.2032L82.4352 2.22872L82.9443 2.25424L82.9576 4.96655C82.9692 7.36804 82.98 7.68652 83.0516 7.74588C83.148 7.82592 84.1938 7.87472 84.634 7.81975L84.9253 7.78335L84.8945 5.68236C84.8656 3.6999 84.8687 3.58801 84.9503 3.69822C84.9979 3.76248 85.4502 4.4441 85.9554 5.21295L86.874 6.61088L87.0608 6.61476L87.2475 6.61864L88.2033 5.15108C88.7291 4.34395 89.1888 3.65156 89.2249 3.61256C89.2786 3.55463 89.2852 3.93038 89.261 5.65914L89.2314 7.77666L89.3541 7.80948C89.5122 7.8518 90.92 7.85364 91.1291 7.81183L91.2886 7.77993V4.21654V0.653197L91.1737 0.61624C91.0242 0.568104 89.4738 0.567335 89.2649 0.615318C89.1237 0.647732 89.0324 0.765904 88.5188 1.58085C88.197 2.09161 87.7669 2.79088 87.5632 3.13478C87.3594 3.47867 87.1784 3.75952 87.1609 3.75881C87.1435 3.7581 86.9367 3.46525 86.7014 3.10798C86.4662 2.75071 85.9954 2.05246 85.6553 1.55625C85.051 0.674689 85.0322 0.653453 84.8327 0.626858C84.4397 0.574383 83.0923 0.554318 82.5225 0.592449ZM100.946 0.592605C100.63 0.613636 100.36 0.641611 100.347 0.65473C100.299 0.703478 100.268 1.70172 100.307 1.94797L100.348 2.2032L100.858 2.22872L101.368 2.25424L101.381 4.96655C101.393 7.35921 101.404 7.68667 101.475 7.74537C101.571 7.82531 102.572 7.874 103.006 7.81985L103.298 7.78335L103.264 5.78451C103.245 4.68509 103.216 3.72247 103.199 3.64523C103.181 3.56428 103.19 3.50486 103.219 3.50486C103.248 3.50486 103.853 4.46691 104.565 5.64275C105.821 7.71821 105.864 7.78156 106.038 7.81163C106.273 7.85246 107.614 7.85262 107.817 7.81183L107.977 7.77993L107.98 4.88947C107.982 3.29971 108.003 1.73485 108.027 1.41199C108.086 0.608838 108.105 0.62655 107.155 0.603017C106.761 0.593268 106.357 0.60067 106.257 0.619455L106.075 0.653552L106.106 2.55138C106.124 3.59516 106.153 4.52388 106.17 4.6151C106.188 4.70632 106.181 4.781 106.155 4.781C106.129 4.781 105.524 3.85273 104.81 2.71824L103.511 0.65544L103.307 0.627774C102.92 0.575299 101.52 0.554423 100.946 0.592605ZM94.9362 0.659067C94.9232 0.694186 94.3382 2.27267 93.6363 4.16687C92.1395 8.20595 92.1974 7.79544 93.1192 7.83342C93.4272 7.84613 93.8016 7.84118 93.9514 7.8225L94.2237 7.78845L94.4718 7.07591L94.7197 6.36341H96.1386H97.5574L97.7934 7.07172L98.0294 7.78003L98.2187 7.81132C98.4634 7.8518 99.6787 7.8519 99.9231 7.81148C100.027 7.79433 100.124 7.74624 100.14 7.70459C100.156 7.66293 99.6058 6.09798 98.9168 4.2269C97.9581 1.62311 97.634 0.798013 97.5356 0.710112C97.4099 0.597761 97.3802 0.59526 96.1835 0.59526C95.2512 0.59526 94.9542 0.610471 94.9362 0.659067ZM65.9982 1.03844C65.978 1.25416 65.9818 1.60443 66.0066 1.81688L66.0518 2.2032L66.5621 2.22872L67.0725 2.25424L67.0857 4.95496C67.0949 6.846 67.116 7.67625 67.1557 7.72418C67.202 7.77988 67.7116 7.79269 69.8833 7.79269H72.5541L72.5924 7.60127C72.6417 7.35457 72.6417 6.6484 72.5924 6.4017L72.5541 6.21028H70.8212H69.0884V5.64877V5.08727H70.5654C71.3777 5.08727 72.0548 5.06721 72.0699 5.04266C72.1281 4.94848 72.1622 4.26763 72.1273 3.89561L72.0908 3.50639L70.6024 3.49286L69.1139 3.47934L69.0995 2.85403L69.0852 2.22872H70.7431H72.401L72.4393 2.0373C72.4603 1.93204 72.4776 1.66211 72.4776 1.43751C72.4776 1.21291 72.4603 0.943033 72.4393 0.837726L72.401 0.646305H69.218H66.035L65.9982 1.03844ZM73.4473 0.761158C73.3993 0.910211 73.3999 1.84807 73.4482 2.06282L73.4855 2.22872H73.9917H74.4981V4.92438C74.4981 7.17141 74.5101 7.63654 74.5705 7.71913C74.6345 7.80678 74.7207 7.82031 75.3155 7.83623C75.6854 7.84614 76.1121 7.83873 76.2638 7.8198L76.5395 7.78534V6.53625V5.28717L76.9288 5.30207L77.3181 5.31698L77.4597 5.68599C78.0572 7.2439 79.0332 7.90478 80.6183 7.8249C80.9389 7.80872 81.2227 7.77406 81.2488 7.74793C81.3167 7.67998 81.3568 6.8997 81.3134 6.49333C81.2769 6.1527 81.2751 6.14943 81.1408 6.18169C81.0661 6.19966 80.8403 6.22784 80.6389 6.24427C80.3268 6.26985 80.2386 6.25764 80.0398 6.16142C79.7899 6.04039 79.4352 5.67593 79.3056 5.40697C79.2618 5.31606 79.2359 5.23433 79.2479 5.22535C79.26 5.21636 79.4257 5.13382 79.6163 5.04189C80.5239 4.60402 80.9912 3.69424 80.8417 2.65618C80.7341 1.90938 80.2839 1.27182 79.6414 0.956205C79.0455 0.66351 78.8668 0.648141 76.0453 0.647171L73.4843 0.646305L73.4473 0.761158ZM78.4116 2.3279C78.6684 2.44454 78.785 2.64469 78.785 2.96888C78.785 3.26556 78.6761 3.47806 78.4652 3.59317C78.3298 3.66698 78.1419 3.68627 77.4198 3.70031L76.5395 3.71747V2.97312V2.22872L77.3688 2.22984C78.0729 2.23081 78.2303 2.24561 78.4116 2.3279ZM96.5834 3.46714C96.815 4.14762 97.0045 4.72168 97.0045 4.74271C97.0045 4.78656 95.3523 4.79595 95.3087 4.75236C95.277 4.72071 96.0945 2.22836 96.1362 2.22928C96.1506 2.22959 96.3519 2.78665 96.5834 3.46714ZM100.832 9.25234C100.762 9.26459 100.486 9.31155 100.22 9.35673C98.9502 9.57183 97.8466 10.1208 96.9665 10.975C95.8405 12.068 95.2559 13.4918 95.182 15.3219C95.0359 18.9358 96.9533 21.3951 100.398 22.0126C101.085 22.1356 102.738 22.1394 103.435 22.0195C106.822 21.4374 108.742 19.1275 108.742 15.6347C108.743 12.7241 107.278 10.5246 104.746 9.6359C103.879 9.33141 103.428 9.26413 102.133 9.24626C101.488 9.23738 100.902 9.24009 100.832 9.25234ZM65.8743 9.38031C65.5241 9.40701 65.2213 9.44549 65.2014 9.46581C65.0619 9.60797 65.0224 11.436 65.147 11.9784L65.1881 12.1571L66.0533 12.1991C66.5291 12.2223 66.922 12.2453 66.9264 12.2502C66.9307 12.2551 66.9511 14.3653 66.9718 16.9395L67.0093 21.6198L67.1465 21.7513C67.2595 21.8595 67.3642 21.8928 67.7395 21.9395C68.1842 21.9949 69.8155 21.9682 70.1218 21.9004L70.2622 21.8694V19.626C70.2622 17.6444 70.2171 15.9003 70.1363 14.7477C70.1171 14.4732 70.1267 14.3779 70.1735 14.379C70.2082 14.3798 71.2586 16.0665 72.5077 18.1272C74.6148 21.6034 74.7901 21.8761 74.9358 21.9038C75.581 22.0265 77.8142 22.0242 78.3076 21.9004L78.4277 21.8702L78.4269 17.1158C78.4262 13.2321 78.4416 12.1198 78.5111 11.0427L78.5962 9.7242L78.4384 9.56632L78.2805 9.40849L77.1873 9.38521C76.5861 9.3724 75.8728 9.37852 75.6023 9.39879L75.1105 9.43569L75.1103 11.3834C75.1101 12.7942 75.1395 13.7931 75.2169 15.0069C75.2756 15.9285 75.3084 16.6978 75.2898 16.7164C75.2712 16.7351 75.2352 16.7161 75.2098 16.6742C75.1844 16.6323 74.147 14.9901 72.9043 13.0249L70.6449 9.45167L70.3387 9.41481C69.8304 9.35361 66.5562 9.3283 65.8743 9.38031ZM81.2857 9.35132C81.2155 9.36173 80.9126 9.38496 80.6125 9.40293L80.0669 9.43554L80.0354 9.57913C79.9227 10.0922 79.925 11.5971 80.0391 12.052C80.0703 12.176 80.0894 12.1826 80.4157 12.1826C80.6048 12.1826 81.0042 12.1976 81.3033 12.2159L81.8471 12.2492V16.9281V21.607L81.992 21.7458C82.1163 21.8649 82.2049 21.8925 82.6172 21.9399C83.076 21.9927 84.6211 21.9663 84.9985 21.8992L85.1644 21.8697V19.8994C85.1644 18.8157 85.1278 17.1398 85.0831 16.175C85.0384 15.2103 85.0159 14.407 85.0329 14.3899C85.05 14.3728 85.0846 14.3803 85.1099 14.4065C85.1351 14.4327 86.1688 16.1228 87.4071 18.1623C89.5527 21.6962 89.6664 21.872 89.8262 21.902C90.4916 22.0268 92.4858 22.0283 93.1459 21.9045L93.33 21.8699L93.3307 16.8604C93.3313 13.0173 93.3487 11.6012 93.4055 10.7789L93.4795 9.7069L93.3305 9.55708L93.1815 9.40731L92.0362 9.3847C91.4063 9.3723 90.6933 9.37863 90.4518 9.39874L90.0127 9.43534L90.0152 11.6385C90.0171 13.1939 90.0451 14.2543 90.1106 15.2453C90.1616 16.0174 90.1856 16.6687 90.164 16.6926C90.1424 16.7166 90.0462 16.6133 89.9503 16.4629C89.8544 16.3127 88.8182 14.6706 87.6475 12.8139L85.519 9.43825L85.2014 9.40696C84.8341 9.37072 81.4762 9.32304 81.2857 9.35132ZM58.7174 9.40961L58.3238 9.43039L58.2836 9.61966C58.2312 9.86667 58.2315 11.7435 58.284 11.9912L58.3246 12.1826H58.6716C58.8624 12.1826 59.2633 12.1976 59.5624 12.2159L60.1062 12.2492L60.1078 16.9249L60.1094 21.6005L60.2329 21.7409C60.3441 21.8672 60.4087 21.8869 60.882 21.9391C61.3938 21.9955 63.1752 21.969 63.4873 21.9003L63.6276 21.8694V15.785V9.70047L63.4756 9.55478L63.3235 9.40905L61.2173 9.39894C60.0588 9.39343 58.9339 9.39818 58.7174 9.40961ZM102.871 12.1033C103.861 12.372 104.56 13.1279 104.834 14.2244C104.959 14.7267 105.03 15.5231 104.994 16.0366C104.84 18.246 103.835 19.3245 101.925 19.3281C100.439 19.3309 99.4269 18.549 99.0767 17.1283C98.8144 16.0636 98.8822 14.6698 99.2425 13.7214C99.5946 12.7945 100.347 12.1872 101.338 12.0294C101.714 11.9695 102.522 12.0084 102.871 12.1033ZM93.0416 23.3609C92.457 23.4437 92.0303 23.5735 91.4947 23.8314C91.0238 24.0583 90.9064 24.1434 90.4979 24.5545C89.987 25.0687 89.6918 25.5691 89.5017 26.243C89.2771 27.0395 89.2685 28.1692 89.4809 28.9947C89.799 30.231 90.6745 31.2062 91.8701 31.6564C92.5358 31.9069 92.8735 31.957 93.8913 31.9556C94.7467 31.9545 94.8825 31.9418 95.3358 31.8204C96.9038 31.4008 97.9138 30.3983 98.2922 28.8862C98.3846 28.517 98.4032 28.3007 98.4007 27.6239C98.3972 26.6543 98.3123 26.2627 97.9422 25.5055C97.7403 25.0925 97.6362 24.9523 97.24 24.56C96.6186 23.9448 96.0311 23.6365 95.0907 23.4319C94.6651 23.3394 93.4827 23.2984 93.0416 23.3609ZM58.384 23.45C58.1091 23.4748 58.091 23.5321 58.0906 24.3825C58.0902 25.3332 58.053 25.2785 58.7358 25.3326L59.3062 25.3779L60.4969 28.5154C61.1518 30.2411 61.7322 31.6977 61.7868 31.7523C61.8758 31.8412 61.9814 31.8541 62.8006 31.8756C63.3035 31.8888 63.8871 31.8835 64.0975 31.8638L64.4799 31.8279L66.016 27.8117C66.8608 25.6028 67.5587 23.7725 67.567 23.7444C67.5753 23.7164 67.5458 23.642 67.5015 23.5792C67.4276 23.4744 67.3666 23.4622 66.7619 23.4316C66.3994 23.4133 65.9046 23.4149 65.6624 23.4351L65.222 23.4719L64.5683 25.2927C64.2088 26.2941 63.8377 27.3661 63.7438 27.675C63.3078 29.107 63.2607 29.2426 63.2147 29.1966C63.1886 29.1705 63.0184 28.7038 62.8365 28.1596C62.6546 27.6154 62.2051 26.3393 61.8375 25.3237L61.1692 23.4773L60.8599 23.445C60.5413 23.4117 58.7693 23.4153 58.384 23.45ZM68.5587 27.527L67.0346 31.6413L67.1397 31.7464C67.2345 31.8413 67.3215 31.8537 68.0263 31.8731C68.456 31.8849 68.8995 31.8746 69.0118 31.85L69.2159 31.8055L69.503 30.9908L69.79 30.1762L71.4531 30.1627L73.1162 30.1493L73.3861 30.9863L73.656 31.8234L73.9112 31.8544C74.2489 31.8953 75.5437 31.8948 75.8442 31.8536C76.0294 31.8283 76.0877 31.7971 76.109 31.7123C76.1263 31.6434 75.6005 30.1481 74.6801 27.6484C73.4321 24.2589 73.2017 23.6733 73.0691 23.553L72.9143 23.4126H71.4985H70.0827L68.5587 27.527ZM84.6449 23.4468C84.1445 23.4703 84.1887 23.4227 84.1156 24.0153C84.0799 24.3056 84.13 25.1455 84.1888 25.2407C84.2094 25.2741 84.4638 25.3128 84.7964 25.333L85.3685 25.3677L85.3696 28.4866C85.3707 31.4302 85.376 31.6123 85.4642 31.727C85.5528 31.8423 85.5946 31.8499 86.2709 31.8742C86.6631 31.8883 87.1602 31.8834 87.3756 31.8631L87.7671 31.8264V27.7296C87.7671 23.8724 87.7618 23.6279 87.6767 23.5508C87.6003 23.4816 87.3915 23.4655 86.337 23.4475C85.65 23.4357 84.8885 23.4354 84.6449 23.4468ZM99.4463 23.4502C99.1112 23.4714 99.1207 23.4545 99.0706 24.1273C99.0432 24.4953 99.0996 25.2189 99.1603 25.2797C99.1706 25.29 99.4324 25.3137 99.7421 25.3325L100.305 25.3667L100.339 27.5884C100.358 28.8104 100.373 30.2277 100.373 30.7381C100.373 31.9005 100.329 31.8396 101.181 31.8747C101.514 31.8884 101.966 31.8828 102.185 31.8623L102.582 31.8251L102.549 29.7245C102.53 28.5692 102.501 27.4311 102.483 27.1954C102.462 26.9162 102.469 26.7779 102.502 26.7984C102.53 26.8157 103.235 27.9536 104.07 29.3271L105.587 31.8245L105.863 31.859C106.217 31.9033 107.502 31.9025 107.799 31.8578L108.028 31.8236L108.028 28.6518C108.027 26.824 108.052 25.0957 108.086 24.5731C108.16 23.4278 108.196 23.4875 107.387 23.4369C107.066 23.4168 106.586 23.4168 106.319 23.4368L105.834 23.4732V25.0368C105.834 25.8967 105.859 26.973 105.89 27.4285C105.921 27.884 105.936 28.285 105.925 28.3198C105.913 28.3544 105.209 27.2817 104.361 25.936L102.818 23.4892L102.501 23.4569C102.171 23.4233 99.949 23.4184 99.4463 23.4502ZM75.6394 23.7062C75.592 24.0023 75.5931 24.8565 75.641 25.1125L75.6762 25.2995L76.9371 25.3132L78.1981 25.3269L78.2113 28.4969C78.2241 31.6002 78.2265 31.6689 78.3271 31.7599C78.4125 31.8372 78.5451 31.8568 79.1126 31.876C79.4881 31.8888 79.9697 31.8828 80.1829 31.8628L80.5705 31.8265L80.5836 28.5767L80.5967 25.3269L81.8577 25.3132L83.1187 25.2995L83.1591 25.109C83.2111 24.864 83.2107 23.9039 83.1585 23.6551L83.1183 23.4637H79.3982H75.6781L75.6394 23.7062ZM94.7192 25.3475C95.4938 25.6478 95.8997 26.4491 95.8983 27.675C95.8969 28.8736 95.5494 29.5832 94.7971 29.9239C94.181 30.2029 93.1955 30.1454 92.6926 29.801C92.1595 29.4359 91.8989 28.8285 91.8617 27.8643C91.8068 26.4414 92.2066 25.6335 93.1245 25.3126C93.5622 25.1596 94.2748 25.1752 94.7192 25.3475ZM71.5128 25.4417C71.582 25.61 72.4567 28.2343 72.4567 28.2737C72.4567 28.2953 72.0088 28.313 71.4615 28.313C70.7077 28.313 70.4663 28.2978 70.4663 28.2502C70.4663 28.1442 71.4069 25.3524 71.4426 25.3524C71.461 25.3524 71.4926 25.3926 71.5128 25.4417ZM96.9092 32.5043C96.3154 32.8435 96.0299 33.2734 95.9972 33.877C95.9795 34.2034 95.9939 34.2933 96.095 34.4865C96.2552 34.7932 96.43 34.9097 96.7724 34.9381C97.1063 34.9658 97.3143 34.8924 97.4883 34.6856C97.7306 34.3976 97.7058 33.9242 97.435 33.6697C97.329 33.5702 97.2484 33.5452 97.033 33.5452H96.7635L96.814 33.4004C96.8677 33.2463 97.201 32.9749 97.3969 32.9257C97.5367 32.8906 97.5538 32.7302 97.4357 32.5615C97.2868 32.3491 97.1979 32.3394 96.9092 32.5043ZM99.4797 33.3983C99.1142 33.4746 98.3998 33.7851 98.1873 33.9599L98.0688 34.0575L98.1812 34.3581C98.3063 34.6923 98.6476 35.077 98.8683 35.1324C98.9802 35.1605 99.0393 35.1308 99.2159 34.958C99.5203 34.6599 99.8586 34.5222 100.296 34.5183C100.695 34.5147 100.918 34.6098 101.107 34.8633C101.265 35.0752 101.258 35.6015 101.092 35.9378C100.839 36.4524 99.8885 37.2875 98.8766 37.8841C98.5282 38.0895 98.4377 38.1679 98.413 38.2861C98.373 38.4778 98.3738 39.0276 98.4143 39.2304L98.4462 39.3899H100.681H102.916L102.954 39.224C103.002 39.0146 103 38.4763 102.952 38.323L102.915 38.2067L101.669 38.224C100.984 38.2336 100.424 38.2377 100.424 38.2332C100.424 38.2288 100.591 38.1331 100.796 38.0206C101.687 37.5316 102.459 36.8226 102.735 36.2398C102.893 35.9049 102.899 35.871 102.899 35.2297C102.899 34.6378 102.886 34.5404 102.78 34.3276C102.542 33.849 102.116 33.5416 101.484 33.3925C101.071 33.2951 99.9587 33.2984 99.4797 33.3983ZM105.651 33.3545C105.621 33.3752 105.552 33.4672 105.499 33.559C105.349 33.8177 105.053 33.9329 104.454 33.9659C103.852 33.9991 103.882 33.9566 103.905 34.7192L103.92 35.2297L104.596 35.2247L105.272 35.2198V36.6923V38.1648H104.539H103.805L103.773 38.3243C103.732 38.5269 103.733 38.9507 103.774 39.1985L103.805 39.3899H106.065H108.324L108.36 39.0836C108.379 38.9152 108.379 38.6395 108.36 38.4711L108.324 38.1648H107.64H106.956V35.7711C106.956 33.6355 106.948 33.3741 106.876 33.3465C106.761 33.3025 105.717 33.3094 105.651 33.3545ZM60.6272 33.5069C60.5996 33.5841 60.1127 34.8986 59.5453 36.428C58.7927 38.4568 58.5269 39.2298 58.5627 39.2866C58.6645 39.4484 59.9673 39.4808 60.0645 39.324C60.0854 39.2901 60.1887 39.0153 60.2938 38.7136L60.485 38.1648H61.6631H62.8413L63.0395 38.7735L63.2376 39.3823L63.6623 39.4176C64.2131 39.4635 64.9522 39.4042 64.9879 39.3112C65.0324 39.1954 62.9329 33.5586 62.8071 33.4559C62.7111 33.3775 62.5739 33.3665 61.6876 33.3665H60.6776L60.6272 33.5069ZM64.7759 33.4039C64.7198 33.4179 64.6569 33.4555 64.6363 33.4873C64.569 33.5913 64.5906 34.6323 64.6611 34.678C64.6962 34.7007 64.8971 34.7307 65.1076 34.7448L65.4903 34.7703L66.0942 36.9908C66.4263 38.212 66.7314 39.2484 66.7722 39.2937C66.8669 39.3992 67.7975 39.4632 68.4935 39.4121L68.9793 39.3764L69.2142 38.4006C69.3434 37.8638 69.5196 37.0456 69.6057 36.5824C69.6919 36.1192 69.771 35.7311 69.7815 35.7201C69.8138 35.6858 69.8449 35.8158 70.0061 36.659C70.1929 37.6361 70.5867 39.3232 70.6406 39.3771C70.6841 39.4206 72.8413 39.4306 72.8844 39.3875C72.8998 39.3721 73.2611 38.0555 73.6873 36.4617C74.4137 33.7454 74.4568 33.5586 74.3762 33.478C74.3072 33.409 74.1676 33.3887 73.667 33.375C73.3241 33.3656 72.9862 33.3801 72.916 33.4072C72.7958 33.4536 72.7669 33.5505 72.4165 35.0833C72.212 35.978 72.0092 36.9168 71.9661 37.1694C71.8783 37.6823 71.8528 37.782 71.8179 37.7471C71.8047 37.7339 71.7364 37.4378 71.666 37.089C71.5955 36.7402 71.3725 35.7844 71.1704 34.965C70.8516 33.6725 70.789 33.4714 70.6984 33.447C70.5268 33.4009 69.0687 33.4154 68.992 33.464C68.9121 33.5146 68.3435 35.8944 68.1444 37.0114C68.0748 37.4018 68.0067 37.7324 67.9929 37.7461C67.9573 37.7818 67.9423 37.7205 67.7649 36.8121C67.6771 36.3629 67.4612 35.4219 67.2851 34.7209C66.9873 33.5359 66.9561 33.444 66.8401 33.4116C66.6975 33.3717 64.9307 33.3652 64.7759 33.4039ZM75.4243 36.3036C74.5772 38.5895 74.3487 39.2563 74.3941 39.311C74.4713 39.4041 75.2005 39.4626 75.5926 39.4073L75.8961 39.3644L76.1035 38.7774L76.3108 38.1903L77.494 38.1767L78.6771 38.1629L78.8714 38.7637L79.0657 39.3644L79.2953 39.3989C79.4217 39.4179 79.7087 39.4334 79.9333 39.4334C80.5055 39.4334 80.7959 39.3832 80.8156 39.2809C80.84 39.154 78.788 33.6129 78.6679 33.4814C78.5659 33.3696 78.5359 33.3665 77.538 33.3665H76.5129L75.4243 36.3036ZM80.8518 33.7246C80.8322 33.8935 80.8323 34.1922 80.852 34.3882L80.8878 34.7448H81.3164H81.745V37.0101C81.745 38.8005 81.7589 39.2868 81.811 39.3301C81.9125 39.4143 82.5019 39.458 82.9889 39.4174L83.4271 39.3809L83.4409 38.3518L83.4547 37.3226H83.7767H84.0988L84.2477 37.6934C84.6013 38.5736 85.1269 39.1064 85.8464 39.3142C86.1434 39.3999 87.0907 39.4334 87.304 39.3656C87.4276 39.3264 87.4864 38.8762 87.4349 38.3637C87.4011 38.0269 87.3913 38.0047 87.2895 38.0326C87.0097 38.109 86.6458 38.1222 86.4647 38.0624C86.2565 37.9937 85.9092 37.6721 85.763 37.4126L85.6726 37.2522L85.9972 37.0973C86.3738 36.9175 86.7503 36.5438 86.9159 36.1851C87.0078 35.9861 87.0271 35.8513 87.0271 35.4084C87.0271 34.9255 87.0126 34.8408 86.8802 34.5542C86.7185 34.2039 86.3801 33.8504 86.0408 33.6774C85.577 33.4407 85.3277 33.4192 83.0387 33.4184L80.8874 33.4176L80.8518 33.7246ZM87.7993 33.4953C87.7587 33.601 87.7583 34.477 87.7988 34.6279C87.8264 34.731 87.8651 34.7421 88.2447 34.7555L88.6603 34.7703L88.6736 37.0117C88.6833 38.6519 88.7031 39.2728 88.7476 39.3263C88.8439 39.4424 91.8662 39.3905 92.2582 39.266C93.1758 38.9748 93.8332 38.2905 94.1279 37.3199C94.2568 36.8954 94.2568 35.8608 94.1278 35.4361C93.9216 34.7574 93.5681 34.2645 93.0314 33.9076C92.3327 33.4431 92.3737 33.4494 89.9555 33.4292C88.0233 33.4131 87.8285 33.4191 87.7993 33.4953ZM62.0214 35.7699C62.2031 36.3134 62.3517 36.776 62.3517 36.7979C62.3517 36.8198 62.0417 36.8376 61.6628 36.8376C61.1944 36.8376 60.9738 36.8196 60.9738 36.7813C60.9738 36.7226 61.5804 34.8526 61.6231 34.7796C61.6365 34.7567 61.6573 34.7478 61.6693 34.7598C61.6812 34.7718 61.8397 35.2263 62.0214 35.7699ZM77.8815 35.8295L78.2157 36.8376H77.5052C77.1144 36.8376 76.7946 36.8204 76.7946 36.7994C76.7946 36.6741 77.4765 34.7435 77.5084 34.7786C77.5297 34.8021 77.6976 35.275 77.8815 35.8295ZM85.0107 34.821C85.225 34.9319 85.3175 35.0935 85.3175 35.3573C85.3175 35.8532 85.0894 35.9699 84.1198 35.9699H83.4292V35.3573V34.7448H84.1462C84.6825 34.7448 84.9004 34.764 85.0107 34.821ZM91.6082 34.8468C92.0698 35.0195 92.3111 35.3474 92.4148 35.9427C92.5208 36.5519 92.3804 37.3074 92.1023 37.6242C91.8464 37.9158 91.5461 38.0243 90.9186 38.0518L90.3699 38.0758V36.4103V34.7448H90.8528C91.2106 34.7448 91.4064 34.7712 91.6082 34.8468ZM58.5117 40.959C58.2435 40.9759 58.2153 40.9891 58.18 41.1153C58.1221 41.3218 58.1361 42.4423 58.1973 42.5035C58.2263 42.5325 58.4718 42.5708 58.7429 42.5886L59.2357 42.621L59.2854 42.7793C59.3128 42.8664 59.648 44.0976 60.0304 45.5154C60.5145 47.31 60.756 48.124 60.8251 48.1947C60.917 48.2886 61.0063 48.2975 62.0081 48.3133C62.6041 48.3226 63.1816 48.3108 63.2913 48.2869L63.4908 48.2437L63.7643 47.122C63.9148 46.5051 64.1314 45.5065 64.2457 44.9028C64.36 44.2992 64.4629 43.7958 64.4743 43.7841C64.5231 43.7344 64.5584 43.8717 64.7764 44.9585C65.0207 46.177 65.4868 48.2087 65.5324 48.2544C65.6273 48.3492 68.2146 48.3589 68.2929 48.2646C68.3013 48.2546 68.7281 46.6728 69.2413 44.7497C69.7546 42.8266 70.1845 41.2261 70.1968 41.1931C70.2091 41.1601 70.1629 41.0962 70.0942 41.0512C69.9423 40.9517 68.962 40.893 68.5061 40.9561L68.2045 40.9979L67.7788 42.81C67.5447 43.8066 67.2847 44.9987 67.2011 45.459C67.0553 46.2617 67.0247 46.3779 66.9723 46.3255C66.9594 46.3126 66.8669 45.9125 66.7669 45.4365C66.6669 44.9605 66.3847 43.7786 66.1398 42.81L65.6945 41.0489L65.3118 41.007C64.9375 40.966 63.5347 40.9972 63.4843 41.0477C63.4306 41.1014 62.6113 44.7259 62.4756 45.5099C62.3971 45.9634 62.3107 46.3269 62.2836 46.3179C62.2564 46.3088 62.1343 45.8087 62.0123 45.2065C61.8902 44.6043 61.6124 43.411 61.3948 42.5547L60.9993 40.9979L60.6676 40.9655C60.3191 40.9316 59.0114 40.9276 58.5117 40.959ZM75.5208 40.9649L75.1401 40.9979L75.0958 41.202C75.0459 41.4318 75.0725 42.4827 75.1296 42.5398C75.1499 42.5602 75.3951 42.586 75.6744 42.5973L76.1822 42.6177V45.3603C76.1822 48.0835 76.183 48.1035 76.2896 48.2001C76.3798 48.2817 76.4951 48.3003 77.0064 48.3156C77.3416 48.3256 77.7214 48.3179 77.8504 48.2986L78.0849 48.2634L78.0596 46.0727C78.0457 44.8678 78.0482 43.8819 78.0651 43.8819C78.0821 43.882 78.6931 44.868 79.4229 46.0732L80.7498 48.2643L80.9488 48.2994C81.2076 48.3449 82.499 48.3447 82.7069 48.2991L82.8678 48.2637V45.5193C82.8678 44.0098 82.893 42.4103 82.9238 41.9649C82.9972 40.9047 83.0697 40.9723 81.8599 40.9723H80.9654L80.9995 42.8738C81.0183 43.9196 81.047 44.8871 81.0632 45.0238C81.0832 45.1916 81.0748 45.2663 81.0375 45.2535C81.0071 45.2432 80.3963 44.3055 79.6801 43.1698C78.964 42.0342 78.3471 41.074 78.3091 41.036C78.2562 40.9831 77.9668 40.9629 77.0708 40.9495C76.4277 40.9399 75.7302 40.9468 75.5208 40.9649ZM84.4605 40.9592C84.11 40.9759 84.0853 40.9849 84.0357 41.115C83.976 41.2716 83.9939 42.4734 84.0569 42.5362C84.0794 42.5586 84.3262 42.586 84.6055 42.5973L85.1133 42.6177V45.3875C85.1133 47.901 85.1211 48.1637 85.1977 48.2273C85.2942 48.3075 86.3934 48.3568 86.7828 48.2984L87.0172 48.2633L86.988 46.1619C86.9719 45.0062 86.943 44.0204 86.9237 43.9713C86.9006 43.9125 86.9123 43.8827 86.9579 43.8843C86.996 43.8856 87.6231 44.8721 88.3514 46.0765L89.6758 48.2663L89.8825 48.3015C90.1498 48.3471 91.427 48.3455 91.6372 48.2993L91.7989 48.2637L91.8005 45.3454C91.8013 43.7404 91.8236 42.14 91.85 41.7891C91.915 40.9248 91.9691 40.9656 90.7839 40.9839L89.8851 40.9979L89.8682 41.8656C89.8523 42.6764 89.9293 44.6306 89.9947 45.0748C90.0156 45.2174 90.0064 45.2666 89.9615 45.2516C89.9272 45.2402 89.2981 44.2785 88.5634 43.1144L87.2274 40.9979L86.7956 40.9646C86.3528 40.9306 85.1241 40.9277 84.4605 40.9592ZM70.9181 41.0872C70.8507 41.2117 70.8314 42.2465 70.8929 42.4338C70.9356 42.5639 71.1067 42.6058 71.5954 42.6058H71.9463V45.3543C71.9463 48.0832 71.9471 48.1036 72.0537 48.2001C72.1457 48.2834 72.2597 48.2999 72.8492 48.3152C73.2277 48.3251 73.6387 48.3179 73.7626 48.2994L73.9877 48.2656V44.6687V41.0719L73.8568 41.0221C73.7835 40.9942 73.1215 40.9723 72.3531 40.9723C70.9818 40.9723 70.9802 40.9725 70.9181 41.0872ZM92.951 41.1382C92.8579 41.5893 92.8712 42.3394 92.9753 42.5079C93.0034 42.5534 93.1753 42.5822 93.5052 42.5966L93.9934 42.618V45.3604C93.9934 47.9525 93.9985 48.1075 94.0868 48.1874C94.1711 48.2637 94.4386 48.2718 96.8697 48.2718C99.3834 48.2718 99.5618 48.266 99.5961 48.1825C99.6163 48.1334 99.6328 47.8175 99.6328 47.4806C99.6328 47.1437 99.6163 46.8279 99.5961 46.7788C99.5622 46.6961 99.4275 46.6894 97.7971 46.6894H96.0348V46.1024V45.5154H97.5592H99.0835L99.1152 45.324C99.1559 45.0773 99.1559 44.3711 99.1152 44.1244L99.0835 43.933H97.5592H96.0348V43.2694V42.6058H97.718H99.4012L99.4404 42.4654C99.49 42.2881 99.492 41.2321 99.443 41.1127C99.4086 41.0289 99.2052 41.0234 96.1905 41.0234H92.9746L92.951 41.1382ZM100.345 41.3625C100.311 41.6785 100.349 42.4967 100.4 42.5476C100.412 42.56 100.652 42.5813 100.933 42.5948L101.445 42.6194V45.3593C101.445 47.6441 101.457 48.1157 101.517 48.1983C101.581 48.2867 101.667 48.2993 102.313 48.3151C102.711 48.3249 103.138 48.3178 103.261 48.2993L103.486 48.2656V46.9926V45.7196H103.912H104.337L104.4 45.9365C104.434 46.0559 104.569 46.3713 104.699 46.6376C105.134 47.5251 105.782 48.049 106.695 48.2523C107.122 48.3473 108.197 48.3272 108.302 48.2222C108.37 48.1549 108.411 47.1919 108.361 46.8567C108.33 46.6516 108.315 46.632 108.216 46.6633C108.154 46.6825 107.919 46.7104 107.693 46.7252C107.214 46.7568 107.005 46.6783 106.695 46.3492C106.486 46.1273 106.241 45.7727 106.243 45.695C106.244 45.6664 106.398 45.5746 106.585 45.491C107.018 45.2971 107.479 44.8749 107.668 44.4982C108.127 43.5855 107.956 42.446 107.255 41.7453C106.944 41.4342 106.607 41.2517 106.11 41.1243C105.741 41.0301 105.538 41.0234 103.048 41.0234H100.381L100.345 41.3625ZM105.415 42.6775C105.491 42.717 105.61 42.8107 105.68 42.8858C105.791 43.004 105.808 43.0695 105.808 43.3722C105.808 43.6859 105.793 43.7375 105.665 43.8713C105.453 44.0926 105.226 44.1372 104.309 44.1372H103.486V43.3715V42.6058H104.382C105.051 42.6058 105.312 42.6239 105.415 42.6775Z" fill="white"/>
</svg>
