<svg width="25" height="24" viewBox="0 0 25 24" fill="none" xmlns="http://www.w3.org/2000/svg">
<path fill-rule="evenodd" clip-rule="evenodd" d="M7.965 1.066C9.138 1.012 9.512 1 12.5 1C15.488 1 15.862 1.013 17.034 1.066C18.206 1.119 19.006 1.306 19.706 1.577C20.439 1.854 21.104 2.287 21.654 2.847C22.214 3.396 22.646 4.06 22.922 4.794C23.194 5.494 23.38 6.294 23.434 7.464C23.488 8.639 23.5 9.013 23.5 12C23.5 14.988 23.487 15.362 23.434 16.535C23.381 17.705 23.194 18.505 22.922 19.205C22.646 19.9391 22.2133 20.6042 21.654 21.154C21.104 21.714 20.439 22.146 19.706 22.422C19.006 22.694 18.206 22.88 17.036 22.934C15.862 22.988 15.488 23 12.5 23C9.512 23 9.138 22.987 7.965 22.934C6.795 22.881 5.995 22.694 5.295 22.422C4.56092 22.146 3.89582 21.7133 3.346 21.154C2.78638 20.6047 2.35331 19.9399 2.077 19.206C1.806 18.506 1.62 17.706 1.566 16.536C1.512 15.361 1.5 14.987 1.5 12C1.5 9.012 1.513 8.638 1.566 7.466C1.619 6.294 1.806 5.494 2.077 4.794C2.35372 4.06008 2.78712 3.39531 3.347 2.846C3.89604 2.2865 4.56047 1.85344 5.294 1.577C5.994 1.306 6.794 1.12 7.964 1.066H7.965ZM16.945 3.046C15.785 2.993 15.437 2.982 12.5 2.982C9.563 2.982 9.215 2.993 8.055 3.046C6.982 3.095 6.4 3.274 6.012 3.425C5.499 3.625 5.132 3.862 4.747 4.247C4.38205 4.60205 4.10118 5.03428 3.925 5.512C3.774 5.9 3.595 6.482 3.546 7.555C3.493 8.715 3.482 9.063 3.482 12C3.482 14.937 3.493 15.285 3.546 16.445C3.595 17.518 3.774 18.1 3.925 18.488C4.101 18.965 4.382 19.398 4.747 19.753C5.102 20.118 5.535 20.399 6.012 20.575C6.4 20.726 6.982 20.905 8.055 20.954C9.215 21.007 9.562 21.018 12.5 21.018C15.438 21.018 15.785 21.007 16.945 20.954C18.018 20.905 18.6 20.726 18.988 20.575C19.501 20.375 19.868 20.138 20.253 19.753C20.618 19.398 20.899 18.965 21.075 18.488C21.226 18.1 21.405 17.518 21.454 16.445C21.507 15.285 21.518 14.937 21.518 12C21.518 9.063 21.507 8.715 21.454 7.555C21.405 6.482 21.226 5.9 21.075 5.512C20.875 4.999 20.638 4.632 20.253 4.247C19.8979 3.88207 19.4657 3.60121 18.988 3.425C18.6 3.274 18.018 3.095 16.945 3.046V3.046ZM11.095 15.391C11.8797 15.7176 12.7534 15.7617 13.5669 15.5157C14.3805 15.2697 15.0834 14.7489 15.5556 14.0422C16.0278 13.3356 16.2401 12.4869 16.156 11.6411C16.072 10.7953 15.697 10.005 15.095 9.405C14.7112 9.02148 14.2472 8.72781 13.7363 8.54515C13.2255 8.36248 12.6804 8.29536 12.1405 8.34862C11.6006 8.40187 11.0792 8.57418 10.6138 8.85313C10.1485 9.13208 9.75074 9.51074 9.4493 9.96185C9.14786 10.413 8.95019 10.9253 8.87052 11.462C8.79084 11.9986 8.83115 12.5463 8.98854 13.0655C9.14593 13.5847 9.41648 14.0626 9.78072 14.4647C10.145 14.8668 10.5938 15.1832 11.095 15.391ZM8.502 8.002C9.02702 7.47698 9.65032 7.0605 10.3363 6.77636C11.0223 6.49222 11.7575 6.34597 12.5 6.34597C13.2425 6.34597 13.9777 6.49222 14.6637 6.77636C15.3497 7.0605 15.973 7.47698 16.498 8.002C17.023 8.52702 17.4395 9.15032 17.7236 9.8363C18.0078 10.5223 18.154 11.2575 18.154 12C18.154 12.7425 18.0078 13.4777 17.7236 14.1637C17.4395 14.8497 17.023 15.473 16.498 15.998C15.4377 17.0583 13.9995 17.654 12.5 17.654C11.0005 17.654 9.56234 17.0583 8.502 15.998C7.44166 14.9377 6.84597 13.4995 6.84597 12C6.84597 10.5005 7.44166 9.06234 8.502 8.002V8.002ZM19.408 7.188C19.5381 7.06527 19.6423 6.91768 19.7143 6.75397C19.7863 6.59027 19.8248 6.41377 19.8274 6.23493C19.83 6.05609 19.7967 5.87855 19.7295 5.71281C19.6622 5.54707 19.5624 5.39651 19.436 5.27004C19.3095 5.14357 19.1589 5.04376 18.9932 4.97652C18.8275 4.90928 18.6499 4.87598 18.4711 4.87858C18.2922 4.88119 18.1157 4.91965 17.952 4.9917C17.7883 5.06374 17.6407 5.1679 17.518 5.298C17.2793 5.55103 17.1486 5.88712 17.1537 6.23493C17.1588 6.58274 17.2992 6.91488 17.5452 7.16084C17.7911 7.40681 18.1233 7.54723 18.4711 7.5523C18.8189 7.55737 19.155 7.42669 19.408 7.188V7.188Z" fill="white"/>
</svg>
