<svg width="99" height="60" viewBox="0 0 99 60" fill="none" xmlns="http://www.w3.org/2000/svg">
<path fill-rule="evenodd" clip-rule="evenodd" d="M28 30V59H50H72V30V1H50H28V30ZM48.2186 7.84595C48.4054 8.03548 48.4155 8.14079 48.2729 8.41104C48.0697 8.79637 47.4654 8.59893 47.4654 8.14716C47.4654 7.71412 47.9123 7.53539 48.2186 7.84595ZM39.0507 8.91844V9.53546H39.6661C40.2462 9.53546 40.2795 9.54873 40.249 9.76684C40.2202 9.9718 40.1501 10.0017 39.6336 10.0291L39.0507 10.0599V11.2692C39.0507 12.7727 39.1083 12.8845 39.8364 12.797C40.2899 12.7425 40.3542 12.759 40.4011 12.9408C40.4678 13.1998 40.1394 13.341 39.475 13.3389C38.6336 13.3361 38.5438 13.1484 38.5438 11.3933V10.0496H38.2566C37.9048 10.0496 37.8413 9.99247 37.9076 9.73517C37.9436 9.59572 38.0473 9.53546 38.2515 9.53546C38.5371 9.53546 38.5438 9.52291 38.5438 8.98703C38.5438 8.38914 38.5848 8.30142 38.8649 8.30142C39.0244 8.30142 39.0507 8.38862 39.0507 8.91844ZM34.894 9.69578C34.894 9.89179 34.9782 9.88315 35.4516 9.6383C36.0095 9.34974 36.563 9.36794 36.8755 9.68509C37.1195 9.93241 37.1244 9.97087 37.1244 11.618V13.2986L36.8456 13.2937L36.5668 13.289L36.5388 11.7174C36.5113 10.1705 36.507 10.1438 36.2675 10.0332C35.9704 9.8959 35.6239 9.97447 35.2653 10.2606C34.996 10.4755 34.9954 10.4791 34.9954 11.9146C34.9954 13.3476 34.9945 13.3532 34.7673 13.3212C34.544 13.2897 34.5381 13.2535 34.487 11.6436C34.4583 10.7387 34.3993 9.92521 34.3561 9.83585C34.3001 9.72057 34.3447 9.64231 34.5097 9.5658C34.7753 9.4427 34.894 9.48281 34.894 9.69578ZM43.1081 9.66401C43.4873 9.9249 43.6952 10.4073 43.7066 11.0523L43.7143 11.4894H42.5991H41.4839L41.4843 11.7722C41.4848 12.1674 41.8336 12.7053 42.14 12.7833C42.2812 12.8192 42.5679 12.8199 42.7768 12.7847C43.5226 12.6591 43.561 12.6637 43.5917 12.8812C43.6584 13.3536 42.1827 13.5188 41.5749 13.107C41.0739 12.7675 40.8759 12.2938 40.8758 11.434C40.8756 10.8878 40.9315 10.5978 41.1037 10.2514C41.4941 9.46594 42.4242 9.19343 43.1081 9.66401ZM45.0607 9.73424L45.173 10.0359L45.5117 9.73424C45.8238 9.45628 46.4538 9.30552 46.4502 9.50975C46.4439 9.8594 46.3041 10.0496 46.0532 10.0496C45.8861 10.0496 45.674 10.1617 45.5074 10.3381C45.2405 10.6207 45.235 10.6532 45.235 11.9578V13.289H44.9816H44.7281L44.7275 11.9007C44.7272 11.1371 44.6786 10.3357 44.6195 10.1198C44.5398 9.82875 44.5432 9.689 44.6325 9.57989C44.8147 9.35714 44.9368 9.40116 45.0607 9.73424ZM51.4899 9.63377C52.0655 9.98979 52.1797 10.2823 52.1797 11.4002C52.1797 12.2494 52.1483 12.4426 51.9707 12.6838C51.5953 13.1939 51.2796 13.3642 50.7097 13.3642C49.7457 13.3642 49.2409 12.7021 49.2409 11.4379C49.2409 10.5744 49.4792 10.0102 49.9897 9.66534C50.4214 9.3737 51.048 9.36043 51.4899 9.63377ZM53.6451 9.76684C53.7465 10.0579 53.7747 10.0778 53.8628 9.9211C54.0765 9.54112 54.9677 9.26479 54.9677 9.57845C54.9677 9.87564 54.8384 10.0496 54.6176 10.0496C54.4927 10.0496 54.2809 10.1459 54.1468 10.2636C53.9172 10.4652 53.9003 10.5586 53.8525 11.8833C53.8505 11.941 53.8485 11.9963 53.8466 12.0495L53.8466 12.0507C53.8164 12.8989 53.8066 13.176 53.6805 13.2504C53.6194 13.2865 53.5307 13.2748 53.3992 13.2574L53.3745 13.2542C53.3651 13.2529 53.3555 13.2517 53.3456 13.2504C53.2831 13.2425 53.2442 12.644 53.2442 11.6882C53.2442 10.7764 53.1992 10.0537 53.1348 9.93159C53.0474 9.76592 53.0627 9.69568 53.2109 9.58174C53.4764 9.37761 53.5151 9.39406 53.6451 9.76684ZM48.1939 9.66401C48.2246 9.76201 48.2136 12.9089 48.1814 13.2524C48.178 13.2889 48.0611 13.312 47.9218 13.3038L47.6683 13.289V11.6693L47.6682 10.0496H47.3134C47.0024 10.0496 46.9585 10.0178 46.9585 9.79255C46.9585 9.54739 46.9863 9.53546 47.556 9.53546C47.9448 9.53546 48.1675 9.5804 48.1939 9.66401ZM41.7961 10.1268C41.6768 10.2258 41.5517 10.4803 41.5182 10.6924L41.4573 11.078H42.2949H43.1326L43.0716 10.6924C43.0006 10.2421 42.693 9.94681 42.2949 9.94681C42.14 9.94681 41.9156 10.0277 41.7961 10.1268ZM50.1098 10.2659C49.6859 10.973 49.7771 12.3249 50.2754 12.7225C50.7366 13.0905 51.2398 12.9383 51.4787 12.3585C51.757 11.6827 51.5821 10.2836 51.1873 10.0291C51.1198 9.98558 50.8928 9.94928 50.6828 9.94835C50.3639 9.94712 50.2698 9.99915 50.1098 10.2659ZM32.9103 17.2406C33.2454 17.6164 32.9342 18.0593 32.4259 17.9298C31.9533 17.8095 32.1201 17.0598 32.6225 17.0456C32.6836 17.044 32.813 17.1317 32.9103 17.2406ZM56.3938 17.149C56.7613 17.3486 56.61 17.9681 56.1938 17.9681C55.7057 17.9681 55.5262 17.5882 55.8452 17.2306C56.0383 17.0142 56.1223 17.0016 56.3938 17.149ZM53.447 18.2766V18.8936H54.0661C54.5891 18.8936 54.6758 18.9189 54.6238 19.0563C54.5899 19.1458 54.5622 19.2615 54.5622 19.3134C54.5622 19.3653 54.3113 19.4078 54.0046 19.4078H53.447V20.7468C53.447 22.0689 53.4501 22.0874 53.6959 22.201C53.8844 22.2881 54.0211 22.2839 54.2592 22.184C54.6083 22.0372 54.8366 22.1554 54.7329 22.4291C54.6566 22.6312 53.9169 22.8321 53.5504 22.7504C52.9699 22.6211 52.8926 22.4083 52.8563 20.837L52.8234 19.4078H52.5269C52.2783 19.4078 52.2304 19.3664 52.2304 19.1507C52.2304 18.9336 52.2778 18.8936 52.5346 18.8936C52.8352 18.8936 52.8387 18.887 52.8387 18.3355C52.8387 17.8905 52.8747 17.768 53.0161 17.7304C53.4267 17.6216 53.447 17.6473 53.447 18.2766ZM34.5899 19.1139C34.5899 19.2285 34.624 19.3043 34.6659 19.2825C35.4303 18.8852 35.7706 18.7746 36.075 18.8248C36.7288 18.9324 36.7659 19.0424 36.8017 20.976L36.8338 22.7136L36.5483 22.6804L36.2627 22.6472L36.212 21.0749C36.1563 19.3501 36.1187 19.2518 35.553 19.3547C35.3857 19.3853 35.1348 19.4955 34.9954 19.5999C34.7483 19.7848 34.7412 19.8264 34.7137 21.2506L34.6856 22.7116L34.4096 22.6795L34.1336 22.6472L34.1142 21.1046C34.1034 20.2562 34.0715 19.4408 34.0433 19.2926C34.0039 19.0857 34.0436 18.9992 34.2148 18.9197C34.4899 18.7921 34.5899 18.8438 34.5899 19.1139ZM38.4418 19.0462L38.5376 19.3018L38.9095 19.0792C39.3885 18.7925 40.1831 18.7647 40.441 19.0256C40.5979 19.1844 40.6264 19.4428 40.6543 20.9613L40.6863 22.7136L40.4008 22.6804L40.1152 22.6472L40.0872 21.0811C40.0613 19.6274 40.0444 19.507 39.8531 19.4032C39.594 19.2625 39.1379 19.3601 38.802 19.6281C38.5473 19.8312 38.5438 19.854 38.5438 21.2664V22.6986H38.3004H38.0569L38.0159 20.8732C37.9814 19.3423 37.9994 19.0271 38.1266 18.9193C38.3274 18.7492 38.331 18.7506 38.4418 19.0462ZM43.8741 18.9857C44.4613 19.2562 44.675 19.7385 44.6764 20.7961C44.6772 21.4352 44.6322 21.6967 44.4747 21.9679C44.1508 22.5255 43.7871 22.7428 43.1795 22.7415C42.2295 22.7394 41.7936 22.2357 41.7094 21.0428C41.6334 19.9651 41.9524 19.2504 42.6498 18.936C43.066 18.7483 43.387 18.7613 43.8741 18.9857ZM51.1151 19.0199C51.4139 19.2087 51.5195 19.7207 51.5201 20.9828C51.5204 21.5945 51.57 22.1884 51.6301 22.3025C51.7176 22.4681 51.7023 22.5384 51.5541 22.6523C51.2994 22.8481 51.2661 22.8392 51.1307 22.5378L51.0124 22.2743L50.7343 22.4737C50.0461 22.967 49.2047 22.8045 48.9872 22.1363C48.8282 21.6474 48.9271 21.1412 49.2445 20.8192C49.4973 20.5628 50.1624 20.3333 50.6532 20.3333C50.8736 20.3333 50.9124 20.2872 50.9124 20.0248C50.9124 19.6937 50.6082 19.305 50.3491 19.305C50.2622 19.305 49.9839 19.3579 49.7304 19.4226C49.3535 19.519 49.2534 19.5142 49.1802 19.3969C49.0434 19.1778 49.0651 19.133 49.3664 19.0147C49.9945 18.7678 50.7196 18.77 51.1151 19.0199ZM59.8253 19.0768C60.3099 19.4432 60.4906 19.8972 60.4888 20.7445C60.4861 22.0774 59.9855 22.7427 58.9851 22.7427C58.3135 22.7427 57.9569 22.5215 57.6988 21.945C57.4239 21.3309 57.4339 20.2333 57.7197 19.6342C58.0972 18.8432 59.1483 18.5649 59.8253 19.0768ZM61.9592 19.0372L62.0515 19.2837L62.5314 19.0372C63.024 18.7843 63.2603 18.7467 63.6653 18.8567C64.1022 18.9754 64.1935 19.3646 64.1935 21.1064V22.7123L63.9147 22.6797L63.6359 22.6472L63.5853 21.0749C63.5296 19.3501 63.492 19.2518 62.9263 19.3547C62.759 19.3853 62.5081 19.4955 62.3687 19.5999C62.1217 19.7847 62.1145 19.8269 62.0871 21.2441L62.0589 22.6986H61.8083H61.5576V21.2324C61.5576 20.4261 61.5152 19.6166 61.4635 19.4335C61.3828 19.148 61.4005 19.0786 61.5874 18.9458L61.6151 18.9261C61.738 18.8385 61.7977 18.7959 61.8396 18.8096C61.879 18.8225 61.9026 18.8856 61.9483 19.008L61.9592 19.0372ZM32.9171 20.7961V22.6472L32.6382 22.6797L32.3594 22.7123V21.06V19.4078H32.0046C31.6919 19.4078 31.6498 19.3766 31.6498 19.1458C31.6498 18.8897 31.6641 18.8845 32.2834 18.9144L32.9171 18.945V20.7961ZM46.2715 20.3858C46.537 21.177 46.7568 21.8476 46.7597 21.8759C46.7627 21.9042 47.0025 21.2566 47.2927 20.4369C47.8139 18.9646 47.9412 18.7743 48.2645 18.9853C48.3778 19.0592 48.2707 19.424 47.7069 20.8852C47.0629 22.5542 46.9897 22.6937 46.7555 22.6961C46.5325 22.6983 46.4728 22.6142 46.2645 22.0044C46.134 21.6226 45.8424 20.8081 45.6165 20.1943C45.2791 19.2776 45.2311 19.0619 45.3472 18.9861C45.6701 18.7754 45.7937 18.9626 46.2715 20.3858ZM56.4885 20.8029V22.7123L56.2097 22.6797L55.9309 22.6472L55.903 21.0275L55.875 19.4078H55.5228C55.2488 19.4078 55.1705 19.3659 55.1705 19.2193C55.1705 18.9322 55.2567 18.8936 55.8971 18.8936H56.4885V20.8029ZM42.767 19.4215C42.1651 19.7764 42.1365 21.7104 42.7269 22.13C43.0517 22.3608 43.4837 22.3248 43.7606 22.0439C44.2561 21.5414 44.1878 19.8171 43.6585 19.4653C43.3801 19.2803 43.0351 19.2633 42.767 19.4215ZM58.4882 19.4851C58.078 19.9449 57.9738 21.1356 58.2882 21.7719C58.6069 22.417 59.3841 22.4594 59.6965 21.8487C60.0564 21.1455 59.849 19.554 59.3733 19.3688C59.0667 19.2495 58.6495 19.3043 58.4882 19.4851ZM50.4441 20.8398C49.8054 20.9459 49.4931 21.1973 49.4931 21.6052C49.4931 21.9756 49.746 22.2872 50.0467 22.2872C50.1472 22.2872 50.3832 22.1909 50.571 22.0731C50.8907 21.8727 50.9124 21.8236 50.9124 21.3019C50.9124 20.9954 50.901 20.7504 50.8871 20.7575C50.8732 20.7646 50.6738 20.8017 50.4441 20.8398ZM48.8848 28.8621C48.8848 30.3455 48.9275 31.4372 48.9922 31.6099C49.0807 31.846 49.0684 31.9194 48.9221 32.0279C48.6747 32.2114 48.5702 32.1927 48.5087 31.9539C48.4795 31.8408 48.438 31.7482 48.4164 31.7482C48.3948 31.7482 48.2069 31.8408 47.9988 31.9539C47.1175 32.433 46.3791 32.0058 46.1495 30.884C45.9488 29.9032 46.2593 28.6241 46.7648 28.3498C47.0291 28.2062 47.5901 28.1766 47.9977 28.2846L48.2765 28.3585V27.4385C48.2765 26.649 48.3016 26.512 48.4539 26.4716L48.4677 26.4679L48.4869 26.4627C48.5903 26.4349 48.6668 26.4143 48.7235 26.4396C48.8851 26.5117 48.885 26.9566 48.8848 28.6706L48.8848 28.8621ZM33.7073 28.2503C33.8075 28.2512 34.0013 28.3654 34.1382 28.5042C34.3745 28.7438 34.3871 28.8182 34.3871 29.9799C34.3871 30.6528 34.4396 31.3562 34.5038 31.543C34.6047 31.8366 34.5955 31.901 34.4361 32.0193C34.2291 32.1728 33.9816 32.0425 33.9816 31.78C33.9816 31.6672 33.9061 31.6858 33.6682 31.8577C33.4957 31.9823 33.1558 32.1068 32.9126 32.1347C32.5188 32.1797 32.4354 32.1496 32.1494 31.8594C31.8522 31.5581 31.8315 31.4924 31.8731 30.9833C31.9363 30.211 32.3417 29.872 33.3672 29.7341C33.8946 29.663 33.8991 29.6593 33.8387 29.3525C33.738 28.8423 33.5965 28.7445 33.0245 28.7901C32.7424 28.8125 32.4358 28.866 32.3432 28.9087C32.2213 28.9652 32.1558 28.925 32.1051 28.7631C32.0667 28.6402 32.0772 28.4969 32.1285 28.4449C32.2533 28.3183 33.0682 28.1566 33.3226 28.208C33.4341 28.2305 33.6073 28.2496 33.7073 28.2503ZM42.3693 28.4174C42.6516 28.5986 42.6774 28.7297 42.735 30.2704C42.7606 30.9564 42.8286 31.6067 42.886 31.7155C42.9696 31.8741 42.9479 31.9403 42.7768 32.0487C42.5927 32.1653 42.5448 32.1583 42.4291 31.9979C42.3554 31.8955 42.2949 31.7729 42.2949 31.7255C42.2949 31.6781 42.1628 31.7384 42.0013 31.8594C41.8398 31.9805 41.4999 32.1033 41.2458 32.1324C40.832 32.1797 40.7517 32.1526 40.4749 31.8718C40.0594 31.4504 40.039 30.7858 40.427 30.3181C40.6863 30.0056 41.4538 29.6915 41.9585 29.6915C42.1241 29.6915 42.1935 29.6322 42.1935 29.4906C42.1935 29.141 41.9674 28.7667 41.7463 28.7504C41.3704 28.723 40.9317 28.7832 40.7363 28.8894C40.5972 28.9649 40.5222 28.9553 40.4587 28.8537C40.3014 28.6019 40.3641 28.4748 40.6982 28.3683C41.4316 28.1344 41.9526 28.1498 42.3693 28.4174ZM35.7295 28.3803C35.7549 28.4511 35.9054 29.121 36.0639 29.869C36.2223 30.617 36.3602 31.2186 36.3701 31.2059C36.3801 31.1931 36.5592 30.581 36.7682 29.8457C37.1787 28.401 37.2469 28.258 37.5074 28.2968C37.6387 28.3164 37.7547 28.6413 38.0033 29.6857C38.1817 30.4357 38.3448 31.0664 38.3654 31.0875C38.3862 31.1085 38.558 30.4791 38.7472 29.6887C38.9364 28.8984 39.124 28.2518 39.164 28.2518C39.339 28.2518 39.5576 28.3863 39.5581 28.4942C39.5584 28.5588 39.3435 29.3889 39.0806 30.3389C38.6177 32.0111 38.5944 32.0653 38.3496 32.0358C38.114 32.0074 38.0729 31.909 37.7431 30.5879L37.3891 29.1705L37.2728 29.611C37.2088 29.8533 37.0237 30.502 36.8616 31.0528C36.3878 32.6625 36.2226 32.5459 35.6457 30.1936C35.3197 28.8648 35.2395 28.3917 35.3301 28.3333C35.5117 28.2162 35.6776 28.2357 35.7295 28.3803ZM44.3286 28.5248L44.4309 28.7977L44.7118 28.5248C44.9122 28.33 45.1 28.2518 45.3673 28.2518H45.3762C45.5869 28.2518 45.6887 28.2518 45.717 28.2981C45.7436 28.3414 45.7059 28.4251 45.6331 28.5873L45.6299 28.5944C45.5505 28.771 45.46 28.8286 45.3199 28.7914C45.1916 28.7573 45.0169 28.8409 44.8236 29.0287L44.5253 29.3186V30.6877V32.0567H44.2212H43.9171L43.91 30.4885C43.906 29.626 43.8661 28.8277 43.821 28.7145C43.7301 28.4855 43.8629 28.2518 44.084 28.2518C44.1622 28.2518 44.2723 28.3747 44.3286 28.5248ZM47.1932 28.7692C46.818 28.9183 46.7349 29.2258 46.772 30.3275C46.8013 31.2003 46.8359 31.3755 47.0032 31.4996C47.2753 31.7012 47.5349 31.6822 47.935 31.4313L48.2765 31.2173V30.0981C48.2765 29.1359 48.2517 28.966 48.0991 28.8867C47.79 28.726 47.4221 28.6782 47.1932 28.7692ZM32.7993 30.402C32.4058 30.6487 32.3049 30.9359 32.4806 31.3095C32.6714 31.7154 33.1387 31.7458 33.567 31.3802C33.8486 31.1399 33.8866 31.049 33.86 30.6806C33.8309 30.2774 33.8126 30.2558 33.4747 30.2291C33.2579 30.2119 32.9951 30.2792 32.7993 30.402ZM41.1037 30.4102C40.8208 30.5851 40.7742 30.6719 40.7742 31.0232C40.7742 31.3226 40.8268 31.4611 40.9703 31.539C41.2703 31.7017 41.5748 31.6669 41.8991 31.4327C42.1559 31.2472 42.1935 31.1553 42.1935 30.7129V30.2057L41.8134 30.2061C41.6043 30.2063 41.285 30.2981 41.1037 30.4102ZM34.247 36.5475C34.3852 36.6394 34.5644 36.8754 34.6454 37.0719C34.9664 37.8513 34.7602 38.4267 33.9167 39.1051C33.0538 39.7991 32.8618 40.0432 32.7263 40.6179L32.6597 40.9007H33.7262H34.7926V41.1578V41.4149H33.3752H31.9578L32.0188 40.9264C32.1132 40.1712 32.3869 39.6417 32.9123 39.198L32.9278 39.185C33.8059 38.4435 34.0302 38.2541 34.0924 38.0203C34.1137 37.94 34.1159 37.8546 34.1189 37.7398L34.119 37.7337C34.1326 37.2092 33.8578 36.8815 33.393 36.8681C33.032 36.8577 32.8145 37.0089 32.6082 37.4134C32.5031 37.6197 32.4103 37.6802 32.2601 37.6403C31.8336 37.5271 32.1779 36.7998 32.8123 36.4736C33.2729 36.2367 33.822 36.265 34.247 36.5475ZM38.0603 36.6558C38.5107 37.0935 38.6937 37.7327 38.6867 38.844C38.6789 40.0942 38.5256 40.6349 38.0391 41.1284C37.7118 41.4603 37.5899 41.5176 37.2124 41.5173C36.1983 41.5165 35.7009 40.8052 35.6258 39.2486C35.5527 37.7319 35.9079 36.7579 36.6596 36.4144C37.0951 36.2155 37.7176 36.3227 38.0603 36.6558ZM41.3825 38.6383V40.9007H41.788C42.153 40.9007 42.1935 40.9264 42.1935 41.1578V41.4149H41.0783H39.9631V41.1578C39.9631 40.9217 40.0003 40.9007 40.4194 40.9007H40.8756V39.0496C40.8756 37.941 40.8367 37.1986 40.7787 37.1986C40.7253 37.1986 40.4539 37.3348 40.1754 37.5014C39.6776 37.7991 39.668 37.8006 39.6018 37.5892C39.5597 37.4546 39.5863 37.3433 39.6728 37.2918C39.7488 37.2465 40.062 37.0233 40.3687 36.796C40.6753 36.5686 41.0289 36.381 41.1544 36.3792L41.3825 36.3759V38.6383ZM45.5899 36.6844C45.5899 36.9354 45.5701 36.9422 44.7544 36.9713C44.7293 36.9722 44.705 36.973 44.6814 36.9738C44.6551 36.9747 44.629 36.9755 44.6044 36.9763C44.2495 36.9875 44.0661 36.9934 43.9626 37.0886C43.852 37.1905 43.8329 37.3949 43.7934 37.8176C43.7885 37.8699 43.7833 37.9255 43.7775 37.9847L43.7263 38.5136L44.0339 38.358C44.4521 38.1463 45.174 38.2358 45.4918 38.5387C45.8228 38.8542 45.978 39.3818 45.92 39.9948C45.8148 41.1039 44.8409 41.7164 43.5679 41.4742C43.2683 41.4172 43.2074 41.3619 43.2074 41.1469C43.2074 40.889 43.2094 40.8885 43.9024 40.9577C44.5691 41.0243 44.6105 41.0152 44.9197 40.7326C45.6271 40.0859 45.3703 38.7411 44.5395 38.7411C44.38 38.7411 44.081 38.8571 43.8751 38.9988C43.6016 39.1871 43.4534 39.2309 43.3256 39.1616C43.1639 39.0738 43.16 38.9736 43.2752 37.8497C43.3438 37.1806 43.4022 36.5735 43.4051 36.5009C43.4089 36.4001 43.6674 36.3758 44.5 36.3981C45.5872 36.4272 45.5899 36.4279 45.5899 36.6844ZM36.6252 37.1606C36.3038 37.575 36.1861 38.188 36.2328 39.2039C36.2795 40.2246 36.4682 40.7333 36.8683 40.9182C37.1955 41.0694 37.5719 40.9565 37.7717 40.6474C38.212 39.9657 38.177 37.7435 37.7166 37.1497C37.435 36.7865 36.9112 36.7918 36.6252 37.1606ZM71.5945 52.3156V58.5886H50H28.4055V52.3156V46.0426H50H71.5945V52.3156ZM37.6367 49.6867C37.4374 49.9302 37.5874 50.3466 37.9034 50.4271C38.2552 50.5167 38.5758 50.1598 38.4517 49.8168C38.3502 49.5363 37.828 49.4529 37.6367 49.6867ZM31.7873 49.9001C31.755 49.9856 31.9389 51.1783 32.1961 52.5506C32.4532 53.9229 32.6636 55.0793 32.6636 55.1204C32.6636 55.1614 32.8181 55.195 33.0069 55.195H33.3502L33.7166 53.2606C33.9181 52.1966 34.0829 51.2402 34.0829 51.1352C34.0829 51.0303 34.1154 50.9774 34.155 51.0176C34.1947 51.0578 34.3657 52.0026 34.5352 53.1171L34.8433 55.1436H35.1982H35.553L36.0866 52.5732C36.3801 51.1595 36.5981 49.9448 36.5713 49.8737C36.5321 49.7702 36.0156 49.6756 36.0068 49.7704C36.0055 49.7845 35.8312 50.7644 35.6195 51.9479L35.2347 54.0996L34.8848 51.9479L34.535 49.7961L34.2216 49.7649L33.9083 49.7338L33.5199 51.7703C33.1546 53.6854 32.9677 54.3501 32.9677 53.7344C32.9677 53.5872 32.8309 52.664 32.6637 51.6828C32.4965 50.7017 32.3597 49.8643 32.3595 49.8218C32.3593 49.6751 31.8459 49.7453 31.7873 49.9001ZM41.0617 51.2898C40.8574 51.3256 40.5666 51.4371 40.4153 51.5375C40.1384 51.7216 40.0506 51.6857 39.9314 51.3399C39.9093 51.2759 39.7981 51.2836 39.6313 51.3608C39.3897 51.4724 39.3747 51.5132 39.4619 51.8216C39.5145 52.0077 39.5576 52.8197 39.5576 53.6261V55.0922H39.8618H40.1659V53.6684C40.1659 52.0673 40.2135 51.9502 40.9129 51.8351C41.5462 51.7309 41.5853 51.831 41.5853 53.5622V55.0922H41.8894H42.1935V53.3994C42.1935 51.8152 42.18 51.6937 41.9819 51.5066C41.7136 51.253 41.5255 51.2087 41.0617 51.2898ZM48.0063 51.3525C47.7925 51.428 47.608 51.4905 47.5964 51.4914C47.5849 51.4922 47.448 51.7127 47.2923 51.9814C47.0504 52.3988 47.0092 52.5822 47.0092 53.2411C47.0092 54.13 47.2078 54.5826 47.7647 54.9633C48.1662 55.2377 48.9073 55.2742 49.4456 55.046C49.7955 54.8977 49.8684 54.7481 49.7123 54.4985C49.6468 54.3939 49.5561 54.3991 49.2608 54.5242C48.8308 54.7065 48.4448 54.7244 48.1695 54.5749C47.9232 54.4412 47.6682 53.9485 47.6682 53.6062V53.344H48.7834H49.8986L49.898 53.0098C49.8959 51.7145 49.0585 50.9809 48.0063 51.3525ZM52.0904 51.2977C51.9298 51.3427 51.6917 51.4812 51.5613 51.6054L51.3242 51.8313L51.2222 51.5593C51.1106 51.2617 50.9012 51.2073 50.7199 51.4289C50.6375 51.5297 50.6339 51.6508 50.7075 51.847C50.7644 51.999 50.8111 52.7913 50.8111 53.6077V55.0922H51.1152H51.4194V53.7508C51.4194 52.4784 51.4318 52.3958 51.6621 52.144C51.8065 51.9859 52.0146 51.8785 52.1763 51.8785C52.3708 51.8785 52.4744 51.8075 52.5419 51.6276C52.5937 51.4896 52.6359 51.3615 52.6359 51.343C52.6359 51.2491 52.3492 51.2253 52.0904 51.2977ZM43.3921 51.3942C43.2542 51.4757 43.2398 51.5577 43.3161 51.8274C43.3679 52.0103 43.4101 52.8197 43.4101 53.6261V55.0922H43.7143H44.0184V53.6128V52.1334L44.3632 51.9674C44.772 51.7707 45.1476 51.7539 45.3161 51.9248C45.3998 52.0097 45.4378 52.5235 45.4378 53.5702V55.0922H45.7486H46.0595L46.0274 53.3354C45.9982 51.7363 45.9777 51.5657 45.7986 51.433C45.5079 51.2177 44.7376 51.2507 44.3418 51.4956C43.9938 51.7108 43.8157 51.6905 43.8157 51.4354C43.8157 51.2653 43.6389 51.2481 43.3921 51.3942ZM37.023 51.5957C37.023 51.7905 37.2147 51.8607 37.606 51.8091C37.7028 51.7964 37.7327 52.182 37.7327 53.4423V55.0922H38.0369H38.341V53.2411V51.3901H37.682C37.0907 51.3901 37.023 51.4112 37.023 51.5957ZM49.031 52.046C49.1046 52.166 49.1939 52.3915 49.2295 52.547L49.2942 52.8298H48.4812C47.7028 52.8298 47.6682 52.8198 47.6682 52.5956C47.6682 51.8654 48.6719 51.4606 49.031 52.046ZM31.6498 6.08156V7.52128H33.0184V6.08156H31.6498ZM31.6498 14V8.54965H33.0184V14H31.6498Z" fill="white"/>
</svg>
