<svg width="101" height="42" viewBox="0 0 101 42" fill="none" xmlns="http://www.w3.org/2000/svg">
<path d="M57.3863 20.2648C56.8057 20.4435 55.1147 21.8602 54.9621 22.516C54.7995 23.2147 55.0487 23.8147 55.4816 23.6415C60.3432 21.9501 63.1007 21.3904 67.6029 21.0441C69.074 20.931 69.4704 22.3171 68.3822 23.2952C63.6779 27.5234 55.7565 30.8614 53.4036 33.6849C52.9707 34.2044 54.356 35.4166 55.3084 35.4166C65.0921 35.4166 71.8454 34.7239 74.1831 33.5118C74.596 33.2977 74.579 32.7893 74.1831 32.8192C61.5422 33.7715 56.8997 32.646 58.079 31.8668C62.9275 28.6632 73.2971 24.8537 72.9709 22.516C72.7667 21.052 70.8846 20.4031 70.0272 20.2648C67.3432 19.832 59.6375 19.5722 57.3863 20.2648Z" fill="white"/>
<path d="M51.1525 15.5029C51.1015 15.9366 48.6417 14.8102 48.5551 14.6371C48.4742 14.4753 47.949 10.1349 48.5551 10.0483C49.3012 9.94179 51.066 10.8275 51.066 10.8275C51.3257 11.0006 51.3257 14.031 51.1525 15.5029Z" fill="white"/>
<path d="M15.3079 11.7799C18.7712 8.92268 27.083 6.23866 35.135 10.1348C36.3471 7.53739 32.0181 5.28621 27.5159 5.37284C23.7031 5.44621 19.7209 7.09568 15.4811 9.7885C9.07412 13.8578 3.18661 21.3038 3.01343 25.8926C2.84026 30.4814 4.39874 32.213 4.39874 32.213C4.39874 32.213 7.25591 36.8171 19.3773 35.5897C26.2172 34.897 31.4796 33.3776 38.4251 30.135C39.1043 29.8179 38.7751 28.7081 38.4251 28.8363C29.6804 32.0398 25.1782 33.2246 18.6846 33.252C11.585 33.2818 6.47667 30.9143 7.34248 25.2865C8.23082 19.5123 11.8447 14.637 15.3079 11.7799Z" fill="white"/>
<path d="M10.2863 21.6501C9.76679 21.6077 9.93983 20.4448 10.2863 20.4379C19.8968 20.2481 31.4121 18.7062 31.6718 18.7062C31.9316 18.7062 31.9016 19.9035 31.6718 20.611C31.3591 21.5737 30.5463 22.0829 29.5939 22.0829C28.6415 22.0829 17.8937 22.2709 10.2863 21.6501Z" fill="white"/>
<path d="M40.677 34.0801L40.6762 34.2044C40.671 34.9837 43.5334 35.8494 43.5334 35.2433C43.4468 23.3817 43.9663 14.2041 43.8797 5.54602C43.8745 5.02653 40.0124 3.38147 40.1567 4.24731C40.8472 8.39003 40.7633 21.05 40.677 34.0801Z" fill="white"/>
<path d="M51.4988 20.8708C51.4988 20.3513 48.7282 19.4855 47.6893 19.4855C47.3429 19.4855 48.0356 20.7843 48.2087 22.083C48.3819 24.3341 48.3819 29.4215 48.3819 34.2909V34.2909C48.3819 34.996 48.9093 35.3299 49.5075 35.3299C50.3733 35.3299 51.1525 35.4165 51.1525 35.1567L51.4988 20.8708Z" fill="white"/>
<path fill-rule="evenodd" clip-rule="evenodd" d="M92.4506 22.009C93.3164 22.009 94.7883 21.1432 94.7883 21.1432C95.6206 32.7253 96.9528 33.4187 97.628 33.7701C97.7957 33.8574 97.9229 33.9236 97.9918 34.1303C98.1041 34.4673 97.0446 34.9617 95.9978 35.4502C95.6999 35.5892 95.4031 35.7277 95.1346 35.8619C94.2569 36.3008 93.7616 33.8403 93.4063 32.0755C93.2008 31.0549 93.0422 30.267 92.8835 30.4073C88.3813 34.3901 84.5717 35.2174 80.589 34.9961C76.6063 34.7749 75.4176 32.823 75.5673 30.6671C76.0002 24.4332 84.0523 19.7578 87.6021 19.7578C90.3869 19.7578 91.2254 20.8121 91.7547 21.4776C91.9989 21.7847 92.1773 22.009 92.4506 22.009ZM79.55 27.377C80.7622 21.2297 90.106 20.7771 91.3251 22.5285C92.1774 23.7531 92.9182 27.8099 92.4506 28.8489C91.6714 30.5805 84.9855 34.1229 82.3206 33.4377C79.2903 32.6584 79.0763 29.7796 79.55 27.377Z" fill="white"/>
</svg>
