<svg width="178" height="66" viewBox="0 0 178 66" fill="none" xmlns="http://www.w3.org/2000/svg">
<path d="M101.434 33.5407C100.415 33.8542 97.4481 36.3401 97.1803 37.4909C96.8949 38.717 97.3322 39.7697 98.0918 39.4659C106.623 36.4979 111.461 35.5158 119.362 34.9081C121.943 34.7096 122.639 37.1419 120.729 38.8583C112.474 46.2776 98.5743 52.135 94.4456 57.0895C93.6859 58.0011 96.1168 60.1281 97.788 60.1281C114.956 60.1281 126.806 58.9127 130.908 56.7857C131.633 56.4101 131.603 55.518 130.908 55.5703C108.727 57.2414 100.58 55.2664 102.65 53.8991C111.158 48.2777 129.353 41.5929 128.781 37.4909C128.423 34.9219 125.12 33.7833 123.616 33.5407C118.906 32.7811 105.384 32.3252 101.434 33.5407Z" fill="white"/>
<path d="M90.4956 25.1847C90.406 25.9457 86.0896 23.9692 85.9377 23.6654C85.7957 23.3815 84.8742 15.7651 85.9377 15.6133C87.2469 15.4263 90.3436 16.9805 90.3436 16.9805C90.7994 17.2843 90.7994 22.6018 90.4956 25.1847Z" fill="white"/>
<path d="M27.5973 18.6518C33.6744 13.6382 48.2595 8.92845 62.3888 15.7652C64.5158 11.2074 56.9194 7.25713 49.0192 7.40915C42.3287 7.5379 35.341 10.4323 27.9012 15.1575C16.6585 22.298 6.32745 35.3639 6.02357 43.4161C5.71969 51.4683 8.45443 54.5068 8.45443 54.5068C8.45443 54.5068 13.468 62.5859 34.738 60.432C46.7403 59.2166 55.9744 56.5504 68.1621 50.8606C69.3539 50.3041 68.7762 48.3567 68.1621 48.5816C52.8174 54.203 44.9171 56.282 33.5225 56.33C21.0644 56.3824 12.1007 52.2279 13.62 42.3526C15.1788 32.2203 21.5202 23.6655 27.5973 18.6518Z" fill="white"/>
<path d="M18.7856 35.9715C17.874 35.8971 18.1777 33.8565 18.7856 33.8445C35.6496 33.5114 55.856 30.8058 56.3118 30.8058C56.7676 30.8058 56.715 32.9067 56.3118 34.1482C55.7631 35.8375 54.3367 36.731 52.6655 36.731C50.9943 36.731 32.1347 37.0608 18.7856 35.9715Z" fill="white"/>
<path d="M72.1138 57.783L72.1123 58.001C72.1033 59.3685 77.126 60.8876 77.126 59.8241C76.974 39.01 77.8856 22.9056 77.7337 7.71288C77.7246 6.80129 70.9476 3.91464 71.2008 5.43396C72.4123 12.7034 72.2652 34.9185 72.1138 57.783Z" fill="white"/>
<path d="M91.1031 34.6042C91.1031 33.6926 86.2414 32.1733 84.4183 32.1733C83.8106 32.1733 85.026 34.4523 85.3299 36.7312C85.6337 40.6813 85.6337 49.6084 85.6337 58.153V58.153C85.6337 59.3903 86.5591 59.9762 87.6088 59.9762C89.1281 59.9762 90.4954 60.1281 90.4954 59.6723L91.1031 34.6042Z" fill="white"/>
<path fill-rule="evenodd" clip-rule="evenodd" d="M162.963 36.6012C164.483 36.6012 167.065 35.0819 167.065 35.0819C168.526 55.4057 170.864 56.6224 172.048 57.239C172.343 57.3922 172.566 57.5084 172.687 57.8711C172.884 58.4625 171.025 59.3301 169.188 60.1872C168.665 60.4311 168.144 60.6741 167.673 60.9097C166.133 61.6798 165.264 57.3621 164.64 54.2655C164.28 52.4745 164.001 51.092 163.723 51.3382C155.823 58.327 149.138 59.7787 142.149 59.3904C135.161 59.0021 133.075 55.5772 133.337 51.794C134.097 40.8552 148.226 32.651 154.455 32.651C159.342 32.651 160.813 34.501 161.742 35.6689C162.171 36.2076 162.484 36.6012 162.963 36.6012ZM140.326 46.0207C142.453 35.2339 158.849 34.4396 160.988 37.5128C162.484 39.6616 163.784 46.7804 162.963 48.6035C161.596 51.6421 149.864 57.8581 145.188 56.6557C139.87 55.2883 139.495 50.2367 140.326 46.0207Z" fill="white"/>
</svg>
