<svg width="100" height="60" viewBox="0 0 100 60" fill="none" xmlns="http://www.w3.org/2000/svg">
<path fill-rule="evenodd" clip-rule="evenodd" d="M21.5492 7.34527C21.5492 8.20951 21.9312 9.63312 22.4144 10.5692C23.3002 12.2853 24.8313 13.6464 26.7021 14.3809L27.0456 14.5158V16.5465C27.0456 17.6634 27.0288 18.5773 27.0083 18.5773C26.9878 18.5773 26.6316 18.645 26.2167 18.7278C22.5833 19.4526 19.4795 21.12 16.9172 23.7235C16.0469 24.6077 15.5466 25.2181 14.8816 26.2064C13.2933 28.567 12.3177 31.3139 12.0456 34.191C11.9554 35.145 12.0054 37.2164 12.1394 38.0674C12.4483 40.0315 12.9465 41.6144 13.7855 43.2979C15.8149 47.37 19.4307 50.5216 23.7956 52.0228C32.6944 55.0832 42.4795 50.7279 46.0088 42.1358C46.8759 40.0252 47.2611 38.0449 47.2599 35.705C47.2592 34.2647 47.1731 33.4022 46.9043 32.1439C45.4769 25.4609 40.0505 20.139 33.2824 18.7847C32.8587 18.6999 32.4514 18.618 32.377 18.6026L32.2418 18.5746L32.2575 16.536L32.2732 14.4973L32.776 14.2939C34.1328 13.7449 35.5248 12.6242 36.3355 11.4282C37.1467 10.2313 37.6503 8.76634 37.6947 7.47379L37.7099 7.03083L35.2524 7.01541L32.7949 7L32.7521 7.33925C32.5302 9.0946 30.8627 10.3112 29.0849 10.0148C27.8311 9.8057 26.7393 8.73923 26.554 7.54265C26.5205 7.32614 26.4838 7.11576 26.4725 7.07513C26.4565 7.0176 25.9108 7.0013 24.0005 7.0013H21.5492V7.34527ZM52.616 7.0919C51.9735 7.27015 51.5582 7.69468 51.4248 8.30939C51.3222 8.78223 51.3418 11.8758 51.4496 12.2348C51.5672 12.6264 51.8808 12.9763 52.2698 13.15C52.5659 13.2823 52.6512 13.2909 53.6018 13.285C54.6706 13.2784 55.1307 13.2009 55.887 12.9003L56.2006 12.7756V11.1583V9.54093H54.9161H53.6316V10.102V10.6631H54.2011H54.7705L54.7537 11.3564L54.7369 12.0497L54.3187 12.1273C54.0887 12.17 53.7158 12.1958 53.49 12.1847C53.1286 12.1669 53.0625 12.1449 52.9373 12.0011C52.7955 11.838 52.7952 11.8351 52.7952 10.2847C52.7952 9.30043 52.8195 8.66292 52.8614 8.54392C52.9736 8.22587 53.1982 8.15086 53.9901 8.16705C54.368 8.17473 54.9284 8.21666 55.2356 8.26019C55.6282 8.31582 55.8 8.32037 55.814 8.27566C55.911 7.96476 56.034 7.2894 55.9997 7.2555C55.8123 7.07022 53.1567 6.94182 52.616 7.0919ZM57.5747 10.1611V13.2618H59.7255H61.8763V12.6712V12.0806H60.4424H59.0086V11.3423V10.604H60.2563H61.5041L61.589 10.0577C61.6358 9.75721 61.6641 9.49143 61.6521 9.4671C61.6401 9.44277 61.0404 9.42281 60.3194 9.42281H59.0086V8.83219V8.24158H60.3517H61.6948L61.7242 8.1087C61.7858 7.83069 61.8763 7.2705 61.8763 7.16762C61.8763 7.06597 61.764 7.06036 59.7255 7.06036H57.5747V10.1611ZM63.1309 10.1556V13.2618H63.8478H64.5648V12.0189V10.776L64.9845 10.7934L65.4043 10.8107L65.9785 12.0363L66.5527 13.2618H67.351C67.7902 13.2618 68.1494 13.2477 68.1494 13.2304C68.1494 13.2131 67.8506 12.627 67.4855 11.9279C67.1203 11.2288 66.8313 10.6515 66.8432 10.6451C66.8552 10.6388 66.9724 10.5772 67.1039 10.5083C67.6539 10.2201 67.8951 9.62869 67.831 8.72506C67.7704 7.87086 67.482 7.44278 66.8052 7.20282C66.552 7.11304 66.2492 7.09332 64.8187 7.07318L63.1309 7.04943V10.1556ZM69.165 10.1595V13.2618H69.8521H70.5391V11.2734C70.5391 10.1798 70.5543 9.29996 70.5728 9.31827C70.5912 9.33652 70.9274 10.0121 71.3198 10.8194L72.0332 12.2873L72.5001 12.3042L72.9668 12.3212L73.6708 10.8572C74.058 10.052 74.399 9.36806 74.4285 9.33717C74.4604 9.30392 74.4822 10.0913 74.4822 11.2714V13.2618H75.1693H75.8563V10.1595V7.05723L74.9798 7.07353L74.1032 7.08989L73.3219 8.75648C72.8922 9.67311 72.5251 10.4239 72.5061 10.425C72.4872 10.426 72.1207 9.67606 71.6917 8.75837L70.9116 7.08989L70.0383 7.07353L69.165 7.05723V10.1595ZM78.9153 7.22278C78.8584 7.37811 77.0978 12.3075 76.869 12.9517L76.759 13.2618H77.5573H78.3557L78.5448 12.7007L78.7339 12.1396H79.7696H80.8052L80.9943 12.7007L81.1834 13.2618H81.9551C82.4168 13.2618 82.7269 13.2386 82.7269 13.2042C82.7269 13.1613 81.078 8.47239 80.6235 7.22278L80.5644 7.06036H79.7696H78.9747L78.9153 7.22278ZM83.6828 10.1592V13.2618H84.3698H85.0569L85.06 11.3571C85.0629 9.64375 85.0722 9.46509 85.1531 9.57949C85.2025 9.64942 85.7085 10.4999 86.2774 11.4695L87.3118 13.2322L88.0364 13.2488L88.761 13.2654V10.1629V7.06036H88.0748H87.3886L87.3728 8.9473L87.357 10.8342L86.2123 8.96207L85.0675 7.08989L84.3752 7.07324L83.6828 7.05664V10.1592ZM66.1434 8.30933C66.3435 8.39945 66.4404 8.70698 66.3977 9.11634C66.3428 9.64234 66.2676 9.6845 65.3398 9.70925L64.5648 9.72998V8.98575V8.24158H65.2789C65.6888 8.24158 66.057 8.27046 66.1434 8.30933ZM80.1549 9.73329C80.3537 10.3729 80.5164 10.9234 80.5164 10.9568C80.5164 10.9951 80.2406 11.0175 79.7696 11.0175C79.2545 11.0175 79.0228 10.9968 79.0228 10.9508C79.0228 10.914 79.1589 10.4423 79.3251 9.90244C79.7466 8.53435 79.7491 8.52655 79.7726 8.5497C79.7841 8.5611 79.9561 9.09372 80.1549 9.73329ZM66.4573 14.7322C65.8246 14.9397 65.4429 15.2892 65.201 15.8822C65.1008 16.1278 65.0774 16.3142 65.0777 16.8645C65.0781 17.7308 65.2038 18.0896 65.6439 18.4808C66.0886 18.8761 66.3343 18.941 67.552 18.9848C68.9371 19.0346 68.9858 19.0639 68.9858 19.8477C68.9858 20.2649 68.973 20.3118 68.816 20.467C68.7226 20.5593 68.5277 20.6669 68.3829 20.706C68.0258 20.8024 66.9693 20.7433 66.1554 20.5814C65.8028 20.5112 65.5061 20.4635 65.496 20.4753C65.4626 20.5145 65.0439 21.7875 65.0594 21.8028C65.1133 21.8561 66.392 22.0667 67.0142 22.1248C68.1246 22.2285 69.0503 22.1205 69.6693 21.815C69.8027 21.7492 70.0399 21.5725 70.1963 21.4224C70.5599 21.0736 70.7217 20.6649 70.7615 19.9947C70.8177 19.0504 70.5677 18.3141 70.0697 17.9568C69.649 17.6549 69.2214 17.5617 68.1195 17.5319C67.5938 17.5177 67.1044 17.4775 67.0321 17.4426C66.6676 17.2668 66.7047 16.296 67.0839 16.0892C67.2569 15.9948 68.3258 16.0078 69.4339 16.1177C69.9379 16.1678 70.2242 16.1745 70.2495 16.1368C70.3191 16.0333 70.7293 14.9066 70.7059 14.8834C70.6311 14.8095 69.0165 14.6669 68 14.6445C66.9343 14.621 66.7676 14.6304 66.4573 14.7322ZM77.2305 14.6572C76.8173 14.7359 76.3251 14.9415 76.1061 15.1268C75.7599 15.4197 75.5177 15.9449 75.4347 16.5824C75.3926 16.9057 75.377 17.7413 75.3929 18.8267C75.4136 20.2411 75.4366 20.6118 75.5193 20.8633C75.8352 21.8237 76.7672 22.2508 78.3357 22.1536C79.1938 22.1005 79.8295 21.9873 80.463 21.775C81.3332 21.4833 81.2374 21.7633 81.2192 19.564L81.2034 17.6618H79.68H78.1565L78.1396 18.3263L78.1227 18.9907H78.8117H79.5007V19.8094V20.6281L79.1572 20.6982C78.9683 20.7368 78.5851 20.7829 78.3058 20.8006C77.6485 20.8424 77.3618 20.7549 77.2136 20.4672C77.1169 20.2796 77.1086 20.0884 77.1239 18.3974C77.1424 16.3631 77.1445 16.3506 77.5065 16.1161C77.7386 15.9658 78.5098 15.9482 79.5694 16.069C80.0738 16.1265 80.5376 16.1762 80.6001 16.1795C80.6964 16.1844 80.7356 16.0914 80.8567 15.5708C80.9354 15.2328 80.9784 14.9367 80.9523 14.9127C80.7846 14.7586 77.7807 14.5524 77.2305 14.6572ZM51.5207 14.7186C51.4988 14.7403 51.4809 16.4032 51.4809 18.4142V22.0703L53.4972 22.0485C55.386 22.0282 55.5387 22.0185 55.911 21.8961C56.4088 21.7324 56.8488 21.3592 57.0271 20.9493C57.2443 20.4503 57.2886 19.9212 57.2621 18.1437C57.2393 16.6138 57.2265 16.4479 57.1021 16.0729C56.8356 15.2695 56.2243 14.8695 55.0609 14.7373C54.4952 14.673 51.5824 14.6576 51.5207 14.7186ZM58.7099 18.3706V22.0619H61.249H63.7881V21.3532V20.6444H62.0854H60.3827V19.788V18.9316H61.8736H63.3644L63.3968 18.7397C63.5574 17.7866 63.5869 17.5712 63.56 17.5447C63.5431 17.5279 62.8213 17.5142 61.9559 17.5142H60.3827V16.8064V16.0986L62.0071 16.0829L63.6315 16.0672L63.7359 15.4206C63.7933 15.0649 63.8269 14.7526 63.8106 14.7266C63.7944 14.7006 62.64 14.6792 61.2454 14.6792H58.7099V18.3706ZM72.1921 14.7186C72.1702 14.7403 72.1522 16.4013 72.1522 18.41V22.0619H73.0185H73.8848V18.3706V14.6792H73.0584C72.6038 14.6792 72.2139 14.697 72.1921 14.7186ZM82.707 14.7186C82.6851 14.7403 82.6671 16.4013 82.6671 18.41V22.0619H83.5028H84.3386L84.3542 19.7822L84.3698 17.5026L85.7061 19.7822L87.0423 22.0619H87.9017H88.761V18.3689V14.6759L87.9395 14.6924L87.1181 14.7088L87.0882 16.9386L87.0583 19.1685L85.6961 16.9239L84.3338 14.6792H83.5403C83.1039 14.6792 82.7289 14.697 82.707 14.7186ZM55.2469 16.2444C55.5241 16.4891 55.5435 16.6331 55.5425 18.4425C55.5416 20.2705 55.5336 20.3238 55.2255 20.5502C55.0749 20.6608 54.9593 20.6761 54.1352 20.694L53.2134 20.714V18.4013V16.0886L54.1632 16.1074C55.0129 16.1242 55.1271 16.1387 55.2469 16.2444ZM31.3234 23.2156C32.7519 23.4007 33.9745 23.7695 35.3201 24.4211C39.2705 26.3339 41.8994 30.0243 42.4065 34.369C42.4969 35.1432 42.443 37.0403 42.3099 37.7721C41.9165 39.935 41.0005 41.9282 39.6357 43.5909C39.1164 44.2236 38.0097 45.2766 37.3613 45.7548C34.3839 47.9511 30.6135 48.7691 26.9615 48.011C22.7889 47.1447 19.2378 44.1923 17.6656 40.2822C17.4719 39.8005 17.0684 38.4805 17.0684 38.3285C17.0684 38.2574 17.4446 38.2446 19.5393 38.2446H22.0101L22.232 38.7741C23.3669 41.4806 26.1229 43.4199 29.0925 43.6015L29.6757 43.6371L29.6601 41.2253L29.6445 38.8136L29.2083 38.7409C28.5454 38.6305 27.9471 38.3222 27.4718 37.846C26.8259 37.1988 26.5677 36.5784 26.5677 35.6738C26.5677 34.8062 26.8786 34.0998 27.5266 33.4956C28.0108 33.0441 28.5504 32.7672 29.1129 32.6817C29.3395 32.6473 29.5589 32.6098 29.6003 32.5986C29.6597 32.5823 29.6724 32.068 29.6601 30.1696L29.6445 27.7613L29.2561 27.7791C26.1817 27.9203 23.362 29.888 22.1933 32.7077L22.0036 33.1654H19.536C17.6017 33.1654 17.0684 33.1494 17.0686 33.0915C17.0689 32.9355 17.3737 31.9025 17.5822 31.3509C19.2738 26.8755 23.4643 23.6755 28.3002 23.1659C28.8928 23.1035 30.6856 23.133 31.3234 23.2156ZM52.32 26.5048C51.7511 28.1054 51.1688 29.7405 51.0261 30.1385L50.7667 30.862H51.7118H52.6569L52.855 30.2123L53.053 29.5626H54.2963H55.5396L55.7423 30.1976L55.9449 30.8325L56.8793 30.8487C57.3932 30.8577 57.8135 30.8577 57.8132 30.8487C57.8129 30.8398 57.2377 29.2112 56.535 27.2297L55.2574 23.627L54.306 23.6108L53.3545 23.5946L52.32 26.5048ZM57.8173 23.6993C57.8193 23.757 58.176 25.3855 58.6099 27.3183L59.3989 30.8325L60.5166 30.8485L61.6344 30.8646L61.6754 30.7009C62.0831 29.0715 62.9473 25.9525 62.9726 26.019C62.9912 26.0677 63.2775 27.1308 63.6087 28.3814C63.9399 29.632 64.2251 30.7018 64.2425 30.7586C64.2711 30.8522 64.3782 30.862 65.3713 30.862C66.3643 30.862 66.4715 30.8522 66.5003 30.7586C66.5367 30.6407 68.0896 23.6722 68.0896 23.6271C68.0896 23.6108 67.6796 23.5975 67.1784 23.5975H66.2672L65.8569 25.9452C65.6312 27.2364 65.4198 28.447 65.3871 28.6354C65.3543 28.8239 65.3196 28.97 65.3098 28.9603C65.2999 28.9505 65.0188 27.9326 64.685 26.6982C64.3512 25.4638 64.0377 24.3137 63.9882 24.1424L63.8983 23.8308L62.9388 23.8471L61.9794 23.8632L61.288 26.4248C60.9077 27.8336 60.5863 28.9558 60.5737 28.9185C60.5612 28.8813 60.3446 27.6754 60.0925 26.2389L59.6342 23.627L58.7239 23.6107C57.8845 23.5956 57.814 23.6026 57.8173 23.6993ZM70.6053 23.7304C70.451 24.1373 68.0896 30.7997 68.0896 30.8281C68.0896 30.8467 68.5041 30.862 69.0107 30.862H69.9318L70.1508 30.2123L70.3698 29.5626L71.6046 29.5636L72.8393 29.5645L73.0438 30.2133L73.2482 30.862H74.164C74.6676 30.862 75.0802 30.8421 75.0807 30.8177C75.0813 30.7933 74.5107 29.1588 73.8128 27.1854L72.5439 23.5975H71.5998C70.6755 23.5975 70.6546 23.6002 70.6053 23.7304ZM76.1551 27.2254V30.862H76.9915H77.8279V29.4126V27.9632L78.3148 27.9804L78.8015 27.9975L79.4637 29.4298L80.1259 30.862H81.068C81.5861 30.862 82.01 30.8479 82.01 30.8308C82.01 30.8136 81.6672 30.1435 81.2482 29.3415C80.8292 28.5395 80.4786 27.8658 80.4691 27.8443C80.4594 27.8229 80.567 27.7466 80.708 27.6748C81.071 27.49 81.323 27.2324 81.4832 26.8823C81.6059 26.6143 81.6211 26.493 81.618 25.8123C81.6136 24.8497 81.5002 24.5073 81.0548 24.1114C80.5577 23.6696 80.3797 23.6393 78.1117 23.6123L76.1551 23.5889V27.2254ZM83.2646 27.2248V30.862L84.9822 30.8599C87.2674 30.8572 87.7592 30.7697 88.3102 30.2675C88.8601 29.7665 88.961 29.2259 88.9256 26.9729C88.9045 25.6298 88.8813 25.2831 88.7956 25.0207C88.5752 24.3465 88.2135 23.9924 87.5115 23.763C87.1476 23.6441 86.9732 23.6327 85.1913 23.611L83.2646 23.5876V27.2248ZM79.6757 25.0423C79.8978 25.1559 79.9189 25.225 79.9189 25.8401C79.9189 26.6354 79.9203 26.6345 78.7594 26.658L77.8279 26.677V25.8164V24.9559H78.6673C79.2871 24.9559 79.5508 24.9785 79.6757 25.0423ZM86.8326 25.0546C87.1891 25.2219 87.2077 25.3308 87.2077 27.2535C87.2077 28.1979 87.1821 29.0309 87.1506 29.1128C87.0334 29.4175 86.8467 29.4723 85.8513 29.4941L84.9374 29.5142V27.235V24.9559H85.7797C86.4433 24.9559 86.6668 24.9768 86.8326 25.0546ZM54.766 26.7565C54.9964 27.5032 55.185 28.1344 55.185 28.1592C55.185 28.184 54.7788 28.2042 54.2824 28.2042C53.5854 28.2042 53.3862 28.1874 53.4076 28.1304C53.4229 28.0898 53.6171 27.4586 53.8392 26.7277C54.2518 25.3702 54.2967 25.2433 54.3288 25.3427C54.3388 25.3736 54.5356 26.0098 54.766 26.7565ZM72.0567 26.7383C72.2739 27.4426 72.4677 28.0605 72.4874 28.1115C72.5192 28.1933 72.4166 28.2042 71.6209 28.2042C71.0808 28.2042 70.7184 28.1813 70.7184 28.1472C70.7184 28.1159 70.9066 27.4752 71.1366 26.7235C71.3666 25.9718 71.5556 25.3397 71.5566 25.3188C71.5626 25.1941 71.7075 25.6055 72.0567 26.7383ZM52.4707 32.5093C52.0635 32.651 51.6749 33.0025 51.4877 33.3984C51.3517 33.6858 51.3325 33.8032 51.332 34.3466C51.3314 35.0801 51.4068 35.3329 51.7291 35.6786C52.1105 36.0877 52.4403 36.193 53.4225 36.2196C54.4018 36.2461 54.4923 36.2605 54.6488 36.4152C54.7433 36.5087 54.7668 36.6124 54.7668 36.9373C54.7668 37.4134 54.6546 37.6035 54.3066 37.717C54.0257 37.8086 52.9423 37.7587 52.2874 37.6239C52.0245 37.5698 51.7861 37.5212 51.7575 37.5159C51.7121 37.5075 51.2803 38.6599 51.3172 38.6911C51.3251 38.6977 51.5197 38.7444 51.7497 38.7948C52.4368 38.9454 53.3731 39.029 54.0145 38.9969C55.0976 38.9427 55.7645 38.6258 56.11 38.0012C56.2634 37.7241 56.289 37.6088 56.3103 37.0981C56.3395 36.3996 56.2578 35.9878 56.0194 35.632C55.6799 35.1254 55.0897 34.9372 53.8402 34.9372C53.1592 34.9372 53.1068 34.9288 52.9848 34.8005C52.8815 34.6917 52.855 34.5919 52.855 34.3116C52.855 33.6491 53.0629 33.5515 54.2908 33.6375C54.7333 33.6685 55.2701 33.7103 55.4837 33.7305L55.872 33.7673L56.0918 33.1971C56.242 32.8074 56.2893 32.6193 56.2412 32.6028C56.0043 32.5217 54.419 32.3984 53.6615 32.4022C52.9728 32.4057 52.6971 32.4305 52.4707 32.5093ZM70.344 32.4618C69.8057 32.5872 69.4427 32.8794 69.2131 33.3721C69.08 33.6575 69.0748 33.7306 69.0555 35.5573C69.0337 37.6258 69.0603 37.881 69.344 38.3232C69.755 38.9639 70.9105 39.1698 72.5454 38.8935C73.3694 38.7542 73.7056 38.6629 73.7056 38.5784C73.7056 38.5449 73.6321 38.2945 73.5423 38.022C73.3878 37.5528 73.3712 37.5283 73.2287 37.5586C73.1459 37.5762 72.8766 37.6338 72.6302 37.6865C72.3837 37.7393 71.9122 37.7868 71.5823 37.792C70.9205 37.8027 70.7061 37.7262 70.5962 37.4404C70.5648 37.3588 70.5391 36.5886 70.5391 35.7288C70.5391 33.9356 70.5626 33.8147 70.9403 33.6577C71.1975 33.5508 72.1356 33.5718 72.9194 33.7022C73.2691 33.7603 73.3673 33.7601 73.404 33.7015C73.4644 33.6049 73.6694 32.6374 73.6364 32.6048C73.6224 32.591 73.2948 32.5387 72.9084 32.4887C72.1552 32.391 70.7128 32.376 70.344 32.4618ZM57.5747 35.705V38.9534H58.3215H59.0683V37.719V36.4847L60.069 36.4597C61.1469 36.4328 61.483 36.3615 61.8619 36.0794C62.228 35.8068 62.318 35.5383 62.3438 34.6421C62.3712 33.6868 62.2998 33.3018 62.0411 33.0105C61.6188 32.535 61.2091 32.4566 59.1469 32.4566H57.5747V35.705ZM63.444 35.6902L63.4595 38.9238L65.685 38.9393L67.9104 38.9548V38.3339V37.7131H66.4168H64.9232V36.9453V36.1775H66.2349H67.5465L67.5781 35.9855C67.5955 35.8799 67.6371 35.6359 67.6705 35.4431C67.7039 35.2504 67.7312 35.0577 67.7312 35.0149C67.7312 34.9529 67.4483 34.9372 66.3272 34.9372H64.9232V34.3171V33.6969H66.3489H67.7746L67.8452 33.2392C67.884 32.9875 67.9301 32.7084 67.9477 32.6191L67.9797 32.4566H65.7041H63.4286L63.444 35.6902ZM74.9004 35.705V38.9534H75.6472H76.394V35.705V32.4566H75.6472H74.9004V35.705ZM78.521 35.6314C77.9 37.3773 77.3796 38.839 77.3645 38.8795C77.3434 38.9364 77.5306 38.9534 78.1782 38.9534H79.0193L79.2049 38.3628L79.3905 37.7721H80.4846H81.5787L81.7794 38.348L81.9801 38.9238L82.8016 38.9403C83.2534 38.9493 83.6231 38.9449 83.6231 38.9305C83.6231 38.916 83.1122 37.4639 82.4879 35.7035C81.8636 33.943 81.3528 32.4923 81.3528 32.4796C81.3528 32.467 80.9697 32.4568 80.5014 32.4569L79.6501 32.4571L78.521 35.6314ZM84.5336 35.6902L84.5491 38.9238L86.7745 38.9393L89 38.9548V38.3339V37.7131H87.5363H86.0725V35.0849V32.4566H85.2953H84.5182L84.5336 35.6902ZM60.4707 33.6951C60.6012 33.725 60.7424 33.7959 60.7843 33.8526C60.8767 33.9775 60.8887 34.893 60.8002 35.0566C60.7119 35.2198 60.3728 35.2909 59.6807 35.2912L59.0683 35.2916V34.4647V33.6379L59.6508 33.6393C59.9712 33.64 60.3401 33.6651 60.4707 33.6951ZM80.9273 35.3318C81.1285 35.9873 81.293 36.5388 81.293 36.5573C81.293 36.5758 80.9283 36.5909 80.4825 36.5909C79.738 36.5909 79.6745 36.5825 79.7043 36.4876C79.922 35.7928 80.457 34.0278 80.4584 33.9997C80.4643 33.8807 80.6034 34.2758 80.9273 35.3318ZM54.5577 40.4086C53.5022 40.5178 51.5804 40.8227 51.258 40.9319C51.2064 40.9494 51.2914 41.2595 51.544 41.9752C51.7418 42.5353 51.9141 43.0041 51.9271 43.017C51.9402 43.0299 52.2873 42.9835 52.6986 42.9139C54.4015 42.626 55.6602 42.5413 56.1673 42.6805C56.2969 42.716 56.4783 42.825 56.5706 42.9226C56.727 43.0881 56.7383 43.1338 56.7383 43.5988C56.7383 44.1595 56.6621 44.3655 56.3815 44.563C56.2829 44.6324 55.5364 45.0361 54.7227 45.46C53.909 45.8839 53.0676 46.3457 52.8529 46.4861C52.3645 46.8057 51.8102 47.3748 51.6596 47.7112C51.373 48.3518 51.3457 48.5775 51.3168 50.5441L51.2893 52.4193H55.4476H59.606V51.3267V50.234H56.8191H54.0323L54.0658 49.6781C54.1015 49.0882 54.2383 48.6757 54.4859 48.4124C54.7092 48.1748 55.0464 47.9725 56.4662 47.2243C58.0492 46.3901 58.3856 46.1759 58.8078 45.7336C59.3433 45.1726 59.5437 44.5896 59.5448 43.5897C59.546 42.4927 59.3494 41.8494 58.8498 41.316C58.2287 40.6527 57.4842 40.4237 55.872 40.3998C55.2806 40.391 54.6891 40.3949 54.5577 40.4086ZM64.6115 40.4624C62.9623 40.7163 62.0391 41.4748 61.6678 42.8809C61.5218 43.434 61.4608 44.4957 61.4608 46.4837C61.4608 48.4717 61.5218 49.5333 61.6678 50.0864C62.0566 51.559 63.0543 52.3099 64.9217 52.5354C66.4537 52.7203 68.1743 52.5179 69.0726 52.0469C69.7963 51.6673 70.2559 51.0643 70.5479 50.1107C70.6774 49.6878 70.6828 49.575 70.7044 46.779C70.7282 43.6872 70.7045 43.2972 70.447 42.5488C70.0313 41.3406 69.139 40.6958 67.552 40.4569C66.8482 40.351 65.3167 40.3539 64.6115 40.4624ZM75.4877 40.7092C73.5771 42.0039 72.0327 43.1205 72.059 43.1882C72.0874 43.2615 73.0679 44.6523 73.1665 44.7594C73.1906 44.7856 73.6846 44.4999 74.2642 44.1245C74.8439 43.7491 75.3317 43.442 75.3483 43.442C75.3648 43.442 75.3784 45.4619 75.3784 47.9307V52.4193H76.7528H78.1272L78.112 46.4689L78.0967 40.5185L76.9566 40.5025L75.8164 40.4865L75.4877 40.7092ZM80.3041 40.5645C80.2878 40.6064 80.2818 41.1049 80.2908 41.6722L80.3073 42.7037L83.0704 42.7191C84.5902 42.7275 85.8336 42.7461 85.8336 42.7603C85.8336 42.7745 84.8388 44.9406 83.6231 47.5739C82.4073 50.2072 81.4125 52.3751 81.4125 52.3915C81.4125 52.4079 82.0891 52.4142 82.916 52.4055L84.4194 52.3898L86.6795 47.3105L88.9396 42.2313L88.925 41.3749L88.9104 40.5185L84.622 40.5033C81.1615 40.4911 80.328 40.5029 80.3041 40.5645ZM67.3256 42.7226C67.5574 42.8356 67.6364 42.9188 67.7737 43.1951L67.9403 43.5306V46.4541C67.9403 49.724 67.9376 49.7473 67.5194 50.1102C67.2527 50.3418 67.0333 50.3817 66.0267 50.3817C65.2464 50.3817 65.1682 50.3714 64.8939 50.2317C64.6652 50.1153 64.5654 50.0166 64.4476 49.7904L64.2959 49.4989V46.4852V43.4715L64.4453 43.1772C64.7067 42.662 65.0109 42.5579 66.2077 42.5742C66.9481 42.5843 67.0764 42.6013 67.3256 42.7226Z" fill="white"/>
</svg>
