<svg width="100" height="60" viewBox="0 0 100 60" fill="none" xmlns="http://www.w3.org/2000/svg">
<path fill-rule="evenodd" clip-rule="evenodd" d="M20.5924 7.34527C20.5924 8.15548 20.935 9.49104 21.3753 10.3973C22.2783 12.256 24.0529 13.8134 26.0087 14.4635C26.106 14.4959 26.1137 14.6482 26.1137 16.5379C26.1137 17.6596 26.1004 18.5774 26.0842 18.5774C25.8969 18.5774 24.3184 18.9283 23.683 19.1111C20.7182 19.9643 18.1345 21.5028 15.9393 23.7222C13.3172 26.3733 11.7444 29.5261 11.1402 33.3428C11.0055 34.1936 10.9551 36.2652 11.0459 37.2162C11.3716 40.6255 12.6711 43.7903 14.8451 46.4687C15.47 47.2386 16.7858 48.5346 17.5592 49.1419C24.4456 54.5499 34.2225 54.2416 40.7173 48.4116C43.8072 45.6378 45.7446 41.9657 46.3148 37.8019C46.4568 36.765 46.4581 34.6696 46.3175 33.6183C45.5816 28.1195 42.4125 23.4514 37.5465 20.6989C35.9431 19.792 33.6822 18.9772 31.9952 18.6982C31.7806 18.6628 31.544 18.6205 31.4692 18.6042L31.3334 18.5747L31.3492 16.5347L31.365 14.4946L31.9051 14.2705C33.6128 13.5623 35.161 12.1485 35.9848 10.545C36.4235 9.69114 36.776 8.38972 36.8088 7.50332L36.8263 7.03083L34.3577 7.01542L31.8891 7L31.8472 7.33039C31.714 8.37909 31.0777 9.25255 30.1047 9.72221C29.1756 10.1706 28.2482 10.1767 27.3233 9.74052C26.4485 9.32797 25.7593 8.43868 25.6199 7.54266C25.5862 7.32614 25.5494 7.11576 25.538 7.07513C25.5219 7.0176 24.9738 7.0013 23.0549 7.0013H20.5924V7.34527ZM51.8556 7.0779C51.1816 7.26702 50.798 7.64046 50.6324 8.26876C50.4975 8.78065 50.4979 11.7439 50.633 12.1915C50.7394 12.5439 51.0547 12.9219 51.3757 13.0816C52.1322 13.4581 53.7998 13.3729 55.0557 12.8936L55.4008 12.7619V11.1514V9.54095H54.1104H52.8201V10.102V10.6631H53.3903H53.9604V11.336C53.9604 11.908 53.9455 12.0145 53.861 12.0465C53.8062 12.0671 53.5024 12.1127 53.1858 12.1477C52.5133 12.2221 52.1846 12.1509 52.0575 11.9034C52.0026 11.7965 51.9814 11.3541 51.9808 10.3014C51.9799 8.71946 51.9966 8.546 52.1669 8.36604C52.4186 8.10014 52.8795 8.08472 54.712 8.28087L55.0134 8.31312L55.1218 7.79969C55.1815 7.51732 55.2134 7.26979 55.1929 7.24954C55.023 7.08233 52.333 6.94395 51.8556 7.0779ZM56.7811 10.1619V13.2633L58.9266 13.2478L61.0721 13.2323L61.0893 12.6564L61.1064 12.0806H59.6639H58.2214V11.3435V10.6065L59.4667 10.5905L60.712 10.5745L60.7833 10.1316C60.8224 9.88793 60.8562 9.62877 60.8583 9.55571L60.8621 9.42282H59.5417H58.2214V8.83221V8.24159H59.569H60.9166L60.9484 8.04964C60.9658 7.94404 61.0076 7.7 61.0411 7.50722C61.0747 7.3145 61.1021 7.13507 61.1021 7.10856C61.1021 7.08204 60.1299 7.06036 58.9416 7.06036H56.7811V10.1619ZM62.3624 10.1563V13.2618H63.0826H63.8028V12.0215V10.7812H64.2081H64.6134L65.1862 12.0068L65.7589 13.2323L66.5512 13.2488C67.0968 13.2601 67.3436 13.2451 67.3436 13.2004C67.3436 13.1647 67.0459 12.569 66.6821 11.8765C66.0465 10.6669 66.0259 10.6162 66.1569 10.5833C66.3722 10.5292 66.7348 10.2021 66.877 9.93388C66.9781 9.74317 67.0126 9.55565 67.0318 9.0909C67.0645 8.30201 66.952 7.89968 66.6024 7.55565C66.1838 7.1437 65.963 7.10241 64.0278 7.07459L62.3624 7.05062V10.1563ZM68.3783 10.1447L68.3939 13.2323H69.084H69.7742L69.8042 11.2863L69.8342 9.34037L70.4857 10.6957C70.8441 11.4411 71.1755 12.1109 71.2223 12.184C71.2978 12.302 71.3563 12.3168 71.7461 12.3168H72.185L72.8911 10.8551C73.2795 10.0511 73.6215 9.36807 73.6512 9.33718C73.6832 9.30393 73.7051 10.0913 73.7051 11.2715V13.2618H74.3953H75.0855V10.1595V7.05723L74.2062 7.07353L73.3271 7.08989L72.5409 8.75744C72.1084 9.67454 71.7412 10.4248 71.7247 10.4246C71.7082 10.4245 71.3428 9.67413 70.9128 8.75714L70.131 7.08989L69.2469 7.07353L68.3628 7.05717L68.3783 10.1447ZM78.1748 7.13419C77.794 8.15235 76.0457 13.1149 76.0457 13.1775C76.0457 13.2515 76.1662 13.2628 76.8109 13.2488L77.5761 13.2323L77.7628 12.7007L77.9495 12.1692L79.0058 12.1531L80.0622 12.1369L80.2351 12.6846L80.408 13.2323L81.1976 13.2488C81.6318 13.2578 81.9871 13.2474 81.9871 13.2254C81.9871 13.2036 81.497 11.8075 80.8981 10.123L79.809 7.06036H79.0057C78.4178 7.06036 78.195 7.08015 78.1748 7.13419ZM82.9148 7.13419C82.899 7.17482 82.8931 8.56348 82.9017 10.2202L82.9173 13.2323H83.6075H84.2977L84.3277 11.3544L84.3577 9.47663L85.3729 11.2068C85.9313 12.1584 86.4401 13.0109 86.5036 13.1012L86.619 13.2655L87.3188 13.2489L88.0186 13.2323V10.1611V7.08989L87.3142 7.07324L86.6099 7.05664L86.5941 8.93007L86.5782 10.8034L85.4385 8.9319L84.2987 7.06036H83.6212C83.1344 7.06036 82.9355 7.08115 82.9148 7.13419ZM65.4559 8.38659C65.5842 8.5128 65.6032 8.5848 65.6032 8.94437C65.6032 9.29354 65.5813 9.38225 65.4609 9.51998C65.3222 9.67862 65.2996 9.68334 64.5607 9.70756L63.8028 9.73237V8.98701V8.24159H64.5556C65.275 8.24159 65.3151 8.24803 65.4559 8.38659ZM79.3705 9.65907C79.5569 10.26 79.7241 10.7982 79.742 10.8551C79.7719 10.9497 79.7112 10.9584 79.0204 10.9584C78.6056 10.9584 78.2662 10.9343 78.2662 10.9049C78.2662 10.8594 78.8731 8.84437 78.9598 8.60228C78.976 8.55704 78.9988 8.53046 79.0105 8.54322C79.0221 8.55598 79.1842 9.05812 79.3705 9.65907ZM66.0306 14.6277C65.3011 14.747 64.8003 15.0904 64.51 15.6705C64.319 16.0522 64.3129 16.0873 64.3129 16.8041C64.3129 17.6694 64.4042 17.9807 64.7737 18.3753C65.1752 18.8039 65.4686 18.8894 66.6835 18.932C67.8641 18.9734 68.0629 19.0292 68.1773 19.3522C68.2725 19.621 68.2594 20.0334 68.1482 20.2639C67.9936 20.5846 67.6668 20.7036 66.9406 20.7036C66.4262 20.7036 65.2888 20.5571 64.8447 20.4336C64.7274 20.401 64.6973 20.4545 64.4934 21.0565C64.3708 21.4187 64.2825 21.7269 64.2973 21.7415C64.3538 21.7971 65.4191 21.9981 65.9759 22.0582C68.197 22.2978 69.5062 21.818 69.8729 20.6299C69.9785 20.2876 69.9947 20.1129 69.973 19.5532C69.9495 18.9489 69.9287 18.8488 69.7552 18.5018C69.5418 18.0751 69.2987 17.8591 68.8219 17.6722C68.5657 17.5718 68.3473 17.548 67.5237 17.5309C66.3756 17.507 66.3075 17.4969 66.145 17.3252C66.0472 17.2219 66.0233 17.1169 66.0233 16.7905C66.0233 15.8939 66.1829 15.8595 69.084 16.1298L69.4741 16.1662L69.7078 15.5348C69.8865 15.0516 69.9236 14.8926 69.8655 14.8573C69.7272 14.7732 67.3508 14.5582 66.6835 14.5694C66.5019 14.5725 66.2081 14.5987 66.0306 14.6277ZM76.7959 14.5993C75.6552 14.7287 75.0403 15.1546 74.7691 16.0032C74.6414 16.4027 74.6354 16.5151 74.6356 18.4888C74.6358 20.5207 74.6382 20.5618 74.7768 20.9004C75.0308 21.5211 75.4522 21.8633 76.1666 22.029C77.1275 22.2519 78.9003 22.0602 80.0437 21.6097L80.4267 21.4588V19.5456V17.6324H78.8964H77.366V18.3116V18.9908H78.0562H78.7463V19.7839V20.5771L78.4013 20.6538C78.2115 20.696 77.753 20.7311 77.3825 20.7318C76.7256 20.7331 76.7047 20.729 76.5423 20.5695L76.3758 20.4057L76.3593 18.5909C76.3405 16.5262 76.367 16.3346 76.7021 16.1123C76.8838 15.9918 76.9751 15.9787 77.6299 15.9785C78.0294 15.9784 78.7019 16.0214 79.1243 16.0741C79.5467 16.1268 79.9082 16.1543 79.9275 16.1352C79.9718 16.0916 80.2577 14.9067 80.2304 14.8799C80.1875 14.8376 78.9785 14.6813 78.2425 14.6227C77.4885 14.5628 77.1643 14.5575 76.7959 14.5993ZM50.6596 18.3447V22.01L52.7151 21.989C54.9921 21.9657 55.1193 21.9478 55.6802 21.5693C56.0763 21.3021 56.3385 20.7957 56.4281 20.125C56.5288 19.3703 56.4661 16.5058 56.3404 16.1214C56.1431 15.5179 55.7225 15.0848 55.1491 14.8945C54.6224 14.7198 54.1125 14.6802 52.385 14.6798L50.6596 14.6793V18.3447ZM57.9214 18.3411V22.0029H60.472H63.0226V21.3237V20.6445H61.3122H59.6018V19.7891V18.9338L61.0871 18.918L62.5725 18.9022L62.6736 18.3116C62.7293 17.9868 62.7766 17.6745 62.7787 17.6176C62.7822 17.5217 62.6682 17.5143 61.1921 17.5143H59.6018V16.8055V16.0968H61.2167H62.8317L62.9011 15.6686C62.9393 15.433 62.9921 15.1142 63.0184 14.9598L63.0662 14.6793H60.4937H57.9214V18.3411ZM71.4246 18.3411V22.0029H72.2648H73.105V18.3411V14.6793H72.2648H71.4246V18.3411ZM81.9271 18.3411V22.0029H82.7666H83.6061L83.6218 19.7585L83.6375 17.514L84.9578 19.7579L86.2781 22.0019L87.1634 22.0024L88.0486 22.0029V18.3411V14.6793H87.2091H86.3696L86.3539 16.9347L86.3382 19.1902L84.9645 16.9347L83.591 14.6793H82.759H81.9271V18.3411ZM54.3228 16.1706C54.7189 16.3672 54.7333 16.4439 54.7372 18.3873C54.7399 19.726 54.7231 20.0988 54.6527 20.2646C54.5168 20.5848 54.2996 20.6445 53.2722 20.6445H52.4V18.3411V16.0377H53.2275C53.9663 16.0377 54.0837 16.052 54.3228 16.1706ZM30.8849 23.2686C31.6857 23.414 32.7184 23.6935 33.338 23.9325C37.7906 25.6501 40.897 29.5077 41.5054 34.0749C41.6222 34.9525 41.6236 36.449 41.5081 37.3116C40.8441 42.2769 37.2025 46.4088 32.2556 47.8099C31.0459 48.1525 30.2492 48.2523 28.7244 48.2523C27.1995 48.2523 26.4028 48.1525 25.1932 47.8099C20.8816 46.5887 17.5237 43.3099 16.3001 39.1262C16.1853 38.7338 16.0913 38.3746 16.0913 38.3281C16.0913 38.2559 16.4544 38.2458 18.5842 38.259L21.0769 38.2744L21.2766 38.7617C22.2861 41.2259 24.7203 43.0853 27.5223 43.5325C27.8204 43.5801 28.2195 43.6191 28.4093 43.6192L28.7544 43.6195V41.2097V38.7999L28.3056 38.7363C27.1 38.5654 26.0258 37.6344 25.7256 36.5005C25.6063 36.0494 25.608 35.2809 25.7294 34.8743C26.066 33.7466 27.0685 32.852 28.185 32.6829C28.4156 32.6479 28.6384 32.61 28.68 32.5988C28.7397 32.5825 28.7524 32.0682 28.74 30.1698L28.7244 27.7614L28.2743 27.7815C25.2472 27.9165 22.4059 29.9062 21.2395 32.7078L21.049 33.1656H18.5701C16.7997 33.1656 16.0913 33.1469 16.0913 33.1003C16.0913 33.0643 16.1331 32.8717 16.1842 32.6721C17.0874 29.1432 19.559 26.1181 22.873 24.4854C24.3536 23.7559 25.4909 23.4191 27.344 23.1613C27.8072 23.0969 30.3663 23.1744 30.8849 23.2686ZM51.302 27.0371C50.6155 28.9622 50.0385 30.5971 50.0197 30.6702L49.9855 30.8031H50.9123H51.8392L52.0446 30.1544L52.25 29.5056L53.4903 29.5047L54.7307 29.5038L54.9506 30.1534L55.1706 30.8031H56.0959C56.6048 30.8031 57.0208 30.7964 57.0203 30.7883C57.0198 30.7803 56.4419 29.1523 55.736 27.1708L54.4526 23.5681L53.5013 23.5525L52.5501 23.5369L51.302 27.0371ZM57.781 27.097C58.2206 29.0541 58.5932 30.6887 58.609 30.7293C58.6305 30.7846 58.913 30.8031 59.7375 30.8031H60.8372L61.4579 28.4554C61.7993 27.1642 62.0976 26.0563 62.1209 25.9936C62.1687 25.8643 62.1093 25.6632 62.9221 28.7064L63.4741 30.7736L64.57 30.7897C65.4619 30.8028 65.6719 30.7905 65.698 30.7236C65.7156 30.6784 66.087 29.0499 66.5233 27.1047L67.3167 23.5681L66.4215 23.5517C65.9292 23.5427 65.5155 23.546 65.5022 23.5592C65.489 23.5722 65.2732 24.7489 65.0229 26.1742C64.7725 27.5994 64.5506 28.7843 64.5297 28.8074C64.5089 28.8304 64.1834 27.7075 63.8063 26.312L63.1207 23.7748L62.1564 23.7753L61.1921 23.7757L60.5053 26.3235C60.0315 28.0808 59.8038 28.8366 59.7715 28.7593C59.7457 28.6977 59.5333 27.5444 59.2995 26.1963C59.0658 24.8482 58.8607 23.6987 58.844 23.6419C58.8166 23.5493 58.7182 23.5385 57.8976 23.5385H56.9818L57.781 27.097ZM69.7875 23.7896C69.6328 24.2306 67.3514 30.5962 67.3097 30.7033C67.2724 30.7989 67.3372 30.805 68.2195 30.7899L69.1695 30.7736L69.3753 30.1387L69.5811 29.5038H70.8199H72.0588L72.2708 30.1387L72.4828 30.7736L73.394 30.7899C74.0209 30.8011 74.3053 30.7861 74.3053 30.7419C74.3053 30.7065 73.7336 29.0714 73.0348 27.1081L71.7643 23.5385H70.8199H69.8755L69.7875 23.7896ZM75.3855 27.1708V30.8031H76.2257H77.0659V29.3537V27.9043L77.5511 27.9215L78.0362 27.9386L78.7031 29.3709L79.3699 30.8031H80.3184C80.8401 30.8031 81.2669 30.793 81.2669 30.7807C81.2669 30.7684 80.9159 30.0915 80.4868 29.2765C80.0577 28.4615 79.7066 27.7831 79.7066 27.7689C79.7066 27.7548 79.8498 27.6636 80.0248 27.5664C80.6464 27.2211 80.8602 26.7777 80.8702 25.8124C80.8815 24.7159 80.6074 24.1322 79.9301 23.81C79.4546 23.584 78.9923 23.5395 77.1109 23.539L75.3855 23.5385V27.1708ZM82.4672 27.1708V30.8031L84.1026 30.8013C85.0021 30.8003 85.9289 30.7751 86.1621 30.7452C87.3205 30.597 87.871 30.1645 88.0805 29.2381C88.1617 28.8785 88.1742 28.5063 88.1562 26.9851C88.1354 25.24 88.1285 25.148 87.9942 24.8154C87.8163 24.3747 87.5244 24.0563 87.1194 23.8613C86.582 23.6026 86.0318 23.5429 84.1626 23.5406L82.4672 23.5385V27.1708ZM79.0117 25.0697C79.1563 25.2035 79.1663 25.248 79.1645 25.7489C79.1616 26.5646 79.0959 26.6097 77.9101 26.6097H77.0659V25.7491V24.8885L77.9615 24.9075C78.8136 24.9255 78.8646 24.9335 79.0117 25.0697ZM86.0353 24.9806C86.4458 25.1494 86.456 25.1981 86.4773 27.0866C86.5039 29.4513 86.5325 29.4027 85.0957 29.4354L84.2076 29.4555V27.1763V24.897H85.0198C85.5846 24.897 85.8938 24.9224 86.0353 24.9806ZM53.9534 26.6635C54.1883 27.424 54.3805 28.0684 54.3805 28.0957C54.3805 28.123 53.9725 28.1453 53.4739 28.1453C52.6429 28.1453 52.5705 28.1369 52.6067 28.0443C52.6283 27.9887 52.8206 27.3707 53.0338 26.6711C53.47 25.2404 53.4749 25.2256 53.5047 25.2576C53.5166 25.2704 53.7185 25.9031 53.9534 26.6635ZM71.2765 26.6688C71.5006 27.3997 71.696 28.0309 71.7107 28.0715C71.7314 28.1285 71.5291 28.1453 70.8238 28.1453C69.9829 28.1453 69.9125 28.1371 69.9386 28.042C70.1627 27.227 70.7998 25.2637 70.8295 25.2964C70.8513 25.3203 71.0524 25.9379 71.2765 26.6688ZM50.1195 32.414C50.1195 32.4229 50.4436 33.8752 50.8397 35.6413C51.2358 37.4073 51.5598 38.8751 51.5598 38.9029C51.5598 38.9308 52.0177 38.9536 52.5773 38.9536H53.5947L53.6546 38.7399C53.6876 38.6223 53.9522 37.6278 54.2425 36.5298C54.5328 35.4319 54.7789 34.542 54.7893 34.5523C54.7998 34.5626 55.0701 35.5504 55.3901 36.7475L55.9719 38.9241L56.9722 38.9403C57.8858 38.955 57.9752 38.9473 58.0054 38.8517C58.0699 38.6465 59.4217 32.5695 59.4217 32.4844C59.4217 32.4125 59.2838 32.3978 58.6127 32.3978C57.8227 32.3978 57.8029 32.4009 57.7732 32.5307C57.7565 32.6038 57.5643 33.6868 57.346 34.9374C57.1277 36.1881 56.9417 37.2191 56.9325 37.2287C56.9234 37.2382 56.8703 37.0787 56.8146 36.8743C56.7589 36.6698 56.4783 35.6388 56.191 34.5831L55.6687 32.6636L54.7951 32.6473L53.9216 32.631L53.2965 34.9316C52.9526 36.1969 52.6627 37.2236 52.6521 37.2132C52.6331 37.1946 51.7999 32.5303 51.7999 32.4428C51.7999 32.418 51.4218 32.3978 50.9597 32.3978C50.4976 32.3978 50.1195 32.4051 50.1195 32.414ZM60.502 35.6757V38.9536H61.2822H62.0623V35.6757V32.3978H61.2822H60.502V35.6757ZM63.4827 32.4372C63.4607 32.4588 63.4427 33.9338 63.4427 35.7151V38.9536H64.1921H64.9415L64.9573 36.9393L64.973 34.925L66.1512 36.9245L67.3294 38.9241L68.1167 38.9406L68.904 38.957V35.6774V32.3978H68.1546H67.4052L67.3894 34.3911L67.3736 36.3844L66.155 34.3911L64.9364 32.3978H64.2296C63.8408 32.3978 63.5047 32.4155 63.4827 32.4372ZM70.3443 35.6739V38.9536H71.0645H71.7847V36.9337C71.7847 35.7298 71.8066 34.9365 71.8389 34.9699C71.8687 35.0008 72.4128 35.9097 73.0481 36.9898L74.2031 38.9536H74.9744H75.7456V35.6757V32.3978H74.9962H74.2469L74.231 34.387L74.2153 36.3762L73.0121 34.4017L71.809 32.4273L71.0767 32.4107L70.3443 32.3941V35.6739ZM77.186 35.6757V38.9536H79.4665H81.7471V38.3335V37.7133H80.2167H78.6863V36.9466V36.18L80.0216 36.1641L81.357 36.1482L81.4493 35.5576L81.5416 34.967L80.1139 34.9511L78.6863 34.9353V34.2877V33.6402L80.1398 33.6244L81.5932 33.6085L81.6656 33.1656C81.7053 32.9219 81.74 32.6495 81.7425 32.5602L81.7471 32.3978H79.4665H77.186V35.6757ZM83.0524 32.4317C83.0276 32.4564 83.0074 33.9338 83.0074 35.7151V38.9536H83.7875H84.5677V37.6543V36.3549L85.0028 36.3567L85.4379 36.3586L86.0371 37.6561L86.6361 38.9536H87.4988C88.1653 38.9536 88.3545 38.9368 88.3309 38.8798C88.314 38.8392 87.9911 38.2212 87.6133 37.5066L86.9264 36.2072L87.1587 36.0967C87.4588 35.9539 87.8281 35.5393 87.918 35.2441C87.9568 35.1166 87.9885 34.7307 87.9885 34.3864C87.9885 33.5973 87.8638 33.2261 87.4819 32.8797C87.0405 32.4793 86.832 32.4425 84.8378 32.4128C83.8806 32.3985 83.0771 32.407 83.0524 32.4317ZM86.3128 33.8107C86.4714 33.9668 86.4882 34.0209 86.4882 34.3747C86.4882 34.7847 86.3851 35.0729 86.2154 35.137C86.162 35.1571 85.7694 35.1737 85.343 35.1737H84.5677V34.4059V33.6381H85.3525H86.1373L86.3128 33.8107ZM53.8704 40.4336C53.0449 40.5003 52.1093 40.6333 51.142 40.8215C50.7307 40.9016 50.3894 40.9725 50.3836 40.9791C50.3516 41.0161 51.1344 43.0569 51.1777 43.0494C53.6488 42.6197 55.0545 42.5258 55.5138 42.7595C55.8521 42.9317 55.9409 43.1127 55.9409 43.6304C55.9409 44.1629 55.8608 44.3665 55.5658 44.5842C55.4585 44.6634 54.7901 45.0267 54.0804 45.3915C52.3302 46.2913 51.8337 46.592 51.4031 47.0133C50.9783 47.4289 50.8202 47.7056 50.6486 48.3344C50.5405 48.7304 50.5212 49.0159 50.495 50.6035L50.4649 52.4196H54.6432H58.8216V51.327V50.2344H56.0219H53.2223L53.2607 49.7176C53.3101 49.0539 53.3799 48.8191 53.6206 48.5083C53.8511 48.2106 54.0989 48.0582 55.8509 47.1376C56.577 46.756 57.3499 46.3108 57.5683 46.1482C58.4988 45.4555 58.8212 44.6628 58.7413 43.2634C58.6475 41.6182 57.9809 40.8406 56.391 40.5213C55.8277 40.4082 54.6797 40.3682 53.8704 40.4336ZM64.2589 40.4376C62.3084 40.6222 61.2687 41.3975 60.8542 42.9765C60.7328 43.4385 60.7223 43.6456 60.6977 46.0572C60.6648 49.2799 60.7269 49.9437 61.143 50.8148C61.353 51.2545 61.9844 51.8766 62.4295 52.0826C63.1485 52.4152 64.1704 52.5959 65.3331 52.5959C67.9453 52.5959 69.3148 51.8219 69.7731 50.0867C69.9234 49.5175 69.9823 48.5036 69.9823 46.484C69.9823 43.7123 69.8982 42.9667 69.4925 42.1429C69.2731 41.6975 68.7757 41.1872 68.3301 40.9506C67.4585 40.4877 65.859 40.2862 64.2589 40.4376ZM83.3595 40.4346C81.6176 40.6164 80.606 41.3745 80.2779 42.7439C80.1414 43.3138 80.1567 44.4566 80.3073 44.9364C80.4468 45.3808 80.8184 45.8323 81.2492 46.0807L81.5177 46.2356L81.1784 46.4148C80.7326 46.6502 80.2896 47.132 80.1279 47.5573C79.95 48.0253 79.8684 48.7429 79.9143 49.437C79.9857 50.5169 80.2161 51.0929 80.7839 51.6102C81.6144 52.3668 82.8242 52.6503 84.9245 52.5803C86.6834 52.5217 87.6366 52.2087 88.314 51.4673C88.8833 50.8441 89.0269 50.3067 88.9961 48.9149C88.9765 48.0311 88.9562 47.858 88.837 47.562C88.6626 47.129 88.2158 46.6464 87.7728 46.4125L87.4291 46.2311L87.6282 46.1297C87.986 45.9476 88.3846 45.5259 88.5642 45.1394C88.716 44.8126 88.7378 44.6902 88.7581 44.0515C88.7864 43.1582 88.6987 42.6261 88.4335 42.0815C88.0738 41.343 87.3779 40.8169 86.4506 40.5826C85.6853 40.3893 84.3887 40.3272 83.3595 40.4346ZM73.1914 41.7909C72.2031 42.4743 71.3605 43.0669 71.3188 43.1078C71.2579 43.1676 71.3562 43.3402 71.8225 43.9914C72.1412 44.4365 72.4183 44.8004 72.4383 44.8001C72.4584 44.7997 72.9474 44.4955 73.5251 44.1241L74.5753 43.4488L74.5907 47.9342L74.6061 52.4196H75.986H77.366V46.484V40.5483H76.1771H74.9882L73.1914 41.7909ZM66.5556 42.7474C66.7614 42.8517 66.8664 42.9577 66.9812 43.1772L67.1336 43.4686V46.4824V49.4961L66.9835 49.7914C66.8635 50.0277 66.7735 50.1162 66.5334 50.2344C66.2519 50.3729 66.1758 50.382 65.3031 50.3816C64.458 50.3811 64.35 50.369 64.1229 50.25C63.8347 50.0989 63.6668 49.8904 63.5635 49.5552C63.4664 49.2402 63.4103 45.0808 63.4901 44.1107C63.6007 42.7652 63.9111 42.534 65.5377 42.5855C66.1716 42.6056 66.3229 42.6296 66.5556 42.7474ZM85.565 42.7077C85.9155 42.9654 85.9764 43.1101 85.9985 43.7359C86.0249 44.4841 85.9094 44.7846 85.518 44.9865C85.287 45.1056 85.1706 45.1209 84.4777 45.1224C83.7773 45.1239 83.671 45.1102 83.438 44.9885C83.0716 44.797 82.9503 44.5122 82.9487 43.8391C82.9472 43.2769 83.0261 43.0082 83.254 42.7993C83.4726 42.5988 83.697 42.5606 84.5785 42.5737C85.3025 42.5845 85.4189 42.6002 85.565 42.7077ZM85.59 47.4384C85.9211 47.5847 86.1672 47.8597 86.2307 48.1542C86.2568 48.2751 86.278 48.6796 86.2778 49.0531C86.2774 49.8885 86.1858 50.0855 85.7024 50.2902C85.4223 50.4088 85.3167 50.4177 84.3975 50.4006C83.5207 50.3843 83.3679 50.3667 83.1574 50.2581C82.8217 50.0849 82.7022 49.8525 82.6637 49.2979C82.5524 47.7021 82.9803 47.2601 84.5977 47.3003C85.1649 47.3144 85.3757 47.3437 85.59 47.4384Z" fill="white"/>
</svg>
