<svg width="80" height="49" viewBox="0 0 80 49" fill="none" xmlns="http://www.w3.org/2000/svg">
<path fill-rule="evenodd" clip-rule="evenodd" d="M9.89014 0.552273C9.86717 0.740514 9.91853 1.3351 10.0052 1.88308C10.3301 3.93763 11.5913 5.94203 13.3302 7.16758C13.8303 7.52002 15.0477 8.16276 15.3774 8.24851C15.5315 8.28858 15.532 8.29412 15.532 10.4135V12.5383L15.0861 12.6246C14.841 12.6722 14.2391 12.8086 13.7487 12.9277C8.71146 14.1514 4.3009 17.6303 1.94389 22.2392C0.959378 24.1642 0.426746 25.8894 0.0935572 28.2325C-0.0653691 29.3502 -0.014082 32.0227 0.188856 33.1974C0.855305 37.0553 2.53402 40.2889 5.2904 43.0241C8.08117 45.7934 11.2611 47.4292 15.2466 48.1459C16.1921 48.3159 16.4464 48.3321 18.2069 48.3346C19.8893 48.3371 20.2501 48.3173 21.0601 48.178C23.0491 47.836 24.6631 47.3275 26.303 46.5263C28.1711 45.6134 29.518 44.6698 31.0015 43.2343C33.8899 40.4394 35.5962 37.2199 36.302 33.2329C36.446 32.4201 36.4652 32.0798 36.4643 30.3603C36.4634 28.657 36.4431 28.2975 36.304 27.5233C35.623 23.732 34.0414 20.5972 31.4767 17.9559C28.8444 15.2449 25.5444 13.458 21.7735 12.702C21.3811 12.6233 21.0356 12.5587 21.0056 12.5583C20.9756 12.5579 20.9596 11.5953 20.9699 10.4192L20.9888 8.28078L21.2385 8.19475C22.0683 7.90898 23.2405 7.1912 23.9848 6.51306C25.1428 5.45795 26.1848 3.63562 26.4435 2.21303C26.5739 1.49568 26.6569 0.717108 26.6145 0.607313C26.5785 0.514327 26.2374 0.5 24.0558 0.5H21.5384L21.456 0.978758C21.2865 1.96238 20.5595 2.93039 19.6692 3.35801C18.4107 3.96245 16.8813 3.6903 15.9231 2.69144C15.4551 2.20353 15.1231 1.54405 15.0491 0.955353L14.9964 0.535464L12.4466 0.51681C11.0442 0.506596 9.89378 0.522555 9.89014 0.552273ZM41.9246 0.633911C41.4049 0.817612 40.978 1.27559 40.8442 1.79314C40.707 2.32382 40.7081 5.52781 40.8456 5.92593C41.0017 6.37781 41.2678 6.6713 41.7027 6.8711C42.0677 7.03885 42.1812 7.05466 42.9945 7.0514C43.9709 7.04743 44.9598 6.86926 45.4853 6.60271L45.7765 6.45498V4.78968V3.12431H44.4568H43.1372V3.72719V4.33007H43.7079H44.2785V5.03104C44.2785 5.85011 44.3434 5.79407 43.313 5.86528C42.6937 5.90812 42.6602 5.90281 42.4571 5.72882L42.2456 5.54782V3.83365V2.11955L42.4899 1.90258L42.7342 1.68555L43.6668 1.73208C44.1798 1.75768 44.7654 1.79797 44.9683 1.82159L45.3371 1.86457L45.4157 1.59015C45.4589 1.43915 45.5133 1.1853 45.5364 1.02593L45.5787 0.736258L45.0534 0.6454C44.7645 0.595467 44.0306 0.541279 43.4225 0.524966C42.4581 0.499077 42.2668 0.51298 41.9246 0.633911ZM47.2031 3.79911V7.02736L49.3965 7.00856L51.59 6.98984V6.38695V5.78407L50.1277 5.74861L48.6654 5.71315V5.00387V4.2946L49.9475 4.25914L51.2296 4.22368L51.2756 3.93997C51.3009 3.78393 51.3421 3.52128 51.3672 3.35638L51.4129 3.05643L50.0391 3.03721L48.6654 3.01791V2.41503V1.81215L50.0658 1.79293L51.4661 1.77378L51.5459 1.24034C51.5898 0.946982 51.6256 0.676397 51.6256 0.638947C51.6256 0.597029 50.7782 0.570927 49.4144 0.570927H47.2031V3.79911ZM52.9267 3.77414L52.9453 6.98984H53.6586H54.3719L54.4076 5.71315L54.4432 4.43646L54.8418 4.41553L55.2404 4.39461L55.8002 5.62129C56.108 6.29595 56.3899 6.88791 56.4267 6.93664C56.4954 7.02757 57.9766 7.0702 58.0634 6.98374C58.0865 6.9609 57.8029 6.35958 57.4334 5.64754C57.0639 4.9355 56.7615 4.33326 56.7615 4.30936C56.7615 4.28538 56.8756 4.2119 57.0152 4.14608C57.5744 3.88223 57.7932 3.34106 57.7447 2.34113C57.7007 1.43099 57.5233 1.10026 56.9221 0.806689L56.5118 0.606391L54.71 0.582416L52.9081 0.558373L52.9267 3.77414ZM59.1481 0.659586C59.1293 0.708384 59.1223 2.1526 59.1325 3.86904L59.1511 6.98984H59.8644H60.5777L60.6134 4.97756L60.6491 2.96536L61.3267 4.3651C61.6994 5.13495 62.0147 5.80904 62.0274 5.86309C62.058 5.99338 62.2927 6.04608 62.7224 6.01899C63.033 5.99948 63.0869 5.97168 63.1813 5.7823C63.2402 5.66428 63.5772 4.96813 63.9303 4.23531L64.5723 2.9028L64.608 4.94635L64.6436 6.98984L65.3391 7.01012L66.0346 7.03041V3.79854V0.566672L65.1311 0.586531L64.2275 0.606391L63.7515 1.63483C63.4897 2.20048 63.1228 2.98245 62.9364 3.37255L62.5973 4.08182L62.335 3.54987C62.1907 3.25729 61.819 2.46738 61.509 1.79442L60.9454 0.570927H60.0639C59.4244 0.570927 59.1729 0.595255 59.1481 0.659586ZM69.1143 0.978758C68.9524 1.42624 68.3196 3.21353 67.5295 5.45504C67.2174 6.34057 67.0461 6.92458 67.0866 6.96487C67.1229 7.00097 67.4848 7.0214 67.8909 7.01019L68.6292 6.98984L68.8209 6.42242L69.0126 5.855L70.0829 5.8355L71.153 5.81592L71.3579 6.40291L71.5628 6.98984L72.3055 7.01019C72.7141 7.0214 73.0762 7.00281 73.1103 6.96891C73.1453 6.93409 72.9869 6.38603 72.7457 5.70733C72.2019 4.17772 71.1127 1.10288 71.008 0.80144L70.9278 0.570927H70.0948H69.2619L69.1143 0.978758ZM74.1426 0.618235C74.1164 0.644194 74.095 2.0799 74.095 3.80861V6.95168L74.2558 6.99175C74.3442 7.01388 74.6732 7.02246 74.9869 7.0109L75.5573 6.98984L75.5947 5.00387C75.6153 3.9116 75.6393 3.05373 75.6482 3.0975C75.667 3.19027 77.665 6.62832 77.8395 6.8682C77.9503 7.02055 77.9989 7.02913 78.6476 7.01005L79.3379 6.98984L79.3564 3.78038L79.375 0.570927H78.661H77.9469V2.49014C77.9469 3.54568 77.921 4.39348 77.8894 4.37404C77.8578 4.35454 77.3222 3.49093 76.6992 2.45482L75.5665 0.570927H74.8783C74.4998 0.570927 74.1687 0.592205 74.1426 0.618235ZM56.1611 1.94982C56.2237 2.03508 56.2622 2.26254 56.2622 2.5471C56.2622 3.23141 56.2117 3.26616 55.2168 3.26616H54.4076V2.51532V1.76449L55.2338 1.78832C55.953 1.80903 56.0731 1.82996 56.1611 1.94982ZM70.5107 3.40801L70.8621 4.57831L70.1152 4.59853C69.7044 4.60966 69.3566 4.60704 69.3422 4.59271C69.3278 4.57838 69.4838 4.01962 69.6889 3.35106C69.894 2.68243 70.0837 2.15842 70.1105 2.18658C70.1374 2.21466 70.3174 2.76435 70.5107 3.40801ZM56.7258 8.44037C55.9846 8.55683 55.4638 8.91558 55.1342 9.53683C54.957 9.87054 54.9426 9.96232 54.9426 10.749C54.9426 11.5619 54.9522 11.6174 55.1565 11.985C55.384 12.3943 55.795 12.7134 56.2597 12.8418C56.3983 12.8801 56.897 12.9118 57.3678 12.9123C58.7526 12.9135 58.9728 13.0352 58.9728 13.7988C58.9728 14.278 58.8696 14.483 58.544 14.6504C58.2418 14.8057 57.0739 14.7881 56.1755 14.6147C55.772 14.5368 55.4205 14.473 55.3942 14.4729C55.3416 14.4727 54.8771 15.8157 54.9173 15.8518C55.0066 15.9318 56.0927 16.1103 56.9211 16.1811C58.6281 16.3272 59.6539 16.086 60.2826 15.3907C60.669 14.9632 60.7561 14.6651 60.7561 13.7688C60.7561 12.8422 60.6653 12.4944 60.3224 12.1071C59.8654 11.5908 59.5003 11.4779 58.1282 11.429C57.0138 11.3892 56.9566 11.3799 56.8264 11.2199C56.6128 10.9572 56.6382 10.3603 56.8748 10.0806C57.0589 9.8631 57.0619 9.86239 57.7897 9.86239C58.3647 9.86239 59.7281 9.95849 60.1454 10.0285C60.2556 10.0469 60.8112 8.75876 60.7285 8.67648C60.6698 8.61811 58.967 8.45597 58.0455 8.42093C57.5158 8.40079 56.922 8.40951 56.7258 8.44037ZM67.5533 8.44526C66.6988 8.56151 66.1648 8.91076 65.8421 9.56421L65.6423 9.96878L65.6191 12.2199C65.5915 14.9045 65.6208 15.0837 66.1742 15.6164C66.6868 16.1098 67.0561 16.2124 68.2815 16.2015C69.5919 16.1899 70.3942 16.0445 71.2607 15.6615L71.6006 15.5113L71.5817 13.5557L71.5628 11.6001H69.9935H68.4242V12.2739V12.9477L69.1219 12.9681L69.8196 12.9884L69.7995 13.8142L69.7795 14.64L69.5655 14.698C69.2276 14.7896 68.2198 14.8515 67.9344 14.7983C67.7915 14.7716 67.6106 14.6815 67.5323 14.5978C67.3969 14.4534 67.3899 14.3465 67.3899 12.4311C67.3899 10.1997 67.4074 10.1042 67.8493 9.91856C68.1241 9.80316 69.3163 9.81557 70.2431 9.94353C70.6158 9.99502 70.9509 10.0376 70.9876 10.0384C71.0718 10.0401 71.395 8.78039 71.3273 8.71429C71.1548 8.54569 68.3071 8.3427 67.5533 8.44526ZM40.9587 8.5325C40.9398 8.5813 40.9328 10.3128 40.9431 12.3803L40.9616 16.1394L42.4596 16.1608C44.2459 16.1863 45.1552 16.0989 45.7046 15.849C46.2226 15.6135 46.4456 15.3902 46.6456 14.9071C46.8059 14.5199 46.8108 14.4443 46.8108 12.3448C46.8108 10.234 46.8067 10.1717 46.6425 9.775C46.3205 8.99708 45.6598 8.62698 44.3894 8.513C43.2644 8.41207 41 8.4249 40.9587 8.5325ZM48.3771 8.5325C48.3583 8.5813 48.3513 10.3128 48.3615 12.3803L48.3801 16.1394H50.9837H53.5873V15.4302V14.7209L51.8575 14.7019L50.1277 14.6829V13.799V12.9151L51.6419 12.8959L53.1561 12.8768L53.2424 12.3803C53.2899 12.1072 53.3308 11.7801 53.3332 11.6533L53.3376 11.4228H51.7326H50.1277V10.6793V9.93594L51.7861 9.91686L53.4446 9.89785L53.5392 9.27163C53.5913 8.92721 53.6164 8.60002 53.595 8.54463C53.541 8.40462 48.4309 8.39278 48.3771 8.5325ZM62.3425 8.50271C62.2719 8.54732 62.2567 9.36441 62.2712 12.3494L62.2897 16.1394H63.1457H64.0016L64.0201 12.3494C64.0347 9.36441 64.0195 8.54732 63.9488 8.50271C63.8994 8.4715 63.538 8.44604 63.1457 8.44604C62.7533 8.44604 62.392 8.4715 62.3425 8.50271ZM73.1291 8.5325C73.1103 8.5813 73.1033 10.3128 73.1135 12.3803L73.1321 16.1394L73.9702 16.1594L74.8083 16.1794V13.8366C74.8083 12.548 74.8325 11.495 74.8618 11.4965C74.8912 11.498 75.2203 12.0292 75.593 12.6768C76.7611 14.7066 77.4986 15.9586 77.5923 16.071C77.6657 16.1589 77.8379 16.1755 78.5103 16.1593L79.3379 16.1394V12.3094V8.47931L78.6602 8.45852C78.2875 8.44711 77.9103 8.45569 77.8221 8.4776L77.6616 8.51746V10.801C77.6616 12.7489 77.6471 13.0692 77.5628 12.9806C77.5085 12.9235 76.8785 11.9033 76.1629 10.7135C75.4473 9.52371 74.8257 8.52676 74.7816 8.4981C74.6362 8.40363 73.1669 8.4342 73.1291 8.5325ZM44.2865 9.9348C44.5308 9.9809 44.7355 10.0718 44.8491 10.1845L45.0275 10.3619L45.0494 12.1513C45.0614 13.1355 45.0522 14.0431 45.0289 14.1683C45.0017 14.3138 44.9039 14.4544 44.7573 14.5584C44.5467 14.7078 44.4533 14.7209 43.6009 14.7209H42.6735L42.6547 12.3809C42.6444 11.0938 42.6514 10.0006 42.6703 9.95161C42.7133 9.84033 43.7295 9.82976 44.2865 9.9348ZM20.3112 17.4158C23.1997 17.897 25.6554 19.14 27.6614 21.1362C30.4202 23.8815 31.7812 27.492 31.5063 31.3364C31.137 36.5016 27.6095 41.0371 22.6294 42.7498C17.5461 44.498 11.8846 43.0345 8.31236 39.0489C6.99031 37.5738 6.12534 36.06 5.53935 34.1957C5.4238 33.828 5.3096 33.405 5.28563 33.2559L5.24197 32.9846H7.78736H10.3327L10.4863 33.357C10.9443 34.4678 11.6416 35.4903 12.4994 36.3091C13.9319 37.6765 15.6482 38.4242 17.7967 38.6167L18.2425 38.6566V36.1376C18.2425 34.1825 18.2226 33.6131 18.1534 33.5945C18.1044 33.5814 17.8771 33.5356 17.6485 33.493C16.3778 33.2558 15.3082 32.1519 15.0993 30.8619C15.0078 30.2971 15.1043 29.6021 15.3512 29.0468C15.5523 28.5947 16.207 27.877 16.658 27.614C17.0212 27.4023 17.7437 27.1686 18.0349 27.1686H18.2425V24.6507V22.1328L17.7967 22.1339C17.2249 22.1353 16.1668 22.3549 15.3735 22.6369C13.8379 23.1826 12.3491 24.3296 11.3876 25.7075C11.066 26.1685 10.505 27.2432 10.4291 27.544L10.3806 27.736H7.81133H5.24197L5.29019 27.4346C5.38028 26.8711 5.92868 25.3627 6.32806 24.5798C8.34688 20.6217 12.1761 17.9356 16.6376 17.348C17.5954 17.2219 19.3402 17.2541 20.3112 17.4158ZM42.6417 18.2122C42.3937 18.9277 41.1886 22.34 40.668 23.8006C40.4176 24.5034 40.2126 25.1187 40.2126 25.168C40.2126 25.2368 40.433 25.2531 41.1575 25.2379L42.1023 25.2181L42.3189 24.5798L42.5354 23.9414H43.8104H45.0852L45.2903 24.5975L45.4954 25.2536H46.4563C46.9847 25.2536 47.4171 25.2432 47.4171 25.2305C47.4171 25.2178 47.3396 24.9865 47.245 24.7163C47 24.0172 45.4625 19.6487 44.9251 18.1254L44.8001 17.7708L43.8042 17.7512L42.8082 17.7315L42.6417 18.2122ZM47.4535 17.9658C47.4963 18.1716 48.9341 24.6968 49.0247 25.0958C49.0611 25.2565 49.0658 25.257 50.2186 25.2376L51.376 25.2181L51.9988 22.8775C52.3413 21.5902 52.6222 20.4784 52.6229 20.4069C52.6237 20.3353 52.6626 20.2895 52.7094 20.3051C52.7562 20.3206 52.8796 20.6664 52.9837 21.0734C53.5741 23.383 53.9911 24.9536 54.051 25.094C54.1175 25.2497 54.1461 25.2536 55.2222 25.2536C55.8288 25.2536 56.3431 25.2246 56.3651 25.1893C56.3998 25.1334 57.1043 22.023 57.7643 19.012C57.8798 18.4854 57.9909 17.9826 58.0112 17.8949C58.0481 17.7355 58.0467 17.7353 57.0979 17.7353H56.1475L55.7008 20.3419C55.4551 21.7755 55.2364 23.0095 55.2147 23.0841C55.1585 23.2776 55.0972 23.142 54.9129 22.4165C54.8287 22.0849 54.5273 20.9518 54.2431 19.8986L53.7264 17.9835H52.7306H51.7348L51.4652 18.9765C51.3169 19.5227 51.0028 20.6856 50.7672 21.5609C50.5316 22.4361 50.325 23.166 50.3081 23.1829C50.258 23.2327 50.1704 22.7621 49.5119 18.9063C49.412 18.3216 49.3152 17.8189 49.2968 17.7892C49.2783 17.7596 48.8454 17.7353 48.3346 17.7353H47.4057L47.4535 17.9658ZM60.6209 17.8949C60.2532 18.8684 58.0455 25.1482 58.0455 25.2206C58.0455 25.2388 58.476 25.2536 59.0023 25.2536H59.9591L60.1685 24.5975L60.3779 23.9414H61.6502H62.9225L63.1382 24.5975L63.354 25.2536H64.302C64.8882 25.2536 65.2499 25.2264 65.2499 25.1824C65.2499 25.1153 64.9747 24.3298 63.356 19.7755C62.9853 18.7326 62.682 17.8469 62.682 17.8073C62.682 17.762 62.3109 17.7353 61.6816 17.7353C60.7095 17.7353 60.6795 17.7398 60.6209 17.8949ZM66.3371 21.4712L66.3556 25.2181H67.2115H68.0675L68.0868 23.7464L68.1061 22.2746H68.5899H69.0737L69.5482 23.2854C69.8092 23.8412 70.1208 24.5115 70.2406 24.7748L70.4586 25.2536H71.4208C72.4368 25.2536 72.4928 25.2329 72.2874 24.9325C72.141 24.7183 70.8002 22.1217 70.8264 22.103C70.8391 22.0939 70.9693 22.0148 71.1157 21.9273C71.5207 21.6852 71.8608 21.2471 71.9586 20.8415C72.0731 20.3668 72.013 19.2066 71.8547 18.8347C71.6894 18.4466 71.3643 18.1307 70.9292 17.9357C70.5788 17.7786 70.4785 17.7711 68.4414 17.7481L66.3186 17.7242L66.3371 21.4712ZM73.667 21.4895V25.2536L75.5038 25.2524C77.4429 25.251 78.0238 25.1863 78.5635 24.9111C78.9227 24.728 79.1158 24.5155 79.3166 24.0824C79.4732 23.7445 79.4816 23.6395 79.5035 21.7427C79.5286 19.5646 79.4799 19.1187 79.1665 18.6574C78.9195 18.2939 78.6705 18.1097 78.1783 17.9261C77.8004 17.7852 77.6095 17.7714 75.7178 17.7494L73.667 17.7256V21.4895ZM70.0064 19.2317C70.2369 19.3544 70.3359 19.663 70.3005 20.1494C70.2508 20.8323 70.161 20.8863 69.0287 20.9149L68.1032 20.9383V20.0579C68.1032 19.5737 68.1165 19.1642 68.1328 19.148C68.2004 19.0804 69.8617 19.1546 70.0064 19.2317ZM77.4272 19.2636C77.778 19.4922 77.813 19.7217 77.7899 21.6408L77.7686 23.4065L77.571 23.603C77.3775 23.7955 77.3537 23.8001 76.4119 23.8228L75.4503 23.846V21.5117C75.4503 20.2279 75.4637 19.1642 75.4799 19.148C75.4962 19.1317 75.9016 19.1254 76.3809 19.134C77.0408 19.1458 77.2947 19.1773 77.4272 19.2636ZM44.2379 20.8916C44.4623 21.6327 44.6618 22.2951 44.681 22.3633C44.7131 22.4769 44.6379 22.4874 43.791 22.4874H42.8659L42.9705 22.1505C43.0281 21.9653 43.2187 21.3349 43.394 20.7497C43.7677 19.5026 43.7753 19.4797 43.8062 19.5161C43.8191 19.5314 44.0134 20.1504 44.2379 20.8916ZM62.1081 20.9179C62.3116 21.5955 62.5071 22.2258 62.5426 22.3187L62.6071 22.4874H61.6816C61.1726 22.4874 60.7567 22.4635 60.7576 22.4342C60.7592 22.3763 60.9559 21.7115 61.3557 20.4136C61.4967 19.9557 61.613 19.5567 61.6142 19.527C61.6204 19.3731 61.7747 19.8077 62.1081 20.9179ZM40.355 27.0445C40.3547 27.137 40.6466 28.482 41.3823 31.7789L41.8176 33.7294L42.8697 33.749C43.4484 33.7598 43.9219 33.7499 43.9219 33.727C43.9219 33.7042 44.1286 32.913 44.3814 31.969C44.6341 31.0249 44.8741 30.1054 44.9146 29.9256C44.9551 29.7458 45.0251 29.5068 45.0702 29.3944L45.1522 29.19L45.2403 29.5447C45.3769 30.0952 45.909 32.1129 46.0633 32.6655C46.1395 32.9385 46.2358 33.2976 46.2773 33.4634L46.3526 33.7648H47.3864C48.1518 33.7648 48.4271 33.7418 48.4466 33.6762C48.5237 33.417 49.9137 27.117 49.9137 27.0266C49.9137 26.9835 49.5795 26.9558 49.0577 26.9558C48.5869 26.9558 48.2024 26.9797 48.2032 27.009C48.2058 27.1049 47.407 31.7407 47.369 31.8498C47.3303 31.9612 47.1769 31.4469 46.5653 29.1546C46.3624 28.3939 46.158 27.6438 46.1112 27.4878L46.0261 27.2041L45.1254 27.1843C44.2383 27.1648 44.2241 27.167 44.1894 27.3261C44.1701 27.415 43.8933 28.4568 43.5744 29.6412C43.2555 30.8256 42.9945 31.807 42.9945 31.8222C42.9945 31.8374 42.9684 31.8498 42.9364 31.8498C42.9044 31.8498 42.8454 31.6343 42.8052 31.371C42.765 31.1078 42.5768 30.0066 42.3869 28.9241L42.0416 26.9558H41.1985C40.5716 26.9558 40.3552 26.9786 40.355 27.0445ZM51.0163 27.0445C50.9975 27.0933 50.9905 28.6173 51.0007 30.4313L51.0193 33.7294L51.8218 33.7495L52.6243 33.7695V30.3627V26.9558H51.8374C51.2737 26.9558 51.0408 26.981 51.0163 27.0445ZM54.0985 27.0031C54.0723 27.0291 54.0509 28.5611 54.0509 30.4076V33.7648H54.8345H55.6181L55.637 31.6902L55.6559 29.6156L56.3777 30.8568C56.7748 31.5395 57.3186 32.4731 57.5862 32.9314L58.0729 33.7648H58.8795H59.6861V30.3603V26.9558H58.9014H58.1168L58.1145 28.995C58.1124 30.8368 58.1017 31.0204 58.0036 30.8923C57.9438 30.8143 57.3792 29.8966 56.7489 28.8531L55.603 26.9558H54.8745C54.4738 26.9558 54.1246 26.9771 54.0985 27.0031ZM61.184 30.3603V33.7648H61.932H62.6799L62.6988 31.6902L62.7177 29.6156L63.8157 31.4952C64.4196 32.5289 64.9642 33.4625 65.0259 33.5698C65.1378 33.7645 65.1396 33.7648 65.943 33.7648H66.7479V30.3603V26.9558H65.9643H65.1808L65.1618 28.995L65.1429 31.0341L63.9076 28.995L62.6722 26.9558H61.9281H61.184V30.3603ZM68.2459 30.3613V33.7668L70.571 33.7481L72.896 33.7294V33.1265L72.8961 32.5236L71.3566 32.5045C69.5633 32.4823 69.724 32.5802 69.7585 31.5306L69.7795 30.8923L71.1464 30.8731L72.5133 30.8538L72.5961 30.3411C72.6417 30.0591 72.6846 29.7805 72.6915 29.722C72.7022 29.6315 72.4858 29.6103 71.2418 29.5801L69.7795 29.5447V28.9063V28.268L71.2548 28.2488L72.7302 28.2297L72.8036 27.8587C72.8441 27.6547 72.8979 27.3681 72.9233 27.2218L72.9696 26.9558H70.6077H68.2459V30.3613ZM74.2377 30.3603V33.7648H75.0223H75.807V32.4172V31.0696H76.2605H76.714L77.0016 31.6902C77.1598 32.0316 77.4426 32.638 77.6299 33.0378L77.9705 33.7648H78.8504C79.3343 33.7648 79.7302 33.7523 79.7302 33.7369C79.7302 33.7216 79.4092 33.0958 79.0169 32.3463C78.6246 31.5968 78.3036 30.959 78.3036 30.9288C78.3036 30.8987 78.4012 30.8338 78.5204 30.7847C78.8165 30.6628 79.2164 30.1808 79.3109 29.8321C79.3537 29.674 79.3763 29.2388 79.3612 28.8651C79.3266 28.0064 79.1385 27.5906 78.6487 27.2894C78.2057 27.017 77.7118 26.959 75.8248 26.9573L74.2377 26.9558V30.3603ZM77.6292 28.4066C77.7794 28.556 77.8043 28.6466 77.8043 29.045C77.8043 29.7721 77.604 29.8911 76.449 29.8499L75.8427 29.8284L75.8225 29.0305L75.8023 28.2325H76.6282C77.4099 28.2325 77.4634 28.2418 77.6292 28.4066Z" fill="white"/>
<path fill-rule="evenodd" clip-rule="evenodd" d="M43.8069 36.4091C42.4646 36.5409 40.4793 36.8615 40.3771 36.9629C40.3499 36.9899 40.4813 37.4507 40.6691 37.9869L41.0105 38.9618L41.8678 38.8121C42.3393 38.7297 43.1444 38.6241 43.657 38.5774C44.8073 38.4727 45.2597 38.539 45.5477 38.855C45.718 39.0417 45.7337 39.1043 45.7337 39.5963C45.7337 40.1103 45.7241 40.1438 45.5139 40.3654C45.3755 40.5113 44.7815 40.8628 43.9083 41.3156C41.7332 42.4435 41.1582 42.8572 40.8028 43.5492C40.4974 44.144 40.447 44.5104 40.4106 46.3963L40.3759 48.1934H44.4407H48.5055V47.1185V46.0436H45.7577H43.0099L43.0564 45.4894C43.1122 44.8228 43.3215 44.3226 43.6483 44.0749C43.7746 43.9792 44.5465 43.5432 45.3636 43.1061C47.0452 42.2066 47.349 42.0134 47.7323 41.6001C48.3101 40.9772 48.5178 40.1217 48.3852 38.9097C48.2312 37.5012 47.5652 36.7862 46.1402 36.4997C45.7942 36.4302 44.2163 36.3689 43.8069 36.4091ZM53.6775 36.4108C51.6356 36.6234 50.5994 37.4971 50.2924 39.2649C50.1348 40.1722 50.183 45.276 50.3548 45.8757C50.7125 47.1245 51.4132 47.8096 52.7026 48.1712C53.0645 48.2727 53.3951 48.293 54.6916 48.293C55.9881 48.293 56.3186 48.2727 56.6805 48.1712C57.9842 47.8055 58.6843 47.1126 59.0335 45.8421C59.1404 45.4537 59.1536 45.0679 59.1536 42.3487C59.1536 39.5875 59.1416 39.2497 59.0296 38.8553C58.6622 37.5613 57.8875 36.8571 56.4831 36.5402C55.9867 36.4281 54.2706 36.349 53.6775 36.4108ZM64.3931 36.4093C64.263 36.4246 63.8523 36.4694 63.4804 36.5089C62.6855 36.5935 60.9977 36.8932 60.9365 36.9608C60.9131 36.9867 61.05 37.4461 61.2407 37.9819L61.5875 38.956L62.4663 38.8091C64.3738 38.4903 65.4899 38.4518 65.9515 38.689C66.3191 38.878 66.4747 39.5795 66.2615 40.0866C66.1223 40.4176 65.8561 40.603 64.5455 41.2814C61.9892 42.6046 61.5771 42.9327 61.1989 43.9454C61.0674 44.2976 61.0528 44.4956 61.0285 46.262L61.0019 48.1934H65.03H69.058V47.1185V46.0436H66.3537H63.6495V45.5517C63.6495 44.49 63.9279 44.1651 65.5829 43.2953C67.8785 42.0889 68.3986 41.6988 68.759 40.9134C68.9072 40.5903 68.946 40.39 68.9741 39.8C69.0658 37.8763 68.4465 36.9114 66.879 36.5358C66.4631 36.4361 64.8589 36.3545 64.3931 36.4093ZM74.0271 36.4398C72.9207 36.5874 71.9786 37.0282 71.5351 37.606C71.2454 37.9836 70.9685 38.6266 70.8715 39.1473C70.8064 39.4966 70.782 40.3892 70.782 42.4159C70.782 44.8701 70.7966 45.2659 70.9043 45.7217C71.2201 47.0593 71.9476 47.7985 73.3172 48.1738C73.9632 48.3508 76.5986 48.3479 77.2384 48.1695C78.6073 47.7877 79.3561 47.0091 79.6382 45.6741C79.7881 44.9648 79.784 39.8023 79.633 39.0708C79.3476 37.6882 78.4909 36.8428 77.0635 36.5351C76.4891 36.4113 74.6694 36.3542 74.0271 36.4398ZM55.9096 38.6543C56.1329 38.7617 56.2426 38.8728 56.3608 39.1112C56.5167 39.4258 56.5169 39.4313 56.5169 42.3487V45.2711L56.3479 45.607C56.2185 45.8641 56.1082 45.9783 55.8772 46.094C55.6103 46.2278 55.4739 46.2452 54.6916 46.2452C53.9092 46.2452 53.7728 46.2278 53.5059 46.094C53.2749 45.9783 53.1646 45.8641 53.0352 45.607L52.8662 45.2711L52.8443 42.6999C52.8214 40.0118 52.8692 39.2956 53.0918 38.9938C53.4118 38.5597 53.8281 38.4438 54.9166 38.4856C55.4485 38.506 55.685 38.5462 55.9096 38.6543ZM76.4461 38.6403C76.6795 38.7429 76.7955 38.8491 76.913 39.068C77.0682 39.3568 77.0695 39.3812 77.0898 42.1366C77.1124 45.2123 77.0863 45.502 76.7533 45.8788C76.4736 46.1954 76.1655 46.2622 75.112 46.2346C74.0886 46.2079 73.8466 46.1166 73.6215 45.6723C73.4922 45.4171 73.4863 45.2717 73.4863 42.3487C73.4863 39.4127 73.4916 39.2829 73.6215 39.0639C73.912 38.5738 74.3191 38.4443 75.4532 38.4815C75.9544 38.4979 76.2181 38.54 76.4461 38.6403Z" fill="white"/>
</svg>
