<svg width="99" height="60" viewBox="0 0 99 60" fill="none" xmlns="http://www.w3.org/2000/svg">
<path fill-rule="evenodd" clip-rule="evenodd" d="M19.6829 7.05037C19.6604 7.23178 19.7107 7.80476 19.7955 8.33283C20.1137 10.3127 21.3484 12.2443 23.0509 13.4253C23.5405 13.765 24.7324 14.3844 25.0552 14.467C25.2061 14.5056 25.2065 14.511 25.2065 16.5533V18.6009L24.77 18.6842C24.53 18.73 23.9407 18.8614 23.4606 18.9762C18.5289 20.1554 14.2108 23.508 11.9032 27.9494C10.9393 29.8045 10.4178 31.467 10.0916 33.725C9.936 34.8021 9.98621 37.3774 10.1849 38.5095C10.8374 42.2272 12.4809 45.3433 15.1795 47.9792C17.9118 50.6479 21.0251 52.2243 24.9271 52.9149C25.8528 53.0787 26.1017 53.0944 27.8254 53.0968C29.4725 53.0992 29.8258 53.0801 30.6188 52.9459C32.5662 52.6163 34.1463 52.1263 35.7518 51.3541C37.5808 50.4744 38.8994 49.5651 40.3519 48.1818C43.1798 45.4884 44.8503 42.3859 45.5413 38.5437C45.6823 37.7604 45.7011 37.4324 45.7002 35.7755C45.6993 34.1341 45.6795 33.7876 45.5433 33.0415C44.8766 29.388 43.3281 26.3671 40.8172 23.8217C38.24 21.2092 35.0091 19.4873 31.3172 18.7587C30.9331 18.6829 30.5948 18.6206 30.5654 18.6202C30.5361 18.6198 30.5204 17.6922 30.5305 16.5588L30.549 14.4981L30.7934 14.4152C31.6059 14.1398 32.7535 13.4481 33.4822 12.7946C34.6159 11.7778 35.6361 10.0217 35.8894 8.6508C36.0171 7.9595 36.0983 7.20922 36.0568 7.10341C36.0216 7.01381 35.6877 7 33.5517 7H31.0871L31.0064 7.46136C30.8405 8.40925 30.1287 9.34209 29.257 9.75418C28.025 10.3367 26.5275 10.0744 25.5894 9.11182C25.1312 8.64164 24.8062 8.00612 24.7338 7.43881L24.6822 7.03418L22.1858 7.0162C20.8128 7.00636 19.6865 7.02174 19.6829 7.05037ZM51.0461 7.12905C50.5372 7.30607 50.1193 7.74741 49.9883 8.24616C49.854 8.75756 49.8551 11.8452 49.9897 12.2288C50.1425 12.6643 50.4031 12.9471 50.8289 13.1396C51.1862 13.3013 51.2973 13.3165 52.0936 13.3134C53.0495 13.3096 54.0177 13.1379 54.5322 12.881L54.8173 12.7386V11.1338V9.52896H53.5253H52.2333V10.1099V10.6909H52.792H53.3507V11.3664C53.3507 12.1557 53.4142 12.1017 52.4054 12.1704C51.7991 12.2116 51.7663 12.2065 51.5674 12.0389L51.3603 11.8644V10.2125V8.56071L51.5995 8.35163L51.8387 8.14248L52.7518 8.18731C53.254 8.21199 53.8274 8.25081 54.026 8.27357L54.3871 8.31499L54.464 8.05054C54.5063 7.90503 54.5596 7.6604 54.5823 7.50682L54.6236 7.22767L54.1093 7.14012C53.8265 7.092 53.108 7.03978 52.5126 7.02406C51.5684 6.99911 51.3811 7.01251 51.0461 7.12905ZM56.214 10.1792V13.2902L58.3615 13.2721L60.5089 13.2541V12.6731V12.0921L59.0773 12.0579L57.6456 12.0238V11.3402V10.6567L58.9009 10.6226L60.1561 10.5884L60.2011 10.315C60.2259 10.1646 60.2663 9.91152 60.2908 9.75261L60.3355 9.46355L58.9906 9.44503L57.6456 9.42644V8.84546V8.26448L59.0167 8.24596L60.3876 8.2275L60.4658 7.71344C60.5087 7.43074 60.5439 7.16999 60.5439 7.1339C60.5439 7.0935 59.7142 7.06835 58.3789 7.06835H56.214V10.1792ZM61.8177 10.1552L61.8358 13.2541H62.5342H63.2326L63.2675 12.0238L63.3024 10.7934L63.6927 10.7733L64.0829 10.7531L64.6309 11.9352C64.9323 12.5854 65.2083 13.1558 65.2444 13.2028C65.3115 13.2904 66.7617 13.3315 66.8468 13.2482C66.8693 13.2262 66.5917 12.6467 66.2299 11.9605C65.8681 11.2744 65.5721 10.694 65.5721 10.671C65.5721 10.6479 65.6838 10.577 65.8204 10.5136C66.368 10.2594 66.5822 9.73784 66.5347 8.77424C66.4916 7.89717 66.318 7.57845 65.7293 7.29555L65.3277 7.10253L63.5636 7.07942L61.7995 7.05625L61.8177 10.1552ZM67.9087 7.15379C67.8903 7.20081 67.8834 8.59256 67.8934 10.2466L67.9116 13.2541H68.61H69.3084L69.3433 11.3149L69.3782 9.37579L70.0417 10.7247C70.4066 11.4666 70.7152 12.1162 70.7277 12.1682C70.7576 12.2938 70.9874 12.3446 71.4081 12.3185C71.7122 12.2997 71.7649 12.2729 71.8574 12.0904C71.915 11.9767 72.245 11.3058 72.5907 10.5996L73.2192 9.31551L73.2541 11.2848L73.2891 13.2541L73.97 13.2736L74.6509 13.2932V10.1787V7.06425L73.7663 7.08339L72.8817 7.10253L72.4156 8.09361C72.1593 8.6387 71.8001 9.39226 71.6176 9.76819L71.2856 10.4517L71.0288 9.93907C70.8875 9.65712 70.5237 8.8959 70.2202 8.24739L69.6684 7.06835H68.8053C68.1792 7.06835 67.933 7.09179 67.9087 7.15379ZM77.6661 7.46136C77.5075 7.89259 76.888 9.61495 76.1145 11.775C75.8089 12.6284 75.6412 13.1912 75.6808 13.23C75.7164 13.2648 76.0707 13.2845 76.4683 13.2737L77.1911 13.2541L77.3788 12.7073L77.5665 12.1605L78.6143 12.1417L79.6621 12.1228L79.8627 12.6885L80.0632 13.2541L80.7904 13.2737C81.1904 13.2845 81.5449 13.2666 81.5783 13.2339C81.6126 13.2003 81.4575 12.6722 81.2213 12.0181C80.689 10.5441 79.6226 7.58098 79.52 7.29049L79.4415 7.06835H78.6261H77.8106L77.6661 7.46136ZM82.589 7.11394C82.5634 7.13896 82.5424 8.5225 82.5424 10.1884V13.2173L82.6998 13.2559C82.7864 13.2772 83.1085 13.2855 83.4156 13.2744L83.9741 13.2541L84.0107 11.3402C84.0308 10.2877 84.0543 9.46096 84.0631 9.50313C84.0815 9.59253 86.0375 12.9057 86.2084 13.1368C86.3169 13.2837 86.3644 13.2919 86.9996 13.2735L87.6754 13.2541L87.6936 10.1612L87.7117 7.06835H87.0127H86.3136V8.91784C86.3136 9.93503 86.2883 10.752 86.2573 10.7333C86.2263 10.7145 85.702 9.88227 85.092 8.8838L83.9831 7.06835H83.3093C82.9387 7.06835 82.6146 7.08885 82.589 7.11394ZM64.9843 8.39715C65.0455 8.47931 65.0832 8.69851 65.0832 8.97273C65.0832 9.63217 65.0338 9.66566 64.0598 9.66566H63.2675V8.94211V8.21855L64.0764 8.24152C64.7806 8.26147 64.8981 8.28164 64.9843 8.39715ZM79.0332 9.80236L79.3772 10.9301L78.646 10.9496C78.2438 10.9604 77.9033 10.9578 77.8892 10.944C77.8751 10.9302 78.0278 10.3917 78.2286 9.74748C78.4294 9.10314 78.6152 8.59817 78.6414 8.6253C78.6677 8.65237 78.8439 9.18209 79.0332 9.80236ZM65.5372 14.6519C64.8115 14.7641 64.3016 15.1098 63.9789 15.7085C63.8054 16.0301 63.7913 16.1186 63.7913 16.8766C63.7913 17.66 63.8007 17.7135 64.0008 18.0678C64.2235 18.4621 64.6259 18.7697 65.0808 18.8934C65.2166 18.9304 65.7048 18.9609 66.1657 18.9613C67.5215 18.9625 67.737 19.0798 67.737 19.8157C67.737 20.2774 67.636 20.475 67.3173 20.6363C67.0214 20.786 65.878 20.769 64.9984 20.6019C64.6033 20.5269 64.2592 20.4654 64.2335 20.4652C64.1819 20.465 63.7272 21.7593 63.7665 21.7941C63.854 21.8711 64.9173 22.0432 65.7283 22.1114C67.3996 22.2522 68.4038 22.0197 69.0194 21.3497C69.3978 20.9377 69.483 20.6505 69.483 19.7868C69.483 18.8938 69.3941 18.5586 69.0584 18.1854C68.611 17.6879 68.2535 17.5791 66.9102 17.5319C65.8191 17.4936 65.7631 17.4847 65.6357 17.3304C65.4265 17.0773 65.4514 16.5021 65.6831 16.2326C65.8633 16.0229 65.8662 16.0222 66.5788 16.0222C67.1417 16.0222 68.4765 16.1149 68.8851 16.1823C68.993 16.2001 69.5369 14.9587 69.4559 14.8794C69.3985 14.8232 67.7314 14.6669 66.8292 14.6332C66.3106 14.6138 65.7292 14.6222 65.5372 14.6519ZM76.1378 14.6566C75.3012 14.7686 74.7783 15.1052 74.4624 15.7349L74.2668 16.1248L74.2441 18.2941C74.2171 20.8812 74.2458 21.0539 74.7875 21.5672C75.2894 22.0427 75.651 22.1415 76.8507 22.1311C78.1337 22.1199 78.9192 21.9798 79.7675 21.6107L80.1003 21.4659L80.0818 19.5814L80.0632 17.6968H78.5268H76.9904V18.3462V18.9955L77.6735 19.0151L78.3566 19.0347L78.3369 19.8305L78.3173 20.6263L78.1078 20.6822C77.777 20.7704 76.7903 20.8301 76.5108 20.7788C76.371 20.7531 76.1938 20.6662 76.1172 20.5857C75.9846 20.4465 75.9778 20.3435 75.9778 18.4976C75.9778 16.3473 75.9949 16.2553 76.4276 16.0764C76.6966 15.9652 77.8638 15.9771 78.7712 16.1004C79.1361 16.1501 79.4642 16.1911 79.5001 16.1918C79.5825 16.1935 79.899 14.9796 79.8327 14.9159C79.6638 14.7534 76.8757 14.5578 76.1378 14.6566ZM50.1004 14.7407C50.082 14.7877 50.0751 16.4563 50.0851 18.4487L50.1033 22.0713L51.5698 22.0918C53.3188 22.1164 54.209 22.0322 54.7469 21.7914C55.254 21.5644 55.4724 21.3493 55.6681 20.8837C55.8251 20.5105 55.8299 20.4377 55.8299 18.4145C55.8299 16.3804 55.8259 16.3203 55.6651 15.938C55.3499 15.1884 54.7031 14.8317 53.4593 14.7219C52.3578 14.6246 50.1409 14.637 50.1004 14.7407ZM57.3634 14.7407C57.345 14.7877 57.3381 16.4563 57.3481 18.4487L57.3663 22.0713H59.9153H62.4644V21.3877V20.7042L60.7708 20.6859L59.0773 20.6676V19.8158V18.964L60.5598 18.9456L62.0423 18.9271L62.1268 18.4487C62.1733 18.1855 62.2133 17.8703 62.2157 17.7481L62.2199 17.526H60.6486H59.0773V16.8095V16.0931L60.701 16.0747L62.3247 16.0564L62.4174 15.453C62.4683 15.121 62.4929 14.8057 62.4719 14.7524C62.4191 14.6174 57.4161 14.606 57.3634 14.7407ZM71.0362 14.712C70.967 14.755 70.9521 15.5424 70.9664 18.4189L70.9844 22.0713H71.8225H72.6605L72.6786 18.4189C72.6929 15.5424 72.678 14.755 72.6088 14.712C72.5604 14.6819 72.2066 14.6574 71.8225 14.6574C71.4384 14.6574 71.0846 14.6819 71.0362 14.712ZM81.5968 14.7407C81.5783 14.7877 81.5715 16.4563 81.5815 18.4487L81.5996 22.0713L82.4202 22.0905L83.2408 22.1097V19.8521C83.2408 18.6103 83.2644 17.5955 83.2932 17.597C83.3219 17.5985 83.6441 18.1104 84.009 18.7345C85.1526 20.6905 85.8747 21.897 85.9665 22.0053C86.0383 22.09 86.2069 22.106 86.8652 22.0904L87.6754 22.0713V18.3803V14.6894L87.012 14.6694C86.6471 14.6584 86.2778 14.6667 86.1914 14.6878L86.0343 14.7262V16.9267C86.0343 18.8039 86.0201 19.1126 85.9375 19.0272C85.8844 18.9722 85.2676 17.989 84.567 16.8425C83.8664 15.6959 83.2578 14.7351 83.2146 14.7075C83.0722 14.6165 81.6338 14.6459 81.5968 14.7407ZM53.3585 16.092C53.5977 16.1365 53.7981 16.224 53.9093 16.3327L54.084 16.5036L54.1054 18.228C54.1172 19.1764 54.1082 20.0511 54.0854 20.1717C54.0588 20.312 53.9629 20.4475 53.8194 20.5477C53.6133 20.6916 53.5218 20.7042 52.6872 20.7042H51.7794L51.7609 18.4492C51.7508 17.2089 51.7576 16.1555 51.7762 16.1082C51.8183 16.001 52.8132 15.9908 53.3585 16.092ZM29.8856 23.3013C32.7135 23.765 35.1179 24.9628 37.0818 26.8865C39.7827 29.532 41.1152 33.0114 40.8461 36.7161C40.4845 41.6937 37.031 46.0644 32.1552 47.7149C27.1784 49.3996 21.6355 47.9892 18.1382 44.1484C16.8438 42.7269 15.997 41.2681 15.4233 39.4715C15.3101 39.1171 15.1983 38.7096 15.1749 38.5658L15.1321 38.3045H17.6242H20.1162L20.2665 38.6633C20.715 39.7337 21.3977 40.7191 22.2375 41.5082C23.6399 42.8258 25.3203 43.5464 27.4238 43.7319L27.8603 43.7704V41.3428C27.8603 39.4588 27.8407 38.9101 27.773 38.8922C27.725 38.8795 27.5025 38.8354 27.2787 38.7943C26.0346 38.5658 24.9874 37.502 24.7829 36.2589C24.6933 35.7146 24.7878 35.0448 25.0295 34.5097C25.2264 34.0741 25.8674 33.3823 26.3089 33.129C26.6645 32.9249 27.3718 32.6997 27.657 32.6997H27.8603V30.2733V27.8469L27.4238 27.848C26.864 27.8493 25.828 28.0609 25.0514 28.3326C23.5479 28.8586 22.0903 29.9639 21.149 31.2917C20.8341 31.7359 20.2849 32.7716 20.2106 33.0614L20.1631 33.2465H17.6476H15.1321L15.1793 32.956C15.2675 32.4131 15.8044 30.9595 16.1955 30.2049C18.172 26.3907 21.921 23.8022 26.289 23.2359C27.2267 23.1143 28.9349 23.1454 29.8856 23.3013ZM51.7481 24.0687C51.5054 24.7582 50.3255 28.0466 49.8158 29.4541C49.5706 30.1313 49.37 30.7243 49.37 30.7718C49.37 30.8381 49.5858 30.8538 50.295 30.8392L51.2201 30.8201L51.4321 30.2049L51.6442 29.5898H52.8923H54.1405L54.3412 30.222L54.5421 30.8543H55.4828C56.0001 30.8543 56.4235 30.8443 56.4235 30.8321C56.4235 30.8198 56.3477 30.5969 56.255 30.3365C56.0152 29.6629 54.5098 25.453 53.9837 23.9851L53.8613 23.6433L52.8863 23.6244L51.9112 23.6055L51.7481 24.0687ZM56.4592 23.8313C56.501 24.0296 57.9087 30.3177 57.9974 30.7022C58.0331 30.8571 58.0376 30.8576 59.1663 30.8389L60.2994 30.8201L60.9092 28.5645C61.2445 27.324 61.5195 26.2526 61.5202 26.1837C61.521 26.1147 61.5591 26.0706 61.6049 26.0855C61.6508 26.1005 61.7716 26.4337 61.8735 26.826C62.4515 29.0517 62.8597 30.5652 62.9184 30.7005C62.9835 30.8505 63.0115 30.8543 64.065 30.8543C64.6589 30.8543 65.1624 30.8264 65.184 30.7923C65.218 30.7385 65.9077 27.7411 66.5539 24.8394C66.667 24.3319 66.7757 23.8475 66.7956 23.7629C66.8318 23.6093 66.8304 23.6091 65.9015 23.6091H64.971L64.5336 26.121C64.2931 27.5025 64.0789 28.6917 64.0577 28.7636C64.0027 28.95 63.9427 28.8194 63.7623 28.1203C63.6798 27.8007 63.3847 26.7088 63.1065 25.6938L62.6006 23.8484H61.6257H60.6507L60.3868 24.8053C60.2416 25.3316 59.9341 26.4522 59.7034 27.2957C59.4728 28.1392 59.2705 28.8425 59.2539 28.8588C59.2049 28.9068 59.1191 28.4533 58.4744 24.7376C58.3766 24.1741 58.2819 23.6897 58.2638 23.6611C58.2458 23.6325 57.8218 23.6091 57.3217 23.6091H56.4124L56.4592 23.8313ZM69.3506 23.7629C68.9906 24.7011 66.8292 30.7527 66.8292 30.8225C66.8292 30.84 67.2507 30.8543 67.766 30.8543H68.7027L68.9077 30.222L69.1128 29.5898H70.3584H71.604L71.8152 30.222L72.0265 30.8543H72.9546C73.5285 30.8543 73.8827 30.8281 73.8827 30.7857C73.8827 30.7211 73.6132 29.964 72.0284 25.5752C71.6655 24.5702 71.3686 23.7167 71.3686 23.6785C71.3686 23.6349 71.0052 23.6091 70.3891 23.6091C69.4374 23.6091 69.408 23.6135 69.3506 23.7629ZM74.9471 27.2093L74.9651 30.8201H75.8032H76.6412L76.6601 29.4018L76.679 27.9836H77.1526H77.6263L78.0909 28.9576C78.3464 29.4932 78.6515 30.1392 78.7688 30.3929L78.9821 30.8543H79.9242C80.9189 30.8543 80.9738 30.8343 80.7727 30.5449C80.6293 30.3384 79.3167 27.8362 79.3423 27.8182C79.3547 27.8094 79.4822 27.7332 79.6256 27.6488C80.022 27.4155 80.355 26.9934 80.4507 26.6025C80.5629 26.1451 80.504 25.027 80.349 24.6686C80.1872 24.2946 79.8689 23.9902 79.4429 23.8022C79.0999 23.6509 79.0017 23.6436 77.0072 23.6215L74.929 23.5984L74.9471 27.2093ZM82.1234 27.227V30.8543L83.9217 30.8531C85.8201 30.8518 86.3889 30.7894 86.9173 30.5243C87.269 30.3478 87.458 30.143 87.6545 29.7257C87.8079 29.4 87.8161 29.2988 87.8375 27.4709C87.8622 25.372 87.8145 24.9423 87.5076 24.4978C87.2658 24.1475 87.022 23.9699 86.5401 23.793C86.1702 23.6572 85.9832 23.6439 84.1312 23.6227L82.1234 23.5998V27.227ZM78.5395 25.0511C78.7652 25.1694 78.862 25.4668 78.8274 25.9356C78.7787 26.5936 78.6908 26.6457 77.5823 26.6732L76.6761 26.6958V25.8473C76.6761 25.3807 76.6892 24.9861 76.7051 24.9705C76.7713 24.9054 78.3978 24.9769 78.5395 25.0511ZM85.8048 25.0819C86.1482 25.3022 86.1825 25.5234 86.1598 27.3727L86.139 29.0743L85.9456 29.2637C85.7561 29.4492 85.7328 29.4536 84.8107 29.4754L83.8693 29.4979V27.2484C83.8693 26.0112 83.8824 24.9861 83.8983 24.9705C83.9142 24.9548 84.3112 24.9487 84.7803 24.957C85.4265 24.9684 85.675 24.9988 85.8048 25.0819ZM53.3109 26.6507C53.5307 27.365 53.7259 28.0032 53.7448 28.069C53.7762 28.1785 53.7025 28.1886 52.8734 28.1886H51.9676L52.0701 27.8639C52.1264 27.6854 52.313 27.0779 52.4847 26.514C52.8506 25.3122 52.8581 25.2901 52.8882 25.3252C52.9009 25.34 53.0912 25.9365 53.3109 26.6507ZM70.8066 26.6761C71.0059 27.3291 71.1973 27.9365 71.2321 28.026L71.2952 28.1886H70.3891C69.8907 28.1886 69.4836 28.1656 69.4844 28.1373C69.486 28.0815 69.6786 27.4409 70.07 26.1901C70.2081 25.7488 70.322 25.3644 70.3231 25.3357C70.3292 25.1875 70.4802 25.6063 70.8066 26.6761ZM49.5094 32.5801C49.5091 32.6692 49.7949 33.9654 50.5152 37.1425L50.9413 39.0221L51.9714 39.0411C52.5379 39.0515 53.0015 39.042 53.0015 39.0199C53.0015 38.9979 53.204 38.2354 53.4514 37.3257C53.6988 36.4159 53.9337 35.5298 53.9734 35.3566C54.0131 35.1833 54.0817 34.953 54.1258 34.8446L54.2061 34.6477L54.2923 34.9895C54.426 35.52 54.947 37.4644 55.0981 37.9969C55.1727 38.26 55.267 38.6061 55.3076 38.7658L55.3813 39.0563H56.3935C57.1428 39.0563 57.4123 39.0341 57.4314 38.9709C57.5069 38.7211 58.8678 32.65 58.8678 32.5629C58.8678 32.5213 58.5406 32.4947 58.0297 32.4947C57.5688 32.4947 57.1923 32.5177 57.1931 32.5459C57.1957 32.6384 56.4136 37.1057 56.3764 37.2109C56.3385 37.3182 56.1884 36.8226 55.5896 34.6135C55.3909 33.8805 55.1908 33.1577 55.145 33.0073L55.0617 32.7339L54.1798 32.7148C53.3114 32.696 53.2974 32.6982 53.2635 32.8515C53.2445 32.9372 52.9736 33.9411 52.6613 35.0825C52.3491 36.2238 52.0936 37.1696 52.0936 37.1843C52.0936 37.1989 52.068 37.2109 52.0367 37.2109C52.0054 37.2109 51.9476 37.0032 51.9082 36.7495C51.8689 36.4958 51.6847 35.4346 51.4987 34.3914L51.1607 32.4947H50.3352C49.7215 32.4947 49.5096 32.5166 49.5094 32.5801ZM59.9473 32.5801C59.9289 32.6271 59.922 34.0958 59.932 35.8438L59.9503 39.0221L60.7359 39.0415L61.5216 39.0608V35.7778V32.4947H60.7512C60.1993 32.4947 59.9713 32.5189 59.9473 32.5801ZM62.9649 32.5403C62.9393 32.5653 62.9183 34.0417 62.9183 35.8211V39.0563H63.6855H64.4526L64.4711 37.0571L64.4896 35.0578L65.1964 36.254C65.5851 36.9118 66.1175 37.8115 66.3796 38.2532L66.8561 39.0563H67.6457H68.4354V35.7755V32.4947H67.6672H66.899L66.8968 34.4598C66.8947 36.2346 66.8843 36.4116 66.7882 36.2881C66.7296 36.2129 66.1769 35.3286 65.5598 34.3231L64.4379 32.4947H63.7246C63.3324 32.4947 62.9905 32.5152 62.9649 32.5403ZM69.902 35.7755V39.0563H70.6342H71.3665L71.385 37.0571L71.4035 35.0578L72.4785 36.8691C73.0698 37.8653 73.6029 38.7649 73.6633 38.8684C73.7729 39.056 73.7746 39.0563 74.5612 39.0563H75.3492V35.7755V32.4947H74.5821H73.815L73.7964 34.4598L73.7779 36.4248L72.5684 34.4598L71.3589 32.4947H70.6304H69.902V35.7755ZM76.8158 35.7765V39.0582L79.0922 39.0402L81.3685 39.0221V38.4412L81.3686 37.8602L79.8614 37.8418C78.1056 37.8203 78.263 37.9147 78.2968 36.9033L78.3173 36.2881L79.6556 36.2696L80.9939 36.251L81.0749 35.757C81.1195 35.4852 81.1615 35.2167 81.1683 35.1603C81.1788 35.0731 80.9669 35.0527 79.749 35.0236L78.3173 34.9895V34.3743V33.7592L79.7617 33.7407L81.2062 33.7223L81.2781 33.3648C81.3177 33.1681 81.3704 32.892 81.3953 32.751L81.4406 32.4947H79.1282H76.8158V35.7765ZM82.6821 35.7755V39.0563H83.4503H84.2185V37.7577V36.459H84.6625H85.1065L85.3881 37.0571C85.543 37.386 85.8198 37.9704 86.0032 38.3557L86.3367 39.0563H87.1982C87.6719 39.0563 88.0595 39.0442 88.0595 39.0294C88.0595 39.0146 87.7453 38.4116 87.3612 37.6893C86.9771 36.9671 86.6628 36.3524 86.6628 36.3233C86.6628 36.2943 86.7583 36.2318 86.8751 36.1844C87.1649 36.0669 87.5565 35.6025 87.649 35.2665C87.6909 35.1141 87.7131 34.6947 87.6983 34.3345C87.6643 33.5071 87.4802 33.1063 87.0007 32.8161C86.5669 32.5537 86.0834 32.4977 84.236 32.496L82.6821 32.4947V35.7755ZM86.0025 33.8928C86.1496 34.0367 86.1739 34.124 86.1739 34.5079C86.1739 35.2087 85.9778 35.3233 84.847 35.2837L84.2534 35.2629L84.2337 34.4939L84.2139 33.725H85.0225C85.7879 33.725 85.8403 33.7339 86.0025 33.8928Z" fill="white"/>
<path fill-rule="evenodd" clip-rule="evenodd" d="M52.8889 41.6046C51.5748 41.7316 49.6311 42.0405 49.531 42.1382C49.5044 42.1642 49.633 42.6083 49.8169 43.125L50.1511 44.0645L50.9905 43.9202C51.4521 43.8408 52.2404 43.7391 52.7422 43.6941C53.8684 43.5931 54.3113 43.6571 54.5933 43.9616C54.76 44.1415 54.7753 44.2018 54.7753 44.6759C54.7753 45.1712 54.7659 45.2036 54.5602 45.4171C54.4247 45.5577 53.8431 45.8965 52.9882 46.3328C50.8587 47.4197 50.2957 47.8184 49.9478 48.4852C49.6488 49.0585 49.5995 49.4115 49.5638 51.2289L49.5298 52.9608H53.5095H57.4891V51.9249V50.8891H54.7989H52.1087L52.1541 50.3549C52.2088 49.7125 52.4137 49.2305 52.7337 48.9918C52.8573 48.8996 53.613 48.4795 54.413 48.0583C56.0593 47.1914 56.3568 47.0053 56.7321 46.607C57.2978 46.0067 57.5011 45.1823 57.3713 44.0143C57.2205 42.6569 56.5685 41.9679 55.1734 41.6919C54.8346 41.6249 53.2898 41.5658 52.8889 41.6046ZM62.5527 41.6062C60.5536 41.8111 59.5391 42.653 59.2385 44.3566C59.0842 45.2309 59.1314 50.1493 59.2996 50.7272C59.6498 51.9306 60.3358 52.5908 61.5982 52.9393C61.9525 53.0371 62.2762 53.0567 63.5455 53.0567C64.8149 53.0567 65.1385 53.0371 65.4928 52.9393C66.7692 52.5869 67.4546 51.9191 67.7965 50.6948C67.9011 50.3205 67.9141 49.9488 67.9141 47.3283C67.9141 44.6675 67.9024 44.3419 67.7927 43.9618C67.4329 42.7149 66.6745 42.0363 65.2996 41.7309C64.8135 41.6229 63.1334 41.5466 62.5527 41.6062ZM73.0438 41.6048C72.9164 41.6195 72.5143 41.6627 72.1502 41.7008C71.3719 41.7822 69.7195 42.0711 69.6596 42.1362C69.6367 42.1611 69.7708 42.6039 69.9574 43.1202L70.2969 44.0589L71.1574 43.9173C73.0249 43.6102 74.1175 43.5731 74.5696 43.8017C74.9294 43.9837 75.0818 44.6597 74.873 45.1485C74.7368 45.4674 74.4762 45.6461 73.1929 46.2999C70.6902 47.575 70.2868 47.8911 69.9165 48.867C69.7878 49.2064 69.7735 49.3972 69.7497 51.0995L69.7236 52.9608H73.6673H77.6109V51.9249V50.8891H74.9633H72.3157V50.415C72.3157 49.3919 72.5884 49.0787 74.2087 48.2405C76.4562 47.078 76.9653 46.7021 77.3182 45.9452C77.4633 45.6338 77.5013 45.4408 77.5288 44.8722C77.6186 43.0184 77.0122 42.0886 75.4776 41.7266C75.0704 41.6305 73.4998 41.5519 73.0438 41.6048ZM82.4759 41.6341C81.3927 41.7763 80.4703 42.2011 80.0361 42.758C79.7525 43.1218 79.4814 43.7415 79.3864 44.2433C79.3227 44.5799 79.2988 45.44 79.2988 47.3931C79.2988 49.7581 79.3131 50.1396 79.4185 50.5788C79.7278 51.8678 80.44 52.5801 81.7809 52.9418C82.4133 53.1124 84.9935 53.1096 85.6199 52.9376C86.9602 52.5698 87.6933 51.8194 87.9694 50.533C88.1162 49.8494 88.1122 44.8745 87.9643 44.1695C87.6849 42.8372 86.8462 42.0225 85.4486 41.7259C84.8864 41.6067 83.1048 41.5517 82.4759 41.6341ZM64.7381 43.7681C64.9566 43.8716 65.0641 43.9787 65.1798 44.2085C65.3324 44.5116 65.3327 44.5169 65.3327 47.3283V50.1445L65.1672 50.4682C65.0405 50.716 64.9325 50.8261 64.7064 50.9376C64.445 51.0665 64.3115 51.0833 63.5455 51.0833C62.7796 51.0833 62.646 51.0665 62.3847 50.9376C62.1586 50.8261 62.0506 50.716 61.9239 50.4682L61.7584 50.1445L61.7369 47.6668C61.7146 45.0763 61.7614 44.3862 61.9793 44.0953C62.2926 43.677 62.7002 43.5653 63.7658 43.6056C64.2866 43.6253 64.5181 43.664 64.7381 43.7681ZM84.8443 43.7547C85.0727 43.8535 85.1863 43.9559 85.3014 44.1668C85.4533 44.4451 85.4546 44.4687 85.4745 47.1239C85.4966 50.0879 85.471 50.3671 85.145 50.7302C84.8711 51.0353 84.5695 51.0997 83.5381 51.0731C82.5361 51.0473 82.2992 50.9594 82.0788 50.5312C81.9522 50.2853 81.9464 50.1451 81.9464 47.3283C81.9464 44.499 81.9516 44.374 82.0788 44.1628C82.3632 43.6906 82.7618 43.5658 83.8721 43.6016C84.3628 43.6174 84.621 43.6581 84.8443 43.7547Z" fill="white"/>
</svg>
