<svg width="80" height="49" viewBox="0 0 80 49" fill="none" xmlns="http://www.w3.org/2000/svg">
<path fill-rule="evenodd" clip-rule="evenodd" d="M9.83838 0.860286C9.83838 1.70572 10.1897 3.09935 10.6413 4.04505C11.5675 5.98453 13.3876 7.60964 15.3936 8.28799C15.4933 8.32177 15.5013 8.48071 15.5013 10.4526C15.5013 11.6231 15.4876 12.5807 15.4709 12.5807C15.2789 12.5807 13.6599 12.9469 13.0082 13.1377C9.9674 14.0279 7.31741 15.6334 5.06598 17.9493C2.3766 20.7156 0.763472 24.0055 0.143754 27.9881C0.00562896 28.8759 -0.0460757 31.0376 0.0471158 32.0299C0.381165 35.5874 1.71398 38.8899 3.94368 41.6848C4.58463 42.4882 5.93419 43.8405 6.72736 44.4742C13.7904 50.1173 23.818 49.7956 30.4793 43.7121C33.6484 40.8177 35.6354 36.986 36.2203 32.6411C36.3659 31.5591 36.3673 29.3726 36.223 28.2757C35.4683 22.5377 32.218 17.6667 27.2272 14.7945C25.5827 13.8481 23.2638 12.9979 21.5335 12.7068C21.3134 12.6698 21.0707 12.6257 20.9941 12.6088L20.8548 12.578L20.871 10.4492L20.8872 8.32041L21.4412 8.08665C23.1927 7.34765 24.7805 5.87236 25.6254 4.19912C26.0754 3.30815 26.4369 1.95014 26.4706 1.02521L26.4885 0.532171L23.9567 0.516085L21.4247 0.5L21.3817 0.844755C21.2452 1.93905 20.5925 2.85049 19.5946 3.34056C18.6417 3.80845 17.6905 3.81486 16.7418 3.35967C15.8446 2.92919 15.1377 2.00123 14.9948 1.06625C14.9602 0.840318 14.9224 0.620794 14.9108 0.578393C14.8943 0.518366 14.3321 0.501356 12.364 0.501356H9.83838V0.860286ZM41.9032 0.581289C41.2119 0.778627 40.8185 1.16831 40.6486 1.82392C40.5102 2.35807 40.5107 5.45014 40.6492 5.91723C40.7583 6.28497 41.0817 6.67934 41.411 6.84605C42.1869 7.23894 43.8972 7.14994 45.1853 6.64982L45.5392 6.51239V4.83187V3.15142H44.2158H42.8924V3.7369V4.32238H43.4772H44.062V5.02453C44.062 5.62141 44.0467 5.73253 43.96 5.76587C43.9038 5.78744 43.5922 5.83496 43.2675 5.8715C42.5777 5.94915 42.2406 5.87489 42.1103 5.6166C42.054 5.50505 42.0322 5.04339 42.0316 3.9449C42.0306 2.29422 42.0477 2.11321 42.2224 1.92543C42.4806 1.64797 42.9533 1.63189 44.8328 1.83656L45.142 1.87021L45.2531 1.33446C45.3143 1.03981 45.3471 0.781523 45.3261 0.760385C45.1518 0.585911 42.3928 0.441514 41.9032 0.581289ZM46.955 3.79933V7.03562L49.1555 7.01947L51.356 7.00326L51.3736 6.40238L51.3912 5.80149H49.9117H48.4322V5.03235V4.26328L49.7095 4.24658L50.9867 4.22994L51.0598 3.76772C51.0999 3.5135 51.1346 3.24307 51.1367 3.16683L51.1406 3.02816H49.7864H48.4322V2.41187V1.79557H49.8144H51.1965L51.2291 1.59528C51.247 1.48509 51.2898 1.23043 51.3242 1.02927C51.3587 0.828177 51.3868 0.640947 51.3868 0.613275C51.3868 0.585603 50.3896 0.562985 49.1709 0.562985H46.955V3.79933ZM52.6794 3.79348V7.03408H53.418H54.1567V5.73986V4.44564H54.5724H54.9881L55.5755 5.72445L56.1629 7.00326L56.9756 7.02046C57.5351 7.03229 57.7883 7.01658 57.7883 6.96999C57.7883 6.93276 57.483 6.31117 57.1098 5.58856C56.458 4.32633 56.4369 4.27339 56.5712 4.23906C56.792 4.18267 57.1639 3.84136 57.3097 3.56144C57.4135 3.36244 57.4488 3.16677 57.4685 2.68181C57.502 1.85862 57.3866 1.4388 57.0281 1.07981C56.5987 0.649944 56.3723 0.606865 54.3875 0.577838L52.6794 0.552816V3.79348ZM58.8496 3.78146L58.8655 7.00326H59.5734H60.2812L60.312 4.9727L60.3428 2.94213L61.011 4.3564C61.3785 5.13423 61.7185 5.83311 61.7664 5.90934C61.8439 6.03254 61.9039 6.04801 62.3037 6.04801H62.7538L63.478 4.52268C63.8764 3.68378 64.2271 2.97103 64.2576 2.9388C64.2904 2.9041 64.313 3.72569 64.313 4.95717V7.03408H65.0208H65.7287V3.79687V0.559719L64.8269 0.576729L63.9252 0.5938L63.1188 2.33385C62.6753 3.29083 62.2986 4.07371 62.2817 4.07352C62.2648 4.0734 61.8901 3.2904 61.4491 2.33354L60.6472 0.5938L59.7404 0.576729L58.8336 0.559657L58.8496 3.78146ZM68.8973 0.640022C68.5067 1.70245 66.7135 6.88075 66.7135 6.94613C66.7135 7.02336 66.8371 7.03507 67.4983 7.02052L68.2831 7.00326L68.4746 6.4486L68.6662 5.89393L69.7496 5.87711L70.833 5.86028L71.0104 6.43177L71.1877 7.00326L71.9975 7.02046C72.4429 7.02989 72.8073 7.01898 72.8073 6.99612C72.8073 6.97331 72.3046 5.51652 71.6903 3.75878L70.5733 0.562985H69.7495C69.1465 0.562985 68.918 0.583631 68.8973 0.640022ZM73.7588 0.640022C73.7426 0.682423 73.7366 2.13146 73.7454 3.86016L73.7614 7.00326H74.4692H75.1771L75.2079 5.04376L75.2386 3.08431L76.2799 4.88968C76.8526 5.88266 77.3744 6.77222 77.4395 6.86651L77.558 7.0379L78.2757 7.02058L78.9934 7.00326V3.79853V0.5938L78.271 0.576421L77.5486 0.559103L77.5324 2.51399L77.5161 4.46881L76.3472 2.5159L75.1782 0.562985H74.4833C73.984 0.562985 73.78 0.584679 73.7588 0.640022ZM55.8522 1.94687C55.9838 2.07858 56.0033 2.1537 56.0033 2.5289C56.0033 2.89326 55.9808 2.98582 55.8573 3.12954C55.7151 3.29508 55.6919 3.30001 54.934 3.32528L54.1567 3.35116V2.5734V1.79557H54.9289C55.6667 1.79557 55.7078 1.80229 55.8522 1.94687ZM70.1236 3.27468C70.3148 3.90176 70.4862 4.46333 70.5046 4.52268C70.5353 4.62147 70.473 4.63053 69.7645 4.63053C69.3391 4.63053 68.991 4.60539 68.991 4.57463C68.991 4.52718 69.6135 2.42456 69.7024 2.17195C69.7189 2.12474 69.7423 2.097 69.7543 2.11032C69.7663 2.12363 69.9325 2.6476 70.1236 3.27468ZM56.4416 8.45938C55.6935 8.58381 55.1798 8.94219 54.8821 9.54751C54.6862 9.94583 54.6799 9.98243 54.6799 10.7304C54.6799 11.6333 54.7736 11.9582 55.1525 12.3698C55.5643 12.8171 55.8653 12.9064 57.1112 12.9508C58.3222 12.994 58.5261 13.0523 58.6434 13.3892C58.741 13.6697 58.7276 14.1 58.6136 14.3406C58.4549 14.6753 58.1198 14.7994 57.3749 14.7994C56.8474 14.7994 55.6809 14.6465 55.2254 14.5177C55.105 14.4837 55.0741 14.5394 54.865 15.1677C54.7393 15.5456 54.6487 15.8672 54.6639 15.8824C54.7219 15.9405 55.8145 16.1502 56.3856 16.2129C58.6635 16.463 60.0063 15.9623 60.3824 14.7225C60.4907 14.3653 60.5074 14.183 60.4851 13.599C60.461 12.9684 60.4397 12.8639 60.2617 12.5018C60.0428 12.0566 59.7935 11.8313 59.3045 11.6362C59.0417 11.5314 58.8178 11.5067 57.973 11.4888C56.7955 11.4638 56.7256 11.4533 56.559 11.2741C56.4586 11.1663 56.4341 11.0568 56.4341 10.7162C56.4341 9.7806 56.5979 9.74467 59.5734 10.0267L59.9735 10.0647L60.2131 9.40589C60.3964 8.90164 60.4344 8.73573 60.3749 8.69888C60.233 8.61112 57.7956 8.38678 57.1112 8.39856C56.925 8.4017 56.6237 8.42912 56.4416 8.45938ZM67.4829 8.42968C66.3131 8.56471 65.6824 9.00918 65.4042 9.89461C65.2732 10.3115 65.267 10.4288 65.2673 12.4883C65.2675 14.6086 65.27 14.6514 65.4121 15.0047C65.6726 15.6525 66.1048 16.0095 66.8375 16.1825C67.823 16.415 69.6414 16.215 70.8141 15.7449L71.2069 15.5874V13.5911V11.5947H69.6373H68.0677V12.3034V13.0121H68.7756H69.4834V13.8398V14.6674L69.1295 14.7474C68.9349 14.7914 68.4647 14.8281 68.0846 14.8289C67.4109 14.8301 67.3894 14.826 67.2229 14.6594L67.0521 14.4886L67.0351 12.5948C67.0159 10.4404 67.0431 10.2404 67.3868 10.0085C67.5731 9.88278 67.6667 9.86903 68.3384 9.86885C68.7481 9.86873 69.4378 9.91365 69.8711 9.96863C70.3043 10.0236 70.675 10.0523 70.6949 10.0324C70.7403 9.98693 71.0336 8.75052 71.0056 8.72248C70.9616 8.67842 69.7216 8.51522 68.9667 8.45415C68.1933 8.39159 67.8608 8.38611 67.4829 8.42968ZM40.6765 12.3379V16.1626L42.7847 16.1407C45.1201 16.1164 45.2505 16.0977 45.8259 15.7028C46.2321 15.4239 46.5011 14.8955 46.593 14.1956C46.6962 13.4081 46.6319 10.4191 46.503 10.0179C46.3006 9.3882 45.8692 8.93627 45.2811 8.73776C44.7409 8.55546 44.218 8.51411 42.4462 8.51368L40.6765 8.51319V12.3379ZM48.1245 12.3342V16.1552H50.7405H53.3565V15.4465V14.7378H51.6022H49.848V13.8452V12.9527L51.3714 12.9361L52.8948 12.9197L52.9986 12.3034C53.0557 11.9644 53.1042 11.6386 53.1063 11.5793C53.11 11.4792 52.9931 11.4714 51.4791 11.4714H49.848V10.7318V9.99229H51.5043H53.1607L53.2319 9.54548C53.271 9.2997 53.3252 8.96696 53.3522 8.80593L53.4012 8.51319H50.7628H48.1245V12.3342ZM61.9739 12.3342V16.1552H62.8357H63.6974V12.3342V8.51319H62.8357H61.9739V12.3342ZM72.7457 12.3342V16.1552H73.6068H74.4678L74.4839 13.8132L74.5 11.4712L75.8542 13.8126L77.2083 16.1541L78.1163 16.1547L79.0242 16.1552V12.3342V8.51319H78.1632H77.3022L77.286 10.8667L77.2699 13.2203L75.8611 10.8667L74.4523 8.51319H73.599H72.7457V12.3342ZM44.4336 10.0693C44.8399 10.2745 44.8546 10.3545 44.8587 12.3824C44.8615 13.7793 44.8442 14.1683 44.772 14.3414C44.6326 14.6754 44.4099 14.7378 43.3561 14.7378H42.4616V12.3342V9.93066H43.3103C44.068 9.93066 44.1884 9.94552 44.4336 10.0693ZM20.3948 17.4759C21.2161 17.6276 22.2753 17.9193 22.9107 18.1687C27.4775 19.9609 30.6635 23.9862 31.2876 28.7521C31.4074 29.6678 31.4088 31.2294 31.2904 32.1295C30.6093 37.3107 26.8743 41.6222 21.8006 43.0842C20.5599 43.4417 19.7428 43.5459 18.1788 43.5459C16.6149 43.5459 15.7978 43.4417 14.5571 43.0842C10.1349 41.81 6.69098 38.3886 5.43597 34.023C5.31822 33.6135 5.22189 33.2387 5.22189 33.1902C5.22189 33.1149 5.59429 33.1043 7.77863 33.1181L10.3353 33.1342L10.5401 33.6426C11.5755 36.214 14.0721 38.1542 16.9459 38.6208C17.2517 38.6705 17.661 38.7113 17.8557 38.7114L18.2096 38.7116V36.1971V33.6825L17.7494 33.6162C16.5128 33.4378 15.411 32.4663 15.1032 31.2831C14.9808 30.8125 14.9826 30.0105 15.107 29.5863C15.4523 28.4095 16.4805 27.476 17.6256 27.2995C17.8621 27.263 18.0907 27.2235 18.1334 27.2118C18.1945 27.1948 18.2076 26.6581 18.1949 24.6772L18.1788 22.1641L17.7172 22.1851C14.6125 22.3259 11.6984 24.4021 10.502 27.3256L10.3066 27.8032H7.76422C5.9484 27.8032 5.22189 27.7837 5.22189 27.735C5.22189 27.6976 5.26473 27.4965 5.31718 27.2882C6.24349 23.6059 8.77844 20.4493 12.1774 18.7456C13.696 17.9845 14.8624 17.633 16.7631 17.364C17.2381 17.2967 19.8629 17.3776 20.3948 17.4759ZM41.3353 21.4083C40.6313 23.4171 40.0395 25.1231 40.0202 25.1994L39.9851 25.338H40.9357H41.8864L42.097 24.6611L42.3077 23.9841L43.5798 23.9832L44.852 23.9822L45.0776 24.6601L45.3032 25.338H46.2522C46.7741 25.338 47.2008 25.3311 47.2003 25.3226C47.1998 25.3142 46.6071 23.6155 45.8831 21.5478L44.5667 17.7884L43.5911 17.7722L42.6155 17.7559L41.3353 21.4083ZM47.9806 21.4708C48.4314 23.513 48.8136 25.2187 48.8297 25.261C48.8518 25.3187 49.1416 25.338 49.9872 25.338H51.1151L51.7517 22.8883C52.1018 21.5409 52.4078 20.3849 52.4316 20.3194C52.4808 20.1845 52.4198 19.9746 53.2534 23.1502L53.8195 25.3072L54.9436 25.324C55.8584 25.3377 56.0737 25.3248 56.1005 25.2551C56.1186 25.2079 56.4995 23.5086 56.947 21.4789L57.7607 17.7884L56.8426 17.7713C56.3376 17.762 55.9133 17.7654 55.8997 17.7791C55.8861 17.7927 55.6649 19.0206 55.4081 20.5078C55.1513 21.995 54.9237 23.2315 54.9023 23.2555C54.8809 23.2795 54.547 22.1078 54.1603 20.6517L53.4571 18.0041L52.4681 18.0046L51.4791 18.0051L50.7746 20.6637C50.2887 22.4974 50.0552 23.286 50.0221 23.2054C49.9956 23.1411 49.7778 21.9376 49.538 20.5309C49.2982 19.1242 49.0879 17.9247 49.0707 17.8655C49.0427 17.7688 48.9418 17.7576 48.1002 17.7576H47.1608L47.9806 21.4708ZM60.2948 18.0195C60.1362 18.4798 57.7963 25.1221 57.7535 25.2339C57.7153 25.3336 57.7818 25.34 58.6867 25.3242L59.6611 25.3072L59.8721 24.6447L60.0831 23.9822H61.3538H62.6244L62.8418 24.6447L63.0592 25.3072L63.9939 25.3242C64.6368 25.3359 64.9285 25.3203 64.9285 25.2742C64.9285 25.2373 64.3421 23.531 63.6254 21.4824L62.3223 17.7576H61.3537H60.3851L60.2948 18.0195ZM66.0364 21.5478V25.338H66.8982H67.7599V23.8256V22.3132L68.2575 22.3311L68.7551 22.349L69.439 23.8435L70.123 25.338H71.0958C71.6309 25.338 72.0687 25.3275 72.0687 25.3147C72.0687 25.3019 71.7086 24.5955 71.2685 23.745C70.8284 22.8946 70.4683 22.1867 70.4683 22.1719C70.4683 22.1572 70.6151 22.0621 70.7947 21.9606C71.4323 21.6003 71.6515 21.1376 71.6617 20.1303C71.6733 18.9861 71.3922 18.377 70.6975 18.0409C70.2099 17.805 69.7357 17.7586 67.8061 17.7581L66.0364 17.7576V21.5478ZM73.2997 21.5478V25.338L74.977 25.3361C75.8995 25.3351 76.8501 25.3088 77.0893 25.2776C78.2774 25.1229 78.8421 24.6716 79.0569 23.705C79.1403 23.3298 79.1531 22.9413 79.1345 21.354C79.1132 19.5331 79.1061 19.4371 78.9685 19.09C78.7859 18.6302 78.4866 18.2978 78.0712 18.0944C77.52 17.8244 76.9557 17.7621 75.0386 17.7598L73.2997 17.7576V21.5478ZM69.7556 19.3553C69.9039 19.4949 69.9142 19.5414 69.9123 20.064C69.9094 20.9153 69.842 20.9623 68.6257 20.9623H67.7599V20.0643V19.1662L68.6784 19.1861C69.5524 19.2049 69.6047 19.2132 69.7556 19.3553ZM76.9593 19.2624C77.3803 19.4385 77.3907 19.4893 77.4126 21.4599C77.4398 23.9275 77.4692 23.8767 75.9956 23.9108L75.0848 23.9318V21.5535V19.1751H75.9177C76.497 19.1751 76.8142 19.2016 76.9593 19.2624ZM44.0548 21.0184C44.2957 21.812 44.4928 22.4845 44.4928 22.5129C44.4928 22.5414 44.0744 22.5647 43.5629 22.5647C42.7107 22.5647 42.6364 22.5559 42.6735 22.4593C42.6957 22.4013 42.8929 21.7564 43.1116 21.0264C43.5589 19.5335 43.564 19.518 43.5946 19.5515C43.6068 19.5648 43.8139 20.2249 44.0548 21.0184ZM61.8221 21.024C62.0519 21.7866 62.2523 22.4453 62.2674 22.4877C62.2886 22.5471 62.0811 22.5647 61.3578 22.5647C60.4953 22.5647 60.423 22.5561 60.4499 22.4569C60.6797 21.6064 61.3331 19.5577 61.3636 19.5919C61.386 19.6168 61.5922 20.2613 61.8221 21.024ZM40.1226 27.019C40.1226 27.0283 40.4549 28.5437 40.8612 30.3865C41.2674 32.2294 41.5998 33.7609 41.5998 33.79C41.5998 33.8191 42.0694 33.8429 42.6433 33.8429H43.6868L43.7483 33.6199C43.7822 33.4972 44.0535 32.4594 44.3513 31.3137C44.649 30.1681 44.9014 29.2395 44.9121 29.2502C44.9228 29.2609 45.2001 30.2917 45.5283 31.5409L46.125 33.8121L47.1509 33.829C48.088 33.8444 48.1797 33.8364 48.2106 33.7365C48.2768 33.5225 49.6633 27.1812 49.6633 27.0924C49.6633 27.0174 49.5218 27.002 48.8335 27.002C48.0233 27.002 48.003 27.0053 47.9725 27.1407C47.9554 27.217 47.7582 28.3471 47.5344 29.6521C47.3105 30.9571 47.1197 32.033 47.1103 32.0429C47.1009 32.0529 47.0465 31.8865 46.9894 31.6732C46.9322 31.4598 46.6444 30.3839 46.3498 29.2823L45.814 27.2794L44.9181 27.2624L44.0221 27.2454L43.381 29.646C43.0284 30.9663 42.7309 32.0377 42.7201 32.0269C42.7006 32.0074 41.846 27.1403 41.846 27.049C41.846 27.0232 41.4583 27.002 40.9843 27.002C40.5103 27.002 40.1226 27.0097 40.1226 27.019ZM50.7713 30.4225V33.8429H51.5714H52.3716V30.4225V27.002H51.5714H50.7713V30.4225ZM53.8284 27.0431C53.8058 27.0657 53.7874 28.6049 53.7874 30.4636V33.8429H54.556H55.3246L55.3408 31.741L55.357 29.6391L56.5654 31.7256L57.7738 33.8121L58.5812 33.8293L59.3887 33.8465V30.4242V27.002H58.6201H57.8515L57.8353 29.082L57.8191 31.162L56.5693 29.082L55.3194 27.002H54.5944C54.1957 27.002 53.8509 27.0205 53.8284 27.0431ZM60.866 30.4206V33.8429H61.6046H62.3433V31.7352C62.3433 30.4789 62.3657 29.6511 62.3988 29.686C62.4294 29.7182 62.9875 30.6666 63.6391 31.7937L64.8237 33.8429H65.6147H66.4058V30.4225V27.002H65.6371H64.8686L64.8523 29.0777L64.8362 31.1534L63.6022 29.0931L62.3682 27.0328L61.6171 27.0155L60.866 26.9982V30.4206ZM67.883 30.4225V33.8429H70.2221H72.5611V33.1958V32.5487H70.9915H69.4219V31.7487V30.9487L70.7914 30.9321L72.161 30.9155L72.2557 30.2992L72.3504 29.6829L70.8861 29.6664L69.4219 29.6499V28.9742V28.2985L70.9126 28.2819L72.4033 28.2654L72.4775 27.8032C72.5183 27.549 72.5538 27.2647 72.5564 27.1715L72.5611 27.002H70.2221H67.883V30.4225ZM73.8999 27.0374C73.8745 27.0632 73.8537 28.6049 73.8537 30.4636V33.8429H74.6539H75.4541V32.487V31.1312L75.9003 31.1331L76.3466 31.135L76.9611 32.489L77.5755 33.8429H78.4603C79.1439 33.8429 79.338 33.8254 79.3137 33.7659C79.2964 33.7235 78.9653 33.0787 78.5778 32.333L77.8732 30.9771L78.1115 30.8618C78.4193 30.7128 78.7981 30.2801 78.8902 29.9721C78.93 29.8391 78.9626 29.4364 78.9626 29.0772C78.9626 28.2537 78.8346 27.8664 78.443 27.5049C77.9903 27.0871 77.7764 27.0487 75.7311 27.0177C74.7493 27.0028 73.9252 27.0116 73.8999 27.0374ZM77.2439 28.4764C77.4065 28.6393 77.4238 28.6957 77.4238 29.0649C77.4238 29.4927 77.318 29.7935 77.144 29.8603C77.0892 29.8814 76.6866 29.8986 76.2492 29.8986H75.4541V29.0974V28.2962H76.259H77.0639L77.2439 28.4764ZM43.9696 35.3872C43.123 35.4568 42.1634 35.5956 41.1713 35.7921C40.7494 35.8756 40.3994 35.9496 40.3934 35.9565C40.3606 35.9951 41.1635 38.1245 41.2079 38.1167C43.7423 37.6684 45.1841 37.5704 45.6552 37.8143C46.0022 37.9939 46.0932 38.1828 46.0932 38.723C46.0932 39.2787 46.0111 39.4912 45.7086 39.7183C45.5985 39.8009 44.9129 40.18 44.1851 40.5607C42.3899 41.4996 41.8807 41.8134 41.439 42.253C41.0034 42.6867 40.8412 42.9755 40.6653 43.6316C40.5544 44.0447 40.5346 44.3427 40.5077 45.9993L40.4768 47.8944H44.7623H49.0478V46.7543V45.6141H46.1763H43.3049L43.3443 45.0749C43.395 44.3823 43.4666 44.1373 43.7134 43.813C43.9499 43.5023 44.204 43.3434 46.0009 42.3827C46.7457 41.9845 47.5384 41.52 47.7623 41.3503C48.7167 40.6275 49.0474 39.8003 48.9655 38.3401C48.8692 36.6233 48.1856 35.8119 46.5549 35.4787C45.9771 35.3607 44.7997 35.319 43.9696 35.3872ZM54.6245 35.3914C52.624 35.584 51.5576 36.3931 51.1325 38.0407C51.008 38.5228 50.9973 38.7389 50.972 41.2554C50.9382 44.6181 51.002 45.3108 51.4288 46.2198C51.6441 46.6786 52.2917 47.3278 52.7482 47.5427C53.4857 47.8898 54.5338 48.0783 55.7263 48.0783C58.4054 48.0783 59.8101 47.2707 60.2801 45.46C60.4343 44.8661 60.4947 43.8081 60.4947 41.7007C60.4947 38.8085 60.4085 38.0305 59.9923 37.1709C59.7673 36.7061 59.2571 36.1736 58.8001 35.9267C57.9061 35.4437 56.2657 35.2334 54.6245 35.3914ZM74.2148 35.3883C72.4283 35.5779 71.3908 36.369 71.0543 37.798C70.9143 38.3927 70.93 39.5852 71.0844 40.0858C71.2275 40.5495 71.6086 41.0206 72.0505 41.2799L72.3258 41.4415L71.9778 41.6285C71.5207 41.8741 71.0663 42.3769 70.9004 42.8206C70.7179 43.309 70.6343 44.0579 70.6814 44.7821C70.7546 45.909 70.9909 46.51 71.5733 47.0498C72.425 47.8393 73.6658 48.1351 75.8199 48.062C77.6239 48.0009 78.6017 47.6743 79.2964 46.9006C79.8803 46.2504 80.0276 45.6896 79.996 44.2373C79.9759 43.3151 79.955 43.1344 79.8328 42.8256C79.6539 42.3738 79.1957 41.8702 78.7413 41.6261L78.3888 41.4368L78.593 41.331C78.96 41.141 79.3688 40.701 79.553 40.2976C79.7088 39.9566 79.7311 39.8289 79.7518 39.1624C79.7809 38.2303 79.691 37.6751 79.419 37.1068C79.0501 36.3362 78.3363 35.7872 77.3852 35.5428C76.6003 35.341 75.2705 35.2762 74.2148 35.3883ZM63.7861 36.8035C62.7725 37.5167 61.9082 38.1351 61.8655 38.1777C61.8029 38.2402 61.9038 38.4202 62.382 39.0998C62.7089 39.5642 62.9931 39.9439 63.0137 39.9435C63.0342 39.9432 63.5358 39.6258 64.1283 39.2382L65.2055 38.5335L65.2212 43.214L65.237 47.8944H66.6523H68.0677V41.7007V35.5069H66.8483H65.629L63.7861 36.8035ZM56.9801 37.8017C57.1911 37.9104 57.2988 38.0211 57.4166 38.2501L57.5729 38.5542V41.699V44.8438L57.419 45.1519C57.2959 45.3984 57.2036 45.4909 56.9573 45.6141C56.6686 45.7587 56.5906 45.7681 55.6955 45.7677C54.8287 45.7672 54.718 45.7546 54.485 45.6304C54.1894 45.4727 54.0173 45.2552 53.9113 44.9054C53.8117 44.5767 53.7542 40.2365 53.836 39.2243C53.9494 37.8202 54.2678 37.5789 55.9361 37.6327C56.5863 37.6536 56.7414 37.6787 56.9801 37.8017ZM76.4769 37.7602C76.8364 38.0291 76.8989 38.1801 76.9216 38.8331C76.9486 39.6138 76.8302 39.9274 76.4287 40.138C76.1918 40.2624 76.0724 40.2783 75.3617 40.2799C74.6434 40.2815 74.5344 40.2672 74.2953 40.1401C73.9196 39.9404 73.7952 39.6432 73.7935 38.9408C73.792 38.3542 73.873 38.0738 74.1066 37.8558C74.3309 37.6466 74.561 37.6067 75.4651 37.6204C76.2077 37.6316 76.3271 37.6481 76.4769 37.7602ZM76.5025 42.6966C76.8421 42.8492 77.0946 43.1362 77.1597 43.4435C77.1865 43.5696 77.2082 43.9917 77.208 44.3815C77.2076 45.2532 77.1136 45.4588 76.6179 45.6724C76.3305 45.7961 76.2223 45.8054 75.2795 45.7876C74.3802 45.7706 74.2234 45.7522 74.0076 45.6389C73.6633 45.4582 73.5408 45.2157 73.5012 44.637C73.3871 42.9718 73.826 42.5106 75.4849 42.5525C76.0666 42.5672 76.2828 42.5978 76.5025 42.6966Z" fill="white"/>
</svg>
