<svg width="25" height="24" viewBox="0 0 25 24" fill="none" xmlns="http://www.w3.org/2000/svg">
<g clip-path="url(#clip0_737_47)">
<path d="M24 6.50701C23.8641 6.02225 23.5994 5.58336 23.234 5.23702C22.8583 4.88002 22.3978 4.62465 21.896 4.49501C20.018 4.00001 12.494 4.00002 12.494 4.00002C9.35734 3.96433 6.22144 4.12129 3.10401 4.47001C2.6022 4.60923 2.14257 4.8703 1.76601 5.23002C1.39601 5.58602 1.12801 6.02502 0.988007 6.50602C0.6517 8.31776 0.488299 10.1574 0.500007 12C0.488007 13.841 0.651007 15.68 0.988007 17.494C1.12501 17.973 1.39201 18.41 1.76301 18.763C2.13401 19.116 2.59601 19.371 3.10401 19.506C5.00701 20 12.494 20 12.494 20C15.6347 20.0358 18.7746 19.8788 21.896 19.53C22.3978 19.4004 22.8583 19.145 23.234 18.788C23.5993 18.4417 23.8637 18.0028 23.999 17.518C24.3441 15.707 24.5119 13.8666 24.5 12.023C24.526 10.1716 24.3584 8.32258 24 6.50602V6.50701ZM10.102 15.424V8.57701L16.362 12.001L10.102 15.424Z" fill="white"/>
</g>
<defs>
<clipPath id="clip0_737_47">
<rect width="24" height="24" fill="white" transform="translate(0.5)"/>
</clipPath>
</defs>
</svg>
